<svg xmlns="http://www.w3.org/2000/svg" width="66.78" height="177.03" viewBox="0 0 66.78 177.03">
  <defs>
    <style>
      .cls-1 {
        fill: #3fb1ac;
        fill-rule: evenodd;
      }
    </style>
  </defs>
  <path class="cls-1" d="M1283.21,7385.93h-1.05c-14.91,0-24.36,2.52-30.03,7.56-5.46,5.25-8.19,14.28-8.19,27.3v20.79c0,10.71-1.89,18.27-5.67,22.47-4.2,4.2-11.76,7.14-21.84,7.14v6.51c10.71,1.05,18.06,3.57,21.84,7.56a18.926,18.926,0,0,1,4.41,8.19,62.34,62.34,0,0,1,1.26,13.86v20.79c0,13.23,2.73,22.26,8.4,27.3,5.46,5.04,15.33,7.56,29.82,7.56h1.05v-5.46c-9.03,0-15.33-1.68-18.48-5.25-3.36-3.36-5.04-10.5-5.04-21.21v-14.07c0-7.98-.42-14.49-1.47-19.53-1.05-4.83-2.52-8.82-4.41-11.55-3.99-5.46-11.13-9.24-21.63-11.34,10.71-2.1,17.85-5.88,21.84-11.34,3.78-5.25,5.67-15.75,5.67-31.08v-14.07c0-10.5,1.68-17.64,4.83-21.21,3.57-3.57,9.87-5.46,18.69-5.46v-5.46Z" transform="translate(-1216.44 -7385.94)"/>
</svg>
