<svg id="_3.svg" data-name="3.svg" xmlns="http://www.w3.org/2000/svg" width="57" height="57" viewBox="0 0 57 57">
  <defs>
    <style>
    .cls-1, .cls-2 {
      fill: #ff6969;
    }

    .cls-2 {
      stroke: #fff;
      stroke-width: 1px;
      stroke-dasharray: 3 2;
    }

    .cls-3 {
      fill: #fff;
      fill-rule: evenodd;
    }
    </style>
  </defs>
  <circle class="cls-1" cx="28.5" cy="28.5" r="28.5"/>
  <circle class="cls-2" cx="28.438" cy="28.5" r="25.5"/>
  <path class="cls-3" d="M383.093,208.76a6.9,6.9,0,0,1,3.162.578,3.35,3.35,0,0,1,1.5,1.411,3.62,3.62,0,0,1,.394,1.717,10.2,10.2,0,0,1-.127,1.5,7.142,7.142,0,0,1-2.019,4.216,5.15,5.15,0,0,1-3.555,1.36,3.794,3.794,0,0,1-1.7-.357,3.316,3.316,0,0,1-1.822-2.3,4.37,4.37,0,0,1-.075-1.6h-3.4a4.056,4.056,0,0,0,.2,2.21,4.924,4.924,0,0,0,1.268,1.853,5.974,5.974,0,0,0,2.1,1.241,7.658,7.658,0,0,0,2.744.408,11.048,11.048,0,0,0,3.789-.612,9.923,9.923,0,0,0,2.914-1.615,8.425,8.425,0,0,0,1.982-2.295,7.986,7.986,0,0,0,.994-2.652,5.558,5.558,0,0,0,0-1.921,5.007,5.007,0,0,0-.658-1.768,4.628,4.628,0,0,0-1.273-1.36,4.33,4.33,0,0,0-1.877-.731l-0.362-.068,0.042-.238,0.4-.136a9.733,9.733,0,0,0,3.229-1.921,5.094,5.094,0,0,0,1.458-2.873,6.927,6.927,0,0,0,.019-2.414,4.3,4.3,0,0,0-.915-2.023,5,5,0,0,0-1.959-1.394,7.929,7.929,0,0,0-3.079-.527,9.832,9.832,0,0,0-3.417.527,7.682,7.682,0,0,0-2.376,1.36,6.434,6.434,0,0,0-1.494,1.836,7.419,7.419,0,0,0-.729,1.921h3.026a8.8,8.8,0,0,1,.842-2.074,4.454,4.454,0,0,1,1.075-1.275,3.416,3.416,0,0,1,1.267-.629,5.682,5.682,0,0,1,1.389-.17,4.011,4.011,0,0,1,1.869.391,2.917,2.917,0,0,1,1.158,1.054,3.723,3.723,0,0,1,.518,1.5,5.77,5.77,0,0,1-.054,1.751,5.336,5.336,0,0,1-.986,2.414,5.261,5.261,0,0,1-1.643,1.411,5.946,5.946,0,0,1-1.882.646,10.867,10.867,0,0,1-1.676.153Z" transform="translate(-356 -180)"/>
</svg>
