<svg xmlns="http://www.w3.org/2000/svg" width="22.5" height="22.5" viewBox="0 0 22.5 22.5">
  <defs>
    <style>
      .cls-1 {
        fill: #c10000;
        fill-rule: evenodd;
      }
    </style>
  </defs>
  <path id="heading015_ico01_v2.svg" class="cls-1" d="M155,625.531v-0.543s-0.688-.172-0.516-1.492a0.912,0.912,0,0,0-.573-1.158,0.747,0.747,0,0,0-.977.7s0.918-.172.976,0.516a0.685,0.685,0,0,1-.8.861,1.224,1.224,0,0,1-1.092-1.3,1.534,1.534,0,0,1,1.608-1.688,2.029,2.029,0,0,1,1.722,1.377,4.151,4.151,0,0,0-1.55-2.755,2.431,2.431,0,0,0-2.295-.458,0.8,0.8,0,0,0,.86.171,1.261,1.261,0,0,1,1.434.649c0.029,0.193-.231.385-0.687,0.442a0.68,0.68,0,0,1-1.148.057s-0.746-.115-0.689-0.574a0.9,0.9,0,0,0-1.091.345,1.838,1.838,0,0,1,2.009-2.067c2.239,0,3.042,2.468,3.042,2.468l0.488-1.138a1.567,1.567,0,1,1,.5,0l0.487,1.138s0.8-2.468,3.042-2.468a1.837,1.837,0,0,1,2.009,2.067,0.9,0.9,0,0,0-1.091-.345c0.058,0.459-.688.574-0.688,0.574a0.68,0.68,0,0,1-1.148-.057c-0.456-.057-0.717-0.249-0.688-0.442a1.262,1.262,0,0,1,1.434-.649,0.8,0.8,0,0,0,.861-0.171,2.432,2.432,0,0,0-2.3.458,4.147,4.147,0,0,0-1.549,2.755,2.028,2.028,0,0,1,1.722-1.377,1.535,1.535,0,0,1,1.608,1.688,1.224,1.224,0,0,1-1.092,1.3,0.685,0.685,0,0,1-.8-0.861c0.057-.688.975-0.516,0.975-0.516a0.747,0.747,0,0,0-.977-0.7,0.911,0.911,0,0,0-.572,1.158c0.171,1.32-.517,1.492-0.517,1.492v0.543a2.63,2.63,0,0,0-1.933,0h0Zm0,4.875v0.543s-0.688.172-.516,1.493a0.913,0.913,0,0,1-.573,1.158,0.748,0.748,0,0,1-.977-0.7s0.918,0.173.976-.516a0.685,0.685,0,0,0-.8-0.861,1.224,1.224,0,0,0-1.092,1.3,1.535,1.535,0,0,0,1.608,1.689,2.03,2.03,0,0,0,1.722-1.378,4.151,4.151,0,0,1-1.55,2.755,2.43,2.43,0,0,1-2.295.459,0.8,0.8,0,0,1,.86-0.172,1.262,1.262,0,0,0,1.434-.649c0.029-.193-0.231-0.384-0.687-0.442a0.68,0.68,0,0,0-1.148-.057s-0.746.115-.689,0.574a0.9,0.9,0,0,1-1.091-.344,1.837,1.837,0,0,0,2.009,2.066c2.239,0,3.042-2.468,3.042-2.468l0.488,1.138a1.567,1.567,0,1,0,.5,0l0.487-1.138s0.8,2.468,3.042,2.468a1.837,1.837,0,0,0,2.009-2.066,0.9,0.9,0,0,1-1.091.344c0.058-.459-0.688-0.574-0.688-0.574a0.68,0.68,0,0,0-1.148.057c-0.456.058-.717,0.249-0.688,0.442a1.263,1.263,0,0,0,1.434.649,0.8,0.8,0,0,1,.861.172,2.431,2.431,0,0,1-2.3-.459,4.147,4.147,0,0,1-1.549-2.755,2.029,2.029,0,0,0,1.722,1.378,1.536,1.536,0,0,0,1.608-1.689,1.224,1.224,0,0,0-1.092-1.3,0.685,0.685,0,0,0-.8.861c0.057,0.689.975,0.516,0.975,0.516a0.748,0.748,0,0,1-.977.7,0.912,0.912,0,0,1-.572-1.158c0.171-1.321-.517-1.493-0.517-1.493v-0.543a2.63,2.63,0,0,1-1.933,0h0Zm3.4-3.4h0.543s0.173-.689,1.493-0.516a0.913,0.913,0,0,0,1.158-.573,0.748,0.748,0,0,0-.7-0.977s0.172,0.919-.517.976a0.686,0.686,0,0,1-.861-0.8,1.225,1.225,0,0,1,1.3-1.092,1.535,1.535,0,0,1,1.688,1.609,2.031,2.031,0,0,1-1.377,1.722,4.151,4.151,0,0,0,2.755-1.55,2.434,2.434,0,0,0,.459-2.3,0.8,0.8,0,0,0-.172.861,1.261,1.261,0,0,1-.649,1.434c-0.192.029-.384-0.231-0.442-0.688a0.68,0.68,0,0,1-.057-1.148s0.115-.746.574-0.688a0.9,0.9,0,0,0-.344-1.091,1.837,1.837,0,0,1,2.066,2.009c0,2.238-2.468,3.042-2.468,3.042l1.138,0.487a1.567,1.567,0,1,1,0,.5l-1.138.488s2.468,0.8,2.468,3.041a1.837,1.837,0,0,1-2.066,2.009,0.9,0.9,0,0,0,.344-1.091c-0.459.058-.574-0.688-0.574-0.688a0.68,0.68,0,0,1,.057-1.148c0.058-.456.25-0.717,0.442-0.688a1.261,1.261,0,0,1,.649,1.434,0.8,0.8,0,0,0,.172.861,2.434,2.434,0,0,0-.459-2.3,4.151,4.151,0,0,0-2.755-1.55,2.032,2.032,0,0,1,1.377,1.723,1.534,1.534,0,0,1-1.688,1.608,1.225,1.225,0,0,1-1.3-1.092,0.685,0.685,0,0,1,.861-0.8c0.689,0.057.517,0.975,0.517,0.975a0.748,0.748,0,0,0,.7-0.977,0.913,0.913,0,0,0-1.158-.573c-1.32.172-1.493-.516-1.493-0.516h-0.543a2.63,2.63,0,0,0,0-1.933h0Zm-4.875,0h-0.543s-0.172-.689-1.492-0.516a0.912,0.912,0,0,1-1.158-.573,0.747,0.747,0,0,1,.7-0.977s-0.172.919,0.516,0.976a0.685,0.685,0,0,0,.861-0.8,1.225,1.225,0,0,0-1.3-1.092,1.536,1.536,0,0,0-1.688,1.609,2.032,2.032,0,0,0,1.377,1.722,4.151,4.151,0,0,1-2.755-1.55,2.434,2.434,0,0,1-.459-2.3,0.8,0.8,0,0,1,.173.861,1.26,1.26,0,0,0,.649,1.434c0.192,0.029.384-.231,0.441-0.688a0.68,0.68,0,0,0,.057-1.148s-0.114-.746-0.574-0.688a0.9,0.9,0,0,1,.345-1.091,1.837,1.837,0,0,0-2.066,2.009c0,2.238,2.468,3.042,2.468,3.042l-1.138.487a1.567,1.567,0,1,0,0,.5l1.138,0.488s-2.468.8-2.468,3.041a1.837,1.837,0,0,0,2.066,2.009,0.9,0.9,0,0,1-.345-1.091c0.46,0.058.574-.688,0.574-0.688a0.68,0.68,0,0,0-.057-1.148c-0.057-.456-0.249-0.717-0.441-0.688a1.26,1.26,0,0,0-.649,1.434,0.8,0.8,0,0,1-.173.861,2.434,2.434,0,0,1,.459-2.3,4.151,4.151,0,0,1,2.755-1.55,2.034,2.034,0,0,0-1.377,1.723,1.535,1.535,0,0,0,1.688,1.608,1.225,1.225,0,0,0,1.3-1.092,0.685,0.685,0,0,0-.861-0.8c-0.688.057-.516,0.975-0.516,0.975a0.747,0.747,0,0,1-.7-0.977,0.912,0.912,0,0,1,1.158-.573c1.32,0.172,1.492-.516,1.492-0.516h0.543a2.63,2.63,0,0,1,0-1.933h0Zm2.438-1.1a2.065,2.065,0,1,1-2.064,2.065,2.065,2.065,0,0,1,2.064-2.065h0Z" transform="translate(-144.719 -616.719)"/>
</svg>
