<svg id="point.svg" xmlns="http://www.w3.org/2000/svg" width="140" height="140" viewBox="0 0 140 140">
  <defs>
    <style>
      .cls-1 {
        fill: none;
        stroke: #fc8e1f;
        stroke-width: 4px;
      }

      .cls-2 {
        fill: #fc8e1f;
        fill-rule: evenodd;
      }
    </style>
  </defs>
  <circle id="楕円形" class="cls-1" cx="70" cy="70" r="68"/>
  <path id="POINT" class="cls-2" d="M1156.93,1050.67v-8.89h3.08a5.485,5.485,0,0,1,1.96.31,3.5,3.5,0,0,1,1.37.87,3.693,3.693,0,0,1,.81,1.37,5.48,5.48,0,0,1,.27,1.77,4.983,4.983,0,0,1-1.06,3.35,4.2,4.2,0,0,1-3.35,1.22h-3.08Zm-4.86-12.99v26.12h4.86v-8.99h3.08a12.1,12.1,0,0,0,4.1-.63,7.936,7.936,0,0,0,2.9-1.8,7.3,7.3,0,0,0,1.72-2.75,10.711,10.711,0,0,0,.56-3.53,10.118,10.118,0,0,0-.54-3.36,6.857,6.857,0,0,0-1.68-2.68,7.693,7.693,0,0,0-2.89-1.75,12.362,12.362,0,0,0-4.17-.63h-7.94Zm41.97,7.77a12.789,12.789,0,0,0-2.44-4.23,11.274,11.274,0,0,0-3.8-2.81,12.4,12.4,0,0,0-9.85,0,11.42,11.42,0,0,0-3.81,2.8,12.332,12.332,0,0,0-2.45,4.22,16.609,16.609,0,0,0,0,10.61,12.473,12.473,0,0,0,2.45,4.23,11.42,11.42,0,0,0,3.81,2.8,12.513,12.513,0,0,0,9.85,0,11.381,11.381,0,0,0,3.8-2.8,12.789,12.789,0,0,0,2.44-4.23,15.731,15.731,0,0,0,.87-5.31A15.556,15.556,0,0,0,1194.04,1045.45Zm-4.59,8.98a7.979,7.979,0,0,1-1.4,2.76,6.06,6.06,0,0,1-2.22,1.74,7.6,7.6,0,0,1-5.92,0,6.012,6.012,0,0,1-2.23-1.74,7.979,7.979,0,0,1-1.4-2.76,13.1,13.1,0,0,1-.49-3.7,12.959,12.959,0,0,1,.49-3.68,7.941,7.941,0,0,1,1.4-2.77,5.937,5.937,0,0,1,2.23-1.75,7.6,7.6,0,0,1,5.92,0,5.984,5.984,0,0,1,2.22,1.75,7.941,7.941,0,0,1,1.4,2.77,12.959,12.959,0,0,1,.49,3.68A13.1,13.1,0,0,1,1189.45,1054.43Zm13.64-16.75h-4.89v26.12h4.89v-26.12Zm20.7,0v14.94c0,0.38.01,0.79,0.03,1.21s0.06,0.87.1,1.33l-11.79-16.64a3.519,3.519,0,0,0-.36-0.43,1.619,1.619,0,0,0-.34-0.26,1.039,1.039,0,0,0-.4-0.12,3.838,3.838,0,0,0-.52-0.03h-2.56v26.12h4.29v-15.11c0-.34-0.01-0.72-0.02-1.13s-0.05-.82-0.08-1.24l11.72,16.56a2.377,2.377,0,0,0,.76.71,1.963,1.963,0,0,0,.95.21h2.51v-26.12h-4.29Zm25.54,0h-18.61v4.35h6.87v21.77h4.88v-21.77h6.86v-4.35Z" transform="translate(-1130 -997)"/>
</svg>
