<svg id="Banner_arrow007_v2f1.svg" xmlns="http://www.w3.org/2000/svg" width="20" height="20" viewBox="0 0 20 20">
  <defs>
    <style>
      .cls-1 {
        fill: #a38860;
      }

      .cls-2 {
        fill: #fff;
        fill-rule: evenodd;
      }
    </style>
  </defs>
  <circle class="cls-1" cx="10" cy="10" r="10"/>
  <path class="cls-2" d="M406.279,2876.16a0.975,0.975,0,0,1,1.378,0l5.054,5.05a0.975,0.975,0,1,1-1.378,1.38l-5.054-5.05A0.976,0.976,0,0,1,406.279,2876.16Z" transform="translate(-399 -2872)"/>
  <path class="cls-2" d="M412.711,2881.36a0.976,0.976,0,0,1,0,1.38l-5.054,5.05a0.975,0.975,0,1,1-1.378-1.38l5.054-5.05A0.975,0.975,0,0,1,412.711,2881.36Z" transform="translate(-399 -2872)"/>
</svg>
