<svg xmlns="http://www.w3.org/2000/svg" width="124" height="124" viewBox="0 0 124 124">
  <defs>
    <style>
      .cls-1 {
        fill: #b59048;
      }

      .cls-2 {
        fill: #fff;
        fill-rule: evenodd;
      }
    </style>
  </defs>
  <rect class="cls-1" x="2" y="2" width="120" height="120"/>
  <path class="cls-2" d="M679.551,586.987c1.815-1.764,5.565-4.751,9.89-5.651l-0.3-4.68a36.159,36.159,0,0,1-5.837.828c-2.117.144-6.532,0.288-9.587,0.288-0.816,0-1.542,0-2.086-.036,0.06,1.008.09,3.312,0.09,4.392a58.451,58.451,0,0,0,8.378-.324v0.036a32.8,32.8,0,0,0-3.871,3.167Zm11.16,12.094a43.781,43.781,0,0,1-9.315.972c-3.054,0-7.409,0-7.409-4.283a8.111,8.111,0,0,1,2.207-5.039L672.928,589a12.363,12.363,0,0,0-2.843,7.559,7.213,7.213,0,0,0,5.565,7.379,30.067,30.067,0,0,0,6.291.5,52.617,52.617,0,0,0,9.072-.72Zm25.145-24.656a25.565,25.565,0,0,1,3.75,4.679l1.694-1.764a19.591,19.591,0,0,0-3.871-4.643Zm-5.232,3.743A26.757,26.757,0,0,1,703.7,580c0.211-1.62.453-3.564,0.605-4.86a1.018,1.018,0,0,0,.846-0.863l-4.929-.5c-0.151,2.087-.363,4.571-0.605,6.659-0.514,0-1.059.036-1.542,0.036-1.452,0-3.025,0-3.993-.072l0.061,4.283c0.514,0.036,1.119.036,1.754,0.036,0.575,0,2.722,0,3.206-.036a81.448,81.448,0,0,1-5.172,19.8l3.932,1.656a126.838,126.838,0,0,0,5.2-21.706,32.571,32.571,0,0,0,8.286-1.763Zm1.029-1.584a22.768,22.768,0,0,1,3.75,4.716l1.724-1.764a23.273,23.273,0,0,0-3.9-4.679Zm-2.9,14.65a29.929,29.929,0,0,1,9.98-1.331v-4.32a32,32,0,0,0-10.8,1.764Zm10.616,9.719a34.7,34.7,0,0,1-3.993.216c-4.173,0-5.715-.468-5.715-2.447a5.411,5.411,0,0,1,1.391-3.168l-3.236-1.4a9.293,9.293,0,0,0-1.936,5.327,5.329,5.329,0,0,0,3.992,5.472,25.915,25.915,0,0,0,6.351.612c1.089,0,2.178-.036,3.206-0.108Zm3.572-15.874a40.293,40.293,0,0,0,5.5-.684l-0.09,2.52a28.3,28.3,0,0,1-1.724,3.348,39.311,39.311,0,0,1-4.688,5.795l1.754,3.959a26.834,26.834,0,0,0,4.6-6.155v12.131h3.69c-0.061-2.2-.061-5.616-0.061-9.035v-6.371c2.571-2.664,5.867-4.248,8.468-4.248,3.357,0,4.93,3.024,4.93,6.587,0,5.112-3.6,7.163-10.373,8.027a27.369,27.369,0,0,1,1.421,4.032c7.742-.828,12.793-4.284,12.793-12.167,0-6.587-3.387-10.654-8.438-10.654a14.268,14.268,0,0,0-8.74,3.707,26.119,26.119,0,0,1,1.875-5.4l-1.512-.828c0.09-1.476.151-2.7,0.272-4.392a0.894,0.894,0,0,0,.877-0.755l-4.778-.432c0,0.684-.091,5.435-0.121,6.191a34.042,34.042,0,0,1-5.807.5Zm42.094-10.438c0.332,3.347.725,8.386,0.725,13.39,0,4.9-1.754,10.727-10.04,14.542a26.116,26.116,0,0,1,2.722,3.6c9.617-4.716,11.492-11.267,11.522-18.214,0-4.572-.272-9.359-0.514-12.2a0.957,0.957,0,0,0,.756-0.863Zm-8.438,19.221A4.725,4.725,0,0,1,756.5,593c0-1.512,1.331-4.175,3.266-7.6a20.8,20.8,0,0,1-1.723-2.879,41.954,41.954,0,0,0-2.269,4.895,50.566,50.566,0,0,1,1.059-10.187,0.88,0.88,0,0,0,.756-0.648l-4.718-.756A79.659,79.659,0,0,0,752,586.771a41.144,41.144,0,0,0,.816,7.811Z" transform="translate(-658 -551)"/>
</svg>
