<svg xmlns="http://www.w3.org/2000/svg" width="82" height="48" viewBox="0 0 82 48">
  <defs>
    <style>
      .cls-1 {
        fill: none;
        stroke: #57a100;
        stroke-width: 4px;
      }

      .cls-2 {
        fill: #57a100;
        fill-rule: evenodd;
      }
    </style>
  </defs>
  <rect class="cls-1" width="82" height="48"/>
  <path class="cls-2" d="M1552.63,5587.77v25.31h4.74v-10.31h9.47v-3.76h-9.47v-7.49h11.22v-3.75h-15.96Zm31.08,0h-4.81l-9.94,25.31h3.66a1.544,1.544,0,0,0,1-.33,1.633,1.633,0,0,0,.55-0.74l1.89-5.16h10.49l1.89,5.16a1.683,1.683,0,0,0,.56.76,1.58,1.58,0,0,0,1.01.31h3.64Zm-3.36,7.37c0.15-.38.31-0.83,0.46-1.35s0.32-1.06.49-1.66c0.16,0.6.32,1.15,0.49,1.66s0.33,0.94.47,1.32l3.08,8.41h-8.07Zm16.19,17.94h4.41a1.051,1.051,0,0,0,.7-0.25,3.1,3.1,0,0,0,.47-0.56l5.62-8.96a3.583,3.583,0,0,0,.17-0.34,3.518,3.518,0,0,0,.16-0.39l5.86,9.69a2.337,2.337,0,0,0,.48.56,1.133,1.133,0,0,0,.77.25h4.7l-8.38-13.21,8.16-12.1h-4.52a1.151,1.151,0,0,0-1,.65l-5.26,8.31a4.133,4.133,0,0,0-.25.45c-0.07.15-.13,0.29-0.19,0.45l-5.76-9.3a1.231,1.231,0,0,0-.39-0.42,1.43,1.43,0,0,0-.71-0.14h-4.69l8.07,12.29Z" transform="translate(-1545 -5576)"/>
</svg>
