<svg xmlns="http://www.w3.org/2000/svg" width="18" height="18" viewBox="0 0 18 18">
  <defs>
    <style>
      .cls-1 {
        fill: #fff;
        fill-rule: evenodd;
      }
    </style>
  </defs>
  <path id="Forma.svg" class="cls-1" d="M10.232,12.164c1.4,2.8,3.488,5.807,6.29,7.308L17.9,17.7a0.8,0.8,0,0,1,1-.2,10.468,10.468,0,0,0,3.6.6,0.945,0.945,0,0,1,1,1v3.4a0.945,0.945,0,0,1-1,1A17,17,0,0,1,5.494,6.5a0.945,0.945,0,0,1,1-1H10a0.945,0.945,0,0,1,1,1,11.334,11.334,0,0,0,.6,3.6,1.232,1.232,0,0,1-.2,1Z" transform="translate(-5.5 -5.5)"/>
</svg>
