<svg xmlns="http://www.w3.org/2000/svg" width="28" height="24" viewBox="0 0 28 24">
  <defs>
    <style>
      .cls-1 {
        fill: #15bfe8;
        fill-rule: evenodd;
      }
    </style>
  </defs>
  <path class="cls-1" d="M778.54,874.921c0.027-.041.054-0.083,0.078-0.126s0.048-.094.07-0.142c0.012-.026.027-0.051,0.038-0.077s0.008-.03.014-0.044c0.02-.051.035-0.1,0.051-0.156s0.024-.085.034-0.128,0.018-.1.026-0.155,0.012-.088.016-0.132,0-.107,0-0.161,0-.085,0-0.127-0.011-.11-0.019-0.165-0.012-.082-0.021-0.123-0.027-.107-0.043-0.16-0.024-.082-0.04-0.122c-0.006-.018-0.01-0.037-0.017-0.055s-0.032-.063-0.047-0.094-0.038-.08-0.06-0.12-0.055-.093-0.084-0.138-0.047-.072-0.073-0.105-0.073-.088-0.11-0.13c-0.018-.02-0.033-0.041-0.051-0.06l-9.155-9.349a1.924,1.924,0,0,0-2.765,0,2.027,2.027,0,0,0,0,2.823l5.818,5.94H754.09a1.942,1.942,0,0,0-1.622.88,2.029,2.029,0,0,0,.238,2.53,1.931,1.931,0,0,0,1.384.584H772.2l-5.817,5.94a2.027,2.027,0,0,0,0,2.824,1.928,1.928,0,0,0,2.765,0l9.155-9.352c0.02-.019.034-0.042,0.053-0.062,0.037-.041.072-0.082,0.106-0.125S778.514,874.96,778.54,874.921Z" transform="translate(-752.125 -862.5)"/>
</svg>
