<svg id="Left-Bottom.svg" xmlns="http://www.w3.org/2000/svg" width="115" height="128" viewBox="0 0 115 128">
  <defs>
    <style>
      .cls-1 {
        fill: #4a1f02;
        fill-rule: evenodd;
      }
    </style>
  </defs>
  <path id="Left-Bottom" class="cls-1" d="M237.745,812.784c3.119-1.774-.073,3.649,4.231,2.924,2.759-.465.731-5.683-3.24-5.832-2.831-.107-3.9,2.67-3.888,5.832,0.013,3.125,3.524,5.267,6.48,5.184,9.144-.257,7.776-12.312,7.776-12.312s16.059,3,18.792-7.128c3.273-12.131-12.529-14.87-14.256-7.776-0.582,2.391,2.555,7.518,5.832,6.48,3.022-4.308-.167-4.845-3.24-6.48,4.712-3.386,10.169,3.774,7.776,7.128,0,0-5.5,10.359-20.736,0-24.44-9.25-28.911,15.979-44.712,11.016,0,0,6.1-.957,6.48-6.48,0.619-9.09-13.191-5.318-10.368-2.592,3.853,2.644,2.892-2.105,3.888-1.944,4.935,0.8,4.336,4.029,1.944,6.48-4.07,4.171-8.214,3.215-12.312-3.24-12.222-19.252-19.573-20.829-24.624-20.736-4.833.089-7.563,8.861-.648,9.072,1.486,0.045,2.229-3.514.648-3.888-3.308-.782-3.542-3.78.648-3.24,12.23,1.575,20.214,13.661,18.144,22.032-1.26,5.094-5.425,9.871-14.9,9.072-9.806-.827-7.893-15.719-1.3-14.256-3.059,2.864-2.189,7.517,2.592,7.776s6.335-8.4-1.3-11.664c-7.2-.9-11.529,3.747-12.312,9.72-0.73,5.565,4.034,12.741,11.016,12.96,14.568,0.457,20.088-12.312,20.088-12.312s5.345,5.855,10.368,7.128c14.672,3.718,18.872-11.817,36.288-12.96,14.742-.967,13.608,10.368,13.608,10.368s-0.3,4.138-5.184,4.536C237.33,817.978,236.822,813.309,237.745,812.784Z" transform="translate(-153.469 -693.031)"/>
  <path id="Left-Bottom-2" data-name="Left-Bottom" class="cls-1" d="M159.965,717.6c1.419-2.5-2.919.059-2.339-3.394,0.372-2.214,4.546-.587,4.666,2.6,0.085,2.271-2.137,3.13-4.666,3.119-2.5-.01-4.214-2.827-4.147-5.2,0.206-7.336,9.85-6.238,9.85-6.238s-2.4-12.884,5.7-15.077c9.7-2.626,11.9,10.052,6.221,11.438-1.913.467-6.015-2.05-5.184-4.679,3.446-2.425,3.876.134,5.184,2.6,2.708-3.78-3.02-8.159-5.7-6.238,0,0-8.287,4.411,0,16.636,7.4,19.608-12.783,23.2-8.813,35.872,0,0,.766-4.9,5.184-5.2,7.273-.5,4.255,10.583,2.074,8.318-2.115-3.091,1.684-2.32,1.555-3.119-0.635-3.959-3.223-3.479-5.184-1.559-3.336,3.265-2.572,6.589,2.592,9.877,15.4,9.806,16.663,15.7,16.589,19.756-0.071,3.877-7.088,6.068-7.258.52-0.036-1.192,2.812-1.788,3.111-.52,0.626,2.654,3.024,2.842,2.592-.52-1.26-9.812-10.929-16.218-17.626-14.557-4.075,1.011-7.9,4.352-7.257,11.958,0.661,7.867,12.575,6.332,11.405,1.039-2.292,2.455-6.014,1.757-6.221-2.079s6.718-5.083,9.331,1.04c0.719,5.776-3,9.249-7.776,9.878-4.452.585-10.193-3.237-10.368-8.839-0.365-11.687,9.85-16.116,9.85-16.116s-4.685-4.288-5.7-8.318c-2.974-11.771,9.454-15.141,10.368-29.114,0.774-11.827-8.294-10.918-8.294-10.918a4.159,4.159,0,0,0-3.629,4.159C155.81,717.937,159.545,718.345,159.965,717.6Z" transform="translate(-153.469 -693.031)"/>
</svg>
