<svg id="_2.svg" data-name="2.svg" xmlns="http://www.w3.org/2000/svg" width="57" height="57" viewBox="0 0 57 57">
  <defs>
    <style>
      .cls-1, .cls-2 {
        fill: #e4ddc8;
      }

      .cls-2 {
        stroke: #fff;
        stroke-width: 1px;
        stroke-dasharray: 3 2;
      }

      .cls-3 {
        fill: #97683f;
        fill-rule: evenodd;
      }
    </style>
  </defs>
  <circle class="cls-1" cx="28.5" cy="28.5" r="28.5"/>
  <circle class="cls-2" cx="28.438" cy="28.5" r="25.5"/>
  <path class="cls-3" d="M319.743,218.212H309.135l5.253-4.726q1.863-1.7,3.191-2.924a22.685,22.685,0,0,0,2.226-2.329,10.353,10.353,0,0,0,1.435-2.3,12.11,12.11,0,0,0,.83-2.856,5.832,5.832,0,0,0-.085-2.533,5.033,5.033,0,0,0-1.154-2.125,5.674,5.674,0,0,0-2.205-1.445,8.923,8.923,0,0,0-3.207-.527,9.279,9.279,0,0,0-3.119.527,9.751,9.751,0,0,0-2.686,1.445,8.406,8.406,0,0,0-2,2.176,7.313,7.313,0,0,0-1.051,2.686h3.4a15.949,15.949,0,0,1,.7-2.023,6.514,6.514,0,0,1,1.031-1.7,4.885,4.885,0,0,1,1.464-1.173,4.26,4.26,0,0,1,2-.442,3.373,3.373,0,0,1,2.933,1.394,4.806,4.806,0,0,1,.582,3.74,9.312,9.312,0,0,1-1.059,2.924,20.589,20.589,0,0,1-1.846,2.754,30.392,30.392,0,0,1-2.228,2.516q-1.18,1.191-2.209,2.21l-7.691,7.174h15.674Z" transform="translate(-285 -180)"/>
</svg>
