<?xml version="1.0" standalone="no"?>
<!DOCTYPE svg PUBLIC "-//W3C//DTD SVG 20010904//EN"
 "http://www.w3.org/TR/2001/REC-SVG-20010904/DTD/svg10.dtd">
<svg version="1.0" xmlns="http://www.w3.org/2000/svg"
 width="64.000000pt" height="64.000000pt" viewBox="0 0 64.000000 64.000000"
 preserveAspectRatio="xMidYMid meet">
<metadata>
Created by potrace 1.10, written by Peter Selinger 2001-2011
</metadata>
<g transform="translate(0.000000,64.000000) scale(0.100000,-0.100000)"
fill="#dfdfdf" stroke="none">
<path d="M472 633 c-7 -2 -17 -14 -23 -25 -21 -38 42 -78 70 -44 8 9 8 16 2
20 -5 4 -14 -2 -20 -11 -9 -17 -11 -17 -28 0 -14 13 -15 21 -7 35 28 43 94 13
94 -43 0 -39 -24 -61 -78 -71 -27 -5 -51 2 -124 36 -87 42 -91 43 -140 32 -71
-17 -117 -15 -125 4 -9 24 21 49 43 35 11 -6 13 -11 7 -11 -7 0 -13 -7 -13
-16 0 -9 6 -14 13 -11 18 6 15 38 -5 51 -23 14 -52 -3 -56 -33 -2 -13 -11 -21
-23 -21 -11 0 -24 -11 -31 -25 -9 -21 -9 -29 4 -42 17 -16 48 -12 48 7 0 15
-30 12 -30 -2 0 -7 -5 -5 -11 6 -9 14 -8 22 4 33 41 42 61 -25 35 -121 -11
-42 -10 -47 32 -134 34 -73 41 -97 36 -123 -11 -55 -32 -79 -71 -79 -56 0 -86
66 -43 94 14 8 22 7 35 -7 17 -17 17 -19 0 -28 -9 -6 -15 -15 -11 -20 8 -14
34 9 34 31 0 9 -9 25 -19 34 -41 38 -90 -30 -60 -83 9 -17 28 -29 52 -35 24
-6 37 -15 37 -26 0 -19 19 -40 36 -40 19 0 44 29 44 51 0 10 -5 19 -11 19 -6
0 -8 -8 -4 -19 8 -26 -20 -48 -40 -31 -21 17 -19 37 6 72 38 52 36 104 -5 186
-36 71 -46 131 -27 160 12 19 45 11 49 -11 3 -12 -1 -17 -11 -15 -9 2 -17 -1
-18 -7 -5 -19 30 -16 40 3 13 24 -12 64 -37 60 -13 -2 -18 6 -20 35 l-3 38 38
-3 c29 -2 37 -7 35 -20 -4 -25 36 -50 60 -37 19 10 22 43 3 37 -5 -2 -9 -9 -7
-15 2 -7 -6 -13 -18 -13 -14 0 -20 6 -20 24 0 49 75 49 172 0 82 -41 134 -43
186 -5 35 25 55 27 72 6 17 -20 -5 -48 -31 -40 -11 4 -19 2 -19 -4 0 -6 11
-11 25 -11 32 0 55 41 35 65 -7 8 -20 15 -30 15 -12 0 -20 11 -24 35 -10 50
-57 77 -104 58z"/>
</g>
</svg>
