<?xml version="1.0" standalone="no"?>
<!DOCTYPE svg PUBLIC "-//W3C//DTD SVG 20010904//EN"
 "http://www.w3.org/TR/2001/REC-SVG-20010904/DTD/svg10.dtd">
<svg version="1.0" xmlns="http://www.w3.org/2000/svg"
 width="64.000000pt" height="64.000000pt" viewBox="0 0 64.000000 64.000000"
 preserveAspectRatio="xMidYMid meet">
<metadata>
Created by potrace 1.10, written by Peter Selinger 2001-2011
</metadata>
<g transform="translate(0.000000,64.000000) scale(0.100000,-0.100000)"
fill="#dfdfdf" stroke="none">
<path d="M476 624 c-18 -18 -21 -54 -5 -54 6 0 8 8 4 19 -8 26 20 48 40 31 21
-17 19 -37 -6 -72 -38 -52 -36 -104 5 -186 49 -97 49 -172 0 -172 -18 0 -24 6
-24 20 0 12 6 20 13 18 7 -2 15 1 17 7 9 19 -29 16 -39 -3 -13 -24 12 -64 37
-60 13 2 18 -6 20 -35 l3 -38 -38 3 c-29 2 -37 7 -35 20 4 25 -36 50 -60 37
-19 -10 -22 -43 -3 -37 5 2 9 9 7 15 -2 7 6 13 18 13 14 0 20 -6 20 -24 0 -49
-75 -49 -172 0 -82 41 -134 43 -186 5 -35 -25 -55 -27 -72 -6 -17 20 5 48 31
40 11 -4 19 -2 19 4 0 6 -11 11 -25 11 -32 0 -55 -41 -35 -65 7 -8 20 -15 29
-15 12 0 21 -12 27 -37 16 -64 96 -85 125 -32 21 39 -42 79 -70 45 -8 -9 -8
-16 -2 -20 5 -4 14 2 20 11 9 17 11 17 28 0 14 -13 15 -21 7 -35 -28 -43 -94
-13 -94 43 0 39 24 60 79 71 26 5 50 -2 122 -36 88 -42 92 -43 141 -32 71 17
117 15 125 -4 9 -24 -21 -49 -43 -35 -11 6 -13 11 -6 11 14 0 17 30 2 30 -19
0 -23 -31 -7 -48 21 -21 67 -2 67 28 0 13 7 20 20 20 30 0 49 46 28 67 -17 16
-48 12 -48 -7 0 -15 30 -12 30 3 0 6 5 4 11 -7 14 -22 -11 -52 -35 -43 -19 8
-21 54 -4 125 11 49 10 53 -32 140 -34 73 -41 97 -36 124 10 54 32 78 71 78
56 0 86 -66 43 -94 -14 -8 -22 -7 -35 7 -17 17 -17 19 0 28 9 6 15 15 11 20
-8 14 -34 -9 -34 -31 0 -9 9 -25 19 -34 41 -38 90 30 60 83 -9 17 -28 29 -52
35 -24 6 -37 15 -37 26 0 19 -19 40 -36 40 -7 0 -20 -7 -28 -16z"/>
</g>
</svg>
