<svg id="houshin.svg" xmlns="http://www.w3.org/2000/svg" width="140" height="140" viewBox="0 0 140 140">
  <defs>
    <style>
      .cls-1 {
        fill: #ffac00;
      }

      .cls-2 {
        fill: #fff;
        fill-rule: evenodd;
      }
    </style>
  </defs>
  <circle class="cls-1" cx="70" cy="70" r="68"/>
  <path id="方針" class="cls-2" d="M556.021,1034.92H541.659v-4.93a0.967,0.967,0,0,0,.972-0.72l-5.472-.29v5.94h-13.93v4.14h10.4c-0.4,7.78-1.26,16.13-11.051,20.66a12.671,12.671,0,0,1,3.06,3.64c7.343-3.78,10.223-9.54,11.554-15.48H547.31c-0.5,6.63-1.152,9.79-2.088,10.59a2.479,2.479,0,0,1-1.763.46c-1.044,0-3.6,0-6.12-.25a9.672,9.672,0,0,1,1.548,4.25c1.3,0.07,2.592.11,3.744,0.11,3.707,0,5.075-.36,6.371-1.8,1.476-1.59,2.232-5.65,2.916-15.84,0.072-.4.144-0.94,0.18-1.26l-2.556-.43-0.936.1H537.879c0.216-1.61.36-3.2,0.468-4.75h17.674v-4.14Zm34.129,7.34v-10.87a0.937,0.937,0,0,0,1.008-.69l-5.472-.32v11.88h-6.659v3.67h-5.291v-2.84h4.031v-2.85a4.366,4.366,0,0,1,.4.44l2.556-3.57a43.4,43.4,0,0,0-6.911-5.36v-0.04a0.767,0.767,0,0,0,.864-0.57l-4.932-.87a26.64,26.64,0,0,1-7.343,9.58,13.188,13.188,0,0,1,2.844,3.13l0.72-.65v0.76H569.7v2.84h-5.867v3.71H569.7v8.28c-2.447.29-4.679,0.54-6.479,0.72l1.188,4.57a0.694,0.694,0,0,0,.648-0.61c3.564-.51,9.143-1.34,14.4-2.24l-0.108-3.63c-1.872.25-3.779,0.47-5.615,0.72v-7.81h5.615v-3.1h6.335v17.53h4.464v-17.53h6.8v-4.28h-6.8Zm-21.453-2.81a37.544,37.544,0,0,0,3.1-4.21,54.415,54.415,0,0,1,5.183,4.21H568.7Zm7.2,10.66a40.9,40.9,0,0,1-1.656,5.72l2.735,1.01a44.2,44.2,0,0,0,1.98-5.11,0.911,0.911,0,0,0,.9-0.4Zm-6.876,6.33a32.254,32.254,0,0,0-1.691-6.15l-3.024.82a36.409,36.409,0,0,1,1.548,6.3Z" transform="translate(-490 -997)"/>
</svg>
