<svg id="tokucho.svg" xmlns="http://www.w3.org/2000/svg" width="140" height="140" viewBox="0 0 140 140">
  <defs>
    <style>
      .cls-1 {
        fill: none;
        stroke: #ff7500;
        stroke-width: 4px;
      }

      .cls-2 {
        fill: #ff7500;
        fill-rule: evenodd;
      }
    </style>
  </defs>
  <circle id="楕円形" class="cls-1" cx="70" cy="70" r="68"/>
  <path id="特徴" class="cls-2" d="M1515.6,1040.86h-8.71v-3.21h6.69v-3.92h-6.69v-2.59a0.987,0.987,0,0,0,.97-0.72l-5.26-.29v3.6h-6.44v3.92h6.44v3.21h-7.2v-3.75h-3.74v-6.01a0.885,0.885,0,0,0,.94-0.65l-5.08-.29v6.95h-1.4c0.18-1.22.36-2.48,0.46-3.67a0.782,0.782,0,0,0,.87-0.43l-4.28-1.01c-0.33,4.46-.9,9.32-1.91,12.13a20.332,20.332,0,0,1,2.59,2.27,31.77,31.77,0,0,0,1.55-5.18h2.12v7.45c-2.3.43-4.39,0.79-6.01,1.04l1.4,4.82a0.749,0.749,0,0,0,.65-0.61c1.12-.25,2.48-0.57,3.96-0.93v11.12h4.14v-12.13l3.2-.83v0.94h11.59v7.38c0,0.46-.18.57-0.72,0.61-0.54,0-2.41,0-4.06-.08a16.208,16.208,0,0,1,1.26,4.11c6.26,0,7.81-.54,7.81-4.57v-7.45h4.39v-3.96h-4.39V1046c0.65-.11.9-0.32,0.93-0.68l-5.22-.22v3.03h-10.94l-0.07-.94-3.78.72v-6.69h2.48v3.63h21.46v-3.99Zm-12.28,17.38a27.084,27.084,0,0,0-3.63-5.47l-3.35,1.73a26.72,26.72,0,0,1,3.45,5.68Zm53.57-21.02h-6.62c0.43-1.84.82-3.71,1.11-5.58a0.793,0.793,0,0,0,.9-0.5l-4.68-.98a49.439,49.439,0,0,1-2.66,11.88v-7.99c0.57-.07.75-0.25,0.79-0.54l-3.82-.25v6.3h-1.58v-8.53a0.754,0.754,0,0,0,.83-0.61l-4.36-.26v9.4h-1.54v-5.54a0.779,0.779,0,0,0,.79-0.58l-3.71-.22v6.16l-3.35-1.15a33.265,33.265,0,0,1-6.33,10.98,41.274,41.274,0,0,1,2.12,3.88,28.452,28.452,0,0,0,2.02-2.37v13.39h3.96v-18.83a0.956,0.956,0,0,0,.93-0.61l-0.97-.32c0.58-1.12,1.12-2.23,1.62-3.35v1.87h12.24a12.781,12.781,0,0,1-1.12,2.09h-10.94v3.35h4.28v2.41h-3.78v3.24h3.78v2.81l-5.11.32,0.87,4.14a0.727,0.727,0,0,0,.64-0.58c2.74-.25,7.06-0.65,11.27-1.15a14.545,14.545,0,0,1-2.84,1.87,21.7,21.7,0,0,1,2.48,2.74,17.755,17.755,0,0,0,6.19-5.69,16.865,16.865,0,0,0,4.39,5.47,14.07,14.07,0,0,1,2.63-3.24,14.868,14.868,0,0,1-4.97-6.04,45.282,45.282,0,0,0,2.99-13.75h1.55v-3.64Zm-5.29,3.64a51.149,51.149,0,0,1-1.23,8.17,54.264,54.264,0,0,1-1.36-7.35c0.1-.25.18-0.54,0.28-0.82h2.31Zm-11.16,13.1h3.67v-3.24h-3.67v-2.41h4.1v-1.59a19.16,19.16,0,0,1,1.08,1.84,16.018,16.018,0,0,0,1.19-1.8,51.713,51.713,0,0,0,1.73,7.41,15.718,15.718,0,0,1-3.57,4.9l-0.03-2.92c-1.51.11-3.03,0.26-4.5,0.36v-2.55Zm-11.7-23.8a31.855,31.855,0,0,1-5.97,6.95,35.162,35.162,0,0,1,2.23,3.24,56.693,56.693,0,0,0,7.23-8.03,0.812,0.812,0,0,0,.94-0.36Z" transform="translate(-1450 -997)"/>
</svg>
