<svg id="other002_pageTop_v1f1.svg" xmlns="http://www.w3.org/2000/svg" width="71" height="71" viewBox="0 0 71 71">
  <defs>
    <style>
      .cls-1 {
        fill: #e50101;
      }

      .cls-2 {
        fill: #fff;
        fill-rule: evenodd;
      }
    </style>
  </defs>
  <circle class="cls-1" cx="35.5" cy="35.5" r="35.5"/>
  <path class="cls-2" d="M1216,5107.19a1.765,1.765,0,0,1-.54,1.27,1.86,1.86,0,0,1-2.59-.01l-12.37-12.12-12.39,12.13a1.86,1.86,0,0,1-2.59,0,1.763,1.763,0,0,1,0-2.54l13.69-13.39a1.806,1.806,0,0,1,1.29-.52,1.846,1.846,0,0,1,1.3.52l13.66,13.39A1.765,1.765,0,0,1,1216,5107.19Z" transform="translate(-1165 -5065)"/>
</svg>
