<svg xmlns="http://www.w3.org/2000/svg" viewBox="0 0 56 56"><defs><style>.cls-1{fill:#c10000;}.cls-2{fill:#fff;}</style></defs><title>anshin</title><g><g><rect class="cls-1" width="56" height="56"/></g><g><path class="cls-2" d="M24.79,24.62a.25.25,0,0,1-.4.09A39.32,39.32,0,0,0,19.46,22a15.43,15.43,0,0,1-7.4,2.68c-.56.06-.58.06-.77-.45A4.47,4.47,0,0,0,10.6,23a16.29,16.29,0,0,0,6.86-1.82,27.43,27.43,0,0,0-2.65-.86l-.45.59c-.12.14-.21.18-.46.07l-1.1-.45c-.31-.12-.29-.2-.16-.36.3-.34.61-.74.88-1.11.41-.63.86-1.37,1.29-2.16H13c-1.61,0-2.15,0-2.25,0s-.2,0-.2-.2V15.34c0-.18,0-.19.2-.19s.64,0,2.25,0h2.68c.14-.29.29-.59.41-.9a8.31,8.31,0,0,0,.63-1.8c.65.13,1.35.29,1.93.47.14,0,.23.13.23.23a.45.45,0,0,1-.21.33c-.15.09-.27.27-.47.68l-.47,1H24.1c1.61,0,2.13,0,2.26,0s.19,0,.19.19v1.37c0,.18,0,.2-.19.2s-.65,0-2.26,0H22.93a12.19,12.19,0,0,1-2.08,3.78A51.16,51.16,0,0,1,25.64,23c.09.05.12.09.12.16a.41.41,0,0,1-.11.25ZM23.31,10.36c1.7,0,2.31,0,2.42,0s.19,0,.19.18,0,.43,0,.92v.74c0,1.58,0,1.85,0,2s0,.2-.19.2h-1.5c-.18,0-.2,0-.2-.2V12H12.92v2.11c0,.18,0,.2-.19.2h-1.5c-.18,0-.2,0-.2-.2s0-.38,0-2v-.6c0-.63,0-1,0-1.06s0-.18.2-.18.72,0,2.41,0h3.77v-.22a7,7,0,0,0-.15-1.71c.67,0,1.34.05,1.95.11.2,0,.29.07.29.16a1.06,1.06,0,0,1-.11.36,3.17,3.17,0,0,0-.09,1.08v.22Zm-6.44,6.52c-.36.68-.76,1.35-1.17,2,1.13.31,2.25.65,3.33,1.05a8.63,8.63,0,0,0,1.89-3.06Z"/><path class="cls-2" d="M33.1,15.33c.25.07.29.1.27.28a22.24,22.24,0,0,1-1.66,6.13c-.07.16-.12.21-.37.1L30,21.25c-.25-.13-.27-.2-.2-.34a18.8,18.8,0,0,0,1.68-5.78c0-.22.05-.22.32-.13Zm3.46,6.23c0,.41.11.66.34.77a4,4,0,0,0,1.57.18c.93,0,1.42-.09,1.71-.38s.52-.83.52-2.91a6,6,0,0,0,1.49.57c.47.13.47.13.45.6-.07,2-.34,2.79-1,3.29s-1.62.76-3.35.76-2.55-.15-3-.43-.73-.74-.73-1.79V15.31a12.75,12.75,0,0,0-.11-2.05,14.56,14.56,0,0,1,1.91.18c.28,0,.39.14.39.27a.54.54,0,0,1-.11.32c-.09.16-.12.4-.12,1.28ZM35.68,8.79c.14-.2.18-.22.36-.16A23.17,23.17,0,0,1,40.93,11c.18.11.18.14.06.36l-.76,1.3c-.14.25-.18.27-.34.16A21.83,21.83,0,0,0,35,10.23c-.1,0-.14-.05-.14-.11a.64.64,0,0,1,.09-.21Zm7.76,5.76c.23-.09.27-.11.36.07a25.15,25.15,0,0,1,2.43,5.51c.05.2,0,.24-.2.36l-1.37.67c-.25.13-.31.13-.36-.07A21.64,21.64,0,0,0,42,15.42c-.09-.16-.06-.24.18-.33Z"/></g></g></svg>