<svg xmlns="http://www.w3.org/2000/svg" viewBox="0 0 56 56"><defs><style>.cls-1{fill:#c10000;}.cls-2{fill:#fff;}</style></defs><title>point</title><g><g><rect class="cls-1" width="56" height="56"/></g><g><path class="cls-2" d="M6.24,14.07a3.64,3.64,0,0,1,3.08-1.86c2.4,0,4.18,1.9,4.18,5.66s-1.94,5.82-4.3,5.82a3.11,3.11,0,0,1-2.88-1.8v5.4H3.82V12.45H6.24Zm.08,5.84a2.58,2.58,0,0,0,2.22,1.84c1.32,0,2.38-1.16,2.38-3.82s-1-3.76-2.24-3.76A2.65,2.65,0,0,0,6.32,16Z"/><path class="cls-2" d="M25.36,17.93c0,3.56-2,5.78-5,5.78s-5-2.16-5-5.72,2-5.78,5-5.78S25.36,14.37,25.36,17.93ZM18,18c0,2.54.76,3.94,2.38,3.94s2.4-1.38,2.4-3.94S22,14,20.4,14,18,15.43,18,18Z"/><path class="cls-2" d="M30.54,10.49H27.82V7.91h2.72Zm-.1,12.94H27.92v-11h2.52Z"/><path class="cls-2" d="M36.1,14.37a4.48,4.48,0,0,1,3.6-2.16,3,3,0,0,1,3.14,3.3v7.92H40.26V16.21c0-1.26-.54-1.84-1.52-1.84a3.36,3.36,0,0,0-2.56,1.86v7.2H33.66v-11H36.1Z"/><path class="cls-2" d="M49,12.45h2.46v1.84H49v6c0,1.1.44,1.58,1.36,1.58a5.76,5.76,0,0,0,1.28-.12l-.1,1.8a13.21,13.21,0,0,1-2,.12c-2.08,0-3.06-.9-3.06-2.92V14.29H44.9V12.45h1.64v-3L49,8.87Z"/></g></g></svg>