<svg xmlns="http://www.w3.org/2000/svg" viewBox="0 0 56 56"><defs><style>.cls-1{fill:#c10000;}.cls-2{fill:#fff;}</style></defs><title>riyu</title><g><g><rect class="cls-1" width="56" height="56"/></g><g><path class="cls-2" d="M14.3,19.21c.63-.29,1.24-.58,1.87-.92a11.39,11.39,0,0,0,0,1.17c0,.6,0,.6-.45.87a36.74,36.74,0,0,1-3.89,1.73,2.4,2.4,0,0,0-.56.27.41.41,0,0,1-.29.12c-.09,0-.16-.05-.23-.23a15.69,15.69,0,0,1-.45-1.7A10.76,10.76,0,0,0,12,20.09l.52-.18V16c-1.13,0-1.47,0-1.58,0s-.2,0-.2-.2V14.55c0-.2,0-.22.2-.22s.45,0,1.58,0V11.2h-.1c-1.21,0-1.59,0-1.7,0s-.18,0-.18-.19V9.72c0-.2,0-.21.18-.21s.49,0,1.7,0h1.87c1.22,0,1.6,0,1.69,0s.2,0,.2.21V11c0,.18,0,.19-.2.19s-.47,0-1.67,0v3.17c1,0,1.33,0,1.44,0s.18,0,.18.22v1.29c0,.18,0,.2-.18.2s-.45,0-1.44,0ZM17.59,24c-1.78,0-2.39,0-2.5,0s-.2,0-.2-.2V22.6c0-.18,0-.2.2-.2s.72,0,2.5,0h2.74V20.67H19.21c-1.65,0-2.21,0-2.32,0s-.2,0-.2-.19V19.27c0-.19,0-.2.2-.2s.67,0,2.32,0h1.12V17.55H19.16c-1.64,0-2.23,0-2.34,0s-.22,0-.22-.18,0-.68,0-2v-4c0-1.27,0-1.83,0-2s0-.2.22-.2.7,0,2.34,0h4.28c1.66,0,2.24,0,2.36,0s.2,0,.2.2,0,.69,0,2v4c0,1.32,0,1.89,0,2s0,.18-.2.18-.7,0-2.36,0H22.13V19.1H23.5c1.64,0,2.21,0,2.32,0s.2,0,.2.2v1.24c0,.18,0,.19-.2.19s-.68,0-2.32,0H22.13v1.76H24.2c1.76,0,2.4,0,2.49,0s.19,0,.19.2v1.27c0,.18,0,.2-.19.2S26,24,24.2,24Zm2.74-11.4V10.82h-2v1.82Zm0,3.4V14.11h-2V16Zm1.8-5.22v1.82h2.12V10.82Zm2.12,3.29H22.13V16h2.12Z"/><path class="cls-2" d="M31.13,24.76c-.18,0-.2,0-.2-.18s0-1,0-5.26V16.19c0-3.07,0-3.93,0-4s0-.2.2-.2.72,0,2.45,0h3.34V11a16,16,0,0,0-.14-2.6c.68,0,1.39.06,2,.13a.25.25,0,0,1,.27.22,1.93,1.93,0,0,1-.11.43,9,9,0,0,0-.09,1.8v1h3.58c1.73,0,2.33,0,2.45,0s.2,0,.2.2,0,1,0,3.62v3.51c0,4.29,0,5.12,0,5.22s0,.18-.2.18H43.33c-.18,0-.19,0-.19-.18v-.75H32.87v.83c0,.16,0,.18-.19.18Zm1.74-7.85h4.05V13.74H32.87ZM36.92,22V18.62H32.87V22Zm1.95-8.26v3.17h4.27V13.74ZM43.14,22V18.62H38.87V22Z"/></g></g></svg>