<svg xmlns="http://www.w3.org/2000/svg" width="130" height="102" viewBox="0 0 130 102">
  <defs>
    <style>
      .cls-1 {
        fill: #029b41;
      }

      .cls-2 {
        fill: #fff;
        fill-rule: evenodd;
      }
    </style>
  </defs>
  <ellipse class="cls-1" cx="65" cy="51" rx="65" ry="51"/>
  <path class="cls-2" d="M1957.46,4936.73h3.89l9.34-23.13h-3.47a1.4,1.4,0,0,0-.91.3,1.668,1.668,0,0,0-.51.67l-5.43,14.11a20.9,20.9,0,0,0-.91,3.25c-0.15-.61-0.3-1.18-0.47-1.73s-0.34-1.06-.52-1.52l-5.44-14.11a1.616,1.616,0,0,0-.53-0.7,1.448,1.448,0,0,0-.91-0.27h-3.47Zm38.59-16.28a11.074,11.074,0,0,0-2.38-3.74,10.826,10.826,0,0,0-3.7-2.47,12.3,12.3,0,0,0-4.78-.9,12.535,12.535,0,0,0-4.79.89,10.727,10.727,0,0,0-3.71,2.47,11.265,11.265,0,0,0-2.4,3.75,13.653,13.653,0,0,0,0,9.43,11.265,11.265,0,0,0,2.4,3.75,10.868,10.868,0,0,0,3.71,2.47,13.308,13.308,0,0,0,9.57,0,10.826,10.826,0,0,0,3.7-2.47,11.217,11.217,0,0,0,2.38-3.75A13.5,13.5,0,0,0,1996.05,4920.45Zm-4.07,8.13a7.044,7.044,0,0,1-1.45,2.56,6.141,6.141,0,0,1-2.29,1.61,7.97,7.97,0,0,1-3.05.56,8.059,8.059,0,0,1-3.06-.56,6.38,6.38,0,0,1-2.31-1.61,7.209,7.209,0,0,1-1.46-2.56,11.689,11.689,0,0,1,0-6.83,7.254,7.254,0,0,1,1.46-2.57,6.529,6.529,0,0,1,2.31-1.62,8.059,8.059,0,0,1,3.06-.56,7.97,7.97,0,0,1,3.05.56,6.28,6.28,0,0,1,2.29,1.62,7.088,7.088,0,0,1,1.45,2.57A11.689,11.689,0,0,1,1991.98,4928.58Zm14.76-14.98h-4.32v23.13h4.32V4913.6Zm22.32,17.76a1.458,1.458,0,0,0-.33.24,6.761,6.761,0,0,1-1.07.8,5.6,5.6,0,0,1-1.13.54,6.391,6.391,0,0,1-1.32.3,10.914,10.914,0,0,1-1.59.1,6.823,6.823,0,0,1-2.75-.55,6.474,6.474,0,0,1-2.22-1.59,7.764,7.764,0,0,1-1.5-2.56,10.127,10.127,0,0,1-.55-3.48,9.859,9.859,0,0,1,.55-3.4,7.45,7.45,0,0,1,1.54-2.56,6.58,6.58,0,0,1,2.35-1.63,8.583,8.583,0,0,1,5.29-.28,7.2,7.2,0,0,1,1.5.63,9,9,0,0,1,.98.62,1.245,1.245,0,0,0,.75.29,0.9,0.9,0,0,0,.55-0.15,1.294,1.294,0,0,0,.33-0.33l1.44-2a10.5,10.5,0,0,0-3.31-2.19,11.511,11.511,0,0,0-4.5-.82,12.882,12.882,0,0,0-4.82.87,10.75,10.75,0,0,0-6.19,6.18,12.892,12.892,0,0,0-.86,4.77,14.271,14.271,0,0,0,.77,4.76,10.724,10.724,0,0,0,2.24,3.74,10.188,10.188,0,0,0,3.51,2.45,11.585,11.585,0,0,0,4.63.88,11.932,11.932,0,0,0,4.94-.93,9.354,9.354,0,0,0,3.46-2.67l-1.7-1.84a0.8,0.8,0,0,0-.6-0.27A1.006,1.006,0,0,0,2029.06,4931.36Zm7.54-17.76v23.13h14.59v-3.44h-10.26v-6.54h8.08v-3.31h-8.08v-6.42h10.26v-3.42H2036.6Z" transform="translate(-1935 -4874)"/>
</svg>
