<svg id="Link_arrow005_v5.svg" xmlns="http://www.w3.org/2000/svg" width="20.344" height="12.5" viewBox="0 0 20.344 12.5">
  <defs>
    <style>
      .cls-1 {
        fill: #fff;
      }

      .cls-1, .cls-2 {
        fill-rule: evenodd;
      }

      .cls-2 {
        fill: #f6973c;
      }
    </style>
  </defs>
  <path class="cls-1" d="M509.358,1780.72a14.688,14.688,0,0,0-2.926,3.01l1.98,1.1a25.789,25.789,0,0,1,5.743-5.23,25.837,25.837,0,0,1-5.743-5.24l-1.98,1.1a14.688,14.688,0,0,0,2.926,3.01H493.8v2.25h15.556Z" transform="translate(-493.812 -1772.34)"/>
  <path class="cls-2" d="M509.358,1779.72a14.688,14.688,0,0,0-2.926,3.01l1.98,1.1a25.789,25.789,0,0,1,5.743-5.23,25.837,25.837,0,0,1-5.743-5.24l-1.98,1.1a14.688,14.688,0,0,0,2.926,3.01H493.8v2.25h15.556Z" transform="translate(-493.812 -1772.34)"/>
</svg>
