<svg id="tokucho2.svg" xmlns="http://www.w3.org/2000/svg" width="140" height="140" viewBox="0 0 140 140">
  <defs>
    <style>
      .cls-1 {
        fill: none;
        stroke: #e56315;
        stroke-width: 4px;
      }

      .cls-2 {
        fill: #e56315;
        fill-rule: evenodd;
      }
    </style>
  </defs>
  <circle id="楕円形" class="cls-1" cx="70" cy="70" r="68"/>
  <path id="特長" class="cls-2" d="M1675.6,1040.86h-8.71v-3.21h6.69v-3.92h-6.69v-2.59a0.987,0.987,0,0,0,.97-0.72l-5.26-.29v3.6h-6.44v3.92h6.44v3.21h-7.2v-3.75h-3.74v-6.01a0.885,0.885,0,0,0,.94-0.65l-5.08-.29v6.95h-1.4c0.18-1.22.36-2.48,0.46-3.67a0.782,0.782,0,0,0,.87-0.43l-4.28-1.01c-0.33,4.46-.9,9.32-1.91,12.13a20.332,20.332,0,0,1,2.59,2.27,31.77,31.77,0,0,0,1.55-5.18h2.12v7.45c-2.3.43-4.39,0.79-6.01,1.04l1.4,4.82a0.749,0.749,0,0,0,.65-0.61c1.12-.25,2.48-0.57,3.96-0.93v11.12h4.14v-12.13l3.2-.83v0.94h11.59v7.38c0,0.46-.18.57-0.72,0.61-0.54,0-2.41,0-4.06-.08a16.208,16.208,0,0,1,1.26,4.11c6.26,0,7.81-.54,7.81-4.57v-7.45h4.39v-3.96h-4.39V1046c0.65-.11.9-0.32,0.93-0.68l-5.22-.22v3.03h-10.94l-0.07-.94-3.78.72v-6.69h2.48v3.63h21.46v-3.99Zm-12.28,17.38a27.084,27.084,0,0,0-3.63-5.47l-3.35,1.73a26.72,26.72,0,0,1,3.45,5.68Zm52.98-7.43v-3.96h-22.94v-1.93h18.02v-3.44h-18.02v-1.89h18.02v-3.44h-18.02v-1.96h19.1v-3.62h-23.65v16.28h-6.22v3.96h6.18v8.51l-4.62.51,1.63,4.56a0.813,0.813,0,0,0,.63-0.63c3.73-.56,9.51-1.48,14.98-2.45l-0.18-3.62c-2.59.37-5.29,0.7-7.85,1.03v-7.91h4.33c3.11,7.03,8.11,11.5,16.5,13.43a18.439,18.439,0,0,1,2.82-4,24.675,24.675,0,0,1-8.66-3.18,63.668,63.668,0,0,0,6.07-3.55,1.29,1.29,0,0,0,1.11-.22l-3.3-2.48h4.07Zm-5.36,0a52.214,52.214,0,0,1-5.66,3.84,16.276,16.276,0,0,1-2.96-3.84h8.62Z" transform="translate(-1610 -997)"/>
</svg>
