<svg id="FAX.svg" xmlns="http://www.w3.org/2000/svg" width="37" height="23" viewBox="0 0 37 23">
  <defs>
    <style>
      .cls-1 {
        fill: none;
        stroke: #002d5b;
        stroke-width: 1px;
      }

      .cls-1, .cls-2 {
        fill-rule: evenodd;
      }

      .cls-2 {
        fill: #002d5b;
      }
    </style>
  </defs>
  <path id="FAX" class="cls-1" d="M438,5845.97V5824H402v22.02Z" transform="translate(-401.5 -5823.5)"/>
  <path id="FAX-2" data-name="FAX" class="cls-2" d="M412.741,5829.6v0.88h-5.776v4.02h4.96v0.74h-4.96v5.56h-1.456v-11.2h7.232Zm1.984,7.91-1.408,3.29h-0.736l4.736-11.2h0.8l5.216,11.2h-1.552l-1.536-3.29h-5.52Zm2.672-6.11h-0.064l-2.3,5.39h4.88Zm12.912,2.6h0.08l3.376-4.4h0.848l-3.824,5.01,4.848,6.19h-1.808l-3.9-5h-0.064l-3.824,5h-0.864l4.288-5.58-4.368-5.62h1.792Z" transform="translate(-401.5 -5823.5)"/>
  <path id="FAX-3" data-name="FAX" class="cls-2" d="M412.741,5829.6v0.88h-5.776v4.02h4.96v0.74h-4.96v5.56h-1.456v-11.2h7.232Zm1.984,7.91-1.408,3.29h-0.736l4.736-11.2h0.8l5.216,11.2h-1.552l-1.536-3.29h-5.52Zm2.672-6.11h-0.064l-2.3,5.39h4.88Zm12.912,2.6h0.08l3.376-4.4h0.848l-3.824,5.01,4.848,6.19h-1.808l-3.9-5h-0.064l-3.824,5h-0.864l4.288-5.58-4.368-5.62h1.792Z" transform="translate(-401.5 -5823.5)"/>
</svg>
