<svg id="oyakusoku.svg" xmlns="http://www.w3.org/2000/svg" width="140" height="140" viewBox="0 0 140 140">
  <defs>
    <style>
      .cls-1 {
        fill: #7db100;
      }

      .cls-2 {
        fill: #fff;
        fill-rule: evenodd;
      }
    </style>
  </defs>
  <circle class="cls-1" cx="70" cy="70" r="68"/>
  <path id="お約束" class="cls-2" d="M1008.85,1035.38a21.429,21.429,0,0,1-4.95,1.34c0.06-1.66.12-3.32,0.22-4.72a0.861,0.861,0,0,0,.84-0.83l-5.114-.14v6.12c-2.138.11-4.535,0.14-7.224,0.14l0.065,4.32c2.624,0,5.021-.03,7.159-0.18v6.16a21.353,21.353,0,0,0-4.114,2.55c-2.43,1.98-3.92,4.5-3.92,6.95a5.779,5.779,0,0,0,6.026,6.15c3.982,0,5.892-2.91,5.892-6.22v-7.13a19.984,19.984,0,0,1,6.09-1.22c3.47,0,5.35,2.05,5.35,4.93,0,2.77-1.39,4.82-4.02,4.82a5.16,5.16,0,0,1-4.08-2.45,26.345,26.345,0,0,1-2.01,3.46,7.391,7.391,0,0,0,6.06,3.2c5.54,0,8.2-3.81,8.2-9.03,0-5.8-4.09-8.79-9.4-8.79a21.8,21.8,0,0,0-6.19,1.19c0-1.51.04-3.24,0.04-4.93a30.994,30.994,0,0,0,5.6-1.22Zm11.53,4.11a23.99,23.99,0,0,0-7.61-4.68l-1.97,3.74a24.756,24.756,0,0,1,7.28,4.79Zm-20.5,17.35c0,1.73-.842,2.55-2.17,2.55a2.117,2.117,0,0,1-2.2-2.41c0-2.41,2.462-4.03,4.341-5.29C999.878,1053.81,999.878,1055.94,999.878,1056.84Zm51.772-20.16H1044c0.52-1.58.94-3.2,1.3-4.79a0.726,0.726,0,0,0,.87-0.47l-4.6-1.29c-0.94,4.93-2.62,10.08-4.66,13.1-0.33-.54-0.62-1.04-0.94-1.55-0.84.47-1.72,0.94-2.75,1.55,0.48,0.83.97,1.73,1.45,2.63l-4.05.07a81.432,81.432,0,0,0,6.39-9.29,1.036,1.036,0,0,0,.94-0.36l-3.79-1.94a69.058,69.058,0,0,1-3.44,6.16c-0.36-.47-0.78-0.98-1.26-1.52a59.411,59.411,0,0,0,3.69-6.66,0.809,0.809,0,0,0,.88-0.39l-3.89-1.77a39.8,39.8,0,0,1-2.92,6.59l-0.71-.65-1.78,2.96a30.972,30.972,0,0,1,3.95,4.53c-0.58.86-1.17,1.66-1.72,2.41h-2.36l0.74,4.32a0.708,0.708,0,0,0,.62-0.5c1.17-.07,2.56-0.15,4.15-0.25v2.91l-3.83-1.04a31.008,31.008,0,0,1-1.81,8.49,16.408,16.408,0,0,1,2.88,1.59,35.158,35.158,0,0,0,2.11-8.64,0.6,0.6,0,0,0,.65-0.25v11.48h3.56v-14.8l2.43-.18a16.766,16.766,0,0,1,.61,1.88c0.94-.58,1.88-1.16,2.98-1.8a27.472,27.472,0,0,0-2.62-5.65,19.116,19.116,0,0,1,2.95,2.23,31.1,31.1,0,0,0,2.56-5.04h8.13c-0.33,12.42-.68,17.67-1.62,18.75a1.48,1.48,0,0,1-1.39.61c-0.85,0-2.69,0-4.73-.18a10.42,10.42,0,0,1,1.23,4.07c0.9,0.04,1.81.07,2.69,0.07,3.37,0,4.53-.5,5.57-2.12,1.26-1.84,1.65-7.49,2.04-23.76,0.03-.47.06-1.04,0.06-1.4l-2.07-.15Zm-11.57,10.08a35.244,35.244,0,0,1,3.99,8.35l3.4-1.94a35.815,35.815,0,0,0-4.24-8.18Zm-0.77,11.77a52.681,52.681,0,0,0-2.34-7.09l-3.04,1.11a50.473,50.473,0,0,1,2.17,7.31Zm45.83-18.61h-10.3v-2.38h12.47v-3.99h-12.47v-2.38a0.906,0.906,0,0,0,.91-0.72l-4.96-.29v3.39h-12.24v3.99h12.24v2.38h-9.68v11.88h7.74a30.288,30.288,0,0,1-11.34,7.85,23.862,23.862,0,0,1,2.79,3.77,33.577,33.577,0,0,0,10.49-8.06v8.75h4.05v-9.04a33.459,33.459,0,0,0,10.56,8.32,19.2,19.2,0,0,1,2.85-3.89,30.472,30.472,0,0,1-11.34-7.7h8.23v-11.88Zm-14.35,3.82v4.24h-5.93v-4.24h5.93Zm10.37,4.24h-6.32v-4.24h6.32v4.24Z" transform="translate(-970 -997)"/>
</svg>
