<svg xmlns="http://www.w3.org/2000/svg" width="128" height="128" viewBox="0 0 128 128">
  <defs>
    <style>
      .cls-1 {
        fill: none;
        stroke: #ff6c00;
        stroke-width: 4px;
      }

      .cls-2 {
        fill: #ff6c00;
        fill-rule: evenodd;
      }
    </style>
  </defs>
  <circle class="cls-1" cx="64" cy="64" r="62"/>
  <path class="cls-2" d="M726.4,5155.73h4.9l9.344-23.31h-4.384a1.851,1.851,0,0,0-1.76,1.17l-4.48,12.48q-0.288.81-.584,1.77c-0.2.64-.371,1.32-0.52,2.02-0.182-.7-0.376-1.38-0.584-2.02s-0.414-1.23-.616-1.77l-4.512-12.48a1.756,1.756,0,0,0-.64-0.85,1.961,1.961,0,0,0-1.152-.32h-4.352Zm38.3-16.35a11.317,11.317,0,0,0-2.456-3.78,11.449,11.449,0,0,0-3.816-2.51,12.757,12.757,0,0,0-4.952-.93,13,13,0,0,0-4.96.92,11.1,11.1,0,0,0-6.3,6.28,13.129,13.129,0,0,0,0,9.41,11.114,11.114,0,0,0,6.3,6.31,13.951,13.951,0,0,0,9.912,0,11.322,11.322,0,0,0,3.816-2.52,11.462,11.462,0,0,0,2.456-3.79A13.075,13.075,0,0,0,764.7,5139.38Zm-5.112,7.82a6.6,6.6,0,0,1-1.288,2.34,5.54,5.54,0,0,1-2.056,1.47,7.293,7.293,0,0,1-2.768.5,7.394,7.394,0,0,1-2.792-.5,5.521,5.521,0,0,1-2.064-1.47,6.585,6.585,0,0,1-1.288-2.34,10.185,10.185,0,0,1-.448-3.13,10.053,10.053,0,0,1,.448-3.11,6.546,6.546,0,0,1,1.288-2.35,5.521,5.521,0,0,1,2.064-1.47,7.2,7.2,0,0,1,2.792-.51,7.1,7.1,0,0,1,2.768.51,5.54,5.54,0,0,1,2.056,1.47,6.561,6.561,0,0,1,1.288,2.35,10.083,10.083,0,0,1,.448,3.11A10.215,10.215,0,0,1,759.583,5147.2Zm14.5-14.78h-5.44v23.31h5.44v-23.31Zm19.52,17.38a1.809,1.809,0,0,0-.416.27,5.955,5.955,0,0,1-.952.69,5.221,5.221,0,0,1-.992.46,5.512,5.512,0,0,1-1.128.25,11.106,11.106,0,0,1-1.344.07,5.746,5.746,0,0,1-4.36-1.94,7.049,7.049,0,0,1-1.328-2.35,9.585,9.585,0,0,1-.488-3.18,9.207,9.207,0,0,1,.488-3.09,6.79,6.79,0,0,1,1.36-2.34,5.876,5.876,0,0,1,2.088-1.49,6.705,6.705,0,0,1,2.688-.52,7.188,7.188,0,0,1,1.48.13,6.515,6.515,0,0,1,1.1.31,4.308,4.308,0,0,1,.816.4c0.229,0.14.44,0.28,0.632,0.4a5.359,5.359,0,0,0,.544.31,1.143,1.143,0,0,0,.544.13,1.038,1.038,0,0,0,.672-0.19,2.2,2.2,0,0,0,.416-0.4l1.824-2.45a9,9,0,0,0-1.5-1.26,10,10,0,0,0-1.856-.97,11.137,11.137,0,0,0-2.168-.64,12.2,12.2,0,0,0-2.472-.24,13.547,13.547,0,0,0-4.944.88,11.071,11.071,0,0,0-6.352,6.24,12.458,12.458,0,0,0-.9,4.79,13.873,13.873,0,0,0,.784,4.74,10.949,10.949,0,0,0,2.248,3.78,10.266,10.266,0,0,0,3.568,2.49,11.82,11.82,0,0,0,4.76.91,12.249,12.249,0,0,0,5.016-.94,8.914,8.914,0,0,0,3.528-2.77l-2.144-2.26a1.01,1.01,0,0,0-.752-0.32A1.243,1.243,0,0,0,793.6,5149.8Zm5.824-17.38v23.31h15.008v-4.16h-9.568v-5.55h7.328v-4h-7.328v-5.44h9.568v-4.16H799.423Z" transform="translate(-701.719 -5079.72)"/>
</svg>
