<svg id="_8.svg" data-name="8.svg" xmlns="http://www.w3.org/2000/svg" width="49" height="49" viewBox="0 0 49 49">
  <defs>
    <style>
      .cls-1 {
        fill: #7dd4ff;
        stroke: #ece5c8;
        stroke-width: 1px;
      }

      .cls-2 {
        fill: #fff;
        fill-rule: evenodd;
      }
    </style>
  </defs>
  <rect class="cls-1" x="0.5" y="0.5" width="48" height="48"/>
  <path class="cls-2" d="M731.477,88.012a5.864,5.864,0,0,0-2.372.629,7.163,7.163,0,0,0-1.935,1.428,8.986,8.986,0,0,0-1.409,1.921A6.87,6.87,0,0,0,725,94.1a6.564,6.564,0,0,0,.036,2.5,5.159,5.159,0,0,0,1.056,2.227,5.712,5.712,0,0,0,2.171,1.6,8.314,8.314,0,0,0,3.385.612,10.1,10.1,0,0,0,3.617-.612,9.4,9.4,0,0,0,2.769-1.6,8.389,8.389,0,0,0,1.875-2.227,7.7,7.7,0,0,0,.935-2.5,5.747,5.747,0,0,0-.019-2.108,5.59,5.59,0,0,0-.75-1.921,4.372,4.372,0,0,0-3.6-2.057l0.03-.17a5.607,5.607,0,0,0,2.143-.68,7.254,7.254,0,0,0,1.693-1.309,6.805,6.805,0,0,0,1.174-1.649,6.387,6.387,0,0,0,.6-1.768,5.48,5.48,0,0,0-.036-2.006,4.493,4.493,0,0,0-.9-1.938,5.124,5.124,0,0,0-1.964-1.462,7.855,7.855,0,0,0-3.239-.578,9.381,9.381,0,0,0-3.46.578,8.336,8.336,0,0,0-2.462,1.462,7.017,7.017,0,0,0-2.29,3.944,5.436,5.436,0,0,0-.023,1.768,4.456,4.456,0,0,0,.594,1.649,4.307,4.307,0,0,0,1.231,1.309,4.133,4.133,0,0,0,1.937.68Zm1-.867a3.09,3.09,0,0,1-1.238-.884,3.586,3.586,0,0,1-.729-1.462,4.92,4.92,0,0,1-.011-2.057,6.326,6.326,0,0,1,.859-2.363,5.191,5.191,0,0,1,1.363-1.462,5.115,5.115,0,0,1,1.543-.748,5.342,5.342,0,0,1,1.432-.221,4.732,4.732,0,0,1,1.373.221,3.463,3.463,0,0,1,1.313.748,3.209,3.209,0,0,1,.881,1.462,5.053,5.053,0,0,1,.042,2.363,5.9,5.9,0,0,1-.737,2.057,5.606,5.606,0,0,1-1.26,1.462,5.129,5.129,0,0,1-1.584.884,5.254,5.254,0,0,1-1.7.289A4.165,4.165,0,0,1,732.48,87.145Zm3.2,1.87a3.327,3.327,0,0,1,1.282,1.088,3.95,3.95,0,0,1,.643,1.632,5.96,5.96,0,0,1-.034,2.023,7.794,7.794,0,0,1-2,4.216,4.944,4.944,0,0,1-3.664,1.564,3.291,3.291,0,0,1-3.026-1.564,5.956,5.956,0,0,1-.493-4.216,6.967,6.967,0,0,1,.678-2.023,6.35,6.35,0,0,1,1.2-1.632,5.3,5.3,0,0,1,1.631-1.088,4.87,4.87,0,0,1,1.932-.391A4.135,4.135,0,0,1,735.679,89.015Z" transform="translate(-709.5 -64.5)"/>
</svg>
