<svg xmlns="http://www.w3.org/2000/svg" xmlns:xlink="http://www.w3.org/1999/xlink" width="123" height="106" viewBox="0 0 123 106">
  <defs>
    <style>
      .cls-1 {
        fill: #0084d0;
        stroke: #fff;
        stroke-linejoin: round;
        stroke-width: 2px;
        filter: url(#filter);
      }

      .cls-1, .cls-2 {
        fill-rule: evenodd;
      }

      .cls-2 {
        fill: #fff;
      }
    </style>
    <filter id="filter" x="1214" y="4890" width="121" height="104" filterUnits="userSpaceOnUse">
      <feOffset result="offset" dx="2.828" dy="2.828" in="SourceAlpha"/>
      <feGaussianBlur result="blur"/>
      <feFlood result="flood" flood-color="#0084d0"/>
      <feComposite result="composite" operator="in" in2="blur"/>
      <feBlend result="blend" in="SourceGraphic"/>
    </filter>
  </defs>
  <g transform="translate(-1213 -4889)" style="fill: #0084d0; filter: url(#filter)">
    <path id="Speech bubble" class="cls-1" d="M1214,4890h118v78h-43l-16,23-16-23h-43v-78Z" style="stroke: inherit; filter: none; fill: inherit"/>
  </g>
  <use transform="translate(-1213 -4889)" xlink:href="#Speech bubble" style="stroke: #fff; filter: none; fill: none"/>
  <path class="cls-2" d="M1248.91,4935.36a1.508,1.508,0,0,0-.34.24,6.276,6.276,0,0,1-1.06.8,5.948,5.948,0,0,1-1.14.54,6.293,6.293,0,0,1-1.31.3,10.914,10.914,0,0,1-1.59.1,6.823,6.823,0,0,1-2.75-.55,6.512,6.512,0,0,1-2.23-1.59,7.921,7.921,0,0,1-1.49-2.56,10.127,10.127,0,0,1-.55-3.48,9.859,9.859,0,0,1,.55-3.4,7.588,7.588,0,0,1,1.53-2.56,6.618,6.618,0,0,1,2.36-1.63,8.583,8.583,0,0,1,5.29-.28,7.437,7.437,0,0,1,1.5.63,8.756,8.756,0,0,1,.97.62,1.3,1.3,0,0,0,.76.29,0.9,0.9,0,0,0,.55-0.15,1.294,1.294,0,0,0,.33-0.33l1.44-2a10.5,10.5,0,0,0-3.31-2.19,11.511,11.511,0,0,0-4.5-.82,12.973,12.973,0,0,0-4.83.87,10.771,10.771,0,0,0-6.18,6.18,12.691,12.691,0,0,0-.86,4.77,14.271,14.271,0,0,0,.77,4.76,10.7,10.7,0,0,0,2.23,3.74,10.324,10.324,0,0,0,3.52,2.45,11.585,11.585,0,0,0,4.63.88,11.883,11.883,0,0,0,4.93-.93,9.308,9.308,0,0,0,3.47-2.67l-1.7-1.84a0.8,0.8,0,0,0-.61-0.27A1,1,0,0,0,1248.91,4935.36Zm18.78-17.76h-4.4l-9.08,23.13h3.34a1.433,1.433,0,0,0,.92-0.3,1.479,1.479,0,0,0,.5-0.67l1.73-4.72h9.59l1.72,4.72a1.6,1.6,0,0,0,.52.69,1.441,1.441,0,0,0,.92.28h3.33Zm-3.07,6.73c0.14-.35.28-0.76,0.43-1.23s0.29-.98.44-1.52c0.15,0.54.3,1.05,0.45,1.51s0.3,0.87.43,1.21l2.81,7.7h-7.37Zm29.6-4.56a8.535,8.535,0,0,0-2.94-1.79,10.713,10.713,0,0,0-3.78-.64,8.71,8.71,0,0,0-3.21.56,7.247,7.247,0,0,0-2.38,1.49,6.314,6.314,0,0,0-1.47,2.13,6.233,6.233,0,0,0-.51,2.46,6.9,6.9,0,0,0,.46,2.66,5.28,5.28,0,0,0,1.21,1.8,6.33,6.33,0,0,0,1.71,1.17,16.107,16.107,0,0,0,1.95.77c0.66,0.21,1.31.41,1.95,0.59a9.068,9.068,0,0,1,1.72.67,3.636,3.636,0,0,1,1.2.96,2.306,2.306,0,0,1,.46,1.49,3.147,3.147,0,0,1-1.01,2.51,4.223,4.223,0,0,1-2.85.87,5.684,5.684,0,0,1-2.05-.33,8.274,8.274,0,0,1-1.49-.73c-0.42-.26-0.79-0.51-1.1-0.73a1.531,1.531,0,0,0-.86-0.32,1.032,1.032,0,0,0-.55.15,1.716,1.716,0,0,0-.43.37l-1.24,2.07a8.966,8.966,0,0,0,1.52,1.25,10.96,10.96,0,0,0,3.9,1.57,10.609,10.609,0,0,0,2.18.22,9.21,9.21,0,0,0,3.4-.59,7.067,7.067,0,0,0,2.52-1.6,6.592,6.592,0,0,0,1.57-2.38,7.92,7.92,0,0,0,.54-2.94,5.775,5.775,0,0,0-.46-2.44,5.05,5.05,0,0,0-1.21-1.71,6.751,6.751,0,0,0-1.71-1.15,19.633,19.633,0,0,0-1.96-.8c-0.66-.23-1.32-0.44-1.96-0.65a10.492,10.492,0,0,1-1.71-.69,3.834,3.834,0,0,1-1.21-.92,2.084,2.084,0,0,1-.45-1.36,3.024,3.024,0,0,1,.22-1.18,2.457,2.457,0,0,1,.68-0.92,3.158,3.158,0,0,1,1.12-.6,5.148,5.148,0,0,1,1.56-.22,5.476,5.476,0,0,1,1.72.25,8.05,8.05,0,0,1,1.27.55c0.37,0.21.68,0.39,0.95,0.56a1.4,1.4,0,0,0,.72.24,1,1,0,0,0,.55-0.14,1.253,1.253,0,0,0,.41-0.5Zm5.31-2.17v23.13h14.6v-3.44h-10.26v-6.54h8.08v-3.31h-8.08v-6.42h10.26v-3.42h-14.6Z" transform="translate(-1213 -4889)"/>
</svg>
