<svg xmlns="http://www.w3.org/2000/svg" viewBox="0 0 60 60">
<defs>
<clipPath id="clip-path" transform="translate(-9.5 -10.1)">
<path class="cls-1" d="M9.4 10v64.8L74.2 10H9.4z"/>
</clipPath>
<clipPath id="clip-path-2" transform="translate(-9.5 -10.1)">
<path class="cls-1" d="M0 0v64.8L64.8 0H0z"/>
</clipPath>
<style>.cls-1{fill:none}.cls-6{fill:#fff}</style>
</defs>
<circle cx="30" cy="30" r="30" fill="#e68ba9"/>
<g clip-path="url(#clip-path)"  opacity=".1"><circle class="cls-6" cx="30" cy="30" r="30"/></g>
<g clip-path="url(#clip-path-2)" opacity=".2"><circle class="cls-6" cx="30" cy="30" r="30"/></g>
<path class="cls-6" d="M36.39 38a.25.25 0 01-.4.09 39.32 39.32 0 00-4.93-2.74 15.43 15.43 0 01-7.4 2.68c-.56.06-.58.06-.77-.45a4.47 4.47 0 00-.69-1.22 16.29 16.29 0 006.86-1.82 27.43 27.43 0 00-2.65-.86l-.45.59c-.12.14-.21.18-.46.07l-1.1-.45c-.31-.12-.29-.2-.16-.36.3-.34.61-.74.88-1.11.41-.63.86-1.37 1.29-2.16h-4.06c-.1 0-.2 0-.2-.2v-1.31c0-.19 0-.2.2-.2h4.93c.14-.29.29-.59.41-.9a8.31 8.31 0 00.63-1.8c.65.13 1.35.29 1.93.47.14 0 .23.13.23.23a.45.45 0 01-.21.33c-.15.09-.27.27-.47.68l-.47 1h8.63c.13 0 .19 0 .19.2v1.36c0 .18 0 .2-.19.2h-3.42a12.42 12.42 0 01-2.09 3.78 51.16 51.16 0 014.79 2.32c.09 0 .12.09.12.16a.41.41 0 01-.11.25zm-1.48-14.24h2.42c.11 0 .19 0 .19.18v3.66c0 .15 0 .2-.19.2h-1.5c-.18 0-.2 0-.2-.2v-2.19H24.52v2.11c0 .18 0 .2-.19.2h-1.5c-.18 0-.2 0-.2-.2v-3.58c0-.11 0-.18.2-.18H29v-.22a7 7 0 00-.15-1.71c.67 0 1.34.05 1.95.11.2 0 .29.07.29.16a1.06 1.06 0 01-.11.36 3.17 3.17 0 00-.09 1.08v.22zm-6.44 6.52c-.36.68-.76 1.35-1.17 2 1.13.31 2.25.65 3.33 1.05a8.63 8.63 0 001.89-3.06zm16.23-1.55c.25.07.29.1.27.28a22.24 22.24 0 01-1.66 6.13c-.07.16-.12.21-.37.11l-1.32-.6c-.25-.13-.27-.2-.2-.34a18.8 18.8 0 001.68-5.78c0-.22 0-.22.32-.13zM48.16 35c0 .41.11.66.34.77a4 4 0 001.57.18c.93 0 1.42-.09 1.71-.38s.52-.83.52-2.91a6 6 0 001.49.57c.47.13.47.13.45.6-.07 2-.34 2.79-1 3.29s-1.62.76-3.35.76-2.55-.15-3-.43-.73-.74-.73-1.79v-6.95a12.75 12.75 0 00-.11-2.05 14.56 14.56 0 011.91.18c.28 0 .39.14.39.27a.54.54 0 01-.11.32c-.09.16-.12.4-.12 1.28zm-.88-12.77c.14-.2.18-.22.36-.16a23.17 23.17 0 014.89 2.34c.18.11.18.14.06.36L51.83 26c-.14.25-.18.27-.34.16a21.83 21.83 0 00-4.92-2.56c-.1 0-.14-.05-.14-.11s0-.1.09-.21zM55 28c.23-.09.27-.11.36.07a25.15 25.15 0 012.43 5.51c.05.2 0 .24-.2.36l-1.37.67c-.25.13-.31.13-.36-.07a21.64 21.64 0 00-2.32-5.67c-.09-.16-.06-.24.18-.33z" transform="translate(-9.5 -10.1)" id="テキスト"/></svg>