<svg xmlns="http://www.w3.org/2000/svg" xmlns:xlink="http://www.w3.org/1999/xlink" viewBox="0 0 60 60"><defs><style>.cls-1{fill:none;}.cls-2{isolation:isolate;}.cls-3{fill:#e68ba9;}.cls-4{opacity:0.15;}.cls-5{clip-path:url(#clip-path);}.cls-6{fill:#fff;}.cls-7{clip-path:url(#clip-path-2);}</style><clipPath id="clip-path" transform="translate(-9.5 -10.1)"><polygon class="cls-1" points="9.4 10 9.4 74.8 74.2 10 9.4 10"/></clipPath><clipPath id="clip-path-2" transform="translate(-9.5 -10.1)"><polygon class="cls-1" points="0 0 0 64.8 64.8 0 0 0"/></clipPath></defs><title>concept</title><g><g class="cls-2"><g><circle class="cls-3" cx="30" cy="30" r="30"/></g></g><g class="cls-2"><g class="cls-4"><g class="cls-5"><g><circle class="cls-6" cx="30" cy="30" r="30"/></g></g></g></g><g class="cls-2"><g class="cls-4"><g class="cls-7"><g><circle class="cls-6" cx="30" cy="30" r="30"/></g></g></g></g><g id="テキスト"><path class="cls-6" d="M18.19,31.83c-.16-1.52-.64-2.22-1.35-2.22-1.14,0-1.73,1.38-1.73,3.9s.59,3.92,1.73,3.92c.82,0,1.3-.78,1.47-2.3l1.64.64c-.38,2.28-1.5,3.5-3.16,3.5-2.18,0-3.48-2.14-3.48-5.72s1.34-5.78,3.48-5.78c1.66,0,2.78,1.26,3.11,3.5Z" transform="translate(-9.5 -10.1)"/><path class="cls-6" d="M27.65,33.49c0,3.56-1.39,5.78-3.49,5.78s-3.48-2.16-3.48-5.72,1.4-5.78,3.49-5.78S27.65,29.93,27.65,33.49Zm-5.16,0c0,2.54.53,3.94,1.67,3.94s1.68-1.38,1.68-3.94-.53-3.92-1.67-3.92S22.49,31,22.49,33.51Z" transform="translate(-9.5 -10.1)"/><path class="cls-6" d="M30.81,29.93c.61-1.3,1.52-2.16,2.52-2.16,1.27,0,2.2,1.18,2.2,3.3V39H33.72V31.77c0-1.26-.38-1.84-1.06-1.84s-1.32.72-1.8,1.86V39H29.1V28h1.71Z" transform="translate(-9.5 -10.1)"/><path class="cls-6" d="M41.83,31.83c-.17-1.52-.65-2.22-1.36-2.22-1.14,0-1.73,1.38-1.73,3.9s.59,3.92,1.73,3.92c.82,0,1.3-.78,1.47-2.3l1.64.64c-.38,2.28-1.5,3.5-3.16,3.5-2.18,0-3.48-2.14-3.48-5.72s1.34-5.78,3.48-5.78c1.66,0,2.78,1.26,3.11,3.5Z" transform="translate(-9.5 -10.1)"/><path class="cls-6" d="M46,34.05c0,2.08.66,3.46,1.93,3.46.8,0,1.36-.64,1.63-2.08l1.59.66c-.47,2.1-1.52,3.18-3.23,3.18-2.3,0-3.64-2.1-3.64-5.7s1.41-5.8,3.48-5.8,3.43,2,3.43,5.76v.52Zm3.47-1.66c-.08-1.84-.63-2.88-1.68-2.88s-1.68,1.12-1.76,2.88Z" transform="translate(-9.5 -10.1)"/><path class="cls-6" d="M54.35,29.63c.52-1.2,1.32-1.86,2.16-1.86,1.68,0,2.93,1.9,2.93,5.66s-1.36,5.82-3,5.82c-.93,0-1.57-.64-2-1.8v5.4H52.66V28h1.69Zm.06,5.84c.35,1.16.91,1.84,1.55,1.84.93,0,1.67-1.16,1.67-3.82s-.68-3.76-1.57-3.76c-.64,0-1.26.58-1.65,1.86Z" transform="translate(-9.5 -10.1)"/><path class="cls-6" d="M63,28h1.73v1.84H63v6c0,1.1.31,1.58,1,1.58a2.84,2.84,0,0,0,.89-.12l-.07,1.8a6.51,6.51,0,0,1-1.37.12c-1.46,0-2.14-.9-2.14-2.92V29.85H60.11V28h1.15V25L63,24.43Z" transform="translate(-9.5 -10.1)"/></g></g></svg>