<svg xmlns="http://www.w3.org/2000/svg" xmlns:xlink="http://www.w3.org/1999/xlink" viewBox="0 0 60 60"><defs><style>.cls-1{fill:none;}.cls-2{isolation:isolate;}.cls-3{fill:#e68ba9;}.cls-4{opacity:0.15;}.cls-5{clip-path:url(#clip-path);}.cls-6{fill:#fff;}.cls-7{clip-path:url(#clip-path-2);}</style><clipPath id="clip-path" transform="translate(-9.5 -10.1)"><polygon class="cls-1" points="9.4 10 9.4 74.8 74.2 10 9.4 10"/></clipPath><clipPath id="clip-path-2" transform="translate(-9.5 -10.1)"><polygon class="cls-1" points="0 0 0 64.8 64.8 0 0 0"/></clipPath></defs><title>houshin</title><g><g class="cls-2"><g><circle class="cls-3" cx="30" cy="30" r="30"/></g></g><g class="cls-2"><g class="cls-4"><g class="cls-5"><g><circle class="cls-6" cx="30" cy="30" r="30"/></g></g></g></g><g class="cls-2"><g class="cls-4"><g class="cls-7"><g><circle class="cls-6" cx="30" cy="30" r="30"/></g></g></g></g><g id="テキスト"><path class="cls-6" d="M24.07,26.57c-1.6,0-2.14,0-2.27,0s-.2,0-.2-.22V24.93c0-.2,0-.22.2-.22s.67,0,2.27,0h4.41V23.58a9,9,0,0,0-.12-1.76c.64,0,1.35,0,2,.09.18,0,.29.09.29.19a1.16,1.16,0,0,1-.11.38,2.64,2.64,0,0,0-.11,1.05v1.22h4.74c1.62,0,2.16,0,2.27,0s.17,0,.17.22v1.46c0,.2,0,.22-.17.22s-.65,0-2.27,0H28.9c0,.79-.08,1.53-.15,2.21h4.41c1.52,0,2,0,2.13,0s.21.05.21.25c0,.47,0,.95-.07,1.4a33.15,33.15,0,0,1-.59,5.35c-.4,1.71-1.1,2.23-2.9,2.23-.33,0-.83,0-1.42,0s-.51-.07-.58-.65a4,4,0,0,0-.4-1.39,17.19,17.19,0,0,0,2.22.17,1,1,0,0,0,1.06-.9,21.91,21.91,0,0,0,.56-4.58h-4.9a10.06,10.06,0,0,1-5.27,7.26c-.24.12-.35.2-.44.2s-.19-.13-.36-.4a3.78,3.78,0,0,0-1.08-1.1c4.15-2,5.5-4.52,5.53-10Z" transform="translate(-9.5 -10.1)"/><path class="cls-6" d="M42,27.33a.94.94,0,0,1-.36.19c-.13,0-.18-.12-.29-.41a4.59,4.59,0,0,0-.61-1.17A9.62,9.62,0,0,0,44,22.7a3.48,3.48,0,0,0,.4-.94c.54.07,1.2.2,1.67.31.18,0,.29.11.29.21s0,.2-.27.33a12.37,12.37,0,0,0,3.17,2.77,5.38,5.38,0,0,0-.79,1c-.17.27-.22.4-.33.4s-.21-.09-.45-.29v1.17c0,.2,0,.21-.2.21s-.43,0-1.51,0v1.38h.29c1.42,0,1.91,0,2,0s.2,0,.2.2v1.19c0,.17,0,.19-.2.19s-.58,0-2,0h-.29V35.3c1.05-.23,2.09-.48,2.92-.74a5.34,5.34,0,0,0-.09,1c0,.58,0,.54-.6.7-1.51.44-3.69.94-5.38,1.3a2.22,2.22,0,0,0-.61.22.48.48,0,0,1-.29.1c-.13,0-.23-.1-.29-.26a15.54,15.54,0,0,1-.43-1.52c.58,0,1.15-.12,1.76-.23l1.32-.24V30.75h-.76c-1.44,0-1.92,0-2,0s-.2,0-.2-.19V29.4c0-.18,0-.2.2-.2s.59,0,2,0h.76V27.85c-1,0-1.33,0-1.42,0s-.2,0-.2-.21v-.83Zm.46,4.23c.24-.09.27-.09.35.11a12.67,12.67,0,0,1,.79,2.66c0,.16,0,.23-.22.31l-.82.3c-.26.09-.29.06-.33-.14a12.78,12.78,0,0,0-.72-2.65c-.07-.18-.05-.23.2-.32Zm3.44-5.17c1.1,0,1.43,0,1.57,0A13.19,13.19,0,0,1,45.17,24a14,14,0,0,1-2.05,2.39c.23,0,.61,0,1.26,0ZM47.08,32a3.91,3.91,0,0,0,.12-.67,10.8,10.8,0,0,1,1.35.54c.15.08.18.11.18.2a.19.19,0,0,1-.11.18,1,1,0,0,0-.27.42c-.14.43-.34,1-.54,1.42-.14.29-.21.43-.36.43a1.13,1.13,0,0,1-.41-.18,2.38,2.38,0,0,0-.68-.25A18.67,18.67,0,0,0,47.08,32Zm4.73-7.44a21.83,21.83,0,0,0-.12-2.71c.68,0,1.38.05,2,.12.18,0,.28.09.28.18a.92.92,0,0,1-.1.36,7.61,7.61,0,0,0-.11,2v3.24h1.11c1.59,0,2.15,0,2.24,0s.2,0,.2.19v1.46c0,.18,0,.2-.2.2s-.65,0-2.24,0H53.74v5.44c0,2.05,0,3.08,0,3.17s0,.2-.19.2H52c-.2,0-.21,0-.21-.2s0-1.12,0-3.15V29.5H51c-1.59,0-2.14,0-2.25,0s-.2,0-.2-.2V27.88c0-.18,0-.19.2-.19s.66,0,2.25,0h.79Z" transform="translate(-9.5 -10.1)"/></g></g></svg>