<svg xmlns="http://www.w3.org/2000/svg" xmlns:xlink="http://www.w3.org/1999/xlink" viewBox="0 0 60 60"><defs><style>.cls-1{fill:none;}.cls-2{isolation:isolate;}.cls-3{fill:#e68ba9;}.cls-4{opacity:0.15;}.cls-5{clip-path:url(#clip-path);}.cls-6{fill:#fff;}.cls-7{clip-path:url(#clip-path-2);}</style><clipPath id="clip-path" transform="translate(-9.5 -10.1)"><polygon class="cls-1" points="9.4 10 9.4 74.8 74.2 10 9.4 10"/></clipPath><clipPath id="clip-path-2" transform="translate(-9.5 -10.1)"><polygon class="cls-1" points="0 0 0 64.8 64.8 0 0 0"/></clipPath></defs><title>oyakusoku</title><g><g class="cls-2"><g><circle class="cls-3" cx="30" cy="30" r="30"/></g></g><g class="cls-2"><g class="cls-4"><g class="cls-5"><g><circle class="cls-6" cx="30" cy="30" r="30"/></g></g></g></g><g class="cls-2"><g class="cls-4"><g class="cls-7"><g><circle class="cls-6" cx="30" cy="30" r="30"/></g></g></g></g><g id="テキスト"><path class="cls-6" d="M20.6,28.08a23,23,0,0,1-2.42.15c-.25,0-.32-.11-.35-.38s-.1-.94-.16-1.57a6.15,6.15,0,0,0,1.13.09,16.28,16.28,0,0,0,1.83-.14c0-.6,0-1.28,0-2.06a7.86,7.86,0,0,0-.1-1.45,6.76,6.76,0,0,1,1.72.32.36.36,0,0,1,.28.34.91.91,0,0,1-.08.29,2.31,2.31,0,0,0-.2.7c-.05.47-.06.92-.08,1.5A11.73,11.73,0,0,0,24,25.2c.13-.05.23,0,.24.16a10.89,10.89,0,0,1,.09,1.41c0,.18,0,.23-.19.29a13.36,13.36,0,0,1-2.06.68c0,.86,0,1.75,0,2.61a7.58,7.58,0,0,1,3.55-1c1.78,0,3.06,1.44,3.06,3.6s-1.18,3.66-3.12,3.66a4.46,4.46,0,0,1-1.18-.17c-.23-.07-.32-.25-.32-.54a3.8,3.8,0,0,0-.43-1.53,4.37,4.37,0,0,0,1.8.33c.81,0,1.55-.58,1.55-1.86S26.42,31,25.41,31a6,6,0,0,0-3.3,1.22c0,.76,0,1.37.06,2.16s.11,1.93.11,2.34c0,.25,0,.52-.21.59a4.85,4.85,0,0,1-1.07.22c-.16,0-.21-.13-.34-.36a9.8,9.8,0,0,0-2.05-2.3,2.44,2.44,0,0,0-.46.39.32.32,0,0,1-.24.13c-.12,0-.24-.11-.32-.29s-.45-1.08-.66-1.67a4.86,4.86,0,0,0,1.32-.63l2.35-1.68Zm-1.34,6.2a14.6,14.6,0,0,0,1.35.81c.12,0,.16,0,.15-.15,0-.47-.06-1.29-.09-1.89C20.27,33.39,19.78,33.81,19.26,34.28Zm6.88-9.46c.11-.19.15-.25.25-.21a6.7,6.7,0,0,1,3.05,2.19.33.33,0,0,1,.09.18.48.48,0,0,1-.06.18c-.19.36-.56.92-.78,1.28,0,.07-.24.09-.28,0a6.62,6.62,0,0,0-2.93-2.21A13,13,0,0,1,26.14,24.82Z" transform="translate(-9.5 -10.1)"/><path class="cls-6" d="M37,27.51c.17-.08.2-.06.27.1a18.25,18.25,0,0,1,1.07,3.26c0,.2,0,.29-.17.36l-.77.31c-.15.05-.21,0-.24-.13L37,30.6c-.33.06-.67.09-1,.13v4.95C36,37.34,36,38,36,38s0,.2-.16.2H34.77c-.15,0-.16,0-.16-.2s0-.7,0-2.36V30.87L33.28,31a1.25,1.25,0,0,0-.53.15.34.34,0,0,1-.21.08c-.11,0-.15-.12-.18-.3-.07-.43-.13-.85-.2-1.51a9.85,9.85,0,0,0,1.2,0l.8-1.37a25,25,0,0,0-1.94-2.62c-.06-.08-.09-.11-.09-.17a.91.91,0,0,1,.1-.23l.54-.88c0-.11.1-.17.14-.17s.07,0,.13.11l.36.47a19.14,19.14,0,0,0,.78-1.82,5.89,5.89,0,0,0,.33-1.11,11.45,11.45,0,0,1,1.25.66.35.35,0,0,1,.19.29.34.34,0,0,1-.13.23,1,1,0,0,0-.27.44c-.47,1-.82,1.71-1.27,2.48.22.31.43.6.63.9.33-.65.65-1.31,1-2a9.65,9.65,0,0,0,.44-1.24,11.59,11.59,0,0,1,1.21.77c.13.09.18.17.18.27a.29.29,0,0,1-.16.27,2.12,2.12,0,0,0-.48.74c-.73,1.46-1.52,2.85-2.19,3.91.57,0,1.16-.07,1.72-.13-.13-.39-.26-.77-.41-1.13-.07-.18,0-.22.15-.31Zm-4.19,5.41a8,8,0,0,0,0-1c.43.07.82.12,1.11.2s.24.12.24.21a.81.81,0,0,1-.08.27,2,2,0,0,0-.09.58,25.28,25.28,0,0,1-.55,3.45c-.06.27-.11.4-.2.4s-.17-.07-.33-.22a2.67,2.67,0,0,0-.76-.43A17.18,17.18,0,0,0,32.81,32.92Zm4.57-1.06c.17-.07.2,0,.25.17a33.34,33.34,0,0,1,.74,3.4c0,.2,0,.25-.17.32l-.77.33c-.21.09-.23,0-.26-.15a34.14,34.14,0,0,0-.64-3.45c-.06-.2-.05-.24.13-.31Zm2.5-5.52a11.46,11.46,0,0,1-1.12,2c-.16.22-.23.33-.32.33s-.16-.11-.3-.33a3.06,3.06,0,0,0-.78-.84,11.81,11.81,0,0,0,2.06-4.36,9.52,9.52,0,0,0,.27-1.53c.55.12,1.11.29,1.4.38s.3.16.3.28a.44.44,0,0,1-.14.36,2.45,2.45,0,0,0-.4.92c-.1.36-.2.74-.33,1.1h2.72c1,0,1.37,0,1.45,0s.18,0,.18.21c0,.51,0,1,0,1.5a73.66,73.66,0,0,1-.42,9c-.23,1.83-.84,2.7-2.19,2.73-.3,0-.71,0-1.08,0s-.43,0-.53-.62a6.53,6.53,0,0,0-.41-1.37,9.4,9.4,0,0,0,1.83.17c.54,0,.78-.6.92-1.55a64,64,0,0,0,.36-8.37Zm0,2.43c.16-.11.2-.08.29.05a18.81,18.81,0,0,1,1.64,3.44c.07.18,0,.23-.13.34l-.91.69c-.16.12-.22.09-.27-.11A20.51,20.51,0,0,0,39,29.7c-.1-.18-.1-.23.09-.36Z" transform="translate(-9.5 -10.1)"/><path class="cls-6" d="M49.84,25.35c-1.26,0-1.71,0-1.8,0s-.14,0-.14-.2V23.8c0-.17,0-.18.14-.18s.54,0,1.8,0h3.58a15.71,15.71,0,0,0-.12-2,14,14,0,0,1,1.59.13.2.2,0,0,1,.21.21,1.51,1.51,0,0,1-.07.38,4.21,4.21,0,0,0-.11,1.24h3.81c1.28,0,1.72,0,1.8,0s.16,0,.16.18v1.38c0,.18,0,.2-.16.2s-.52,0-1.8,0H54.92v1.47h2.16c1.41,0,1.91,0,2,0s.16,0,.16.19,0,.51,0,1.52v2c0,1,0,1.39,0,1.5s0,.21-.16.21-.59,0-2,0H55.81A12.17,12.17,0,0,0,61.07,36a5.75,5.75,0,0,0-.67,1.31c-.11.33-.15.45-.27.45a1,1,0,0,1-.35-.14,13.56,13.56,0,0,1-4.88-4.41c0,2.27.07,4.59.07,4.86s0,.2-.16.2H53.52c-.15,0-.16,0-.16-.2s.09-2.57.1-4.86a12.49,12.49,0,0,1-4.62,4.43.82.82,0,0,1-.34.14c-.11,0-.15-.12-.27-.45a4.41,4.41,0,0,0-.65-1.19,12.13,12.13,0,0,0,4.93-3.88h-1c-1.42,0-1.92,0-2,0s-.17,0-.17-.21,0-.53,0-1.5v-2c0-1,0-1.41,0-1.52s0-.19.17-.19.59,0,2,0h1.9V25.35Zm3.58,5.29V28.42H50.84v2.22Zm4.32-2.22H54.92v2.22h2.82Z" transform="translate(-9.5 -10.1)"/></g></g></svg>