<svg xmlns="http://www.w3.org/2000/svg" viewBox="0 0 60 60"><defs><clipPath id="clip-path" transform="translate(-9.5 -10.1)"><path class="cls-1" d="M9.4 10v64.8L74.2 10H9.4z"/></clipPath><clipPath id="clip-path-2" transform="translate(-9.5 -10.1)"><path class="cls-1" d="M0 0v64.8L64.8 0H0z"/></clipPath><style>.cls-1{fill:none}.cls-6{fill:#fff}</style></defs><circle cx="30" cy="30" r="30" fill="#e68ba9"/><g clip-path="url(#clip-path)" opacity=".15"><circle class="cls-6" cx="30" cy="30" r="30"/></g><g clip-path="url(#clip-path-2)" opacity=".2"><circle class="cls-6" cx="30" cy="30" r="30"/></g><path class="cls-6" d="M18.14 29.63a3.64 3.64 0 013.08-1.86c2.4 0 4.18 1.9 4.18 5.66s-1.94 5.82-4.3 5.82a3.11 3.11 0 01-2.88-1.8v5.4h-2.5V28h2.42zm.08 5.84a2.58 2.58 0 002.22 1.84c1.32 0 2.38-1.16 2.38-3.82s-1-3.76-2.24-3.76a2.65 2.65 0 00-2.36 1.86zm19.04-1.98c0 3.56-2 5.78-5 5.78s-5-2.16-5-5.72 2-5.78 5-5.78 5 2.16 5 5.72zm-7.36 0c0 2.54.76 3.94 2.38 3.94s2.4-1.38 2.4-3.94-.76-3.92-2.38-3.92-2.4 1.43-2.4 3.94zm12.54-7.44h-2.72v-2.58h2.72zM42.34 39h-2.52V28h2.52zM48 29.93a4.48 4.48 0 013.6-2.16 3 3 0 013.14 3.3V39h-2.58v-7.23c0-1.26-.54-1.84-1.52-1.84a3.36 3.36 0 00-2.56 1.86V39h-2.52V28H48zM60.92 28h2.46v1.84h-2.46v6c0 1.1.44 1.58 1.36 1.58a5.76 5.76 0 001.28-.12l-.1 1.8a13.21 13.21 0 01-2 .12c-2.08 0-3.06-.9-3.06-2.92v-6.45h-1.6V28h1.64v-3l2.48-.56z" transform="translate(-9.5 -10.1)" id="テキスト"/></svg>