<svg xmlns="http://www.w3.org/2000/svg" xmlns:xlink="http://www.w3.org/1999/xlink" viewBox="0 0 60 60"><defs><style>.cls-1{fill:none;}.cls-2{isolation:isolate;}.cls-3{fill:#e68ba9;}.cls-4{opacity:0.15;}.cls-5{clip-path:url(#clip-path);}.cls-6{fill:#fff;}.cls-7{clip-path:url(#clip-path-2);}</style><clipPath id="clip-path" transform="translate(-9.5 -10.1)"><polygon class="cls-1" points="9.4 10 9.4 74.8 74.2 10 9.4 10"/></clipPath><clipPath id="clip-path-2" transform="translate(-9.5 -10.1)"><polygon class="cls-1" points="0 0 0 64.8 64.8 0 0 0"/></clipPath></defs><title>tokucho</title><g id="レイヤー_2" data-name="レイヤー 2"><g id="楕円形" class="cls-2"><g id="楕円形_872" data-name="楕円形 872"><circle class="cls-3" cx="30" cy="30" r="30"/></g></g><g id="長方形" class="cls-2"><g class="cls-4"><g class="cls-5"><g id="楕円形_872-2" data-name="楕円形 872"><circle class="cls-6" cx="30" cy="30" r="30"/></g></g></g></g><g id="長方形-2" data-name="長方形" class="cls-2"><g class="cls-4"><g class="cls-7"><g id="楕円形_872-3" data-name="楕円形 872"><circle class="cls-6" cx="30" cy="30" r="30"/></g></g></g></g><g id="テキスト"><path class="cls-6" d="M35.44,34c0,.83,0,1.6,0,2.23a1.67,1.67,0,0,1-.61,1.53,4.7,4.7,0,0,1-2.4.4c-.54,0-.56,0-.68-.56a4,4,0,0,0-.56-1.35,13.84,13.84,0,0,0,1.93,0c.39,0,.5-.16.5-.55V32.15H30.11c-1.71,0-2.28,0-2.39,0s-.2,0-.2-.2v-.92a2,2,0,0,1-.34.18c-.4.22-.83.42-1.26.63v3c0,2,0,3.08,0,3.17s0,.2-.21.2H24.3c-.18,0-.2,0-.2-.2s0-1.12,0-3.15v-2.2l-1.26.54a1.89,1.89,0,0,0-.59.36.43.43,0,0,1-.31.16c-.12,0-.19,0-.27-.2a17,17,0,0,1-.59-1.74,8.7,8.7,0,0,0,1.67-.49q.67-.21,1.35-.48v-3.7H23.07a19,19,0,0,1-.41,2.07c-.07.31-.11.44-.22.44a1.13,1.13,0,0,1-.41-.18,6.2,6.2,0,0,0-1-.36,19.85,19.85,0,0,0,.75-4.72,8.89,8.89,0,0,0,0-1.15c.46,0,1,.12,1.45.21.22.06.29.11.29.22a.55.55,0,0,1-.09.29,2.24,2.24,0,0,0-.09.61l-.07.88h.86v-1A19.11,19.11,0,0,0,24,21.74c.68,0,1.22.06,1.86.13.18,0,.28.09.28.18a1.07,1.07,0,0,1-.1.38,6.94,6.94,0,0,0-.11,2v1c1,0,1.37,0,1.46,0s.21,0,.21.18V27c0,.11,0,.16-.05.18.14,0,.75,0,2.39,0h1.32v-1.8h-.74c-1.6,0-2.13,0-2.23,0s-.22,0-.22-.19V24c0-.18,0-.2.22-.2s.63,0,2.23,0h.74a10.25,10.25,0,0,0-.17-2.06,18.54,18.54,0,0,1,1.9.15c.18,0,.28.07.28.18a1,1,0,0,1-.1.36A3.8,3.8,0,0,0,33,23.82h1.26c1.62,0,2.16,0,2.27,0s.2,0,.2.2v1.28c0,.18,0,.19-.2.19s-.65,0-2.27,0H33v1.8h2c1.71,0,2.3,0,2.39,0s.2,0,.2.18v1.28c0,.18,0,.2-.2.2s-.68,0-2.39,0H29.93c-1.73,0-2.32,0-2.43,0s-.2,0-.2-.2V27.36c0-.09,0-.12,0-.16l-1.42,0V30.1c.52-.25,1.08-.5,1.65-.81,0,.34,0,.79.06,1.19h.09c.11,0,.68,0,2.39,0h3.55a7,7,0,0,0-.13-1.44,16.44,16.44,0,0,1,1.84.2c.18,0,.29.13.29.22a.6.6,0,0,1-.11.3,1.44,1.44,0,0,0-.11.72c1.33,0,1.84,0,1.93,0s.2,0,.2.2V32c0,.18,0,.2-.2.2l-1.93,0Zm-5.85-1.26c.2-.11.25-.11.38,0a14.31,14.31,0,0,1,1.74,2.08c.11.17.09.2-.1.35L30.53,36c-.11.07-.17.11-.22.11s-.09-.05-.13-.14a11,11,0,0,0-1.65-2.26c-.13-.16-.11-.19.09-.32Z" transform="translate(-9.5 -10.1)"/><path class="cls-6" d="M42.59,33.22c0-.55,0-1.31,0-2-.27.27-.54.56-.83.81s-.27.23-.36.23-.16-.12-.23-.39a5,5,0,0,0-.52-1.3,13.55,13.55,0,0,0,3.09-3.67,8.18,8.18,0,0,0,.47-1c.49.3.83.54,1.26.86,0-.25,0-.57,0-1v-1.3a8.62,8.62,0,0,0-.07-1.2,1.83,1.83,0,0,0-.47.46,18.94,18.94,0,0,1-2.88,2.94c-.18.14-.29.23-.38.23s-.21-.14-.32-.43a3.57,3.57,0,0,0-.67-1.17,12,12,0,0,0,3-2.72,5.56,5.56,0,0,0,.53-.84,9.35,9.35,0,0,1,1.27.91c.15.13.24.2.24.33a.11.11,0,0,1,0,.07l1.28.11c.16,0,.25.07.25.16a.65.65,0,0,1-.11.32,1.93,1.93,0,0,0-.09.8v1.64h.79V23.61a8.58,8.58,0,0,0-.1-1.69c.64,0,1,0,1.6.09.16,0,.25.07.25.16a1,1,0,0,1-.11.32,3.49,3.49,0,0,0-.09,1.12v2.47h.8V24.47a12,12,0,0,0-.09-1.42,15.41,15.41,0,0,1,1.54.11c.17,0,.24.07.24.18a.58.58,0,0,1-.09.27,2,2,0,0,0-.09.84v1.32c0,.94,0,1.42,0,1.53a14.75,14.75,0,0,0,1.48-4.16,8.73,8.73,0,0,0,.18-1.42c.52.07,1.21.23,1.59.32.19.07.3.15.3.25a.57.57,0,0,1-.16.36,2.23,2.23,0,0,0-.29.83c-.12.54-.27,1.06-.43,1.59h1.3c1.29,0,1.69,0,1.8,0s.19,0,.19.22v1.28c0,.18,0,.19-.19.19h-.74a16.57,16.57,0,0,1-1.41,6.62A11.16,11.16,0,0,0,58,36.19a5.65,5.65,0,0,0-.74,1.37c-.09.27-.16.4-.27.4s-.19-.09-.36-.25A14.84,14.84,0,0,1,54.38,35a13.3,13.3,0,0,1-2.85,3c-.19.14-.3.23-.39.23s-.18-.1-.33-.34a3.53,3.53,0,0,0-.86-1,11.43,11.43,0,0,0,3.51-3.6,16.61,16.61,0,0,1-1.13-3.76c-.15.2-.22.29-.29.29s-.18-.11-.33-.36a2.64,2.64,0,0,0-.28-.36v1c0,.18,0,.2-.2.2s-.52,0-1.73,0h-.13v1.35c1.21,0,1.59,0,1.7,0s.19,0,.19.2v1.13c0,.18,0,.2-.19.2s-.49,0-1.7,0v1.48c.69-.13,1.43-.29,2.16-.49a5,5,0,0,0-.16.92c0,.6,0,.6-.59.72-1.35.36-2.86.69-4.14.92a3.08,3.08,0,0,0-.78.23.47.47,0,0,1-.29.11c-.09,0-.16-.07-.21-.32-.11-.45-.16-.9-.25-1.53.66,0,1.26-.09,1.81-.16.26,0,.51-.06.8-.11V33h-.16c-1.23,0-1.61,0-1.72,0s-.19,0-.19-.2V31.75c0-.18,0-.2.19-.2s.49,0,1.72,0h.16V30.23h-.33c-1.28,0-1.69,0-1.8,0s-.21,0-.21-.2V28.9c0-.18,0-.2.21-.2s.52,0,1.8,0H49.5c.94,0,1.39,0,1.6,0l-.18-.16c.24-.34.45-.68.65-1-.16,0-.61,0-1.89,0H47.52c-1.28,0-1.73,0-1.84,0a.29.29,0,0,1-.18,0,1.64,1.64,0,0,0-.39.5c-.24.38-.49.78-.78,1.19v6.68c0,1.44,0,2.12,0,2.21s0,.2-.2.2H42.75c-.18,0-.2,0-.2-.2s0-.77,0-2.21ZM53.8,26.69c-.12.3-.25.59-.39.88a16.47,16.47,0,0,0,.93,3.78,17.17,17.17,0,0,0,.8-4.66Z" transform="translate(-9.5 -10.1)"/></g></g></svg>