<svg xmlns="http://www.w3.org/2000/svg" viewBox="0 0 60 60"><defs><clipPath id="clip-path" transform="translate(-9.5 -10.1)"><path class="cls-1" d="M9.4 10v64.8L74.2 10H9.4z"/></clipPath><clipPath id="clip-path-2" transform="translate(-9.5 -10.1)"><path class="cls-1" d="M0 0v64.8L64.8 0H0z"/></clipPath><style>.cls-1{fill:none}.cls-6{fill:#fff}</style></defs><circle cx="30" cy="30" r="30" fill="#e68ba9"/><g clip-path="url(#clip-path)" opacity=".15"><circle class="cls-6" cx="30" cy="30" r="30"/></g><g clip-path="url(#clip-path-2)" opacity=".15"><circle class="cls-6" cx="30" cy="30" r="30"/></g><path class="cls-6" d="M35.44 34v2.23a1.67 1.67 0 01-.61 1.53 4.7 4.7 0 01-2.4.4c-.54 0-.56 0-.68-.56a4 4 0 00-.56-1.35 13.84 13.84 0 001.93 0c.39 0 .5-.16.5-.55v-3.55h-5.9c-.11 0-.2 0-.2-.2v-.92a2 2 0 01-.34.18c-.4.22-.83.42-1.26.63v6.17c0 .09 0 .2-.21.2H24.3c-.18 0-.2 0-.2-.2v-5.35l-1.26.54a1.89 1.89 0 00-.59.36.43.43 0 01-.31.16c-.12 0-.19 0-.27-.2a17 17 0 01-.59-1.74 8.7 8.7 0 001.67-.49q.67-.21 1.35-.48v-3.7h-1.03a19 19 0 01-.41 2.07c-.07.31-.11.44-.22.44a1.13 1.13 0 01-.41-.18 6.2 6.2 0 00-1-.36 19.85 19.85 0 00.75-4.72 8.89 8.89 0 000-1.15c.46 0 1 .12 1.45.21.22.06.29.11.29.22a.55.55 0 01-.09.29 2.24 2.24 0 00-.09.61l-.07.88h.86v-1a19.11 19.11 0 00-.13-2.68c.68 0 1.22.06 1.86.13.18 0 .28.09.28.18a1.07 1.07 0 01-.1.38 6.94 6.94 0 00-.11 2v1h1.46c.09 0 .21 0 .21.18V27c0 .11 0 .16-.05.18h3.71v-1.8h-2.97c-.1 0-.22 0-.22-.19V24c0-.18 0-.2.22-.2h2.97a10.25 10.25 0 00-.17-2.06 18.54 18.54 0 011.9.15c.18 0 .28.07.28.18a1 1 0 01-.1.36 3.8 3.8 0 00-.17 1.39h3.53c.11 0 .2 0 .2.2v1.28c0 .18 0 .19-.2.19H33v1.8h4.39c.09 0 .2 0 .2.18v1.28c0 .18 0 .2-.2.2H27.5c-.11 0-.2 0-.2-.2V27.2h-1.42v2.9c.52-.25 1.08-.5 1.65-.81 0 .34 0 .79.06 1.19h6.03a7 7 0 00-.13-1.44 16.44 16.44 0 011.84.2c.18 0 .29.13.29.22a.6.6 0 01-.11.3 1.44 1.44 0 00-.11.72h1.93c.09 0 .2 0 .2.2V32c0 .18 0 .2-.2.2H35.4zm-5.85-1.26c.2-.11.25-.11.38 0a14.31 14.31 0 011.74 2.08c.11.17.09.2-.1.35l-1.08.83c-.11.07-.17.11-.22.11s-.09-.05-.13-.14a11 11 0 00-1.65-2.26c-.13-.16-.11-.19.09-.32zm13 .48v-2c-.27.27-.54.56-.83.81s-.27.23-.36.23-.16-.12-.23-.39a5 5 0 00-.52-1.3 13.55 13.55 0 003.09-3.67 8.18 8.18 0 00.47-1c.49.3.83.54 1.26.86v-2.3a8.62 8.62 0 00-.07-1.2 1.83 1.83 0 00-.47.46 18.94 18.94 0 01-2.88 2.94c-.18.14-.29.23-.38.23s-.21-.14-.32-.43a3.57 3.57 0 00-.67-1.17 12 12 0 003-2.72 5.56 5.56 0 00.53-.84 9.35 9.35 0 011.27.91c.15.13.24.2.24.33a.11.11 0 010 .07l1.28.11c.16 0 .25.07.25.16a.65.65 0 01-.11.32 1.93 1.93 0 00-.09.8v1.64h.79v-2.46a8.58 8.58 0 00-.1-1.69c.64 0 1 0 1.6.09.16 0 .25.07.25.16a1 1 0 01-.11.32 3.49 3.49 0 00-.09 1.12v2.47h.8v-1.61a12 12 0 00-.09-1.42 15.41 15.41 0 011.54.11c.17 0 .24.07.24.18a.58.58 0 01-.09.27 2 2 0 00-.09.84v2.85a14.75 14.75 0 001.48-4.16 8.73 8.73 0 00.18-1.42c.52.07 1.21.23 1.59.32.19.07.3.15.3.25a.57.57 0 01-.16.36 2.23 2.23 0 00-.29.83c-.12.54-.27 1.06-.43 1.59h3.1c.11 0 .19 0 .19.22v1.28c0 .18 0 .19-.19.19h-.74a16.57 16.57 0 01-1.41 6.62A11.16 11.16 0 0058 36.19a5.65 5.65 0 00-.74 1.37c-.09.27-.16.4-.27.4s-.19-.09-.36-.25A14.84 14.84 0 0154.38 35a13.3 13.3 0 01-2.85 3c-.19.14-.3.23-.39.23s-.18-.1-.33-.34a3.53 3.53 0 00-.86-1 11.43 11.43 0 003.51-3.6 16.61 16.61 0 01-1.13-3.76c-.15.2-.22.29-.29.29s-.18-.11-.33-.36a2.64 2.64 0 00-.28-.36v1c0 .18 0 .2-.2.2h-1.86v1.35h1.7c.11 0 .19 0 .19.2v1.13c0 .18 0 .2-.19.2h-1.7v1.48c.69-.13 1.43-.29 2.16-.49a5 5 0 00-.16.92c0 .6 0 .6-.59.72-1.35.36-2.86.69-4.14.92a3.08 3.08 0 00-.78.23.47.47 0 01-.29.11c-.09 0-.16-.07-.21-.32-.11-.45-.16-.9-.25-1.53.66 0 1.26-.09 1.81-.16.26 0 .51-.06.8-.11V33h-1.88c-.11 0-.19 0-.19-.2v-1.05c0-.18 0-.2.19-.2h1.88v-1.32h-2.13c-.11 0-.21 0-.21-.2V28.9c0-.18 0-.2.21-.2h5.51l-.18-.16c.24-.34.45-.68.65-1h-5.89a.29.29 0 01-.18 0 1.64 1.64 0 00-.39.5c-.24.38-.49.78-.78 1.19v8.89c0 .09 0 .2-.2.2h-1.38c-.18 0-.2 0-.2-.2v-2.21zm11.21-6.53c-.12.3-.25.59-.39.88a16.47 16.47 0 00.93 3.78 17.17 17.17 0 00.8-4.66z" transform="translate(-9.5 -10.1)" /></svg>