<svg xmlns="http://www.w3.org/2000/svg" xmlns:xlink="http://www.w3.org/1999/xlink" viewBox="0 0 60 60"><defs><style>.cls-1{fill:none;}.cls-2{isolation:isolate;}.cls-3{fill:#e68ba9;}.cls-4{opacity:0.15;}.cls-5{clip-path:url(#clip-path);}.cls-6{fill:#fff;}.cls-7{clip-path:url(#clip-path-2);}</style><clipPath id="clip-path" transform="translate(-9.5 -10.1)"><polygon class="cls-1" points="9.4 10 9.4 74.8 74.2 10 9.4 10"/></clipPath><clipPath id="clip-path-2" transform="translate(-9.5 -10.1)"><polygon class="cls-1" points="0 0 0 64.8 64.8 0 0 0"/></clipPath></defs><title>tokucho2</title><g id="レイヤー_2" data-name="レイヤー 2"><g id="楕円形" class="cls-2"><g id="楕円形_872" data-name="楕円形 872"><circle class="cls-3" cx="30" cy="30" r="30"/></g></g><g id="長方形" class="cls-2"><g class="cls-4"><g class="cls-5"><g id="楕円形_872-2" data-name="楕円形 872"><circle class="cls-6" cx="30" cy="30" r="30"/></g></g></g></g><g id="長方形-2" data-name="長方形" class="cls-2"><g class="cls-4"><g class="cls-7"><g id="楕円形_872-3" data-name="楕円形 872"><circle class="cls-6" cx="30" cy="30" r="30"/></g></g></g></g><g id="テキスト"><path class="cls-6" d="M35.3,34c0,.82,0,1.6,0,2.23a1.68,1.68,0,0,1-.61,1.53,4.7,4.7,0,0,1-2.4.4c-.54,0-.56,0-.68-.56a3.89,3.89,0,0,0-.56-1.35,13.84,13.84,0,0,0,1.93,0c.39,0,.5-.16.5-.56V32.17H30c-1.71,0-2.28,0-2.39,0s-.2,0-.2-.2v-.92a3.21,3.21,0,0,1-.34.18c-.4.22-.83.41-1.26.63v3c0,2.05,0,3.07,0,3.17s0,.19-.21.19H24.16c-.18,0-.2,0-.2-.19s0-1.12,0-3.16V32.73l-1.27.54a1.72,1.72,0,0,0-.59.36.43.43,0,0,1-.31.16c-.12,0-.19,0-.27-.2A16.36,16.36,0,0,1,21,31.84a8.94,8.94,0,0,0,1.68-.48c.45-.15.9-.31,1.35-.49V27.18H22.93a19.43,19.43,0,0,1-.41,2.07c-.07.31-.11.43-.22.43a1.13,1.13,0,0,1-.41-.18,9,9,0,0,0-1-.36,19.7,19.7,0,0,0,.75-4.71,9,9,0,0,0,0-1.16c.46.06,1,.13,1.46.22.21.05.28.11.28.22a.51.51,0,0,1-.09.28,2.41,2.41,0,0,0-.09.62l-.07.88H24v-1a18.74,18.74,0,0,0-.15-2.72c.69,0,1.23.06,1.86.13.18,0,.28.09.28.18a1.13,1.13,0,0,1-.1.38,7.24,7.24,0,0,0-.11,2v1c1,0,1.37,0,1.46,0s.21,0,.21.18V27c0,.11,0,.16-.05.18.14,0,.75,0,2.39,0h1.32v-1.8h-.74c-1.6,0-2.13,0-2.23,0s-.22,0-.22-.2V24c0-.18,0-.19.22-.19s.63,0,2.23,0h.74a11.16,11.16,0,0,0-.16-2c.7,0,1.26.07,1.89.14.18,0,.28.08.28.18a.92.92,0,0,1-.1.36,3.84,3.84,0,0,0-.13,1.37h1.26c1.62,0,2.16,0,2.27,0s.2,0,.2.19v1.28c0,.18,0,.2-.2.2s-.65,0-2.27,0H32.89v1.8h2c1.71,0,2.31,0,2.4,0s.19,0,.19.18v1.28c0,.18,0,.2-.19.2s-.69,0-2.4,0H29.79c-1.73,0-2.32,0-2.43,0s-.2,0-.2-.2V27.38c0-.09,0-.13,0-.16l-1.42,0v2.94c.52-.26,1.08-.51,1.65-.81,0,.34,0,.79.06,1.18h.09c.11,0,.68,0,2.39,0h3.55a6.83,6.83,0,0,0-.13-1.44,16.44,16.44,0,0,1,1.84.2c.18,0,.29.12.29.21a.53.53,0,0,1-.11.31,1.44,1.44,0,0,0-.11.72c1.34,0,1.84,0,1.93,0s.2,0,.2.2V32c0,.18,0,.2-.2.2l-1.93,0Zm-5.85-1.26c.2-.11.25-.11.38,0a15,15,0,0,1,1.75,2.09c.1.16.09.2-.11.34L30.39,36c-.11.07-.16.11-.22.11s-.09-.06-.12-.15a11.6,11.6,0,0,0-1.66-2.25c-.13-.16-.11-.2.09-.32Z" transform="translate(-9.5 -10.1)"/><path class="cls-6" d="M43.13,31.58c-1.6,0-2.16,0-2.27,0s-.18,0-.18-.2V30.08c0-.18,0-.2.18-.2s.67,0,2.27,0h.54V24.7c0-1.32,0-1.93,0-2s0-.2.2-.2.74,0,2.49,0h6c1.75,0,2.34,0,2.45,0s.21,0,.21.2V24c0,.16,0,.18-.21.18s-.7,0-2.45,0H45.58v1h6c1.68,0,2.24,0,2.34,0s.2,0,.2.22v1c0,.18,0,.2-.2.2s-.66,0-2.34,0h-6v1h6c1.68,0,2.22,0,2.33,0s.21,0,.21.22v1c0,.18,0,.2-.21.2s-.65,0-2.33,0h-6v1h8.64c1.6,0,2.14,0,2.25,0s.22,0,.22.2v1.33c0,.18,0,.2-.22.2s-.65,0-2.25,0H49.14A7.78,7.78,0,0,0,51,33.84a14.09,14.09,0,0,0,1.84-1.47,3.07,3.07,0,0,0,.58-.74c.57.36,1,.61,1.44.95.12.09.18.17.18.27S55,33,54.85,33a2,2,0,0,0-.63.38,18.49,18.49,0,0,1-1.84,1.32,14.89,14.89,0,0,0,4.72,1.54,4.44,4.44,0,0,0-.77,1.25c-.27.56-.27.56-.81.43-4-1.05-6.72-3.12-8.18-6.37H45.58v3.85c1.08-.25,2.18-.52,3.36-.87a8.21,8.21,0,0,0-.07,1.14c0,.57,0,.57-.56.74-2,.59-4,1.09-5.74,1.47a1.61,1.61,0,0,0-.63.24.4.4,0,0,1-.27.11c-.07,0-.14-.08-.22-.24-.18-.5-.37-1.24-.5-1.75A16.33,16.33,0,0,0,42.88,36l.79-.16V31.58Z" transform="translate(-9.5 -10.1)"/></g></g></svg>