<svg xmlns="http://www.w3.org/2000/svg" xmlns:xlink="http://www.w3.org/1999/xlink" viewBox="0 0 60 60"><defs><style>.cls-1{fill:none;}.cls-2{isolation:isolate;}.cls-3{fill:#e68ba9;}.cls-4{opacity:0.15;}.cls-5{clip-path:url(#clip-path);}.cls-6{fill:#fff;}.cls-7{clip-path:url(#clip-path-2);}</style><clipPath id="clip-path" transform="translate(-9.5 -10.1)"><polygon class="cls-1" points="9.4 10 9.4 74.8 74.2 10 9.4 10"/></clipPath><clipPath id="clip-path-2" transform="translate(-9.5 -10.1)"><polygon class="cls-1" points="0 0 0 64.8 64.8 0 0 0"/></clipPath></defs><title>tsuyomi</title><g id="レイヤー_2" data-name="レイヤー 2"><g id="楕円形" class="cls-2"><g id="楕円形_872" data-name="楕円形 872"><circle class="cls-3" cx="30" cy="30" r="30"/></g></g><g id="長方形" class="cls-2"><g class="cls-4"><g class="cls-5"><g id="楕円形_872-2" data-name="楕円形 872"><circle class="cls-6" cx="30" cy="30" r="30"/></g></g></g></g><g id="長方形-2" data-name="長方形" class="cls-2"><g class="cls-4"><g class="cls-7"><g id="楕円形_872-3" data-name="楕円形 872"><circle class="cls-6" cx="30" cy="30" r="30"/></g></g></g></g><g id="テキスト"><path class="cls-6" d="M26.66,30.08c.82,0,1,0,1.15,0s.23.06.21.24c0,.36-.05.86-.07,1.26a17.78,17.78,0,0,1-.77,5.29c-.33.81-1,1.19-2.29,1.19-.23,0-.54,0-.86,0s-.38,0-.49-.59a5.54,5.54,0,0,0-.41-1.33,11.16,11.16,0,0,0,1.58.16,1,1,0,0,0,.81-.27c.25-.33.54-1.5.7-4.29H24.5l-.13.67c-.06.22-.06.22-1,.11s-.83-.13-.78-.38a33,33,0,0,0,.65-4.16,7.84,7.84,0,0,0,.06-1.28c0-.18.05-.23.23-.23s.52,0,1.19,0h1.58V24.17H24.58c-1.11,0-1.44,0-1.54,0s-.22,0-.22-.2V22.72c0-.2,0-.22.22-.22s.43,0,1.54,0h2c.82,0,1.13,0,1.24,0s.21,0,.21.22,0,.57,0,1.62v1.85c0,1,0,1.51,0,1.62s0,.2-.21.2-.42,0-1.24,0H25c-.07.76-.16,1.46-.25,2.11Zm9,4.23c-.09-.14-.06-.2.16-.29l.92-.39c.19-.09.23-.06.32.11A16.66,16.66,0,0,1,39,37.12c.05.16,0,.22-.17.31l-1,.46c-.22.08-.29.06-.36-.12-.16-.42-.33-.83-.52-1.24-2.33.43-4.83.79-7,1.06a2.47,2.47,0,0,0-.76.2.91.91,0,0,1-.33.09c-.14,0-.25-.09-.3-.29-.16-.56-.27-1.17-.38-1.77a16.37,16.37,0,0,0,2.09,0c.65,0,1.44-.11,2.27-.22V33.36h-1c-1.6,0-2.18,0-2.3,0s-.2,0-.2-.19,0-.51,0-1.44V29.85c0-.94,0-1.32,0-1.44s0-.2.2-.2.7,0,2.3,0h1V26.73c-.87.07-1.7.13-2.47.16a1.79,1.79,0,0,0-.67.15.52.52,0,0,1-.28.09c-.11,0-.2-.07-.26-.29-.09-.49-.18-1.08-.23-1.6.47,0,1,0,1.42,0a16.36,16.36,0,0,0,1.12-2.33,4.84,4.84,0,0,0,.34-1.22,13.18,13.18,0,0,1,1.75.32c.16.06.27.15.27.27a.43.43,0,0,1-.18.33,1.34,1.34,0,0,0-.34.5c-.29.59-.71,1.39-1.1,2.07,1.33-.05,2.66-.16,3.78-.25a15.1,15.1,0,0,0-1.1-1.28c-.13-.13-.11-.18.09-.29l.9-.52c.18-.11.23-.11.36,0a25.38,25.38,0,0,1,2.86,3.46c.09.16.11.21-.1.36l-1.09.64a.45.45,0,0,1-.21.11c-.07,0-.11-.05-.16-.16-.18-.32-.36-.65-.56-1-.74.09-1.57.18-2.45.25v1.67h1.22c1.62,0,2.2,0,2.31,0s.2,0,.2.2,0,.5,0,1.44v1.91c0,.93,0,1.33,0,1.44s0,.19-.2.19-.69,0-2.31,0H34.2v2l1.94-.27Zm-3.17-2.45V29.74H30.67v2.12Zm3.69-2.12h-2v2.12h2Z" transform="translate(-9.5 -10.1)"/><path class="cls-6" d="M53.77,27.78a6.42,6.42,0,0,0,0-1.23,8.17,8.17,0,0,1,2.09.78.33.33,0,0,1,.12.48,3.33,3.33,0,0,0-.29.7c-.14.76-.32,1.55-.5,2.33A20.07,20.07,0,0,1,58,32.57c.18.1.16.19.11.37a14,14,0,0,1-.78,1.55c-.05.09-.11.13-.16.13a.4.4,0,0,1-.22-.13,15.25,15.25,0,0,0-2.35-1.69,11,11,0,0,1-3.64,4.73c-.16.13-.25.2-.36.2a.46.46,0,0,1-.27-.12,3.68,3.68,0,0,0-1.57-.74,10,10,0,0,0,4-4.88,12.36,12.36,0,0,0-3.57-1.1,12.39,12.39,0,0,1-2.2,3.6,2.94,2.94,0,0,1-2.3,1A2.17,2.17,0,0,1,42.57,33c0-2.24,2.3-4,5.31-4,.59-1.5,1-2.76,1.49-4.27-1,.11-1.89.21-2.48.29a3.41,3.41,0,0,0-.81.2,1.14,1.14,0,0,1-.33.07.3.3,0,0,1-.29-.2,11.09,11.09,0,0,1-.52-2,7.09,7.09,0,0,0,1.59.1A20.78,20.78,0,0,0,49.32,23a1.94,1.94,0,0,0,.88-.31.41.41,0,0,1,.23-.07.48.48,0,0,1,.26.07,5.94,5.94,0,0,1,1.22,1,.43.43,0,0,1,.16.31.46.46,0,0,1-.18.31,2.36,2.36,0,0,0-.48.93c-.47,1.23-1,2.63-1.52,3.93a14.57,14.57,0,0,1,3.5.9A19.32,19.32,0,0,0,53.77,27.78Zm-9.51,5c0,.58.2.83.63.83a1.46,1.46,0,0,0,1-.69,12,12,0,0,0,1.32-2.19C45.41,30.82,44.26,31.77,44.26,32.8Z" transform="translate(-9.5 -10.1)"/></g></g></svg>