<svg xmlns="http://www.w3.org/2000/svg" viewBox="0 0 60 60"><defs><clipPath id="clip-path" transform="translate(-9.5 -10.1)"><path class="cls-1" d="M9.4 10v64.8L74.2 10H9.4z"/></clipPath><clipPath id="clip-path-2" transform="translate(-9.5 -10.1)"><path class="cls-1" d="M0 0v64.8L64.8 0H0z"/></clipPath><style>.cls-1{fill:none}.cls-6{fill:#fff}</style></defs><circle cx="30" cy="30" r="30" fill="#e68ba9"/><g clip-path="url(#clip-path)"><circle class="cls-6" cx="30" cy="30" r="30"/></g><g clip-path="url(#clip-path-2)"><circle class="cls-6" cx="30" cy="30" r="30"/></g><path class="cls-6" d="M26.66 30.08h1.15c.15 0 .23.06.21.24 0 .36-.05.86-.07 1.26a17.78 17.78 0 01-.77 5.29c-.33.81-1 1.19-2.29 1.19h-.86c-.32 0-.38 0-.49-.59a5.54 5.54 0 00-.41-1.33 11.16 11.16 0 001.58.16 1 1 0 00.81-.27c.25-.33.54-1.5.7-4.29H24.5l-.13.67c-.06.22-.06.22-1 .11s-.83-.13-.78-.38a33 33 0 00.65-4.16 7.84 7.84 0 00.06-1.28c0-.18.05-.23.23-.23h2.77v-2.3h-3.26c-.1 0-.22 0-.22-.2v-1.25c0-.2 0-.22.22-.22h4.78c.11 0 .21 0 .21.22v5.09c0 .11 0 .2-.21.2H25c-.07.76-.16 1.46-.25 2.11zm9 4.23c-.09-.14-.06-.2.16-.29l.92-.39c.19-.09.23-.06.32.11A16.66 16.66 0 0139 37.12c.05.16 0 .22-.17.31l-1 .46c-.22.08-.29.06-.36-.12-.16-.42-.33-.83-.52-1.24-2.33.43-4.83.79-7 1.06a2.47 2.47 0 00-.76.2.91.91 0 01-.33.09c-.14 0-.25-.09-.3-.29-.16-.56-.27-1.17-.38-1.77a16.37 16.37 0 002.09 0c.65 0 1.44-.11 2.27-.22v-2.24h-3.3c-.12 0-.2 0-.2-.19v-4.76c0-.12 0-.2.2-.2h3.3v-1.48c-.87.07-1.7.13-2.47.16a1.79 1.79 0 00-.67.15.52.52 0 01-.28.09c-.11 0-.2-.07-.26-.29-.09-.49-.18-1.08-.23-1.6h1.42a16.36 16.36 0 001.12-2.33 4.84 4.84 0 00.34-1.22 13.18 13.18 0 011.75.32c.16.06.27.15.27.27a.43.43 0 01-.18.33 1.34 1.34 0 00-.34.5c-.29.59-.71 1.39-1.1 2.07 1.33-.05 2.66-.16 3.78-.25a15.1 15.1 0 00-1.1-1.28c-.13-.13-.11-.18.09-.29l.9-.52c.18-.11.23-.11.36 0a25.38 25.38 0 012.86 3.46c.09.16.11.21-.1.36l-1.09.64a.45.45 0 01-.21.11c-.07 0-.11-.05-.16-.16-.18-.32-.36-.65-.56-1-.74.09-1.57.18-2.45.25v1.67h3.53c.11 0 .2 0 .2.2v4.79c0 .11 0 .19-.2.19H34.2v2l1.94-.27zm-3.17-2.45v-2.12h-1.82v2.12zm3.69-2.12h-2v2.12h2zm17.59-1.96a6.42 6.42 0 000-1.23 8.17 8.17 0 012.09.78.33.33 0 01.12.48 3.33 3.33 0 00-.29.7c-.14.76-.32 1.55-.5 2.33A20.07 20.07 0 0158 32.57c.18.1.16.19.11.37a14 14 0 01-.78 1.55c-.05.09-.11.13-.16.13a.4.4 0 01-.22-.13 15.25 15.25 0 00-2.35-1.69 11 11 0 01-3.64 4.73c-.16.13-.25.2-.36.2a.46.46 0 01-.27-.12 3.68 3.68 0 00-1.57-.74 10 10 0 004-4.88 12.36 12.36 0 00-3.57-1.1 12.39 12.39 0 01-2.2 3.6 2.94 2.94 0 01-2.3 1A2.17 2.17 0 0142.57 33c0-2.24 2.3-4 5.31-4 .59-1.5 1-2.76 1.49-4.27-1 .11-1.89.21-2.48.29a3.41 3.41 0 00-.81.2 1.14 1.14 0 01-.33.07.3.3 0 01-.29-.2 11.09 11.09 0 01-.52-2 7.09 7.09 0 001.59.1 20.78 20.78 0 002.79-.19 1.94 1.94 0 00.88-.31.41.41 0 01.23-.07.48.48 0 01.26.07 5.94 5.94 0 011.22 1 .43.43 0 01.16.31.46.46 0 01-.18.31 2.36 2.36 0 00-.48.93c-.47 1.23-1 2.63-1.52 3.93a14.57 14.57 0 013.5.9 19.32 19.32 0 00.38-2.29zm-9.51 5c0 .58.2.83.63.83a1.46 1.46 0 001-.69 12 12 0 001.32-2.19c-1.8.09-2.95 1.04-2.95 2.07z" transform="translate(-9.5 -10.1)" id="テキスト"/></svg>