<svg xmlns="http://www.w3.org/2000/svg" width="125.451" height="115.809" viewBox="0 0 125.451 115.809">
  <g transform="translate(-1736.279 -3408.119)">
    <path d="M1854.6,3523.631l-83.625-27.239a5.464,5.464,0,0,1-1.907-9.447c2.856-2.585,60.31-54.131,65.22-58.529a5.467,5.467,0,0,1,9.059,2.951c1.035,4.654,17.217,80.451,18.28,85.906A5.433,5.433,0,0,1,1854.6,3523.631Z" fill="#6d2300"/>
    <path d="M1815.684,3476.154l-74.018,10.483a4.644,4.644,0,0,1-4.989-6.5c1.213-3.042,25.791-63.873,27.894-69.065a4.646,4.646,0,0,1,8.018-1.136c2.531,3.165,43.229,54.971,46.081,58.736A4.618,4.618,0,0,1,1815.684,3476.154Z" fill="#c5a799"/>
  </g>
</svg>
