<svg xmlns="http://www.w3.org/2000/svg" width="128" height="84" viewBox="0 0 128 84">
  <defs>
    <style>
      .cls-1 {
        fill: none;
        stroke: #e81836;
        stroke-width: 4px;
      }

      .cls-2 {
        fill: #e81836;
        fill-rule: evenodd;
      }
    </style>
  </defs>
  <rect class="cls-1" x="2" y="2" width="124" height="80"/>
  <path class="cls-2" d="M2488.17,5145.8a2.071,2.071,0,0,0-.41.27,6.127,6.127,0,0,1-.95.69,5.319,5.319,0,0,1-1,.46,5.4,5.4,0,0,1-1.12.25,11.254,11.254,0,0,1-1.35.07,5.746,5.746,0,0,1-4.36-1.94,7.14,7.14,0,0,1-1.33-2.35,9.749,9.749,0,0,1-.48-3.18,9.364,9.364,0,0,1,.48-3.09,6.9,6.9,0,0,1,1.36-2.34,5.973,5.973,0,0,1,2.09-1.49,6.722,6.722,0,0,1,2.69-.52,7.142,7.142,0,0,1,1.48.13,6.359,6.359,0,0,1,1.1.31,4.177,4.177,0,0,1,.82.4c0.23,0.14.44,0.28,0.63,0.4a5.3,5.3,0,0,0,.55.31,1.133,1.133,0,0,0,.54.13,1.028,1.028,0,0,0,.67-0.19,2.283,2.283,0,0,0,.42-0.4l1.82-2.45a8.854,8.854,0,0,0-1.5-1.26,10.227,10.227,0,0,0-1.86-.97,10.974,10.974,0,0,0-2.17-.64,12.106,12.106,0,0,0-2.47-.24,13.525,13.525,0,0,0-4.94.88,11.32,11.32,0,0,0-3.85,2.47,11.1,11.1,0,0,0-2.5,3.77,12.422,12.422,0,0,0-.9,4.79,13.946,13.946,0,0,0,.78,4.74,11.175,11.175,0,0,0,2.25,3.78,10.339,10.339,0,0,0,3.57,2.49,11.817,11.817,0,0,0,4.76.91,12.288,12.288,0,0,0,5.02-.94,8.848,8.848,0,0,0,3.52-2.77l-2.14-2.26a1.054,1.054,0,0,0-.37-0.25,1.021,1.021,0,0,0-.38-0.07A1.278,1.278,0,0,0,2488.17,5145.8Zm20.1-17.38h-5.54l-9.02,23.31h4.22a1.806,1.806,0,0,0,1.14-.36,1.739,1.739,0,0,0,.62-0.81l1.38-4.06h8.86l1.38,4.06a1.655,1.655,0,0,0,.63.84,1.94,1.94,0,0,0,1.16.33h4.19Zm-3.81,8.05q0.24-.615.51-1.44c0.19-.56.36-1.16,0.53-1.81,0.18,0.64.37,1.24,0.55,1.78s0.35,1.03.49,1.44l2.15,6.38h-6.37Zm30.66-5.83a8.479,8.479,0,0,0-1.42-1.03,11.011,11.011,0,0,0-1.7-.78,10.7,10.7,0,0,0-1.93-.5,13,13,0,0,0-2.09-.17,9.3,9.3,0,0,0-3.41.59,7.742,7.742,0,0,0-2.51,1.56,6.609,6.609,0,0,0-2.08,4.78,7.361,7.361,0,0,0,.45,2.75,5.5,5.5,0,0,0,1.18,1.85,5.73,5.73,0,0,0,1.65,1.2,13.617,13.617,0,0,0,1.91.77c0.65,0.21,1.28.4,1.9,0.57a11.407,11.407,0,0,1,1.66.59,3.469,3.469,0,0,1,1.17.85,1.93,1.93,0,0,1,.45,1.33,2.435,2.435,0,0,1-.82,2.05,3.577,3.577,0,0,1-2.28.65,5.354,5.354,0,0,1-1.89-.3,10.483,10.483,0,0,1-1.42-.67c-0.41-.25-0.78-0.47-1.1-0.68a1.857,1.857,0,0,0-.97-0.3,1.421,1.421,0,0,0-.69.18,1.211,1.211,0,0,0-.49.46l-1.6,2.53a8.175,8.175,0,0,0,1.61,1.24,11.836,11.836,0,0,0,1.99.97,12.4,12.4,0,0,0,2.18.63,11.311,11.311,0,0,0,2.22.23,9.8,9.8,0,0,0,3.54-.6,7.42,7.42,0,0,0,2.62-1.65,7.056,7.056,0,0,0,1.63-2.46,8.11,8.11,0,0,0,.56-3.02,6.224,6.224,0,0,0-.45-2.49,5.45,5.45,0,0,0-1.18-1.75,6.335,6.335,0,0,0-1.66-1.18,16.823,16.823,0,0,0-1.91-.81c-0.65-.23-1.29-0.44-1.91-0.63a12.294,12.294,0,0,1-1.67-.61,3.83,3.83,0,0,1-1.17-.8,1.615,1.615,0,0,1-.45-1.17,2.208,2.208,0,0,1,.74-1.75,3.4,3.4,0,0,1,2.27-.65,4.971,4.971,0,0,1,1.56.23,8.924,8.924,0,0,1,1.23.52c0.36,0.2.68,0.37,0.96,0.52a1.6,1.6,0,0,0,.79.23,1.116,1.116,0,0,0,.68-0.19,2.041,2.041,0,0,0,.5-0.57Zm4.61-2.22v23.31h15v-4.16h-9.56v-5.55h7.32v-4h-7.32v-5.44h9.56v-4.16h-15Z" transform="translate(-2449 -5098)"/>
</svg>
