<svg xmlns="http://www.w3.org/2000/svg" width="27.719" height="28.28" viewBox="0 0 27.719 28.28">
  <defs>
    <style>
      .cls-1 {
        fill: #fff;
        fill-rule: evenodd;
      }
    </style>
  </defs>
  <path class="cls-1" d="M645.958,4900.65a1.386,1.386,0,0,1-.411,1.2l-3.9,3.95a2.206,2.206,0,0,1-.689.51,2.813,2.813,0,0,1-.837.27c-0.019,0-.078.01-0.176,0.01a2.086,2.086,0,0,1-.381.02,13.023,13.023,0,0,1-1.805-.19,13.485,13.485,0,0,1-3.052-.96,25.386,25.386,0,0,1-4.093-2.29,30.674,30.674,0,0,1-4.871-4.2,31.926,31.926,0,0,1-3.4-3.95,28.288,28.288,0,0,1-2.171-3.49,18.976,18.976,0,0,1-1.233-2.9,15.857,15.857,0,0,1-.557-2.25,7.586,7.586,0,0,1-.118-1.48q0.03-.54.03-0.6a2.928,2.928,0,0,1,.264-0.85,2.267,2.267,0,0,1,.5-0.71l3.9-3.98a1.276,1.276,0,0,1,.938-0.42,1.081,1.081,0,0,1,.675.23,2.043,2.043,0,0,1,.5.55l3.14,6.08a1.485,1.485,0,0,1,.146,1.05,1.883,1.883,0,0,1-.5.96l-1.438,1.46a0.542,0.542,0,0,0-.1.2,0.738,0.738,0,0,0-.044.22,5.515,5.515,0,0,0,.528,1.44,13.3,13.3,0,0,0,1.086,1.75,28.126,28.126,0,0,0,4.431,4.52,13.64,13.64,0,0,0,1.717,1.13,4.425,4.425,0,0,0,1.056.43l0.367,0.07a0.628,0.628,0,0,0,.19-0.04,0.671,0.671,0,0,0,.191-0.1l1.673-1.74a1.775,1.775,0,0,1,1.232-.48,1.5,1.5,0,0,1,.792.18h0.03l5.663,3.41A1.5,1.5,0,0,1,645.958,4900.65Z" transform="translate(-618.25 -4878.34)"/>
</svg>
