<svg id="Right-Bottom.svg" xmlns="http://www.w3.org/2000/svg" width="115" height="128" viewBox="0 0 115 128">
  <defs>
    <style>
      .cls-1 {
        fill: #333;
        fill-rule: evenodd;
      }
    </style>
  </defs>
  <path id="Right-Bottom" class="cls-1" d="M1163.26,812.784c-3.12-1.774.07,3.649-4.24,2.924-2.75-.465-0.73-5.683,3.24-5.832,2.83-.107,3.91,2.67,3.89,5.832-0.01,3.125-3.52,5.267-6.48,5.184-9.14-.257-7.77-12.312-7.77-12.312s-16.06,3-18.8-7.128c-3.27-12.131,12.53-14.87,14.26-7.776,0.58,2.391-2.56,7.518-5.83,6.48-3.02-4.308.16-4.845,3.24-6.48-4.71-3.386-10.17,3.774-7.78,7.128,0,0,5.5,10.359,20.74,0,24.44-9.25,28.91,15.979,44.71,11.016,0,0-6.1-.957-6.48-6.48-0.62-9.09,13.19-5.318,10.37-2.592-3.85,2.644-2.89-2.105-3.89-1.944-4.93.8-4.34,4.029-1.94,6.48,4.07,4.171,8.21,3.215,12.31-3.24,12.22-19.252,19.57-20.829,24.62-20.736,4.83,0.089,7.57,8.861.65,9.072-1.49.045-2.23-3.514-.65-3.888,3.31-.782,3.54-3.78-0.65-3.24-12.23,1.575-20.21,13.661-18.14,22.032,1.26,5.094,5.42,9.871,14.9,9.072,9.81-.827,7.9-15.719,1.3-14.256,3.06,2.864,2.19,7.517-2.59,7.776s-6.34-8.4,1.29-11.664c7.2-.9,11.53,3.747,12.32,9.72,0.73,5.565-4.04,12.741-11.02,12.96-14.57.457-20.09-12.312-20.09-12.312s-5.34,5.855-10.37,7.128c-14.67,3.718-18.87-11.817-36.28-12.96-14.75-.967-13.61,10.368-13.61,10.368s0.3,4.138,5.18,4.536C1163.67,817.978,1164.18,813.309,1163.26,812.784Z" transform="translate(-1132.66 -693.031)"/>
  <path id="Right-Bottom-2" data-name="Right-Bottom" class="cls-1" d="M1241.03,717.6c-1.41-2.5,2.92.059,2.34-3.394-0.37-2.214-4.54-.587-4.66,2.6-0.09,2.271,2.13,3.13,4.66,3.119,2.5-.01,4.22-2.827,4.15-5.2-0.2-7.336-9.85-6.238-9.85-6.238s2.4-12.884-5.7-15.077c-9.71-2.626-11.9,10.052-6.22,11.438,1.91,0.467,6.01-2.05,5.18-4.679-3.44-2.425-3.87.134-5.18,2.6-2.71-3.78,3.02-8.159,5.7-6.238,0,0,8.29,4.411,0,16.636-7.4,19.608,12.78,23.2,8.81,35.872,0,0-.76-4.9-5.18-5.2-7.27-.5-4.25,10.583-2.07,8.318,2.11-3.091-1.69-2.32-1.56-3.119,0.64-3.959,3.22-3.479,5.18-1.559,3.34,3.265,2.58,6.589-2.59,9.877-15.4,9.806-16.66,15.7-16.59,19.756,0.07,3.877,7.09,6.068,7.26.52,0.04-1.192-2.81-1.788-3.11-.52-0.62,2.654-3.02,2.842-2.59-.52,1.26-9.812,10.93-16.218,17.62-14.557,4.08,1.011,7.9,4.352,7.26,11.958-0.66,7.867-12.57,6.332-11.4,1.039,2.29,2.455,6.01,1.757,6.22-2.079s-6.72-5.083-9.33,1.04c-0.72,5.776,2.99,9.249,7.77,9.878,4.45,0.585,10.2-3.237,10.37-8.839,0.37-11.687-9.85-16.116-9.85-16.116s4.69-4.288,5.7-8.318c2.98-11.771-9.45-15.141-10.36-29.114-0.78-11.827,8.29-10.918,8.29-10.918a4.16,4.16,0,0,1,3.63,4.159C1245.19,717.937,1241.45,718.345,1241.03,717.6Z" transform="translate(-1132.66 -693.031)"/>
</svg>
