<svg xmlns="http://www.w3.org/2000/svg" width="111" height="65" viewBox="0 0 111 65">
  <defs>
    <style>
      .cls-1 {
        fill: #e81836;
        fill-rule: evenodd;
      }
    </style>
  </defs>
  <path class="cls-1" d="M567.16,170.806a24.543,24.543,0,0,0-8.685,7.223,37,37,0,0,0-5.962,12.195,60.376,60.376,0,0,0-2.205,17.257,40.453,40.453,0,0,0,1.44,11.408,23.777,23.777,0,0,0,4,8.122,16.538,16.538,0,0,0,6.075,4.86,18.029,18.029,0,0,0,7.65,1.62,23.5,23.5,0,0,0,10.372-2.385,24.334,24.334,0,0,0,8.663-7.222,37.31,37.31,0,0,0,5.94-12.173,60.345,60.345,0,0,0,2.205-17.28,40.492,40.492,0,0,0-1.44-11.407,23.8,23.8,0,0,0-4-8.123,16.538,16.538,0,0,0-6.075-4.86,18.032,18.032,0,0,0-7.65-1.62A23.434,23.434,0,0,0,567.16,170.806Zm-3.15,57.8a13.2,13.2,0,0,1-4.9-4.089,20.845,20.845,0,0,1-3.285-7.008,37.794,37.794,0,0,1-1.192-10.132,60,60,0,0,1,1.822-15.7,35.239,35.239,0,0,1,4.9-11.053,20.442,20.442,0,0,1,7.133-6.515,18,18,0,0,1,8.5-2.135A13.924,13.924,0,0,1,583,173.3a13.11,13.11,0,0,1,4.883,4.066,20.866,20.866,0,0,1,3.262,7.009,37.845,37.845,0,0,1,1.193,10.109,60.2,60.2,0,0,1-1.823,15.749,35.233,35.233,0,0,1-4.9,11.052,20.511,20.511,0,0,1-7.11,6.515,17.851,17.851,0,0,1-8.482,2.134A13.91,13.91,0,0,1,564.01,228.611Zm45.7,4.205h32.76l0.36-3.24h-13.9l7.425-60.7h-3.285l-20.295,16.245,0.99,1.755a1.19,1.19,0,0,0,1.125.54,1.8,1.8,0,0,0,1.08-.405l15.885-12.78-0.675,3.1-6.435,52.245h-14.67Zm44.751-.517a4,4,0,0,0,2.947,1.192A4.162,4.162,0,0,0,660.4,232.3a3.931,3.931,0,0,0,1.237-2.948,3.976,3.976,0,0,0-.337-1.62,4.335,4.335,0,0,0-.9-1.327,4.278,4.278,0,0,0-1.35-.9,4.131,4.131,0,0,0-1.643-.338,3.921,3.921,0,0,0-1.642.338,4.408,4.408,0,0,0-1.305.9,4.013,4.013,0,0,0-.878,1.327,4.22,4.22,0,0,0-.315,1.62A4.006,4.006,0,0,0,654.458,232.3Z" transform="translate(-550.312 -168.406)"/>
</svg>
