<svg xmlns="http://www.w3.org/2000/svg" width="111" height="65"><path d="M16.848 2.4a24.543 24.543 0 00-8.685 7.223 37 37 0 00-5.962 12.195A60.376 60.376 0 00-.004 39.075a40.453 40.453 0 001.44 11.408 23.777 23.777 0 004 8.122 16.538 16.538 0 006.075 4.86 18.029 18.029 0 007.65 1.62A23.5 23.5 0 0029.533 62.7a24.334 24.334 0 008.663-7.222 37.31 37.31 0 005.94-12.173 60.345 60.345 0 002.205-17.28 40.492 40.492 0 00-1.44-11.407 23.8 23.8 0 00-4-8.123 16.538 16.538 0 00-6.075-4.86 18.032 18.032 0 00-7.65-1.62A23.434 23.434 0 0016.848 2.4zm-3.15 57.805a13.2 13.2 0 01-4.9-4.089 20.845 20.845 0 01-3.285-7.008 37.794 37.794 0 01-1.192-10.132 60 60 0 011.822-15.7 35.239 35.239 0 014.9-11.053 20.442 20.442 0 017.133-6.515 18 18 0 018.5-2.135 13.924 13.924 0 016.012 1.321 13.11 13.11 0 014.883 4.066 20.866 20.866 0 013.262 7.009 37.845 37.845 0 011.193 10.109 60.2 60.2 0 01-1.823 15.749 35.233 35.233 0 01-4.9 11.052 20.511 20.511 0 01-7.11 6.515 17.851 17.851 0 01-8.482 2.134 13.91 13.91 0 01-6.013-1.323zm59.219-59.02a21.24 21.24 0 00-6.322 3.375 21.765 21.765 0 00-4.905 5.4 24.224 24.224 0 00-3.1 7.245l2.07.315a2.071 2.071 0 00.5.045 1.954 1.954 0 001.125-.337 2.161 2.161 0 00.765-1.148 19.657 19.657 0 012.475-5.152 16.979 16.979 0 013.712-3.96 16.145 16.145 0 014.77-2.52A17.894 17.894 0 0179.7 3.57a16.175 16.175 0 014.86.72 11.522 11.522 0 014.027 2.183 10.35 10.35 0 012.745 3.69 12.574 12.574 0 011.013 5.242 18.359 18.359 0 01-1.125 6.5 24.552 24.552 0 01-3.15 5.782 44.55 44.55 0 01-4.838 5.558q-2.812 2.768-6.187 5.782L52.52 61.077a3.591 3.591 0 00-.7.855 2.355 2.355 0 00-.337.99l-.18 1.485h41l.315-2.385a1.256 1.256 0 00-1.35-1.485h-27.72a28.55 28.55 0 00-3.173.18 23.556 23.556 0 00-3.037.54l22.635-20.52q3.375-3.058 6.412-5.94a46.838 46.838 0 005.31-5.917 27.294 27.294 0 003.6-6.435 20.421 20.421 0 001.328-7.493 15.527 15.527 0 00-1.283-6.5 13.1 13.1 0 00-3.51-4.68A15.168 15.168 0 0086.655.959a20.59 20.59 0 00-6.322-.945 23.151 23.151 0 00-7.416 1.171zm31.229 62.709a4 4 0 002.947 1.192 4.162 4.162 0 002.995-1.192 3.931 3.931 0 001.237-2.948 3.976 3.976 0 00-.337-1.62 4.335 4.335 0 00-.9-1.327 4.278 4.278 0 00-1.35-.9 4.131 4.131 0 00-1.643-.338 3.921 3.921 0 00-1.642.338 4.408 4.408 0 00-1.305.9 4.013 4.013 0 00-.878 1.327 4.22 4.22 0 00-.315 1.62 4.006 4.006 0 001.191 2.948z" fill="#e81836" fill-rule="evenodd"/></svg>