<svg xmlns="http://www.w3.org/2000/svg" width="111" height="65" viewBox="0 0 111 65">
  <defs>
    <style>
      .cls-1 {
        fill: #e81836;
        fill-rule: evenodd;
      }
    </style>
  </defs>
  <path class="cls-1" d="M567.16,300.806a24.543,24.543,0,0,0-8.685,7.223,37,37,0,0,0-5.962,12.195,60.376,60.376,0,0,0-2.205,17.257,40.453,40.453,0,0,0,1.44,11.408,23.777,23.777,0,0,0,4,8.122,16.538,16.538,0,0,0,6.075,4.86,18.029,18.029,0,0,0,7.65,1.62,23.5,23.5,0,0,0,10.372-2.385,24.334,24.334,0,0,0,8.663-7.222,37.31,37.31,0,0,0,5.94-12.173,60.345,60.345,0,0,0,2.205-17.28,40.492,40.492,0,0,0-1.44-11.407,23.8,23.8,0,0,0-4-8.123,16.538,16.538,0,0,0-6.075-4.86,18.032,18.032,0,0,0-7.65-1.62A23.434,23.434,0,0,0,567.16,300.806Zm-3.15,57.805a13.2,13.2,0,0,1-4.9-4.089,20.845,20.845,0,0,1-3.285-7.008,37.794,37.794,0,0,1-1.192-10.132,60,60,0,0,1,1.822-15.7,35.239,35.239,0,0,1,4.9-11.053,20.442,20.442,0,0,1,7.133-6.515,18,18,0,0,1,8.5-2.135A13.924,13.924,0,0,1,583,303.3a13.11,13.11,0,0,1,4.883,4.066,20.866,20.866,0,0,1,3.262,7.009,37.845,37.845,0,0,1,1.193,10.109,60.2,60.2,0,0,1-1.823,15.749,35.233,35.233,0,0,1-4.9,11.052,20.511,20.511,0,0,1-7.11,6.515,17.851,17.851,0,0,1-8.482,2.134A13.91,13.91,0,0,1,564.01,358.611Zm59.219-59.02a21.24,21.24,0,0,0-6.322,3.375,21.765,21.765,0,0,0-4.905,5.4,24.224,24.224,0,0,0-3.1,7.245l2.07,0.315a2.071,2.071,0,0,0,.5.045,1.954,1.954,0,0,0,1.125-.337,2.161,2.161,0,0,0,.765-1.148,19.657,19.657,0,0,1,2.475-5.152,16.979,16.979,0,0,1,3.712-3.96,16.145,16.145,0,0,1,4.77-2.52,17.894,17.894,0,0,1,5.693-.878,16.175,16.175,0,0,1,4.86.72,11.522,11.522,0,0,1,4.027,2.183,10.35,10.35,0,0,1,2.745,3.69,12.574,12.574,0,0,1,1.013,5.242,18.359,18.359,0,0,1-1.125,6.5,24.552,24.552,0,0,1-3.15,5.782,44.55,44.55,0,0,1-4.838,5.558q-2.812,2.768-6.187,5.782l-24.525,22.05a3.591,3.591,0,0,0-.7.855,2.355,2.355,0,0,0-.337.99l-0.18,1.485h41l0.315-2.385a1.256,1.256,0,0,0-1.35-1.485h-27.72a28.55,28.55,0,0,0-3.173.18,23.556,23.556,0,0,0-3.037.54l22.635-20.52q3.375-3.058,6.412-5.94a46.838,46.838,0,0,0,5.31-5.917,27.294,27.294,0,0,0,3.6-6.435,20.421,20.421,0,0,0,1.328-7.493,15.527,15.527,0,0,0-1.283-6.5,13.1,13.1,0,0,0-3.51-4.68,15.168,15.168,0,0,0-5.175-2.813,20.59,20.59,0,0,0-6.322-.945A23.151,23.151,0,0,0,623.229,299.591ZM654.458,362.3a4,4,0,0,0,2.947,1.192A4.162,4.162,0,0,0,660.4,362.3a3.931,3.931,0,0,0,1.237-2.948,3.976,3.976,0,0,0-.337-1.62,4.335,4.335,0,0,0-.9-1.327,4.278,4.278,0,0,0-1.35-.9,4.131,4.131,0,0,0-1.643-.338,3.921,3.921,0,0,0-1.642.338,4.408,4.408,0,0,0-1.305.9,4.013,4.013,0,0,0-.878,1.327,4.22,4.22,0,0,0-.315,1.62A4.006,4.006,0,0,0,654.458,362.3Z" transform="translate(-550.312 -298.406)"/>
</svg>
