<svg xmlns="http://www.w3.org/2000/svg" width="111" height="65"><path d="M16.848 2.4a24.543 24.543 0 00-8.685 7.223 37 37 0 00-5.962 12.195A60.376 60.376 0 00-.004 39.075a40.453 40.453 0 001.44 11.408 23.777 23.777 0 004 8.122 16.538 16.538 0 006.075 4.86 18.029 18.029 0 007.65 1.62A23.5 23.5 0 0029.533 62.7a24.334 24.334 0 008.663-7.222 37.31 37.31 0 005.94-12.173 60.345 60.345 0 002.205-17.28 40.492 40.492 0 00-1.44-11.407 23.8 23.8 0 00-4-8.123 16.538 16.538 0 00-6.075-4.86 18.032 18.032 0 00-7.65-1.62A23.434 23.434 0 0016.848 2.4zm-3.15 57.805a13.2 13.2 0 01-4.9-4.089 20.845 20.845 0 01-3.285-7.008 37.794 37.794 0 01-1.192-10.132 60 60 0 011.822-15.7 35.239 35.239 0 014.9-11.053 20.442 20.442 0 017.133-6.515 18 18 0 018.5-2.135 13.924 13.924 0 016.012 1.321 13.11 13.11 0 014.883 4.066 20.866 20.866 0 013.262 7.009 37.845 37.845 0 011.193 10.109 60.2 60.2 0 01-1.823 15.749 35.233 35.233 0 01-4.9 11.052 20.511 20.511 0 01-7.11 6.515 17.851 17.851 0 01-8.482 2.134 13.91 13.91 0 01-6.013-1.323zm59.827-59.02A21.18 21.18 0 0067.18 4.56a21.42 21.42 0 00-4.883 5.4 24.6 24.6 0 00-3.082 7.245l2.07.315a2.071 2.071 0 00.5.045 1.848 1.848 0 001.1-.337 2.018 2.018 0 00.7-1.148 19.515 19.515 0 012.475-5.2 16.377 16.377 0 013.735-3.938 16.68 16.68 0 014.815-2.5 18.1 18.1 0 015.715-.878 16.682 16.682 0 014.815.675 10.929 10.929 0 013.937 2.093 10.134 10.134 0 012.678 3.555 11.853 11.853 0 01.99 5.017 14.928 14.928 0 01-1.26 6.21 13.069 13.069 0 01-3.668 4.77 17.747 17.747 0 01-5.872 3.105 28.125 28.125 0 01-7.83 1.26l-.4 2.97a30.3 30.3 0 018.145.923 14.135 14.135 0 015.175 2.52 8.863 8.863 0 012.745 3.78 13.279 13.279 0 01.81 4.657 15.035 15.035 0 01-1.215 5.8 16.592 16.592 0 01-3.533 5.288 18.282 18.282 0 01-5.715 3.87 18.962 18.962 0 01-7.762 1.507 20.87 20.87 0 01-6.03-.765 11.319 11.319 0 01-4.3-2.34 12.2 12.2 0 01-2.9-3.915 22.983 22.983 0 01-1.755-5.535.971.971 0 00-.518-.72 1.964 1.964 0 00-.922-.225 2.682 2.682 0 00-.855.135l-1.845.63a25.793 25.793 0 001.89 7.043 14.436 14.436 0 009.2 8.212 27.259 27.259 0 0016.448-.5 23.143 23.143 0 007.245-4.23 20.284 20.284 0 004.927-6.39 17.836 17.836 0 001.823-8.01 14.812 14.812 0 00-.788-4.882 11.955 11.955 0 00-2.362-4.05 13.867 13.867 0 00-3.893-3.015 18.915 18.915 0 00-5.422-1.823A24.022 24.022 0 0088 29.047a17.6 17.6 0 004.658-3.533 15.888 15.888 0 003.127-4.95 17.026 17.026 0 001.148-6.435 14.231 14.231 0 00-1.245-6.059 12.481 12.481 0 00-3.4-4.432 15.045 15.045 0 00-5.063-2.7 20.616 20.616 0 00-6.277-.923 23.354 23.354 0 00-7.423 1.17zm30.621 62.709a4 4 0 002.947 1.192 4.162 4.162 0 002.995-1.192 3.931 3.931 0 001.237-2.948 3.976 3.976 0 00-.337-1.62 4.335 4.335 0 00-.9-1.327 4.278 4.278 0 00-1.35-.9 4.131 4.131 0 00-1.643-.338 3.921 3.921 0 00-1.642.338 4.408 4.408 0 00-1.305.9 4.013 4.013 0 00-.878 1.327 4.22 4.22 0 00-.315 1.62 4.006 4.006 0 001.191 2.948z" fill="#e81836" fill-rule="evenodd"/></svg>