<svg xmlns="http://www.w3.org/2000/svg" width="111.313" height="65.125" viewBox="0 0 111.313 65.125">
  <defs>
    <style>
      .cls-1 {
        fill: #e81836;
        fill-rule: evenodd;
      }
    </style>
  </defs>
  <path id="_03.svg" data-name="03.svg" class="cls-1" d="M567.16,430.806a24.543,24.543,0,0,0-8.685,7.223,37,37,0,0,0-5.962,12.195,60.376,60.376,0,0,0-2.205,17.257,40.453,40.453,0,0,0,1.44,11.408,23.777,23.777,0,0,0,4,8.122,16.538,16.538,0,0,0,6.075,4.86,18.029,18.029,0,0,0,7.65,1.62,23.5,23.5,0,0,0,10.372-2.385,24.334,24.334,0,0,0,8.663-7.222,37.31,37.31,0,0,0,5.94-12.173,60.345,60.345,0,0,0,2.205-17.28,40.492,40.492,0,0,0-1.44-11.407,23.8,23.8,0,0,0-4-8.123,16.538,16.538,0,0,0-6.075-4.86,18.032,18.032,0,0,0-7.65-1.62A23.434,23.434,0,0,0,567.16,430.806Zm-3.15,57.805a13.2,13.2,0,0,1-4.9-4.089,20.845,20.845,0,0,1-3.285-7.008,37.794,37.794,0,0,1-1.192-10.132,60,60,0,0,1,1.822-15.7,35.239,35.239,0,0,1,4.9-11.053,20.442,20.442,0,0,1,7.133-6.515,18,18,0,0,1,8.5-2.135A13.924,13.924,0,0,1,583,433.3a13.11,13.11,0,0,1,4.883,4.066,20.866,20.866,0,0,1,3.262,7.009,37.845,37.845,0,0,1,1.193,10.109,60.2,60.2,0,0,1-1.823,15.749,35.233,35.233,0,0,1-4.9,11.052,20.511,20.511,0,0,1-7.11,6.515,17.851,17.851,0,0,1-8.482,2.134A13.91,13.91,0,0,1,564.01,488.611Zm59.827-59.02a21.18,21.18,0,0,0-6.345,3.375,21.42,21.42,0,0,0-4.883,5.4,24.6,24.6,0,0,0-3.082,7.245l2.07,0.315a2.071,2.071,0,0,0,.5.045,1.848,1.848,0,0,0,1.1-.337,2.018,2.018,0,0,0,.7-1.148,19.515,19.515,0,0,1,2.475-5.2,16.377,16.377,0,0,1,3.735-3.938,16.68,16.68,0,0,1,4.815-2.5,18.1,18.1,0,0,1,5.715-.878,16.682,16.682,0,0,1,4.815.675,10.929,10.929,0,0,1,3.937,2.093,10.134,10.134,0,0,1,2.678,3.555,11.853,11.853,0,0,1,.99,5.017,14.928,14.928,0,0,1-1.26,6.21,13.069,13.069,0,0,1-3.668,4.77,17.747,17.747,0,0,1-5.872,3.105,28.125,28.125,0,0,1-7.83,1.26l-0.4,2.97a30.3,30.3,0,0,1,8.145.923,14.135,14.135,0,0,1,5.175,2.52,8.863,8.863,0,0,1,2.745,3.78,13.279,13.279,0,0,1,.81,4.657,15.035,15.035,0,0,1-1.215,5.8,16.592,16.592,0,0,1-3.533,5.288,18.282,18.282,0,0,1-5.715,3.87,18.962,18.962,0,0,1-7.762,1.507,20.87,20.87,0,0,1-6.03-.765,11.319,11.319,0,0,1-4.3-2.34,12.2,12.2,0,0,1-2.9-3.915,22.983,22.983,0,0,1-1.755-5.535,0.971,0.971,0,0,0-.518-0.72,1.964,1.964,0,0,0-.922-0.225,2.682,2.682,0,0,0-.855.135l-1.845.63a25.793,25.793,0,0,0,1.89,7.043,14.436,14.436,0,0,0,9.2,8.212,27.259,27.259,0,0,0,16.448-.5,23.143,23.143,0,0,0,7.245-4.23,20.284,20.284,0,0,0,4.927-6.39,17.836,17.836,0,0,0,1.823-8.01,14.812,14.812,0,0,0-.788-4.882,11.955,11.955,0,0,0-2.362-4.05,13.867,13.867,0,0,0-3.893-3.015,18.915,18.915,0,0,0-5.422-1.823,24.022,24.022,0,0,0,5.692-2.137,17.6,17.6,0,0,0,4.658-3.533,15.888,15.888,0,0,0,3.127-4.95,17.026,17.026,0,0,0,1.148-6.435A14.231,14.231,0,0,0,646,436.476a12.481,12.481,0,0,0-3.4-4.432,15.045,15.045,0,0,0-5.063-2.7,20.616,20.616,0,0,0-6.277-.923A23.354,23.354,0,0,0,623.837,429.591ZM654.458,492.3a4,4,0,0,0,2.947,1.192A4.162,4.162,0,0,0,660.4,492.3a3.931,3.931,0,0,0,1.237-2.948,3.976,3.976,0,0,0-.337-1.62,4.335,4.335,0,0,0-.9-1.327,4.278,4.278,0,0,0-1.35-.9,4.131,4.131,0,0,0-1.643-.338,3.921,3.921,0,0,0-1.642.338,4.408,4.408,0,0,0-1.305.9,4.013,4.013,0,0,0-.878,1.327,4.22,4.22,0,0,0-.315,1.62A4.006,4.006,0,0,0,654.458,492.3Z" transform="translate(-550.312 -428.406)"/>
</svg>
