<svg xmlns="http://www.w3.org/2000/svg" width="111" height="65"><path d="M16.848 2.4a24.543 24.543 0 00-8.685 7.223 37 37 0 00-5.962 12.2A60.376 60.376 0 00-.004 39.08a40.453 40.453 0 001.44 11.408 23.777 23.777 0 004 8.122 16.538 16.538 0 006.075 4.86 18.029 18.029 0 007.65 1.62 23.5 23.5 0 0010.372-2.385 24.334 24.334 0 008.663-7.222 37.31 37.31 0 005.94-12.173 60.345 60.345 0 002.205-17.28 40.492 40.492 0 00-1.44-11.407 23.8 23.8 0 00-4-8.123 16.538 16.538 0 00-6.075-4.86 18.032 18.032 0 00-7.65-1.62A23.434 23.434 0 0016.848 2.4zm-3.15 57.8a13.2 13.2 0 01-4.9-4.089 20.845 20.845 0 01-3.285-7.008 37.794 37.794 0 01-1.192-10.132 60 60 0 011.822-15.7 35.239 35.239 0 014.9-11.053 20.442 20.442 0 017.133-6.515 18 18 0 018.5-2.135 13.924 13.924 0 016.012 1.326 13.11 13.11 0 014.883 4.066 20.866 20.866 0 013.262 7.009 37.845 37.845 0 011.193 10.109 60.2 60.2 0 01-1.823 15.749 35.233 35.233 0 01-4.9 11.052 20.511 20.511 0 01-7.11 6.515 17.851 17.851 0 01-8.482 2.134 13.91 13.91 0 01-6.013-1.323zM96.745.73H68.17L59.755 28.9l2.52.855A47.219 47.219 0 0173.75 28.09a21.336 21.336 0 016.862.99 13.2 13.2 0 014.793 2.745 10.691 10.691 0 012.79 4.208 15.658 15.658 0 01.9 5.422 21.445 21.445 0 01-1.575 8.438 18.347 18.347 0 01-4.3 6.277 18.926 18.926 0 01-6.345 3.938 21.6 21.6 0 01-7.717 1.372 19.665 19.665 0 01-5.468-.675 22.352 22.352 0 01-3.937-1.507 27.6 27.6 0 01-2.633-1.508 3.247 3.247 0 00-1.6-.675 1.662 1.662 0 00-1.3.63L52.78 59.5a18.343 18.343 0 002.857 2.138 23.255 23.255 0 003.623 1.8 23.744 23.744 0 004.32 1.237 26.168 26.168 0 004.95.45 26.7 26.7 0 009.382-1.666 24.38 24.38 0 007.92-4.776 22.9 22.9 0 005.49-7.591 24.071 24.071 0 002.048-10.113 18.488 18.488 0 00-1.148-6.622 13.777 13.777 0 00-3.465-5.2 16.011 16.011 0 00-5.8-3.4 24.654 24.654 0 00-8.122-1.217 46.366 46.366 0 00-10.665 1.395L70.688 4.56h23.13a2.749 2.749 0 001.912-.562 2.412 2.412 0 00.743-1.463zm7.4 63.158a4 4 0 002.947 1.192 4.162 4.162 0 002.996-1.186 3.931 3.931 0 001.237-2.948 3.976 3.976 0 00-.337-1.62 4.335 4.335 0 00-.9-1.327 4.278 4.278 0 00-1.35-.9 4.131 4.131 0 00-1.643-.338 3.921 3.921 0 00-1.642.338 4.408 4.408 0 00-1.305.9 4.013 4.013 0 00-.878 1.327 4.22 4.22 0 00-.315 1.62 4.006 4.006 0 001.191 2.948z" fill="#e81836" fill-rule="evenodd"/></svg>