<svg xmlns="http://www.w3.org/2000/svg" width="111.313" height="65.125" viewBox="0 0 111.313 65.125">
  <defs>
    <style>
      .cls-1 {
        fill: #e81836;
        fill-rule: evenodd;
      }
    </style>
  </defs>
  <path id="_05.svg" data-name="05.svg" class="cls-1" d="M567.16,690.806a24.543,24.543,0,0,0-8.685,7.223,37,37,0,0,0-5.962,12.2,60.376,60.376,0,0,0-2.205,17.257,40.453,40.453,0,0,0,1.44,11.408,23.777,23.777,0,0,0,4,8.122,16.538,16.538,0,0,0,6.075,4.86,18.029,18.029,0,0,0,7.65,1.62,23.5,23.5,0,0,0,10.372-2.385,24.334,24.334,0,0,0,8.663-7.222,37.31,37.31,0,0,0,5.94-12.173,60.345,60.345,0,0,0,2.205-17.28,40.492,40.492,0,0,0-1.44-11.407,23.8,23.8,0,0,0-4-8.123,16.538,16.538,0,0,0-6.075-4.86,18.032,18.032,0,0,0-7.65-1.62A23.434,23.434,0,0,0,567.16,690.806Zm-3.15,57.8a13.2,13.2,0,0,1-4.9-4.089,20.845,20.845,0,0,1-3.285-7.008,37.794,37.794,0,0,1-1.192-10.132,60,60,0,0,1,1.822-15.7,35.239,35.239,0,0,1,4.9-11.053,20.442,20.442,0,0,1,7.133-6.515,18,18,0,0,1,8.5-2.135A13.924,13.924,0,0,1,583,693.3a13.11,13.11,0,0,1,4.883,4.066,20.866,20.866,0,0,1,3.262,7.009,37.845,37.845,0,0,1,1.193,10.109,60.2,60.2,0,0,1-1.823,15.749,35.233,35.233,0,0,1-4.9,11.052,20.511,20.511,0,0,1-7.11,6.515,17.851,17.851,0,0,1-8.482,2.134A13.91,13.91,0,0,1,564.01,748.611Zm83.047-59.47H618.482l-8.415,28.17,2.52,0.855a47.219,47.219,0,0,1,11.475-1.665,21.336,21.336,0,0,1,6.862.99,13.2,13.2,0,0,1,4.793,2.745,10.691,10.691,0,0,1,2.79,4.208,15.658,15.658,0,0,1,.9,5.422,21.445,21.445,0,0,1-1.575,8.438,18.347,18.347,0,0,1-4.3,6.277,18.926,18.926,0,0,1-6.345,3.938,21.6,21.6,0,0,1-7.717,1.372,19.665,19.665,0,0,1-5.468-.675,22.352,22.352,0,0,1-3.937-1.507,27.6,27.6,0,0,1-2.633-1.508,3.247,3.247,0,0,0-1.6-.675,1.662,1.662,0,0,0-1.3.63l-1.44,1.755a18.343,18.343,0,0,0,2.857,2.138,23.255,23.255,0,0,0,3.623,1.8,23.744,23.744,0,0,0,4.32,1.237,26.168,26.168,0,0,0,4.95.45,26.7,26.7,0,0,0,9.382-1.666,24.38,24.38,0,0,0,7.92-4.776,22.9,22.9,0,0,0,5.49-7.591,24.071,24.071,0,0,0,2.048-10.113,18.488,18.488,0,0,0-1.148-6.622,13.777,13.777,0,0,0-3.465-5.2,16.011,16.011,0,0,0-5.8-3.4,24.654,24.654,0,0,0-8.122-1.217,46.366,46.366,0,0,0-10.665,1.395L621,692.966h23.13a2.749,2.749,0,0,0,1.912-.562,2.412,2.412,0,0,0,.743-1.463Zm7.4,63.158a4,4,0,0,0,2.947,1.192A4.162,4.162,0,0,0,660.4,752.3a3.931,3.931,0,0,0,1.237-2.948,3.976,3.976,0,0,0-.337-1.62,4.335,4.335,0,0,0-.9-1.327,4.278,4.278,0,0,0-1.35-.9,4.131,4.131,0,0,0-1.643-.338,3.921,3.921,0,0,0-1.642.338,4.408,4.408,0,0,0-1.305.9,4.013,4.013,0,0,0-.878,1.327,4.22,4.22,0,0,0-.315,1.62A4.006,4.006,0,0,0,654.458,752.3Z" transform="translate(-550.312 -688.406)"/>
</svg>
