<svg xmlns="http://www.w3.org/2000/svg" width="111" height="65"><path d="M16.848 2.4a24.543 24.543 0 00-8.685 7.223 37 37 0 00-5.962 12.2A60.376 60.376 0 00-.004 39.08a40.453 40.453 0 001.44 11.408 23.777 23.777 0 004 8.122 16.538 16.538 0 006.075 4.86 18.029 18.029 0 007.65 1.62 23.5 23.5 0 0010.372-2.385 24.334 24.334 0 008.663-7.222 37.31 37.31 0 005.94-12.173 60.345 60.345 0 002.205-17.28 40.492 40.492 0 00-1.44-11.407 23.8 23.8 0 00-4-8.123 16.538 16.538 0 00-6.075-4.86 18.032 18.032 0 00-7.65-1.62A23.434 23.434 0 0016.848 2.4zm-3.15 57.8a13.2 13.2 0 01-4.9-4.089 20.845 20.845 0 01-3.285-7.008 37.794 37.794 0 01-1.192-10.132 60 60 0 011.822-15.7 35.239 35.239 0 014.9-11.053 20.442 20.442 0 017.133-6.515 18 18 0 018.5-2.135 13.924 13.924 0 016.012 1.326 13.11 13.11 0 014.883 4.066 20.866 20.866 0 013.262 7.009 37.845 37.845 0 011.193 10.109 60.2 60.2 0 01-1.823 15.749 35.233 35.233 0 01-4.9 11.052 20.511 20.511 0 01-7.11 6.515 17.851 17.851 0 01-8.482 2.134 13.91 13.91 0 01-6.013-1.323zm56.317-32.222a21.792 21.792 0 00-6.885 4.432q1.168-1.573 2.565-3.262T68.8 25.57L90.8.73h-3.645a2.871 2.871 0 00-1.3.293 3.3 3.3 0 00-.99.742L64.525 25.21q-2.792 3.24-4.815 6.1a39.7 39.7 0 00-3.33 5.535 25.389 25.389 0 00-1.913 5.22 22.1 22.1 0 00-.607 5.152 21.132 21.132 0 001.237 7.448 15.9 15.9 0 003.533 5.647 15.22 15.22 0 005.558 3.582 20.352 20.352 0 007.268 1.237 25.68 25.68 0 009.315-1.665 23.038 23.038 0 007.492-4.612 21.329 21.329 0 005-7.043 21.771 21.771 0 001.823-8.955 17.964 17.964 0 00-1.215-6.727 14.959 14.959 0 00-3.42-5.2 15.4 15.4 0 00-5.288-3.352 18.879 18.879 0 00-6.862-1.193 21.7 21.7 0 00-8.286 1.599zM59.188 40.875a18.088 18.088 0 013.87-5.692 19.379 19.379 0 015.985-4.028 19.135 19.135 0 017.763-1.53 16.6 16.6 0 015.805.968 11.928 11.928 0 017.245 7.132 15.783 15.783 0 01.99 5.715 19 19 0 01-1.373 7.268 16.753 16.753 0 01-3.885 5.786 18.045 18.045 0 01-6.03 3.8 21.086 21.086 0 01-7.74 1.372 15.249 15.249 0 01-5.918-1.08 12.589 12.589 0 01-4.39-2.992 12.918 12.918 0 01-2.745-4.523 16.769 16.769 0 01.423-12.196zm44.958 23.019a4 4 0 002.947 1.192 4.162 4.162 0 002.995-1.192 3.931 3.931 0 001.237-2.948 3.976 3.976 0 00-.337-1.62 4.335 4.335 0 00-.9-1.327 4.278 4.278 0 00-1.35-.9 4.131 4.131 0 00-1.643-.338 3.921 3.921 0 00-1.642.338 4.408 4.408 0 00-1.305.9 4.013 4.013 0 00-.878 1.327 4.22 4.22 0 00-.315 1.62 4.006 4.006 0 001.191 2.948z" fill="#e81836" fill-rule="evenodd"/></svg>