<svg xmlns="http://www.w3.org/2000/svg" width="111" height="65"><path d="M16.848 2.4a24.543 24.543 0 00-8.685 7.223 37 37 0 00-5.962 12.2A60.376 60.376 0 00-.004 39.08a40.453 40.453 0 001.44 11.408 23.808 23.808 0 004 8.121 16.538 16.538 0 006.075 4.86 18.029 18.029 0 007.65 1.62 23.511 23.511 0 0010.372-2.38 24.318 24.318 0 008.663-7.23 37.238 37.238 0 005.94-12.169 60.345 60.345 0 002.205-17.28 40.492 40.492 0 00-1.44-11.407 23.8 23.8 0 00-4-8.123 16.538 16.538 0 00-6.075-4.86 18.032 18.032 0 00-7.65-1.62A23.434 23.434 0 0016.848 2.4zm-3.15 57.8a13.2 13.2 0 01-4.9-4.09 20.853 20.853 0 01-3.285-7.006 37.794 37.794 0 01-1.192-10.132 60 60 0 011.822-15.7 35.239 35.239 0 014.9-11.053 20.442 20.442 0 017.133-6.515 18 18 0 018.5-2.135 13.924 13.924 0 016.012 1.325 13.11 13.11 0 014.883 4.066 20.866 20.866 0 013.262 7.009 37.845 37.845 0 011.193 10.109 60.2 60.2 0 01-1.823 15.749 35.283 35.283 0 01-4.9 11.055 20.475 20.475 0 01-7.11 6.51 17.788 17.788 0 01-8.482 2.14 13.972 13.972 0 01-6.013-1.328zM59.125.731l-.36 2.79a1 1 0 00.292.743 1.063 1.063 0 00.788.292h36.81q-.451.5-.833.99a12.436 12.436 0 00-.742 1.08L58.45 64.41h3.238a2.192 2.192 0 001.282-.36 3.162 3.162 0 00.878-.95l36.765-58.544a6.123 6.123 0 00.427-1.012 5.075 5.075 0 00.248-1.238l.18-1.575H59.125zm45.021 63.159a4.019 4.019 0 002.947 1.19 4.177 4.177 0 002.993-1.19 4.112 4.112 0 00.9-4.57 4.4 4.4 0 00-.9-1.33 4.454 4.454 0 00-1.35-.9 4.211 4.211 0 00-1.643-.33 4 4 0 00-1.642.33 4.6 4.6 0 00-1.305.9 4.068 4.068 0 00-.878 1.33 4.213 4.213 0 00-.315 1.62 4.018 4.018 0 001.193 2.954z" fill="#e81836" fill-rule="evenodd"/></svg>