<svg xmlns="http://www.w3.org/2000/svg" width="111" height="65" viewBox="0 0 111 65">
  <defs>
    <style>
      .cls-1 {
        fill: #e81836;
        fill-rule: evenodd;
      }
    </style>
  </defs>
  <path class="cls-1" d="M567.16,950.806a24.543,24.543,0,0,0-8.685,7.223,37,37,0,0,0-5.962,12.2,60.376,60.376,0,0,0-2.205,17.257,40.453,40.453,0,0,0,1.44,11.408,23.808,23.808,0,0,0,4,8.121,16.538,16.538,0,0,0,6.075,4.86,18.029,18.029,0,0,0,7.65,1.62,23.511,23.511,0,0,0,10.372-2.38,24.318,24.318,0,0,0,8.663-7.23,37.238,37.238,0,0,0,5.94-12.169,60.345,60.345,0,0,0,2.205-17.28,40.492,40.492,0,0,0-1.44-11.407,23.8,23.8,0,0,0-4-8.123,16.538,16.538,0,0,0-6.075-4.86,18.032,18.032,0,0,0-7.65-1.62A23.434,23.434,0,0,0,567.16,950.806Zm-3.15,57.8a13.2,13.2,0,0,1-4.9-4.09,20.853,20.853,0,0,1-3.285-7.006,37.794,37.794,0,0,1-1.192-10.132,60,60,0,0,1,1.822-15.7,35.239,35.239,0,0,1,4.9-11.053,20.442,20.442,0,0,1,7.133-6.515,18,18,0,0,1,8.5-2.135A13.924,13.924,0,0,1,583,953.3a13.11,13.11,0,0,1,4.883,4.066,20.866,20.866,0,0,1,3.262,7.009,37.845,37.845,0,0,1,1.193,10.109,60.2,60.2,0,0,1-1.823,15.749,35.283,35.283,0,0,1-4.9,11.055,20.475,20.475,0,0,1-7.11,6.51,17.788,17.788,0,0,1-8.482,2.14A13.972,13.972,0,0,1,564.01,1008.61Zm45.427-59.469-0.36,2.79a1,1,0,0,0,.292.743,1.063,1.063,0,0,0,.788.292h36.81q-0.451.5-.833,0.99a12.436,12.436,0,0,0-.742,1.08l-36.63,57.784H612a2.192,2.192,0,0,0,1.282-.36,3.162,3.162,0,0,0,.878-0.95l36.765-58.544a6.123,6.123,0,0,0,.427-1.012,5.075,5.075,0,0,0,.248-1.238l0.18-1.575H609.437Zm45.021,63.159a4.019,4.019,0,0,0,2.947,1.19,4.177,4.177,0,0,0,2.993-1.19,4.112,4.112,0,0,0,.9-4.57,4.4,4.4,0,0,0-.9-1.33,4.454,4.454,0,0,0-1.35-.9,4.211,4.211,0,0,0-1.643-.33,4,4,0,0,0-1.642.33,4.6,4.6,0,0,0-1.305.9,4.068,4.068,0,0,0-.878,1.33,4.213,4.213,0,0,0-.315,1.62A4.018,4.018,0,0,0,654.458,1012.3Z" transform="translate(-550.312 -948.406)"/>
</svg>
