<svg xmlns="http://www.w3.org/2000/svg" width="111" height="65"><path d="M16.848 2.4a24.471 24.471 0 00-8.685 7.22 36.972 36.972 0 00-5.962 12.19A60.417 60.417 0 00-.004 39.07a40.5 40.5 0 001.44 11.41 23.812 23.812 0 004 8.12 16.538 16.538 0 006.075 4.86 18.029 18.029 0 007.65 1.62 23.511 23.511 0 0010.372-2.38 24.318 24.318 0 008.663-7.23 37.253 37.253 0 005.94-12.17 60.355 60.355 0 002.205-17.28 40.534 40.534 0 00-1.44-11.41 23.83 23.83 0 00-4-8.12 16.538 16.538 0 00-6.075-4.86 18.032 18.032 0 00-7.65-1.62A23.426 23.426 0 0016.848 2.4zm-3.15 57.8a13.2 13.2 0 01-4.9-4.09 20.838 20.838 0 01-3.285-7.01 37.743 37.743 0 01-1.192-10.13 59.988 59.988 0 011.822-15.7 35.2 35.2 0 014.9-11.05 20.439 20.439 0 017.133-6.52 18.026 18.026 0 018.5-2.13 13.963 13.963 0 016.012 1.32 13.15 13.15 0 014.883 4.07 20.853 20.853 0 013.262 7.01 37.79 37.79 0 011.193 10.11 60.092 60.092 0 01-1.823 15.74 35.262 35.262 0 01-4.9 11.06 20.475 20.475 0 01-7.11 6.51 17.788 17.788 0 01-8.482 2.14 13.972 13.972 0 01-6.013-1.33zm66.869 3.58a21.7 21.7 0 007.29-3.9 18.024 18.024 0 004.838-6.18 18.767 18.767 0 001.755-8.24 15.2 15.2 0 00-.878-5.33 12.481 12.481 0 00-2.475-4.12 14.254 14.254 0 00-3.825-2.95 20.231 20.231 0 00-4.927-1.82 20.829 20.829 0 005.76-2.43 16.81 16.81 0 004.252-3.73 16.067 16.067 0 002.655-4.84 17.531 17.531 0 00.923-5.74 14.5 14.5 0 00-1.1-5.65 13.025 13.025 0 00-3.24-4.59 15.814 15.814 0 00-5.2-3.1A19.663 19.663 0 0079.42.01a23.38 23.38 0 00-8.348 1.42 20.1 20.1 0 00-6.457 3.85 17.023 17.023 0 00-5.67 12.82 13.353 13.353 0 002.52 8.12 13.765 13.765 0 007.425 4.93 27.08 27.08 0 00-6.435 2.18 17.817 17.817 0 00-5.13 3.76 16.612 16.612 0 00-3.375 5.42 19.648 19.648 0 00-1.215 7.14 14.671 14.671 0 001.35 6.36 14.015 14.015 0 003.8 4.89 17.451 17.451 0 005.9 3.12 24.918 24.918 0 007.673 1.11 29.674 29.674 0 009.109-1.35zm-14.85-2.88a13.1 13.1 0 01-4.612-2.57 11.531 11.531 0 01-2.925-3.96 12.325 12.325 0 01-1.035-5.13 17.224 17.224 0 01.81-5.51 14.454 14.454 0 012.182-4.21 14.042 14.042 0 013.2-3.06 17.8 17.8 0 013.848-2.02 21.539 21.539 0 014.117-1.11 26.127 26.127 0 014.073-.33 22.96 22.96 0 015.107.6 14.338 14.338 0 014.793 2.07 11.506 11.506 0 013.532 3.87 11.928 11.928 0 011.373 5.97 15.9 15.9 0 01-1.373 6.72 15.077 15.077 0 01-3.8 5.13 16.928 16.928 0 01-5.805 3.29 22.937 22.937 0 01-7.38 1.15 19.365 19.365 0 01-6.105-.9zm4.32-32.25a11.286 11.286 0 01-3.982-2.58 10.1 10.1 0 01-2.318-3.74 13.055 13.055 0 01-.742-4.36 14.812 14.812 0 011.125-5.79 13.725 13.725 0 013.195-4.65 14.741 14.741 0 015.04-3.11 18.817 18.817 0 016.7-1.12 15.978 15.978 0 015.49.87 11.534 11.534 0 014 2.43 10.244 10.244 0 012.452 3.65 12.091 12.091 0 01.833 4.52 15.815 15.815 0 01-.968 5.45 13.408 13.408 0 01-2.97 4.74 14.936 14.936 0 01-5.017 3.38 18.173 18.173 0 01-7.11 1.28 15.259 15.259 0 01-5.728-.97zm34.109 35.24a4.019 4.019 0 002.947 1.19 4.177 4.177 0 002.993-1.19 4.112 4.112 0 00.9-4.57 4.4 4.4 0 00-.9-1.33 4.454 4.454 0 00-1.35-.9 4.211 4.211 0 00-1.643-.33 4 4 0 00-1.642.33 4.6 4.6 0 00-1.305.9 4.068 4.068 0 00-.878 1.33 4.213 4.213 0 00-.315 1.62 4.018 4.018 0 001.193 2.95z" fill="#e81836" fill-rule="evenodd"/></svg>