<svg xmlns="http://www.w3.org/2000/svg" width="111" height="65" viewBox="0 0 111 65">
  <defs>
    <style>
      .cls-1 {
        fill: #e81836;
        fill-rule: evenodd;
      }
    </style>
  </defs>
  <path class="cls-1" d="M567.16,1080.81a24.471,24.471,0,0,0-8.685,7.22,36.972,36.972,0,0,0-5.962,12.19,60.417,60.417,0,0,0-2.205,17.26,40.5,40.5,0,0,0,1.44,11.41,23.812,23.812,0,0,0,4,8.12,16.538,16.538,0,0,0,6.075,4.86,18.029,18.029,0,0,0,7.65,1.62,23.511,23.511,0,0,0,10.372-2.38,24.318,24.318,0,0,0,8.663-7.23,37.253,37.253,0,0,0,5.94-12.17,60.355,60.355,0,0,0,2.205-17.28,40.534,40.534,0,0,0-1.44-11.41,23.83,23.83,0,0,0-4-8.12,16.538,16.538,0,0,0-6.075-4.86,18.032,18.032,0,0,0-7.65-1.62A23.426,23.426,0,0,0,567.16,1080.81Zm-3.15,57.8a13.2,13.2,0,0,1-4.9-4.09,20.838,20.838,0,0,1-3.285-7.01,37.743,37.743,0,0,1-1.192-10.13,59.988,59.988,0,0,1,1.822-15.7,35.2,35.2,0,0,1,4.9-11.05,20.439,20.439,0,0,1,7.133-6.52,18.026,18.026,0,0,1,8.5-2.13A13.963,13.963,0,0,1,583,1083.3a13.15,13.15,0,0,1,4.883,4.07,20.853,20.853,0,0,1,3.262,7.01,37.79,37.79,0,0,1,1.193,10.11,60.092,60.092,0,0,1-1.823,15.74,35.262,35.262,0,0,1-4.9,11.06,20.475,20.475,0,0,1-7.11,6.51,17.788,17.788,0,0,1-8.482,2.14A13.972,13.972,0,0,1,564.01,1138.61Zm66.869,3.58a21.7,21.7,0,0,0,7.29-3.9,18.024,18.024,0,0,0,4.838-6.18,18.767,18.767,0,0,0,1.755-8.24,15.2,15.2,0,0,0-.878-5.33,12.481,12.481,0,0,0-2.475-4.12,14.254,14.254,0,0,0-3.825-2.95,20.231,20.231,0,0,0-4.927-1.82,20.829,20.829,0,0,0,5.76-2.43,16.81,16.81,0,0,0,4.252-3.73,16.067,16.067,0,0,0,2.655-4.84,17.531,17.531,0,0,0,.923-5.74,14.5,14.5,0,0,0-1.1-5.65,13.025,13.025,0,0,0-3.24-4.59,15.814,15.814,0,0,0-5.2-3.1,19.663,19.663,0,0,0-6.975-1.15,23.38,23.38,0,0,0-8.348,1.42,20.1,20.1,0,0,0-6.457,3.85,17.023,17.023,0,0,0-5.67,12.82,13.353,13.353,0,0,0,2.52,8.12,13.765,13.765,0,0,0,7.425,4.93,27.08,27.08,0,0,0-6.435,2.18,17.817,17.817,0,0,0-5.13,3.76,16.612,16.612,0,0,0-3.375,5.42,19.648,19.648,0,0,0-1.215,7.14,14.671,14.671,0,0,0,1.35,6.36,14.015,14.015,0,0,0,3.8,4.89,17.451,17.451,0,0,0,5.9,3.12,24.918,24.918,0,0,0,7.673,1.11A29.674,29.674,0,0,0,630.879,1142.19Zm-14.85-2.88a13.1,13.1,0,0,1-4.612-2.57,11.531,11.531,0,0,1-2.925-3.96,12.325,12.325,0,0,1-1.035-5.13,17.224,17.224,0,0,1,.81-5.51,14.454,14.454,0,0,1,2.182-4.21,14.042,14.042,0,0,1,3.2-3.06,17.8,17.8,0,0,1,3.848-2.02,21.539,21.539,0,0,1,4.117-1.11,26.127,26.127,0,0,1,4.073-.33,22.96,22.96,0,0,1,5.107.6,14.338,14.338,0,0,1,4.793,2.07,11.506,11.506,0,0,1,3.532,3.87,11.928,11.928,0,0,1,1.373,5.97,15.9,15.9,0,0,1-1.373,6.72,15.077,15.077,0,0,1-3.8,5.13,16.928,16.928,0,0,1-5.805,3.29,22.937,22.937,0,0,1-7.38,1.15A19.365,19.365,0,0,1,616.029,1139.31Zm4.32-32.25a11.286,11.286,0,0,1-3.982-2.58,10.1,10.1,0,0,1-2.318-3.74,13.055,13.055,0,0,1-.742-4.36,14.812,14.812,0,0,1,1.125-5.79,13.725,13.725,0,0,1,3.195-4.65,14.741,14.741,0,0,1,5.04-3.11,18.817,18.817,0,0,1,6.7-1.12,15.978,15.978,0,0,1,5.49.87,11.534,11.534,0,0,1,4,2.43,10.244,10.244,0,0,1,2.452,3.65,12.091,12.091,0,0,1,.833,4.52,15.815,15.815,0,0,1-.968,5.45,13.408,13.408,0,0,1-2.97,4.74,14.936,14.936,0,0,1-5.017,3.38,18.173,18.173,0,0,1-7.11,1.28A15.259,15.259,0,0,1,620.349,1107.06Zm34.109,35.24a4.019,4.019,0,0,0,2.947,1.19,4.177,4.177,0,0,0,2.993-1.19,4.112,4.112,0,0,0,.9-4.57,4.4,4.4,0,0,0-.9-1.33,4.454,4.454,0,0,0-1.35-.9,4.211,4.211,0,0,0-1.643-.33,4,4,0,0,0-1.642.33,4.6,4.6,0,0,0-1.305.9,4.068,4.068,0,0,0-.878,1.33,4.213,4.213,0,0,0-.315,1.62A4.018,4.018,0,0,0,654.458,1142.3Z" transform="translate(-550.312 -1078.41)"/>
</svg>
