<svg xmlns="http://www.w3.org/2000/svg" width="111.313" height="65.09" viewBox="0 0 111.313 65.09">
  <defs>
    <style>
      .cls-1 {
        fill: #e81836;
        fill-rule: evenodd;
      }
    </style>
  </defs>
  <path id="_09.svg" data-name="09.svg" class="cls-1" d="M567.16,1210.81a24.471,24.471,0,0,0-8.685,7.22,36.972,36.972,0,0,0-5.962,12.19,60.417,60.417,0,0,0-2.205,17.26,40.5,40.5,0,0,0,1.44,11.41,23.812,23.812,0,0,0,4,8.12,16.538,16.538,0,0,0,6.075,4.86,18.029,18.029,0,0,0,7.65,1.62,23.511,23.511,0,0,0,10.372-2.38,24.318,24.318,0,0,0,8.663-7.23,37.253,37.253,0,0,0,5.94-12.17,60.355,60.355,0,0,0,2.205-17.28,40.534,40.534,0,0,0-1.44-11.41,23.83,23.83,0,0,0-4-8.12,16.538,16.538,0,0,0-6.075-4.86,18.032,18.032,0,0,0-7.65-1.62A23.426,23.426,0,0,0,567.16,1210.81Zm-3.15,57.8a13.2,13.2,0,0,1-4.9-4.09,20.838,20.838,0,0,1-3.285-7.01,37.743,37.743,0,0,1-1.192-10.13,59.988,59.988,0,0,1,1.822-15.7,35.2,35.2,0,0,1,4.9-11.05,20.439,20.439,0,0,1,7.133-6.52,18.026,18.026,0,0,1,8.5-2.13A13.963,13.963,0,0,1,583,1213.3a13.15,13.15,0,0,1,4.883,4.07,20.853,20.853,0,0,1,3.262,7.01,37.79,37.79,0,0,1,1.193,10.11,60.092,60.092,0,0,1-1.823,15.74,35.262,35.262,0,0,1-4.9,11.06,20.475,20.475,0,0,1-7.11,6.51,17.788,17.788,0,0,1-8.482,2.14A13.972,13.972,0,0,1,564.01,1268.61Zm69.142-24.5a20.878,20.878,0,0,0,6.93-4.59q-1.307,1.845-2.7,3.55t-2.835,3.42l-22.05,26.33h3.78a2.622,2.622,0,0,0,2.2-.99l19.8-24.57q2.473-3.1,4.41-5.7a37.814,37.814,0,0,0,3.24-5.08,24.383,24.383,0,0,0,1.98-5.06,22.111,22.111,0,0,0,.675-5.63,20.037,20.037,0,0,0-1.193-7.06,15.61,15.61,0,0,0-3.42-5.49,15.367,15.367,0,0,0-5.355-3.56,18.451,18.451,0,0,0-6.952-1.26,23.913,23.913,0,0,0-8.865,1.64,23.412,23.412,0,0,0-7.245,4.5,20.726,20.726,0,0,0-4.883,6.8,20.477,20.477,0,0,0-1.777,8.53,17.6,17.6,0,0,0,1.147,6.48,14.054,14.054,0,0,0,3.263,4.99,14.859,14.859,0,0,0,5.085,3.22,18.194,18.194,0,0,0,6.57,1.15A21.442,21.442,0,0,0,633.152,1244.11Zm10.17-12.33a16.528,16.528,0,0,1-3.623,5.37,18.374,18.374,0,0,1-5.715,3.83,18.748,18.748,0,0,1-7.537,1.46,16.1,16.1,0,0,1-5.535-.9,11.569,11.569,0,0,1-4.208-2.59,11.141,11.141,0,0,1-2.655-4.11,15.272,15.272,0,0,1-.922-5.45,17.91,17.91,0,0,1,1.372-7.09,16.475,16.475,0,0,1,3.8-5.53,17.084,17.084,0,0,1,5.737-3.6,19.578,19.578,0,0,1,7.178-1.28,14.157,14.157,0,0,1,5.445,1.01,12.2,12.2,0,0,1,4.23,2.83,12.76,12.76,0,0,1,2.722,4.37,15.5,15.5,0,0,1,.968,5.56A15.761,15.761,0,0,1,643.322,1231.78Zm11.136,40.52a4.019,4.019,0,0,0,2.947,1.19,4.177,4.177,0,0,0,2.993-1.19,4.112,4.112,0,0,0,.9-4.57,4.4,4.4,0,0,0-.9-1.33,4.454,4.454,0,0,0-1.35-.9,4.211,4.211,0,0,0-1.643-.33,4,4,0,0,0-1.642.33,4.6,4.6,0,0,0-1.305.9,4.068,4.068,0,0,0-.878,1.33,4.213,4.213,0,0,0-.315,1.62A4.018,4.018,0,0,0,654.458,1272.3Z" transform="translate(-550.312 -1208.41)"/>
</svg>
