<svg xmlns="http://www.w3.org/2000/svg" width="111" height="65"><path d="M16.848 2.4a24.471 24.471 0 00-8.685 7.22 36.972 36.972 0 00-5.962 12.19A60.417 60.417 0 00-.004 39.07a40.5 40.5 0 001.44 11.41 23.812 23.812 0 004 8.12 16.538 16.538 0 006.075 4.86 18.029 18.029 0 007.65 1.62 23.511 23.511 0 0010.372-2.38 24.318 24.318 0 008.663-7.23 37.253 37.253 0 005.94-12.17 60.355 60.355 0 002.205-17.28 40.534 40.534 0 00-1.44-11.41 23.83 23.83 0 00-4-8.12 16.538 16.538 0 00-6.075-4.86 18.032 18.032 0 00-7.65-1.62A23.426 23.426 0 0016.848 2.4zm-3.15 57.8a13.2 13.2 0 01-4.9-4.09 20.838 20.838 0 01-3.285-7.01 37.743 37.743 0 01-1.192-10.13 59.988 59.988 0 011.822-15.7 35.2 35.2 0 014.9-11.05 20.439 20.439 0 017.133-6.52 18.026 18.026 0 018.5-2.13 13.963 13.963 0 016.012 1.32 13.15 13.15 0 014.883 4.07 20.853 20.853 0 013.262 7.01 37.79 37.79 0 011.193 10.11 60.092 60.092 0 01-1.823 15.74 35.262 35.262 0 01-4.9 11.06 20.475 20.475 0 01-7.11 6.51 17.788 17.788 0 01-8.482 2.14 13.972 13.972 0 01-6.013-1.33zM82.84 35.7a20.878 20.878 0 006.93-4.59q-1.307 1.845-2.7 3.55t-2.835 3.42l-22.05 26.33h3.78a2.622 2.622 0 002.2-.99l19.8-24.57q2.473-3.1 4.41-5.7a37.814 37.814 0 003.24-5.08 24.383 24.383 0 001.98-5.06 22.111 22.111 0 00.675-5.63 20.037 20.037 0 00-1.193-7.06 15.61 15.61 0 00-3.42-5.49 15.367 15.367 0 00-5.355-3.56A18.451 18.451 0 0081.35.01a23.913 23.913 0 00-8.865 1.64 23.412 23.412 0 00-7.245 4.5 20.726 20.726 0 00-4.883 6.8 20.477 20.477 0 00-1.777 8.53 17.6 17.6 0 001.147 6.48 14.054 14.054 0 003.263 4.99 14.859 14.859 0 005.085 3.22 18.194 18.194 0 006.57 1.15 21.442 21.442 0 008.195-1.62zm10.17-12.33a16.528 16.528 0 01-3.623 5.37 18.374 18.374 0 01-5.715 3.83 18.748 18.748 0 01-7.537 1.46 16.1 16.1 0 01-5.535-.9 11.569 11.569 0 01-4.208-2.59 11.141 11.141 0 01-2.655-4.11 15.272 15.272 0 01-.922-5.45 17.91 17.91 0 011.372-7.09 16.475 16.475 0 013.8-5.53 17.084 17.084 0 015.737-3.6 19.578 19.578 0 017.178-1.28 14.157 14.157 0 015.445 1.01 12.2 12.2 0 014.23 2.83 12.76 12.76 0 012.722 4.37 15.5 15.5 0 01.968 5.56 15.761 15.761 0 01-1.257 6.12zm11.136 40.52a4.019 4.019 0 002.947 1.19 4.177 4.177 0 002.993-1.19 4.112 4.112 0 00.9-4.57 4.4 4.4 0 00-.9-1.33 4.454 4.454 0 00-1.35-.9 4.211 4.211 0 00-1.643-.33 4 4 0 00-1.642.33 4.6 4.6 0 00-1.305.9 4.068 4.068 0 00-.878 1.33 4.213 4.213 0 00-.315 1.62 4.018 4.018 0 001.193 2.95z" fill="#e81836" fill-rule="evenodd"/></svg>