<svg xmlns="http://www.w3.org/2000/svg" width="104.125" height="65.09" viewBox="0 0 104.125 65.09">
  <defs>
    <style>
      .cls-1 {
        fill: #e81836;
        fill-rule: evenodd;
      }
    </style>
  </defs>
  <path id="_10.svg" data-name="10.svg" class="cls-1" d="M557.508,1402.82h32.76l0.36-3.24H576.723l7.425-60.71h-3.285l-20.3,16.25,0.99,1.75a1.19,1.19,0,0,0,1.125.54,1.788,1.788,0,0,0,1.08-.4l15.885-12.78-0.675,3.1-6.435,52.25h-14.67Zm61.851-62.01a24.471,24.471,0,0,0-8.685,7.22,36.972,36.972,0,0,0-5.962,12.19,60.381,60.381,0,0,0-2.205,17.26,40.5,40.5,0,0,0,1.44,11.41,23.794,23.794,0,0,0,4,8.12,16.538,16.538,0,0,0,6.075,4.86,18.029,18.029,0,0,0,7.65,1.62,23.511,23.511,0,0,0,10.372-2.38,24.318,24.318,0,0,0,8.663-7.23,37.293,37.293,0,0,0,5.94-12.17,60.355,60.355,0,0,0,2.2-17.28,40.57,40.57,0,0,0-1.44-11.41,23.83,23.83,0,0,0-4-8.12,16.538,16.538,0,0,0-6.075-4.86,18.035,18.035,0,0,0-7.65-1.62A23.426,23.426,0,0,0,619.359,1340.81Zm-3.15,57.8a13.2,13.2,0,0,1-4.9-4.09,20.838,20.838,0,0,1-3.285-7.01,37.743,37.743,0,0,1-1.192-10.13,59.988,59.988,0,0,1,1.822-15.7,35.2,35.2,0,0,1,4.9-11.05,20.439,20.439,0,0,1,7.133-6.52,18.026,18.026,0,0,1,8.5-2.13,13.966,13.966,0,0,1,6.007,1.32,13.158,13.158,0,0,1,4.883,4.07,20.853,20.853,0,0,1,3.262,7.01,37.79,37.79,0,0,1,1.193,10.11,60.092,60.092,0,0,1-1.823,15.74,35.262,35.262,0,0,1-4.905,11.06,20.475,20.475,0,0,1-7.11,6.51,17.788,17.788,0,0,1-8.482,2.14A13.972,13.972,0,0,1,616.209,1398.61Zm38.249,3.69a4.019,4.019,0,0,0,2.947,1.19,4.177,4.177,0,0,0,2.993-1.19,4.112,4.112,0,0,0,.9-4.57,4.4,4.4,0,0,0-.9-1.33,4.454,4.454,0,0,0-1.35-.9,4.211,4.211,0,0,0-1.643-.33,4,4,0,0,0-1.642.33,4.6,4.6,0,0,0-1.305.9,4.068,4.068,0,0,0-.878,1.33,4.213,4.213,0,0,0-.315,1.62A4.018,4.018,0,0,0,654.458,1402.3Z" transform="translate(-557.5 -1338.41)"/>
</svg>
