<svg xmlns="http://www.w3.org/2000/svg" viewBox="0 0 56 56"><defs><style>.cls-1{fill:#7a2808;}.cls-2{opacity:0.06;}.cls-3,.cls-4{fill:#fff;}.cls-3{fill-rule:evenodd;}</style></defs><title>kodawari</title><g><g><rect class="cls-1" width="56" height="56"/></g><g class="cls-2"><polygon class="cls-3" points="0 56 0 0 56 0 0 56"/></g><g><path class="cls-4" d="M8.15,17.91c.11.09.12.18.06.33a4,4,0,0,0-.31,1.37c0,1.13.78,1.69,2.82,1.69a10.35,10.35,0,0,0,3.22-.52c.17-.06.23,0,.25.16.06.34.17,1.31.19,1.76a.22.22,0,0,1-.2.27,11.88,11.88,0,0,1-3.54.44c-2.67,0-4-1.3-4-3.64a6.53,6.53,0,0,1,.63-2.58Zm2.69-7a24.37,24.37,0,0,0,2.52-.17c.12,0,.17.06.18.2,0,.42.06.92.06,1.53,0,.26-.06.36-.21.38a6,6,0,0,0-2.91,1.78.41.41,0,0,1-.3.17.37.37,0,0,1-.24-.11,2.57,2.57,0,0,0-.84-.58c.62-.61,1.14-1.11,1.56-1.49a5.81,5.81,0,0,1-1,0,9.89,9.89,0,0,1-2.08-.31c-.11,0-.16-.1-.16-.32,0-.43,0-1,0-1.6A10.19,10.19,0,0,0,10.84,10.86Z"/><path class="cls-4" d="M22.75,11.58c.14-.06.18,0,.2.18,0,.39.07.92.08,1.29s0,.29-.18.35a14.29,14.29,0,0,1-2.07.68c-.81,4-1.41,6.75-2.17,9.74-.06.25-.13.23-.26.18a9.27,9.27,0,0,1-1-.67A.36.36,0,0,1,17.3,23c.9-3.15,1.47-5.52,2.06-8.53a15.12,15.12,0,0,1-2.08.2c-.18,0-.23-.06-.25-.29s-.11-1-.17-1.64a3.92,3.92,0,0,0,.88,0,10.25,10.25,0,0,0,1.92-.18c.12-.72.22-1.51.3-2.25C20,9.79,20,9.25,20,8.68a5,5,0,0,1,1.5.5.32.32,0,0,1,.13.29.62.62,0,0,1-.06.29,4.67,4.67,0,0,0-.25.72c-.12.65-.2,1.26-.28,1.71A14.77,14.77,0,0,0,22.75,11.58Zm-.46,8.6c.12,0,.17.08.18.26.1,1.31.68,1.69,1.82,1.69a12.1,12.1,0,0,0,2-.25c.09,0,.13,0,.14.16.05.47.09,1.08.09,1.56,0,.22,0,.27-.19.29a8.66,8.66,0,0,1-1.65.2c-1.52,0-2.33-.32-2.86-1.17a4.74,4.74,0,0,1-.54-2.47A4.51,4.51,0,0,1,22.29,20.18Zm-.13-4.77c0-.25,0-.3.21-.36a8.6,8.6,0,0,1,2.32-.41,5.63,5.63,0,0,1,1.39.18c.17,0,.21,0,.21.27,0,.45,0,.95,0,1.44,0,.3-.06.38-.23.32a5.54,5.54,0,0,0-1.47-.21,9,9,0,0,0-2.39.41C22.18,16.42,22.16,15.77,22.16,15.41Zm2.75-5.13c.06-.07.1,0,.17,0a8,8,0,0,1,1.13,1.92.24.24,0,0,1,0,.29l-.5.56c-.08.09-.14.07-.2-.06A9.1,9.1,0,0,0,24.28,11ZM26,9.11c.08-.07.11,0,.18,0A7.12,7.12,0,0,1,27.27,11a.27.27,0,0,1,0,.32l-.48.56c-.09.11-.15.06-.2-.05a8.23,8.23,0,0,0-1.19-2.07Z"/><path class="cls-4" d="M33.08,15.34c1.07-1.33,2.16-2.11,3.41-2.11,1.79,0,3,1.86,3,4.58a6.08,6.08,0,0,1-3.16,5.79.33.33,0,0,1-.21.08c-.11,0-.22-.09-.31-.26a4.14,4.14,0,0,0-.93-1.18,5.1,5.1,0,0,0,2.38-1.79A4.39,4.39,0,0,0,38,17.73c0-1.69-.63-2.79-1.77-2.79s-2,.8-3.18,2.31c0,2.3,0,4.48.07,6.91,0,.15-.06.22-.16.22a9.58,9.58,0,0,1-1.05.07c-.11,0-.15-.07-.13-.25,0-1.84,0-3.73.05-5.57-.57,1.3-1.16,2.62-1.6,3.57-.06.11-.11.18-.17.18s-.08,0-.13-.11a10.67,10.67,0,0,1-.72-1.08.27.27,0,0,1-.07-.2.35.35,0,0,1,.07-.21c1-1.93,1.72-3.21,2.61-5.06,0-.45,0-.94,0-1.28-.34.16-.9.41-1.35.67-.2.12-.32.3-.39.3s-.17-.11-.24-.32c-.14-.42-.32-1-.48-1.59a3.41,3.41,0,0,0,.81-.18c.31-.1.77-.27,1.69-.64,0-.78,0-1.57,0-2.35a10.16,10.16,0,0,0-.11-1.56,6.77,6.77,0,0,1,1.37.3c.25.11.3.31.22.63a4.13,4.13,0,0,0-.12.78c0,.43,0,.84-.06,1.62l.09-.06.09,0c.08,0,.21.18.32.41a1.41,1.41,0,0,1,.19.56c0,.13,0,.2-.2.51s-.35.66-.63,1.29Z"/><path class="cls-4" d="M44.39,9.6a.38.38,0,0,1,.22.36.5.5,0,0,1-.08.28,3.22,3.22,0,0,0-.22.85c-.16,1.22-.26,2.5-.33,3.44,0,.65-.06,1.33,0,2,.26-.7.51-1.39.83-2.3a4.62,4.62,0,0,0,.37,1.17.51.51,0,0,1,.07.28,1.12,1.12,0,0,1-.12.45,18.62,18.62,0,0,0-.7,2.31,2.69,2.69,0,0,0-.06.54c0,.18-.05.25-.16.29a9,9,0,0,1-1,.21c-.08,0-.14-.1-.16-.23a17.07,17.07,0,0,1-.36-3.66c0-1.2.13-2.68.29-4.48,0-.63.09-1.24.09-2.05A4.55,4.55,0,0,1,44.39,9.6Zm3.86-.31c.24.09.26.18.24.49a7.49,7.49,0,0,0,0,.82c.09,1.71.17,3.35.17,4.65a17,17,0,0,1-.9,6.25,9.31,9.31,0,0,1-2,2.9.34.34,0,0,1-.24.12c-.09,0-.16-.05-.25-.2a2.66,2.66,0,0,0-1-.82,7.2,7.2,0,0,0,2-2.42,12.1,12.1,0,0,0,1-5.74c0-1.28-.06-3.15-.15-4.3a12.77,12.77,0,0,0-.25-2A5,5,0,0,1,48.25,9.29Z"/></g></g></svg>