<svg xmlns="http://www.w3.org/2000/svg" viewBox="0 0 56 56"><defs><style>.cls-1{fill:#7a2808;}.cls-2{opacity:0.06;}.cls-3,.cls-4{fill:#fff;}.cls-3{fill-rule:evenodd;}</style></defs><title>tokucho2</title><g><g><rect class="cls-1" width="56" height="56"/></g><g class="cls-2"><polygon class="cls-3" points="0 56 0 0 56 0 0 56"/></g><g><path class="cls-4" d="M24.4,20.59c0,.83,0,1.6,0,2.23a1.67,1.67,0,0,1-.61,1.53,4.7,4.7,0,0,1-2.4.4c-.54,0-.56,0-.68-.56a4,4,0,0,0-.56-1.35,13.84,13.84,0,0,0,1.93,0c.39,0,.5-.16.5-.55V18.75H19.07c-1.71,0-2.28,0-2.39,0s-.2,0-.2-.2v-.92a2,2,0,0,1-.34.18c-.4.22-.83.42-1.26.63v3c0,2.05,0,3.08,0,3.17s0,.2-.21.2H13.26c-.18,0-.2,0-.2-.2s0-1.12,0-3.15v-2.2l-1.27.54a1.89,1.89,0,0,0-.59.36.43.43,0,0,1-.31.16c-.12,0-.19,0-.27-.2a17,17,0,0,1-.59-1.74,8.7,8.7,0,0,0,1.67-.49c.46-.14.91-.3,1.36-.48v-3.7H12a19,19,0,0,1-.41,2.07c-.07.31-.11.44-.22.44a1.13,1.13,0,0,1-.41-.18,6.2,6.2,0,0,0-1-.36A19.85,19.85,0,0,0,10.75,11a8.89,8.89,0,0,0,0-1.15c.46.05,1,.12,1.46.21.21.06.28.11.28.22a.55.55,0,0,1-.09.29,2.24,2.24,0,0,0-.09.61l-.07.88h.87v-1A18.74,18.74,0,0,0,13,8.34c.69,0,1.23.06,1.86.13.18,0,.28.09.28.18A1.13,1.13,0,0,1,15,9a7.34,7.34,0,0,0-.11,2v1c1,0,1.37,0,1.46,0s.21,0,.21.18V13.6c0,.11,0,.16-.05.18.14,0,.75,0,2.39,0h1.32V12h-.74c-1.6,0-2.13,0-2.23,0S17,12,17,11.86V10.58c0-.18,0-.2.22-.2s.63,0,2.23,0h.74a11.29,11.29,0,0,0-.16-2.06,18.34,18.34,0,0,1,1.89.15c.18,0,.28.07.28.18a1,1,0,0,1-.1.36A3.76,3.76,0,0,0,22,10.42h1.26c1.62,0,2.16,0,2.27,0s.2,0,.2.2v1.28c0,.18,0,.19-.2.19s-.65,0-2.27,0H22v1.8h2c1.71,0,2.31,0,2.4,0s.19,0,.19.18v1.28c0,.18,0,.2-.19.2s-.69,0-2.4,0H18.89c-1.73,0-2.32,0-2.43,0s-.2,0-.2-.2V14c0-.09,0-.12,0-.16l-1.42,0V16.7c.52-.25,1.08-.5,1.65-.81,0,.34,0,.79.06,1.19h.09c.11,0,.68,0,2.39,0h3.55a7,7,0,0,0-.13-1.44,16.44,16.44,0,0,1,1.84.2c.18,0,.29.13.29.22a.52.52,0,0,1-.11.3,1.44,1.44,0,0,0-.11.72c1.34,0,1.84,0,1.93,0s.2,0,.2.2v1.31c0,.18,0,.2-.2.2l-1.93,0Zm-5.85-1.26c.2-.11.25-.11.38,0a14.36,14.36,0,0,1,1.75,2.08c.1.17.09.2-.11.35l-1.08.77c-.11.07-.16.11-.22.11s-.09-.05-.12-.14a11.37,11.37,0,0,0-1.66-2.26c-.13-.16-.11-.19.09-.32Z"/><path class="cls-4" d="M32.23,18.16c-1.6,0-2.16,0-2.27,0s-.18,0-.18-.19V16.66c0-.18,0-.19.18-.19s.67,0,2.27,0h.54V11.28c0-1.31,0-1.93,0-2s0-.19.2-.19.74,0,2.49,0h6c1.75,0,2.34,0,2.45,0s.21,0,.21.19v1.32c0,.16,0,.18-.21.18s-.7,0-2.45,0H34.68v1h6c1.68,0,2.24,0,2.34,0s.2,0,.2.21v1c0,.18,0,.19-.2.19s-.66,0-2.34,0h-6v1h6c1.68,0,2.22,0,2.33,0s.21,0,.21.22v1c0,.18,0,.2-.21.2s-.65,0-2.33,0h-6v1h8.64c1.6,0,2.14,0,2.25,0s.22,0,.22.19V18c0,.18,0,.19-.22.19s-.65,0-2.25,0H38.24a7.82,7.82,0,0,0,1.89,2.27A14.11,14.11,0,0,0,42,19a2.89,2.89,0,0,0,.58-.74,17.12,17.12,0,0,1,1.44,1c.12.09.18.16.18.27s-.09.16-.22.18a1.76,1.76,0,0,0-.63.37,18.49,18.49,0,0,1-1.84,1.32,15.14,15.14,0,0,0,4.72,1.55,4.38,4.38,0,0,0-.77,1.24c-.27.56-.27.56-.81.43-4-1-6.72-3.11-8.18-6.37H34.68V22c1.08-.25,2.18-.52,3.36-.86A8,8,0,0,0,38,22.28c0,.58,0,.58-.56.74-2,.59-4,1.1-5.74,1.48a1.48,1.48,0,0,0-.63.23.4.4,0,0,1-.27.11c-.07,0-.14-.07-.22-.24-.18-.5-.37-1.24-.5-1.74.76-.08,1.3-.15,1.93-.27l.79-.17V18.16Z"/></g></g></svg>