<svg xmlns="http://www.w3.org/2000/svg" width="124" height="124" viewBox="0 0 124 124">
  <defs>
    <style>
      .cls-1 {
        fill: #6d2300;
      }

      .cls-2 {
        fill: #fff;
        fill-rule: evenodd;
      }
    </style>
  </defs>
  <rect class="cls-1" x="2" y="2" width="120" height="120"/>
  <path class="cls-2" d="M1156.93,589.675v-8.892h3.08a5.626,5.626,0,0,1,1.96.306,3.578,3.578,0,0,1,1.37.873,3.637,3.637,0,0,1,.81,1.368,5.525,5.525,0,0,1,.27,1.773,4.977,4.977,0,0,1-1.06,3.348,4.218,4.218,0,0,1-3.35,1.224h-3.08Zm-4.86-13V602.8h4.86v-8.982h3.08a11.944,11.944,0,0,0,4.1-.639,7.893,7.893,0,0,0,2.9-1.791,7.392,7.392,0,0,0,1.72-2.754,10.716,10.716,0,0,0,.56-3.528,10.154,10.154,0,0,0-.54-3.366,6.89,6.89,0,0,0-1.68-2.673,7.7,7.7,0,0,0-2.89-1.755,12.362,12.362,0,0,0-4.17-.63h-7.94Zm41.97,7.767a12.87,12.87,0,0,0-2.44-4.23,11.322,11.322,0,0,0-3.8-2.808,12.434,12.434,0,0,0-9.85,0,11.417,11.417,0,0,0-3.81,2.8,12.451,12.451,0,0,0-2.45,4.221,16.612,16.612,0,0,0,0,10.611,12.435,12.435,0,0,0,2.45,4.23,11.417,11.417,0,0,0,3.81,2.8,12.434,12.434,0,0,0,9.85,0,11.378,11.378,0,0,0,3.8-2.8,12.749,12.749,0,0,0,2.44-4.23A16.557,16.557,0,0,0,1194.04,584.446Zm-4.59,8.982a7.906,7.906,0,0,1-1.4,2.763,6.115,6.115,0,0,1-2.22,1.737,7.567,7.567,0,0,1-5.92,0,6.066,6.066,0,0,1-2.23-1.737,7.906,7.906,0,0,1-1.4-2.763,14.139,14.139,0,0,1,0-7.38,8,8,0,0,1,1.4-2.772,6.027,6.027,0,0,1,2.23-1.746,7.567,7.567,0,0,1,5.92,0,6.076,6.076,0,0,1,2.22,1.746,8,8,0,0,1,1.4,2.772A14.139,14.139,0,0,1,1189.45,593.428Zm13.64-16.749h-4.89V602.8h4.89V576.679Zm20.7,0v14.94q0,0.576.03,1.215c0.02,0.426.06,0.867,0.1,1.323l-11.79-16.632a3.408,3.408,0,0,0-.36-0.432,1.56,1.56,0,0,0-.34-0.261,1.079,1.079,0,0,0-.4-0.126,4.259,4.259,0,0,0-.52-0.027h-2.56V602.8h4.29V587.7c0-.348-0.01-0.726-0.02-1.134s-0.05-.822-0.08-1.242l11.72,16.56a2.294,2.294,0,0,0,.76.711,1.986,1.986,0,0,0,.95.207h2.51V576.679h-4.29Zm25.54,0h-18.61v4.356h6.87V602.8h4.88V581.035h6.86v-4.356Z" transform="translate(-1138 -551)"/>
</svg>
