<svg xmlns="http://www.w3.org/2000/svg" width="124" height="124" viewBox="0 0 124 124">
  <defs>
    <style>
      .cls-1 {
        fill: #6d2300;
      }

      .cls-2 {
        fill: #fff;
        fill-rule: evenodd;
      }
    </style>
  </defs>
  <rect class="cls-1" x="2" y="2" width="120" height="120"/>
  <path class="cls-2" d="M1974.38,579.217a9.663,9.663,0,0,0-3.32-2.016,12.1,12.1,0,0,0-4.24-.72,9.7,9.7,0,0,0-3.62.63,8.208,8.208,0,0,0-2.68,1.674,7.2,7.2,0,0,0-1.65,2.394,7.062,7.062,0,0,0-.57,2.772,7.758,7.758,0,0,0,.51,3,6.16,6.16,0,0,0,1.36,2.025,7.229,7.229,0,0,0,1.93,1.314,18.581,18.581,0,0,0,2.2.864q1.11,0.36,2.19.666a10.35,10.35,0,0,1,1.93.747,4.274,4.274,0,0,1,1.36,1.089,2.626,2.626,0,0,1,.51,1.674,3.539,3.539,0,0,1-1.13,2.817,4.772,4.772,0,0,1-3.21.981,6.447,6.447,0,0,1-2.31-.369,9.813,9.813,0,0,1-1.68-.819q-0.7-.45-1.23-0.819a1.717,1.717,0,0,0-.97-0.369,1.142,1.142,0,0,0-.62.171,1.716,1.716,0,0,0-.48.423l-1.4,2.322a9.739,9.739,0,0,0,1.72,1.4,11.931,11.931,0,0,0,2.07,1.08,12.758,12.758,0,0,0,2.31.693,12.338,12.338,0,0,0,2.45.243,10.393,10.393,0,0,0,3.83-.657,8.35,8.35,0,0,0,2.84-1.8,7.638,7.638,0,0,0,1.76-2.682,9.013,9.013,0,0,0,.6-3.3,6.691,6.691,0,0,0-.51-2.754,5.76,5.76,0,0,0-1.36-1.917,7.537,7.537,0,0,0-1.92-1.3,21.316,21.316,0,0,0-2.21-.9c-0.75-.258-1.48-0.5-2.2-0.729a12.5,12.5,0,0,1-1.93-.774,4.311,4.311,0,0,1-1.36-1.044,2.309,2.309,0,0,1-.51-1.53,3.361,3.361,0,0,1,.25-1.323,2.726,2.726,0,0,1,.76-1.035,3.873,3.873,0,0,1,1.26-.675,5.74,5.74,0,0,1,1.76-.243,5.974,5.974,0,0,1,1.93.279,8.713,8.713,0,0,1,1.44.621c0.4,0.228.76,0.435,1.06,0.621a1.578,1.578,0,0,0,.81.279,1.165,1.165,0,0,0,.62-0.162,1.352,1.352,0,0,0,.46-0.558Zm3.78-2.448v3.978h7.86V602.8h4.84v-22.05h7.83v-3.978h-20.53Zm24.51,0V602.8h16.42v-3.87h-11.54v-7.362h9.09v-3.726h-9.09v-7.218h11.54v-3.852h-16.42Zm31.05,16.866a14.047,14.047,0,0,0,4.43-.63,8.8,8.8,0,0,0,3.15-1.764,7.19,7.19,0,0,0,1.89-2.709,9.819,9.819,0,0,0,.04-6.813,6.727,6.727,0,0,0-1.84-2.628,8.729,8.729,0,0,0-3.15-1.71,14.859,14.859,0,0,0-4.52-.612h-8.48V602.8h4.85v-9.162h3.63Zm-3.63-13.122h3.63a7.658,7.658,0,0,1,2.32.315,4.318,4.318,0,0,1,1.64.909,3.688,3.688,0,0,1,.97,1.44,5.163,5.163,0,0,1,.33,1.89,5.692,5.692,0,0,1-.33,1.989,3.862,3.862,0,0,1-.97,1.512,4.307,4.307,0,0,1-1.64.954,7.273,7.273,0,0,1-2.32.333h-3.63v-9.342Z" transform="translate(-1938 -551)"/>
</svg>
