<svg xmlns="http://www.w3.org/2000/svg" width="124" height="124" viewBox="0 0 124 124">
  <defs>
    <style>
      .cls-1 {
        fill: #6d2300;
      }

      .cls-2 {
        fill: #fff;
        fill-rule: evenodd;
      }
    </style>
  </defs>
  <rect class="cls-1" x="2" y="2" width="120" height="120"/>
  <path class="cls-2" d="M1515.6,582.855h-8.71v-3.2h6.69v-3.924h-6.69v-2.591a0.981,0.981,0,0,0,.97-0.72l-5.26-.288v3.6h-6.44v3.924h6.44v3.2h-7.2v-3.743h-3.74V573.1a0.887,0.887,0,0,0,.94-0.648l-5.08-.288v6.947h-1.4c0.18-1.224.36-2.484,0.46-3.672a0.785,0.785,0,0,0,.87-0.432L1483.17,574c-0.33,4.464-.9,9.323-1.91,12.131a20.477,20.477,0,0,1,2.59,2.268,31.7,31.7,0,0,0,1.55-5.184h2.12v7.451c-2.3.432-4.39,0.792-6.01,1.044l1.4,4.824a0.758,0.758,0,0,0,.65-0.612c1.12-.252,2.48-0.576,3.96-0.936v11.122h4.14v-12.13l3.2-.828v0.936h11.59v7.379c0,0.468-.18.576-0.72,0.612-0.54,0-2.41,0-4.06-.072a16.1,16.1,0,0,1,1.26,4.1c6.26,0,7.81-.539,7.81-4.571v-7.451h4.39v-3.96h-4.39V588a0.856,0.856,0,0,0,.93-0.684l-5.22-.216v3.023h-10.94l-0.07-.935-3.78.719v-6.695h2.48v3.636h21.46v-4Zm-12.28,17.386a27.033,27.033,0,0,0-3.63-5.471l-3.35,1.728a26.485,26.485,0,0,1,3.45,5.687Zm53.57-21.021h-6.62c0.43-1.836.82-3.708,1.11-5.579a0.791,0.791,0,0,0,.9-0.5l-4.68-.972a49.488,49.488,0,0,1-2.66,11.878v-7.991c0.57-.072.75-0.252,0.79-0.54l-3.82-.252v6.3h-1.58v-8.531a0.754,0.754,0,0,0,.83-0.612l-4.36-.252v9.395h-1.54v-5.544a0.777,0.777,0,0,0,.79-0.576l-3.71-.216v6.156l-3.35-1.152a33.131,33.131,0,0,1-6.33,10.978,41.385,41.385,0,0,1,2.12,3.888,27.925,27.925,0,0,0,2.02-2.376v13.39h3.96V587.283a0.963,0.963,0,0,0,.93-0.612l-0.97-.324q0.87-1.674,1.62-3.348v1.872h12.24a12.758,12.758,0,0,1-1.12,2.088h-10.94v3.347h4.28v2.412h-3.78v3.24h3.78v2.807l-5.11.324,0.87,4.14a0.718,0.718,0,0,0,.64-0.576c2.74-.252,7.06-0.648,11.27-1.152a14.552,14.552,0,0,1-2.84,1.872,21.6,21.6,0,0,1,2.48,2.735,17.738,17.738,0,0,0,6.19-5.687,16.9,16.9,0,0,0,4.39,5.471,13.876,13.876,0,0,1,2.63-3.239,14.884,14.884,0,0,1-4.97-6.047,45.261,45.261,0,0,0,2.99-13.751h1.55V579.22Zm-5.29,3.635a50.971,50.971,0,0,1-1.23,8.171,54.013,54.013,0,0,1-1.36-7.343c0.1-.252.18-0.54,0.28-0.828h2.31Zm-11.16,13.1h3.67v-3.24h-3.67v-2.412h4.1v-1.583a18.689,18.689,0,0,1,1.08,1.835,15.825,15.825,0,0,0,1.19-1.8,51.945,51.945,0,0,0,1.73,7.415,15.708,15.708,0,0,1-3.57,4.895l-0.03-2.916c-1.51.108-3.03,0.252-4.5,0.36v-2.555Zm-11.7-23.793a31.958,31.958,0,0,1-5.97,6.947,35.012,35.012,0,0,1,2.23,3.239,56.951,56.951,0,0,0,7.23-8.027,0.824,0.824,0,0,0,.94-0.36Z" transform="translate(-1458 -551)"/>
</svg>
