<?xml version="1.0" standalone="no"?>
<!DOCTYPE svg PUBLIC "-//W3C//DTD SVG 20010904//EN"
 "http://www.w3.org/TR/2001/REC-SVG-20010904/DTD/svg10.dtd">
<svg version="1.0" xmlns="http://www.w3.org/2000/svg"
 width="64.000000pt" height="64.000000pt" viewBox="0 0 64.000000 64.000000"
 preserveAspectRatio="xMidYMid meet">
<metadata>
Created by potrace 1.10, written by Peter Selinger 2001-2011
</metadata>
<g transform="translate(0.000000,64.000000) scale(0.100000,-0.100000)"
fill="#eae0bf" stroke="none">
<path d="M112 628 c-7 -7 -12 -19 -12 -28 0 -11 -13 -20 -37 -26 -64 -16 -85
-96 -32 -125 39 -21 79 42 45 70 -9 8 -16 8 -20 2 -4 -5 2 -14 11 -20 17 -9
17 -11 0 -28 -13 -14 -21 -15 -35 -7 -43 28 -13 94 43 94 39 0 61 -24 71 -78
5 -27 -2 -52 -36 -124 -42 -87 -43 -92 -32 -134 26 -96 6 -163 -35 -121 -12
11 -13 19 -4 33 6 11 11 13 11 7 0 -15 30 -18 30 -3 0 19 -31 23 -48 7 -21
-21 -2 -67 28 -67 13 0 20 -7 20 -20 0 -30 46 -49 67 -28 16 17 12 48 -7 48
-15 0 -12 -30 3 -30 6 0 4 -5 -7 -11 -23 -14 -52 11 -42 36 5 15 15 16 59 11
28 -3 67 -8 84 -12 26 -5 51 3 122 36 72 34 96 41 122 36 55 -11 79 -32 79
-71 0 -56 -66 -86 -94 -43 -8 14 -7 22 7 35 17 17 19 17 28 0 6 -9 15 -15 20
-11 14 8 -9 34 -31 34 -9 0 -25 -9 -34 -19 -38 -41 30 -90 83 -60 17 9 29 28
35 52 6 25 15 37 27 37 9 0 22 7 29 15 20 24 -3 65 -35 65 -14 0 -25 -5 -25
-11 0 -6 8 -8 19 -4 26 8 48 -20 31 -40 -17 -21 -37 -19 -72 6 -52 38 -104 36
-186 -5 -97 -49 -172 -49 -172 0 0 18 6 24 20 24 13 0 20 -6 18 -14 -2 -8 1
-16 7 -18 19 -6 16 31 -3 41 -24 13 -64 -12 -60 -37 2 -13 -6 -18 -35 -20
l-38 -3 3 38 c2 29 7 37 20 35 25 -4 50 36 37 60 -10 19 -41 22 -39 3 1 -5 8
-9 16 -7 8 2 14 -5 14 -18 0 -14 -6 -20 -24 -20 -49 0 -49 75 0 172 41 82 43
134 5 186 -25 35 -27 55 -6 72 20 17 48 -5 40 -31 -4 -11 -2 -19 4 -19 16 0
13 36 -5 54 -19 19 -36 20 -52 4z"/>
</g>
</svg>
