<svg xmlns="http://www.w3.org/2000/svg" xmlns:xlink="http://www.w3.org/1999/xlink" viewBox="0 0 60 60">
    <defs>
        <style>
            .cls-1{fill:none;}
            .cls-2{isolation:isolate;}
            .cls-3{fill:#c71919}
            .cls-4{opacity:0.15;}
            .cls-5{clip-path:url(#clip-path);}
            .cls-6{fill:#fff;}
            .cls-7{clip-path:url(#clip-path-2);}
        </style>
        <clipPath id="clip-path" transform="translate(-9.5 -10.1)"><polygon class="cls-1" points="9.4 10 9.4 74.8 74.2 10 9.4 10"/></clipPath>
        <clipPath id="clip-path-2" transform="translate(-9.5 -10.1)"><polygon class="cls-1" points="0 0 0 64.8 64.8 0 0 0"/></clipPath>
    </defs>
    <title>anshin</title>
    <g>
        <g class="cls-2">
            <g><circle class="cls-3" cx="30" cy="30" r="30"/></g>
        </g>
        <g>
            <g class="cls-4">
                <g class="cls-5">
                    <g><circle class="cls-6" cx="30" cy="30" r="30"/></g>
                </g>
            </g>
        </g>
        <g class="cls-2">
            <g class="cls-4">
                <g class="cls-7">
                    <g><circle class="cls-6" cx="30" cy="30" r="30"/></g>
                </g>
            </g>
        </g>
        <g>
            <path class="cls-6" d="M36.39,38a.25.25,0,0,1-.4.09,39.32,39.32,0,0,0-4.93-2.74,15.43,15.43,0,0,1-7.4,2.68c-.56.06-.58.06-.77-.45a4.47,4.47,0,0,0-.69-1.22,16.29,16.29,0,0,0,6.86-1.82,27.43,27.43,0,0,0-2.65-.86l-.45.59c-.12.14-.21.18-.46.07l-1.1-.45c-.31-.12-.29-.2-.16-.36.3-.34.61-.74.88-1.11.41-.63.86-1.37,1.29-2.16H24.6c-1.61,0-2.15,0-2.25,0s-.2,0-.2-.2V28.75c0-.19,0-.2.2-.2s.64,0,2.25,0h2.68c.14-.29.29-.59.41-.9a8.31,8.31,0,0,0,.63-1.8c.65.13,1.35.29,1.93.47.14,0,.23.13.23.23a.45.45,0,0,1-.21.33c-.15.09-.27.27-.47.68l-.47,1H35.7c1.61,0,2.13,0,2.26,0s.19,0,.19.2v1.36c0,.18,0,.2-.19.2s-.65,0-2.26,0H34.54a12.42,12.42,0,0,1-2.09,3.78,51.16,51.16,0,0,1,4.79,2.32c.09,0,.12.09.12.16a.41.41,0,0,1-.11.25ZM34.91,23.76c1.7,0,2.31,0,2.42,0s.19,0,.19.18,0,.43,0,.92v.74c0,1.58,0,1.85,0,2s0,.2-.19.2h-1.5c-.18,0-.2,0-.2-.2V25.41H24.52v2.11c0,.18,0,.2-.19.2h-1.5c-.18,0-.2,0-.2-.2s0-.38,0-2V25c0-.63,0-.95,0-1.06s0-.18.2-.18.72,0,2.41,0H29v-.22a7,7,0,0,0-.15-1.71c.67,0,1.34.05,1.95.11.2,0,.29.07.29.16a1.06,1.06,0,0,1-.11.36,3.17,3.17,0,0,0-.09,1.08v.22Zm-6.44,6.52c-.36.68-.76,1.35-1.17,2,1.13.31,2.25.65,3.33,1.05a8.63,8.63,0,0,0,1.89-3.06Z" transform="translate(-9.5 -10.1)"/>
            <path class="cls-6" d="M44.7,28.73c.25.07.29.1.27.28a22.24,22.24,0,0,1-1.66,6.13c-.07.16-.12.21-.37.11l-1.32-.6c-.25-.13-.27-.2-.2-.34a18.8,18.8,0,0,0,1.68-5.78c0-.22,0-.22.32-.13ZM48.16,35c0,.41.11.66.34.77a4,4,0,0,0,1.57.18c.93,0,1.42-.09,1.71-.38s.52-.83.52-2.91a6,6,0,0,0,1.49.57c.47.13.47.13.45.6-.07,2-.34,2.79-1,3.29s-1.62.76-3.35.76-2.55-.15-3-.43-.73-.74-.73-1.79V28.71a12.75,12.75,0,0,0-.11-2.05,14.56,14.56,0,0,1,1.91.18c.28,0,.39.14.39.27a.54.54,0,0,1-.11.32c-.09.16-.12.4-.12,1.28Zm-.88-12.77c.14-.2.18-.22.36-.16a23.17,23.17,0,0,1,4.89,2.34c.18.11.18.14.06.36L51.83,26c-.14.25-.18.27-.34.16a21.83,21.83,0,0,0-4.92-2.56c-.1,0-.14-.05-.14-.11s0-.1.09-.21ZM55,28c.23-.09.27-.11.36.07a25.15,25.15,0,0,1,2.43,5.51c.05.2,0,.24-.2.36l-1.37.67c-.25.13-.31.13-.36-.07a21.64,21.64,0,0,0-2.32-5.67c-.09-.16-.06-.24.18-.33Z" transform="translate(-9.5 -10.1)"/>
        </g>
    </g>
</svg>