<svg xmlns="http://www.w3.org/2000/svg" xmlns:xlink="http://www.w3.org/1999/xlink" viewBox="0 0 60 60"><defs><style>.cls-1{fill:none;}.cls-2{isolation:isolate;}.cls-3{fill:#c71919}.cls-4{opacity:0.15;}.cls-5{clip-path:url(#clip-path);}.cls-6{fill:#fff;}.cls-7{clip-path:url(#clip-path-2);}</style><clipPath id="clip-path" transform="translate(-9.5 -10.1)"><polygon class="cls-1" points="9.4 10 9.4 74.8 74.2 10 9.4 10"/></clipPath><clipPath id="clip-path-2" transform="translate(-9.5 -10.1)"><polygon class="cls-1" points="0 0 0 64.8 64.8 0 0 0"/></clipPath></defs><title>kodawari</title><g><g class="cls-2"><g><circle class="cls-3" cx="30" cy="30" r="30"/></g></g><g><g class="cls-4"><g class="cls-5"><g><circle class="cls-6" cx="30" cy="30" r="30"/></g></g></g></g><g class="cls-2"><g class="cls-4"><g class="cls-7"><g><circle class="cls-6" cx="30" cy="30" r="30"/></g></g></g></g><g><path class="cls-6" d="M19.55,31.29a.23.23,0,0,1,.06.32A4.07,4.07,0,0,0,19.3,33c0,1.13.78,1.69,2.82,1.69a10.35,10.35,0,0,0,3.22-.52c.17,0,.23,0,.25.16.06.34.17,1.32.19,1.77a.23.23,0,0,1-.2.27,12.24,12.24,0,0,1-3.54.43c-2.67,0-4-1.3-4-3.64a6.45,6.45,0,0,1,.63-2.57C19,30.8,19.24,31,19.55,31.29Zm2.69-7.06c.87,0,1.76-.09,2.52-.16.12,0,.17.05.18.19,0,.42.06.92.06,1.54,0,.25-.06.36-.21.37A6,6,0,0,0,21.88,28a.43.43,0,0,1-.3.16.37.37,0,0,1-.24-.11,2.73,2.73,0,0,0-.84-.58c.62-.61,1.14-1.11,1.56-1.49a5.81,5.81,0,0,1-1,0,9.81,9.81,0,0,1-2.08-.3c-.11,0-.16-.11-.16-.33,0-.43,0-.95,0-1.6A10.19,10.19,0,0,0,22.24,24.23Z" transform="translate(-9.5 -10.1)"/><path class="cls-6" d="M34.15,25c.14-.05.18,0,.2.18,0,.4.07.92.08,1.3s0,.28-.18.34a14.29,14.29,0,0,1-2.07.68c-.81,4-1.41,6.75-2.17,9.74-.06.25-.13.24-.26.18a10.7,10.7,0,0,1-1-.66.37.37,0,0,1-.09-.36c.9-3.15,1.47-5.53,2.06-8.54a15.12,15.12,0,0,1-2.08.2c-.18,0-.23-.05-.25-.29s-.11-1-.17-1.64a3.28,3.28,0,0,0,.88.06A11.16,11.16,0,0,0,31.06,26c.12-.72.22-1.52.3-2.25.05-.54.07-1.08.07-1.66a5,5,0,0,1,1.5.5.32.32,0,0,1,.13.29.62.62,0,0,1-.06.29,4.67,4.67,0,0,0-.25.72c-.12.65-.2,1.26-.28,1.71A13.07,13.07,0,0,0,34.15,25Zm-.46,8.61c.12,0,.17.07.18.25.1,1.31.68,1.69,1.82,1.69a12.1,12.1,0,0,0,2-.25c.09,0,.13,0,.14.16.05.47.09,1.08.09,1.57,0,.21,0,.27-.19.28a8.66,8.66,0,0,1-1.65.2c-1.52,0-2.33-.32-2.86-1.17a4.7,4.7,0,0,1-.54-2.46A4,4,0,0,1,33.69,33.56Zm-.13-4.78c0-.25,0-.3.21-.36A8.6,8.6,0,0,1,36.09,28a5.63,5.63,0,0,1,1.39.18c.17,0,.21,0,.21.27,0,.45,0,.95,0,1.44,0,.31-.06.38-.23.32A5.54,5.54,0,0,0,36,30a9,9,0,0,0-2.39.41C33.58,29.79,33.56,29.14,33.56,28.78Zm2.75-5.13c.06-.07.1,0,.17,0a7.86,7.86,0,0,1,1.13,1.93.23.23,0,0,1,0,.28l-.5.56c-.08.09-.14.07-.2-.05a9.18,9.18,0,0,0-1.2-2.09Zm1-1.17c.08-.07.11-.05.18,0a7.12,7.12,0,0,1,1.13,1.85.29.29,0,0,1,0,.33l-.48.56c-.09.1-.15,0-.2-.06a8.41,8.41,0,0,0-1.19-2.07Z" transform="translate(-9.5 -10.1)"/><path class="cls-6" d="M44.48,28.71c1.07-1.33,2.16-2.1,3.41-2.1,1.79,0,3,1.85,3,4.57A6.1,6.1,0,0,1,47.69,37a.37.37,0,0,1-.21.07c-.11,0-.22-.09-.31-.25a4.33,4.33,0,0,0-.93-1.19,5.09,5.09,0,0,0,2.38-1.78,4.41,4.41,0,0,0,.81-2.72c0-1.7-.63-2.79-1.77-2.79s-2,.79-3.18,2.3c0,2.3,0,4.48.07,6.91,0,.15-.06.22-.16.22a9.58,9.58,0,0,1-1,.07c-.11,0-.15-.07-.13-.25,0-1.84,0-3.73,0-5.56-.57,1.29-1.16,2.61-1.6,3.56-.06.11-.11.18-.17.18s-.08,0-.13-.11a10.67,10.67,0,0,1-.72-1.08.26.26,0,0,1-.07-.19.36.36,0,0,1,.07-.22c1-1.93,1.72-3.21,2.61-5.06,0-.45,0-.94,0-1.28-.34.16-.9.42-1.35.67-.2.12-.32.3-.39.3s-.17-.1-.24-.32c-.14-.41-.32-1-.48-1.58a4.8,4.8,0,0,0,.81-.18c.31-.11.77-.27,1.69-.65,0-.78,0-1.57,0-2.34a10.29,10.29,0,0,0-.11-1.57,6,6,0,0,1,1.37.31c.25.1.3.3.22.63a3.9,3.9,0,0,0-.12.77c0,.43,0,.85-.06,1.62l.09,0a.18.18,0,0,1,.09,0c.08,0,.21.18.32.42a1.34,1.34,0,0,1,.19.55c0,.13,0,.2-.2.51s-.35.66-.63,1.29Z" transform="translate(-9.5 -10.1)"/><path class="cls-6" d="M55.79,23a.39.39,0,0,1,.22.36.53.53,0,0,1-.08.29,3,3,0,0,0-.22.84c-.16,1.23-.26,2.51-.33,3.44,0,.65-.06,1.33,0,2,.26-.7.51-1.38.83-2.3a4.62,4.62,0,0,0,.37,1.17.56.56,0,0,1,.07.29,1.21,1.21,0,0,1-.12.45,18,18,0,0,0-.7,2.3,2.78,2.78,0,0,0-.06.54c0,.18-.05.25-.16.29s-.65.16-.95.22c-.08,0-.14-.11-.16-.24A17,17,0,0,1,54.11,29c0-1.21.13-2.69.29-4.49,0-.63.09-1.24.09-2.05A4.55,4.55,0,0,1,55.79,23Zm3.86-.31c.24.09.26.18.24.49a7.58,7.58,0,0,0,0,.83c.09,1.71.17,3.35.17,4.64a17,17,0,0,1-.9,6.25,9.19,9.19,0,0,1-2,2.9.34.34,0,0,1-.24.12c-.09,0-.16,0-.25-.19a2.6,2.6,0,0,0-1-.83,7.27,7.27,0,0,0,2-2.41,12.15,12.15,0,0,0,1-5.75c0-1.28-.06-3.15-.15-4.3a12.79,12.79,0,0,0-.25-2A4.63,4.63,0,0,1,59.65,22.66Z" transform="translate(-9.5 -10.1)"/></g></g></svg>