<svg xmlns="http://www.w3.org/2000/svg" xmlns:xlink="http://www.w3.org/1999/xlink" viewBox="0 0 60 60"><defs><style>.cls-1{fill:none;}.cls-2{isolation:isolate;}.cls-3{fill:#c71919}.cls-4{opacity:0.15;}.cls-5{clip-path:url(#clip-path);}.cls-6{fill:#fff;}.cls-7{clip-path:url(#clip-path-2);}</style><clipPath id="clip-path" transform="translate(-9.5 -10.1)"><polygon class="cls-1" points="9.4 10 9.4 74.8 74.2 10 9.4 10"/></clipPath><clipPath id="clip-path-2" transform="translate(-9.5 -10.1)"><polygon class="cls-1" points="0 0 0 64.8 64.8 0 0 0"/></clipPath></defs><title>point</title><g><g class="cls-2"><g><circle class="cls-3" cx="30" cy="30" r="30"/></g></g><g><g class="cls-4"><g class="cls-5"><g><circle class="cls-6" cx="30" cy="30" r="30"/></g></g></g></g><g class="cls-2"><g class="cls-4"><g class="cls-7"><g><circle class="cls-6" cx="30" cy="30" r="30"/></g></g></g></g><g><path class="cls-6" d="M18.14,29.63a3.64,3.64,0,0,1,3.08-1.86c2.4,0,4.18,1.9,4.18,5.66s-1.94,5.82-4.3,5.82a3.11,3.11,0,0,1-2.88-1.8v5.4h-2.5V28h2.42Zm.08,5.84a2.58,2.58,0,0,0,2.22,1.84c1.32,0,2.38-1.16,2.38-3.82s-1-3.76-2.24-3.76a2.65,2.65,0,0,0-2.36,1.86Z" transform="translate(-9.5 -10.1)"/><path class="cls-6" d="M37.26,33.49c0,3.56-2,5.78-5,5.78s-5-2.16-5-5.72,2-5.78,5-5.78S37.26,29.93,37.26,33.49Zm-7.36,0c0,2.54.76,3.94,2.38,3.94s2.4-1.38,2.4-3.94-.76-3.92-2.38-3.92S29.9,31,29.9,33.51Z" transform="translate(-9.5 -10.1)"/><path class="cls-6" d="M42.44,26.05H39.72V23.47h2.72ZM42.34,39H39.82V28h2.52Z" transform="translate(-9.5 -10.1)"/><path class="cls-6" d="M48,29.93a4.48,4.48,0,0,1,3.6-2.16,3,3,0,0,1,3.14,3.3V39H52.16V31.77c0-1.26-.54-1.84-1.52-1.84a3.36,3.36,0,0,0-2.56,1.86V39H45.56V28H48Z" transform="translate(-9.5 -10.1)"/><path class="cls-6" d="M60.92,28h2.46v1.84H60.92v6c0,1.1.44,1.58,1.36,1.58a5.76,5.76,0,0,0,1.28-.12l-.1,1.8a13.21,13.21,0,0,1-2,.12c-2.08,0-3.06-.9-3.06-2.92V29.85H56.8V28h1.64V25l2.48-.56Z" transform="translate(-9.5 -10.1)"/></g></g></svg>