<svg xmlns="http://www.w3.org/2000/svg" xmlns:xlink="http://www.w3.org/1999/xlink" viewBox="0 0 60 60"><defs><style>.cls-1{fill:none;}.cls-2{isolation:isolate;}.cls-3{opacity:0.2;}.cls-4{clip-path:url(#clip-path);}.cls-5{fill:#fff;}.cls-6{opacity:0.1;}.cls-7{clip-path:url(#clip-path-2);}</style><clipPath id="clip-path" transform="translate(-9.5 -10.1)"><polygon class="cls-1" points="9.4 10 9.4 74.8 74.2 10 9.4 10"/></clipPath><clipPath id="clip-path-2" transform="translate(-9.5 -10.1)"><polygon class="cls-1" points="0 0 0 64.8 64.8 0 0 0"/></clipPath></defs><title>merit</title><g><g class="cls-2"><g><circle cx="30" cy="30" r="30"/></g></g><g class="cls-2"><g class="cls-3"><g class="cls-4"><g><circle class="cls-5" cx="30" cy="30" r="30"/></g></g></g></g><g class="cls-2"><g class="cls-6"><g class="cls-7"><g><circle class="cls-5" cx="30" cy="30" r="30"/></g></g></g></g><g><path class="cls-5" d="M23.53,25.15a10.55,10.55,0,0,0,.52-2.22,6.48,6.48,0,0,1,1.72,1.14.39.39,0,0,1,.14.3.64.64,0,0,1-.15.4A3.93,3.93,0,0,0,25.14,26c-.52,1.31-1,2.53-1.56,3.56a17.59,17.59,0,0,1,2,2.45.41.41,0,0,1,.08.25.64.64,0,0,1-.06.24c-.28.46-.55.86-.84,1.27-.05.09-.11.13-.16.13s-.13-.05-.19-.16a17.89,17.89,0,0,0-1.8-2.38A20.81,20.81,0,0,1,17.94,37a.53.53,0,0,1-.31.14.32.32,0,0,1-.26-.12,3.85,3.85,0,0,0-1.24-1,19.11,19.11,0,0,0,5.16-5.91,14.74,14.74,0,0,0-2.66-2.14c.39-.67.72-1.23.9-1.48a.18.18,0,0,1,.14-.09.37.37,0,0,1,.16.07,21.72,21.72,0,0,1,2.38,1.89A23.26,23.26,0,0,0,23.53,25.15Z" transform="translate(-9.5 -10.1)"/><path class="cls-5" d="M30.46,25.54a16.18,16.18,0,0,0-.15-2.63,8.09,8.09,0,0,1,1.7.38.3.3,0,0,1,.23.29.88.88,0,0,1-.06.27A5.45,5.45,0,0,0,32,25.56V29.2c0,.93,0,1.64,0,2.27,0,.27-.08.36-.3.36H30.68c-.19,0-.28-.09-.26-.31,0-.63,0-1.67,0-2.45Zm6.45,3.37c0,2.67-.31,4.45-1.11,5.87a7.5,7.5,0,0,1-3,2.83.79.79,0,0,1-.29.09c-.11,0-.21-.06-.33-.22A4.88,4.88,0,0,0,31,36.38a6.69,6.69,0,0,0,3.34-2.63,9.21,9.21,0,0,0,.91-4.8V25.54a16.55,16.55,0,0,0-.15-2.93,6.91,6.91,0,0,1,1.78.39.3.3,0,0,1,.19.31.74.74,0,0,1,0,.29,7.22,7.22,0,0,0-.12,2Z" transform="translate(-9.5 -10.1)"/><path class="cls-5" d="M41.92,27.61c.15-.09.25-.07.36.13a10.66,10.66,0,0,1,1.18,2.66c0,.13,0,.2,0,.27s0,.17-.16.26a5.84,5.84,0,0,1-.88.56c-.19.09-.27,0-.34-.26a12.08,12.08,0,0,0-1.29-2.9C41.31,28,41.64,27.79,41.92,27.61Zm7.52.24a.47.47,0,0,1,.18.3.51.51,0,0,1-.16.33,2.77,2.77,0,0,0-.41.92A24.69,24.69,0,0,1,47,34.19a13.16,13.16,0,0,1-2.82,3.47.54.54,0,0,1-.33.2.29.29,0,0,1-.22-.13A2.81,2.81,0,0,0,42.46,37a13.72,13.72,0,0,0,3.28-3.75,20.62,20.62,0,0,0,1.85-4.34A7.86,7.86,0,0,0,47.9,27,6,6,0,0,1,49.44,27.85Zm-4.75-1.1c.15-.09.24-.07.35.14a11.93,11.93,0,0,1,1.06,2.63c.07.27,0,.36-.14.49a5.07,5.07,0,0,1-.94.56c-.15.07-.21,0-.28-.27a13.43,13.43,0,0,0-1.15-2.88C44.14,27.07,44.46,26.88,44.69,26.75Z" transform="translate(-9.5 -10.1)"/><path class="cls-5" d="M56.15,27.56A17.11,17.11,0,0,1,60.5,30a.37.37,0,0,1,.15.47A11.29,11.29,0,0,1,60.07,32c-.06.13-.11.2-.18.2a.19.19,0,0,1-.15-.09,14,14,0,0,0-3.6-2.3v4c0,1.17,0,2.23,0,3.52,0,.22,0,.28-.24.28a8.28,8.28,0,0,1-1.22,0c-.19,0-.26-.06-.26-.28,0-1.33.05-2.39.05-3.54V25a19.18,19.18,0,0,0-.13-2.67,8.5,8.5,0,0,1,1.71.29c.19.06.26.16.26.31a1.09,1.09,0,0,1-.11.41,5.9,5.9,0,0,0-.1,1.69Z" transform="translate(-9.5 -10.1)"/></g></g></svg>