<svg xmlns="http://www.w3.org/2000/svg" xmlns:xlink="http://www.w3.org/1999/xlink" viewBox="0 0 60 60"><defs><style>.cls-1{fill:none;}.cls-2{isolation:isolate;}.cls-3{opacity:0.2;}.cls-4{clip-path:url(#clip-path);}.cls-5{fill:#fff;}.cls-6{opacity:0.1;}.cls-7{clip-path:url(#clip-path-2);}</style><clipPath id="clip-path" transform="translate(-9.5 -10.1)"><polygon class="cls-1" points="9.4 10 9.4 74.8 74.2 10 9.4 10"/></clipPath><clipPath id="clip-path-2" transform="translate(-9.5 -10.1)"><polygon class="cls-1" points="0 0 0 64.8 64.8 0 0 0"/></clipPath></defs><title>riyu</title><g><g class="cls-2"><g><circle cx="30" cy="30" r="30"/></g></g><g class="cls-2"><g class="cls-3"><g class="cls-4"><g><circle class="cls-5" cx="30" cy="30" r="30"/></g></g></g></g><g class="cls-2"><g class="cls-6"><g class="cls-7"><g><circle class="cls-5" cx="30" cy="30" r="30"/></g></g></g></g><g><path class="cls-5" d="M26.1,32.58c.63-.28,1.24-.57,1.87-.91a11.37,11.37,0,0,0,0,1.17c0,.59,0,.59-.45.86a34.81,34.81,0,0,1-3.89,1.73,2.91,2.91,0,0,0-.56.27.41.41,0,0,1-.29.12c-.09,0-.16,0-.23-.23a15.46,15.46,0,0,1-.45-1.69,13.55,13.55,0,0,0,1.69-.43l.52-.18V29.38c-1.13,0-1.47,0-1.58,0s-.2,0-.2-.19v-1.3c0-.2,0-.22.2-.22s.45,0,1.58,0V24.57h-.1c-1.21,0-1.59,0-1.7,0s-.18,0-.18-.2V23.09c0-.19,0-.21.18-.21s.49,0,1.7,0h1.87c1.22,0,1.6,0,1.69,0s.2,0,.2.21v1.32c0,.18,0,.2-.2.2s-.47,0-1.67,0v3.17c1,0,1.33,0,1.44,0s.18,0,.18.22v1.3c0,.18,0,.19-.18.19s-.45,0-1.44,0Zm3.29,4.83c-1.78,0-2.39,0-2.5,0s-.2,0-.2-.19V36c0-.18,0-.2.2-.2s.72,0,2.5,0h2.74V34H31c-1.65,0-2.21,0-2.32,0s-.2,0-.2-.2V32.64c0-.18,0-.2.2-.2s.67,0,2.32,0h1.12V30.93H31c-1.64,0-2.23,0-2.34,0s-.22,0-.22-.18,0-.68,0-2v-4c0-1.28,0-1.84,0-2s0-.19.22-.19.7,0,2.34,0h4.28c1.66,0,2.24,0,2.36,0s.2,0,.2.19,0,.69,0,2v4c0,1.32,0,1.9,0,2s0,.18-.2.18-.7,0-2.36,0H33.93v1.55H35.3c1.64,0,2.21,0,2.32,0s.2,0,.2.2v1.24c0,.18,0,.2-.2.2s-.68,0-2.32,0H33.93v1.77H36c1.76,0,2.4,0,2.49,0s.19,0,.19.2v1.28c0,.18,0,.19-.19.19s-.73,0-2.49,0ZM32.13,26V24.19h-2V26Zm0,3.4V27.49h-2v1.92Zm1.8-5.22V26h2.12V24.19Zm2.12,3.3H33.93v1.92h2.12Z" transform="translate(-9.5 -10.1)"/><path class="cls-5" d="M42.93,38.13c-.18,0-.2,0-.2-.18s0-1,0-5.26V29.56c0-3.06,0-3.93,0-4s0-.2.2-.2.72,0,2.45,0h3.34v-.95a15.79,15.79,0,0,0-.14-2.59c.68,0,1.39.05,2,.12a.25.25,0,0,1,.27.22,1.93,1.93,0,0,1-.11.43,9.09,9.09,0,0,0-.09,1.8v1h3.58c1.73,0,2.33,0,2.45,0s.2,0,.2.2,0,1,0,3.62v3.51c0,4.28,0,5.11,0,5.22s0,.18-.2.18H55.13c-.18,0-.19,0-.19-.18v-.76H44.67V38c0,.16,0,.18-.19.18Zm1.74-7.85h4V27.11h-4Zm4,5.09V32h-4v3.38Zm2-8.26v3.17h4.27V27.11Zm4.27,8.26V32H50.67v3.38Z" transform="translate(-9.5 -10.1)"/></g></g></svg>