<svg xmlns="http://www.w3.org/2000/svg" xmlns:xlink="http://www.w3.org/1999/xlink" viewBox="0 0 60 60"><defs><style>.cls-1{fill:none;}.cls-2{isolation:isolate;}.cls-3{opacity:0.2;}.cls-4{clip-path:url(#clip-path);}.cls-5{fill:#fff;}.cls-6{opacity:0.1;}.cls-7{clip-path:url(#clip-path-2);}</style><clipPath id="clip-path" transform="translate(-9.5 -10.1)"><polygon class="cls-1" points="9.4 10 9.4 74.8 74.2 10 9.4 10"/></clipPath><clipPath id="clip-path-2" transform="translate(-9.5 -10.1)"><polygon class="cls-1" points="0 0 0 64.8 64.8 0 0 0"/></clipPath></defs><title>step</title><g><g class="cls-2"><g><circle cx="30" cy="30" r="30"/></g></g><g class="cls-2"><g class="cls-3"><g class="cls-4"><g><circle class="cls-5" cx="30" cy="30" r="30"/></g></g></g></g><g><g class="cls-6"><g class="cls-7"><g><circle class="cls-5" cx="30" cy="30" r="30"/></g></g></g></g><g><path class="cls-5" d="M23.83,31.25a2,2,0,0,0-2-1.76c-1.08,0-1.72.52-1.72,1.18,0,.86.36,1.22,2,1.64l.92.24c2.5.66,3.4,1.56,3.4,3.34,0,2-1.46,3.38-4.44,3.38-2.32,0-3.88-.82-4.58-2.74l2.34-.82a2.32,2.32,0,0,0,2.3,1.84c1.44,0,2-.62,2-1.42s-.38-1.14-2.12-1.64L21,34.23c-2.38-.64-3.22-1.5-3.22-3.34s1.44-3.12,4.12-3.12c2.3,0,3.7,1,4.3,2.8Z" transform="translate(-9.5 -10.1)"/><path class="cls-5" d="M33.15,28h2.46v1.84H33.15v6c0,1.1.44,1.58,1.36,1.58a5.76,5.76,0,0,0,1.28-.12l-.1,1.8a13.21,13.21,0,0,1-2,.12c-2.08,0-3.06-.9-3.06-2.92V29.85H29V28h1.64V25l2.48-.56Z" transform="translate(-9.5 -10.1)"/><path class="cls-5" d="M40.75,34.05c0,2.08.94,3.46,2.76,3.46,1.14,0,1.94-.64,2.32-2.08l2.28.66a4.35,4.35,0,0,1-4.62,3.18c-3.28,0-5.2-2.1-5.2-5.7s2-5.8,5-5.8c2.8,0,4.9,2,4.9,5.76v.52Zm5-1.66c-.12-1.84-.9-2.88-2.4-2.88s-2.4,1.12-2.52,2.88Z" transform="translate(-9.5 -10.1)"/><path class="cls-5" d="M54.33,29.63a3.64,3.64,0,0,1,3.08-1.86c2.4,0,4.18,1.9,4.18,5.66s-1.94,5.82-4.3,5.82a3.11,3.11,0,0,1-2.88-1.8v5.4h-2.5V28h2.42Zm.08,5.84a2.58,2.58,0,0,0,2.22,1.84C58,37.31,59,36.15,59,33.49s-1-3.76-2.24-3.76a2.65,2.65,0,0,0-2.36,1.86Z" transform="translate(-9.5 -10.1)"/></g></g></svg>