<svg xmlns="http://www.w3.org/2000/svg" viewBox="0 0 60 60"><defs><clipPath id="clip-path" transform="translate(-9.5 -10.1)"><path class="cls-1" d="M9.4 10v64.8L74.2 10H9.4z"/></clipPath><clipPath id="clip-path-2" transform="translate(-9.5 -10.1)"><path class="cls-1" d="M0 0v64.8L64.8 0H0z"/></clipPath><style>.cls-1{fill:none}.cls-6{fill:#fff}</style></defs><circle cx="30" cy="30" r="30" fill="#1fb4ff"/><g clip-path="url(#clip-path)" opacity=".15"><circle class="cls-6" cx="30" cy="30" r="30"/></g><g clip-path="url(#clip-path-2)" opacity=".15"><circle class="cls-6" cx="30" cy="30" r="30"/></g><path class="cls-6" d="M26.1 32.58c.63-.28 1.24-.57 1.87-.91a11.37 11.37 0 000 1.17c0 .59 0 .59-.45.86a34.81 34.81 0 01-3.89 1.73 2.91 2.91 0 00-.56.27.41.41 0 01-.29.12c-.09 0-.16 0-.23-.23a15.46 15.46 0 01-.45-1.69 13.55 13.55 0 001.69-.43l.52-.18v-3.91h-1.58c-.11 0-.2 0-.2-.19v-1.3c0-.2 0-.22.2-.22h1.58v-3.1h-1.8c-.11 0-.18 0-.18-.2v-1.28c0-.19 0-.21.18-.21h5.26c.09 0 .2 0 .2.21v1.32c0 .18 0 .2-.2.2H26.1v3.17h1.44c.11 0 .18 0 .18.22v1.3c0 .18 0 .19-.18.19H26.1zm3.29 4.83h-2.5c-.11 0-.2 0-.2-.19V36c0-.18 0-.2.2-.2h5.24V34h-3.45c-.11 0-.2 0-.2-.2v-1.16c0-.18 0-.2.2-.2h3.44v-1.51h-3.46c-.11 0-.22 0-.22-.18v-8c0-.16 0-.19.22-.19h8.98c.12 0 .2 0 .2.19v8c0 .1 0 .18-.2.18h-3.71v1.55h3.69c.11 0 .2 0 .2.2v1.24c0 .18 0 .2-.2.2h-3.69v1.77h4.56c.09 0 .19 0 .19.2v1.28c0 .18 0 .19-.19.19H36zM32.13 26v-1.81h-2V26zm0 3.4v-1.91h-2v1.92zm1.8-5.22V26h2.12v-1.81zm2.12 3.3h-2.12v1.92h2.12zm6.88 10.65c-.18 0-.2 0-.2-.18V25.56c0-.07 0-.2.2-.2h5.79v-.95a15.79 15.79 0 00-.14-2.59c.68 0 1.39.05 2 .12a.25.25 0 01.27.22 1.93 1.93 0 01-.11.43 9.09 9.09 0 00-.09 1.8v1h6.03c.12 0 .2 0 .2.2v12.35c0 .11 0 .18-.2.18h-1.55c-.18 0-.19 0-.19-.18v-.76H44.67V38c0 .16 0 .18-.19.18zm1.74-7.85h4v-3.17h-4zm4 5.09V32h-4v3.38zm2-8.26v3.17h4.27v-3.17zm4.27 8.26V32h-4.27v3.38z" transform="translate(-9.5 -10.1)" /></svg>