<svg xmlns="http://www.w3.org/2000/svg" viewBox="0 0 60 60"><defs><clipPath id="clip-path" transform="translate(-9.5 -10.1)"><path class="cls-1" d="M9.4 10v64.8L74.2 10H9.4z"/></clipPath><clipPath id="clip-path-2" transform="translate(-9.5 -10.1)"><path class="cls-1" d="M0 0v64.8L64.8 0H0z"/></clipPath><style>.cls-1{fill:none}.cls-6{fill:#fff}</style></defs><circle cx="30" cy="30" r="30" fill="#1fb4ff"/><g clip-path="url(#clip-path)" opacity=".15"><circle class="cls-6" cx="30" cy="30" r="30"/></g><g clip-path="url(#clip-path-2)" opacity=".15"><circle class="cls-6" cx="30" cy="30" r="30"/></g><path class="cls-6" d="M35.3 34v2.23a1.68 1.68 0 01-.61 1.53 4.7 4.7 0 01-2.4.4c-.54 0-.56 0-.68-.56a3.89 3.89 0 00-.56-1.35 13.84 13.84 0 001.93 0c.39 0 .5-.16.5-.56v-3.52h-5.87c-.11 0-.2 0-.2-.2v-.92a3.21 3.21 0 01-.34.18c-.4.22-.83.41-1.26.63v6.17c0 .1 0 .19-.21.19h-1.44c-.18 0-.2 0-.2-.19v-5.3l-1.27.54a1.72 1.72 0 00-.59.36.43.43 0 01-.31.16c-.12 0-.19 0-.27-.2a16.36 16.36 0 01-.52-1.75 8.94 8.94 0 001.68-.48c.45-.15.9-.31 1.35-.49v-3.69h-1.1a19.43 19.43 0 01-.41 2.07c-.07.31-.11.43-.22.43a1.13 1.13 0 01-.41-.18 9 9 0 00-1-.36 19.7 19.7 0 00.75-4.71 9 9 0 000-1.16c.46.06 1 .13 1.46.22.21.05.28.11.28.22a.51.51 0 01-.09.28 2.41 2.41 0 00-.09.62l-.07.88H24v-1a18.74 18.74 0 00-.15-2.72c.69 0 1.23.06 1.86.13.18 0 .28.09.28.18a1.13 1.13 0 01-.1.38 7.24 7.24 0 00-.11 2v1h1.46c.09 0 .21 0 .21.18V27c0 .11 0 .16-.05.18h3.71v-1.8h-2.97c-.1 0-.22 0-.22-.2V24c0-.18 0-.19.22-.19h2.97a11.16 11.16 0 00-.16-2c.7 0 1.26.07 1.89.14.18 0 .28.08.28.18a.92.92 0 01-.1.36 3.84 3.84 0 00-.13 1.37h3.53c.11 0 .2 0 .2.19v1.28c0 .18 0 .2-.2.2h-3.53v1.8h4.4c.09 0 .19 0 .19.18v1.28c0 .18 0 .2-.19.2h-9.93c-.11 0-.2 0-.2-.2v-1.57h-1.42v2.94c.52-.26 1.08-.51 1.65-.81 0 .34 0 .79.06 1.18h6.03a6.83 6.83 0 00-.13-1.44 16.44 16.44 0 011.84.2c.18 0 .29.12.29.21a.53.53 0 01-.11.31 1.44 1.44 0 00-.11.72h1.93c.09 0 .2 0 .2.2V32c0 .18 0 .2-.2.2h-1.93zm-5.85-1.26c.2-.11.25-.11.38 0a15 15 0 011.75 2.09c.1.16.09.2-.11.34l-1.08.83c-.11.07-.16.11-.22.11s-.09-.06-.12-.15a11.6 11.6 0 00-1.66-2.25c-.13-.16-.11-.2.09-.32zm13.68-1.16h-2.27c-.11 0-.18 0-.18-.2v-1.3c0-.18 0-.2.18-.2h2.81V22.7c0-.07 0-.2.2-.2h10.94c.11 0 .21 0 .21.2V24c0 .16 0 .18-.21.18h-9.23v1h8.34c.1 0 .2 0 .2.22v1c0 .18 0 .2-.2.2h-8.34v1h8.33c.11 0 .21 0 .21.22v1c0 .18 0 .2-.21.2h-8.33v1h10.89c.11 0 .22 0 .22.2v1.33c0 .18 0 .2-.22.2h-7.33A7.78 7.78 0 0051 33.84a14.09 14.09 0 001.84-1.47 3.07 3.07 0 00.58-.74c.57.36 1 .61 1.44.95.12.09.18.17.18.27s-.04.15-.19.15a2 2 0 00-.63.38 18.49 18.49 0 01-1.84 1.32 14.89 14.89 0 004.72 1.54 4.44 4.44 0 00-.77 1.25c-.27.56-.27.56-.81.43-4-1.05-6.72-3.12-8.18-6.37h-1.76v3.85c1.08-.25 2.18-.52 3.36-.87a8.21 8.21 0 00-.07 1.14c0 .57 0 .57-.56.74-2 .59-4 1.09-5.74 1.47a1.61 1.61 0 00-.63.24.4.4 0 01-.27.11c-.07 0-.14-.08-.22-.24-.18-.5-.37-1.24-.5-1.75a16.33 16.33 0 001.93-.24l.79-.16v-4.26z" transform="translate(-9.5 -10.1)" /></svg>