<svg id="concept.svg" xmlns="http://www.w3.org/2000/svg" width="140" height="140" viewBox="0 0 140 140">
  <defs>
    <style>
      .cls-1 {
        fill: #2c6010;
      }

      .cls-2 {
        fill: #fff;
        fill-rule: evenodd;
      }
    </style>
  </defs>
  <circle class="cls-1" cx="70" cy="70" r="68"/>
  <path id="CONCEPT" class="cls-2" d="M357.165,1057.13a1.718,1.718,0,0,0-.28.29,5.2,5.2,0,0,1-.643.79,3.082,3.082,0,0,1-.67.51,2.482,2.482,0,0,1-.761.28,5.042,5.042,0,0,1-.907.08,2.693,2.693,0,0,1-1.62-.56,4.652,4.652,0,0,1-1.323-1.63,10.05,10.05,0,0,1-.9-2.63,17.636,17.636,0,0,1-.329-3.59,16.766,16.766,0,0,1,.329-3.47,9.99,9.99,0,0,1,.918-2.64,4.866,4.866,0,0,1,1.41-1.67,3.06,3.06,0,0,1,1.814-.59,3.009,3.009,0,0,1,1,.15,3.364,3.364,0,0,1,.745.35,3.239,3.239,0,0,1,.551.45q0.233,0.24.427,0.45a4.435,4.435,0,0,0,.367.35,0.54,0.54,0,0,0,.367.14,0.533,0.533,0,0,0,.454-0.2,2.457,2.457,0,0,0,.281-0.46l1.231-2.76a8.715,8.715,0,0,0-1.015-1.41,7.179,7.179,0,0,0-1.253-1.1,6.469,6.469,0,0,0-1.464-.72,5.355,5.355,0,0,0-1.668-.26,5.964,5.964,0,0,0-3.337.99,8.625,8.625,0,0,0-2.6,2.77,15.144,15.144,0,0,0-1.69,4.24,22.591,22.591,0,0,0-.605,5.39,25.442,25.442,0,0,0,.529,5.34,15.485,15.485,0,0,0,1.518,4.25,8.381,8.381,0,0,0,2.408,2.81,5.365,5.365,0,0,0,3.213,1.01,5.568,5.568,0,0,0,3.386-1.05,7.782,7.782,0,0,0,2.381-3.12l-1.447-2.54a0.9,0.9,0,0,0-.248-0.28,0.524,0.524,0,0,0-.259-0.08A0.5,0.5,0,0,0,357.165,1057.13Zm19.722-11.73a15.288,15.288,0,0,0-1.658-4.25,8.821,8.821,0,0,0-2.575-2.83,5.924,5.924,0,0,0-6.691-.01,8.824,8.824,0,0,0-2.587,2.82,15.229,15.229,0,0,0-1.663,4.25,24.135,24.135,0,0,0,0,10.59,15.229,15.229,0,0,0,1.663,4.25,8.8,8.8,0,0,0,2.587,2.84,6,6,0,0,0,6.691,0,8.756,8.756,0,0,0,2.575-2.84,15.288,15.288,0,0,0,1.658-4.25A24.005,24.005,0,0,0,376.887,1045.4Zm-3.45,8.79a9.642,9.642,0,0,1-.87,2.64,4.5,4.5,0,0,1-1.388,1.65,3.188,3.188,0,0,1-1.868.56,3.232,3.232,0,0,1-1.885-.56,4.486,4.486,0,0,1-1.393-1.65,9.609,9.609,0,0,1-.869-2.64,20.482,20.482,0,0,1,0-7.02,9.649,9.649,0,0,1,.869-2.63,4.606,4.606,0,0,1,1.393-1.66,3.248,3.248,0,0,1,1.885-.58,3.2,3.2,0,0,1,1.868.58,4.625,4.625,0,0,1,1.388,1.66,9.682,9.682,0,0,1,.87,2.63A20.548,20.548,0,0,1,373.437,1054.19Zm8.6-16.62H380.11v26.23h3.219v-14.06q0-.585-0.022-1.23-0.021-.66-0.054-1.35l7.42,15.63a2.067,2.067,0,0,0,.561.79,1.194,1.194,0,0,0,.713.22h1.9v-26.23H390.63v13.88c0,0.42.007,0.87,0.021,1.34s0.036,0.96.065,1.47l-7.474-15.75a4.112,4.112,0,0,0-.27-0.49,1.217,1.217,0,0,0-.248-0.28,0.757,0.757,0,0,0-.292-0.13,1.533,1.533,0,0,0-.4-0.04h0Zm25.5,19.56a1.718,1.718,0,0,0-.28.29,5.2,5.2,0,0,1-.643.79,3.082,3.082,0,0,1-.67.51,2.482,2.482,0,0,1-.761.28,5.042,5.042,0,0,1-.907.08,2.693,2.693,0,0,1-1.62-.56,4.652,4.652,0,0,1-1.323-1.63,10.05,10.05,0,0,1-.9-2.63,17.636,17.636,0,0,1-.329-3.59,16.766,16.766,0,0,1,.329-3.47,9.99,9.99,0,0,1,.918-2.64,4.866,4.866,0,0,1,1.41-1.67,3.06,3.06,0,0,1,1.814-.59,3.009,3.009,0,0,1,1,.15,3.364,3.364,0,0,1,.745.35,3.239,3.239,0,0,1,.551.45q0.233,0.24.427,0.45a4.435,4.435,0,0,0,.367.35,0.54,0.54,0,0,0,.367.14,0.533,0.533,0,0,0,.454-0.2,2.457,2.457,0,0,0,.281-0.46l1.231-2.76a8.715,8.715,0,0,0-1.015-1.41,7.179,7.179,0,0,0-1.253-1.1,6.469,6.469,0,0,0-1.464-.72,5.355,5.355,0,0,0-1.668-.26,5.964,5.964,0,0,0-3.337.99,8.625,8.625,0,0,0-2.6,2.77,15.144,15.144,0,0,0-1.69,4.24,22.591,22.591,0,0,0-.605,5.39,25.442,25.442,0,0,0,.529,5.34,15.485,15.485,0,0,0,1.518,4.25,8.381,8.381,0,0,0,2.408,2.81,5.365,5.365,0,0,0,3.213,1.01,5.568,5.568,0,0,0,3.386-1.05,7.782,7.782,0,0,0,2.381-3.12l-1.447-2.54a0.9,0.9,0,0,0-.248-0.28,0.524,0.524,0,0,0-.259-0.08A0.5,0.5,0,0,0,407.535,1057.13Zm4.78-19.56v26.23h10.131v-4.68h-6.459v-6.25h4.947v-4.5h-4.947v-6.12h6.459v-4.68H412.315Zm18.592,17.46a5.748,5.748,0,0,0,2.824-.66,5.482,5.482,0,0,0,1.971-1.82,8.506,8.506,0,0,0,1.155-2.81,15.99,15.99,0,0,0,.378-3.6,14.9,14.9,0,0,0-.367-3.39,8.135,8.135,0,0,0-1.139-2.71,5.577,5.577,0,0,0-1.966-1.81,5.816,5.816,0,0,0-2.856-.66h-5.552v26.23h3.651v-8.77h1.9Zm-1.9-12.91h1.9a2.247,2.247,0,0,1,2.025,1.11,4.129,4.129,0,0,1,.491,1.27,7.66,7.66,0,0,1,.162,1.64,6.634,6.634,0,0,1-.626,3.17,2.172,2.172,0,0,1-2.052,1.13h-1.9v-8.32Zm9.809-4.55v4.82h4.428v21.41h3.651v-21.41h4.428v-4.82H438.815Z" transform="translate(-330 -997)"/>
</svg>
