<svg id="kodawari.svg" xmlns="http://www.w3.org/2000/svg" width="140" height="140" viewBox="0 0 140 140">
  <defs>
    <style>
      .cls-1 {
        fill: #245e98;
      }

      .cls-2 {
        fill: #fff;
        fill-rule: evenodd;
      }
    </style>
  </defs>
  <circle class="cls-1" cx="70" cy="70" r="68"/>
  <path id="こだわり" class="cls-2" d="M679.551,1044.99c1.815-1.77,5.565-4.75,9.89-5.65l-0.3-4.68a35.484,35.484,0,0,1-5.837.82c-2.117.15-6.532,0.29-9.587,0.29-0.816,0-1.542,0-2.086-.03,0.06,1,.09,3.31.09,4.39a58.352,58.352,0,0,0,8.378-.33v0.04a32.826,32.826,0,0,0-3.871,3.17Zm11.16,12.09a43.653,43.653,0,0,1-9.315.97c-3.054,0-7.409,0-7.409-4.28a8.115,8.115,0,0,1,2.207-5.04l-3.266-1.73a12.373,12.373,0,0,0-2.843,7.56,7.207,7.207,0,0,0,5.565,7.38,30.4,30.4,0,0,0,6.291.5,52.419,52.419,0,0,0,9.072-.72Zm25.145-24.66a25.876,25.876,0,0,1,3.75,4.68l1.694-1.76a19.538,19.538,0,0,0-3.871-4.64Zm-5.232,3.75A26.993,26.993,0,0,1,703.7,1038c0.211-1.62.453-3.56,0.605-4.86a1.009,1.009,0,0,0,.846-0.86l-4.929-.5c-0.151,2.08-.363,4.57-0.605,6.66-0.514,0-1.059.03-1.542,0.03-1.452,0-3.025,0-3.993-.07l0.061,4.28c0.514,0.04,1.119.04,1.754,0.04,0.575,0,2.722,0,3.206-.04a81.513,81.513,0,0,1-5.172,19.8l3.932,1.66a126.956,126.956,0,0,0,5.2-21.71,32.617,32.617,0,0,0,8.286-1.76Zm1.029-1.59a23,23,0,0,1,3.75,4.72l1.724-1.76a23.2,23.2,0,0,0-3.9-4.68Zm-2.9,14.65a30.058,30.058,0,0,1,9.98-1.33v-4.32a32.2,32.2,0,0,0-10.8,1.77Zm10.616,9.72a33.369,33.369,0,0,1-3.993.22c-4.173,0-5.715-.47-5.715-2.45a5.421,5.421,0,0,1,1.391-3.17l-3.236-1.4a9.289,9.289,0,0,0-1.936,5.33,5.33,5.33,0,0,0,3.992,5.47,26.026,26.026,0,0,0,6.351.61c1.089,0,2.178-.04,3.206-0.11Zm3.572-15.87a40.1,40.1,0,0,0,5.5-.68l-0.09,2.51a27.723,27.723,0,0,1-1.724,3.35,39.18,39.18,0,0,1-4.688,5.8l1.754,3.96a26.794,26.794,0,0,0,4.6-6.16v12.13h3.69c-0.061-2.19-.061-5.61-0.061-9.03v-6.37c2.571-2.67,5.867-4.25,8.468-4.25,3.357,0,4.93,3.02,4.93,6.59,0,5.11-3.6,7.16-10.373,8.02a27.841,27.841,0,0,1,1.421,4.03c7.742-.82,12.793-4.28,12.793-12.16,0-6.59-3.387-10.66-8.438-10.66a14.3,14.3,0,0,0-8.74,3.71,26.3,26.3,0,0,1,1.875-5.4l-1.512-.83c0.09-1.47.151-2.7,0.272-4.39a0.894,0.894,0,0,0,.877-0.75l-4.778-.44c0,0.69-.091,5.44-0.121,6.2a34.455,34.455,0,0,1-5.807.5Zm42.094-10.44c0.332,3.35.725,8.39,0.725,13.39,0,4.9-1.754,10.73-10.04,14.54a26.859,26.859,0,0,1,2.722,3.6c9.617-4.71,11.492-11.26,11.522-18.21,0-4.57-.272-9.36-0.514-12.2a0.965,0.965,0,0,0,.756-0.87Zm-8.438,19.22a4.667,4.667,0,0,1-.091-0.86c0-1.51,1.331-4.18,3.266-7.6a20.294,20.294,0,0,1-1.723-2.88,42.74,42.74,0,0,0-2.269,4.9,50.594,50.594,0,0,1,1.059-10.19,0.868,0.868,0,0,0,.756-0.65l-4.718-.75a79.6,79.6,0,0,0-.877,10.94,41.167,41.167,0,0,0,.816,7.81Z" transform="translate(-650 -997)"/>
</svg>
