<svg id="merit.svg" xmlns="http://www.w3.org/2000/svg" width="140" height="140" viewBox="0 0 140 140">
  <defs>
    <style>
      .cls-1 {
        fill: #ffac0f;
      }

      .cls-2 {
        fill: #fff;
        fill-rule: evenodd;
      }
    </style>
  </defs>
  <circle class="cls-1" cx="70" cy="70" r="68"/>
  <path id="MERIT" class="cls-2" d="M854.3,1038.68c-0.216,0-.4.01-0.559,0.02a1.123,1.123,0,0,0-.421.1,0.935,0.935,0,0,0-.348.25,1.794,1.794,0,0,0-.308.47l-6.529,13.88q-0.308.63-.575,1.32c-0.178.45-.348,0.92-0.51,1.4-0.162-.47-0.332-0.92-0.51-1.37s-0.37-.87-0.575-1.29l-6.578-13.94a1.96,1.96,0,0,0-.3-0.47,0.869,0.869,0,0,0-.341-0.25,1.137,1.137,0,0,0-.429-0.1c-0.162-.01-0.346-0.02-0.551-0.02h-3.693v26.12h4.293v-16.04c0-.34-0.011-0.7-0.033-1.09s-0.048-.79-0.081-1.22l6.756,14.22a2.022,2.022,0,0,0,.7.88,1.728,1.728,0,0,0,1,.29h0.68a1.781,1.781,0,0,0,1.7-1.17l6.723-14.16q-0.065.585-.089,1.17t-0.024,1.08v16.04h4.293v-26.12H854.3Zm23.243,4.23v-4.23H862.572v26.12h14.969v-4.23H867.464v-6.86h7.841v-4.09h-7.841v-6.71h10.077Zm8.266,8.13v-8.26h2.527a4.806,4.806,0,0,1,3.378,1.03,3.718,3.718,0,0,1,1.109,2.88,5.561,5.561,0,0,1-.259,1.73,3.588,3.588,0,0,1-.81,1.37,3.753,3.753,0,0,1-1.409.92,5.69,5.69,0,0,1-2.041.33h-2.5Zm8.408,4.36a4.769,4.769,0,0,0-.729-0.96,5.189,5.189,0,0,0-.875-0.7,7.429,7.429,0,0,0,4.625-4.99,9.322,9.322,0,0,0-.186-5.53,5.988,5.988,0,0,0-1.637-2.4,7.721,7.721,0,0,0-2.867-1.57,13.686,13.686,0,0,0-4.212-.57h-7.387v26.12h4.86v-9.96h1.652a1.754,1.754,0,0,1,.98.22,1.971,1.971,0,0,1,.608.68l4.471,8.01a1.867,1.867,0,0,0,1.782,1.05h4.39Zm12.374-16.72H901.7v26.12h4.892v-26.12Zm21.495,0H909.47v4.35h6.869v21.77h4.876v-21.77h6.869v-4.35Z" transform="translate(-810 -997)"/>
</svg>
