<svg id="heading018_faq_v1f1.svg" xmlns="http://www.w3.org/2000/svg" width="90" height="29" viewBox="0 0 90 29">
  <defs>
    <style>
      .cls-1 {
        fill: #941b50;
      }

      .cls-1, .cls-2 {
        fill-rule: evenodd;
      }

      .cls-2 {
        fill: #c6a569;
      }
    </style>
  </defs>
  <path class="cls-1" d="M519,3245v2H506v9h11v2H506v12h-3l-0.02-24.98Zm4.536,17.8-3.168,7.42h-1.656l10.656-25.2h1.8l11.736,25.2h-3.492l-3.456-7.42h-12.42Zm6.012-13.75H529.4l-5.184,12.13H535.2Zm33.552,19.88a12,12,0,0,1-2.34.56,17.513,17.513,0,0,1-2.412.16,14.692,14.692,0,0,1-5.6-1.04,13.712,13.712,0,0,1-4.374-2.83,12.549,12.549,0,0,1-2.844-4.16,12.743,12.743,0,0,1-1.008-5.04,13.346,13.346,0,0,1,.792-4.35,12.583,12.583,0,0,1,2.466-4.22,13.3,13.3,0,0,1,4.284-3.16,14.339,14.339,0,0,1,6.282-1.26,14.671,14.671,0,0,1,6.354,1.26,13.525,13.525,0,0,1,4.356,3.18,12.794,12.794,0,0,1,2.52,4.21,13.026,13.026,0,0,1,.81,4.34,12.632,12.632,0,0,1-.36,2.9,12.957,12.957,0,0,1-1.152,3.04,13.768,13.768,0,0,1-2.052,2.9,13.2,13.2,0,0,1-3.024,2.43l3.42,3.56-2.736.98Zm1.152-2.74a11.319,11.319,0,0,0,2.574-2.7,11.628,11.628,0,0,0,1.35-2.71,10.569,10.569,0,0,0,.522-2.42c0.06-.73.09-1.32,0.09-1.78a12.9,12.9,0,0,0-.809-4.66,10.975,10.975,0,0,0-2.21-3.6,9.933,9.933,0,0,0-3.306-2.32,10.2,10.2,0,0,0-4.1-.83,9.8,9.8,0,0,0-7.241,3.15,11.143,11.143,0,0,0-2.193,3.6,12.922,12.922,0,0,0-.808,4.66,13.537,13.537,0,0,0,.808,4.83,11.144,11.144,0,0,0,2.172,3.61,9.03,9.03,0,0,0,3.16,2.27,9.36,9.36,0,0,0,3.77.78,13.281,13.281,0,0,0,1.9-.13,8.065,8.065,0,0,0,1.867-.49l-2.556-2.62,2.268-1.48Z" transform="translate(-502.969 -3243.59)"/>
  <path class="cls-2" d="M585,3261l5,5-5,5-5-5Z" transform="translate(-502 -3244)"/>
  <path class="cls-2" d="M585,3244l5,5-5,5-5-5Z" transform="translate(-502 -3242)"/>
</svg>
