<svg id="step.svg" xmlns="http://www.w3.org/2000/svg" width="140" height="140" viewBox="0 0 140 140">
  <defs>
    <style>
      .cls-1 {
        fill: none;
        stroke: #4f85da;
        stroke-width: 4px;
      }

      .cls-2 {
        fill: #4f85da;
        fill-rule: evenodd;
      }
    </style>
  </defs>
  <circle id="楕円形" class="cls-1" cx="70" cy="70" r="68"/>
  <path id="STEP" class="cls-2" d="M1974.38,1040.22a9.581,9.581,0,0,0-3.32-2.02,12.1,12.1,0,0,0-4.24-.72,9.7,9.7,0,0,0-3.62.63,8.3,8.3,0,0,0-2.68,1.67,7.259,7.259,0,0,0-1.65,2.4,7.045,7.045,0,0,0-.57,2.77,7.767,7.767,0,0,0,.51,3,6.137,6.137,0,0,0,1.36,2.02,7.343,7.343,0,0,0,1.93,1.32,19.648,19.648,0,0,0,2.2.86c0.74,0.24,1.47.46,2.19,0.67a10.35,10.35,0,0,1,1.93.74,4.388,4.388,0,0,1,1.36,1.09,2.628,2.628,0,0,1,.51,1.68,3.524,3.524,0,0,1-1.13,2.81,4.74,4.74,0,0,1-3.21.98,6.593,6.593,0,0,1-2.31-.36,10.117,10.117,0,0,1-1.68-.82c-0.47-.3-0.88-0.58-1.23-0.82a1.69,1.69,0,0,0-.97-0.37,1.177,1.177,0,0,0-.62.17,1.617,1.617,0,0,0-.48.42l-1.4,2.32a9.592,9.592,0,0,0,1.72,1.41,11.931,11.931,0,0,0,2.07,1.08,12.668,12.668,0,0,0,4.76.93,10.355,10.355,0,0,0,3.83-.65,8.411,8.411,0,0,0,2.84-1.8,7.666,7.666,0,0,0,1.76-2.68,9.05,9.05,0,0,0,.6-3.31,6.652,6.652,0,0,0-.51-2.75,5.712,5.712,0,0,0-1.36-1.92,7.518,7.518,0,0,0-1.92-1.29,18.282,18.282,0,0,0-2.21-.9c-0.75-.26-1.48-0.51-2.2-0.73a12.493,12.493,0,0,1-1.93-.78,4.3,4.3,0,0,1-1.36-1.04,2.317,2.317,0,0,1-.51-1.53,3.339,3.339,0,0,1,.25-1.32,2.7,2.7,0,0,1,.76-1.04,3.79,3.79,0,0,1,1.26-.67,5.5,5.5,0,0,1,1.76-.25,6.141,6.141,0,0,1,1.93.28,9.866,9.866,0,0,1,1.44.62c0.4,0.23.76,0.44,1.06,0.62a1.545,1.545,0,0,0,.81.28,1.146,1.146,0,0,0,.62-0.16,1.333,1.333,0,0,0,.46-0.56Zm3.78-2.45v3.98h7.86v22.05h4.84v-22.05h7.83v-3.98h-20.53Zm24.51,0v26.03h16.42v-3.87h-11.54v-7.37h9.09v-3.72h-9.09v-7.22h11.54v-3.85h-16.42Zm31.05,16.86a13.766,13.766,0,0,0,4.43-.63,8.73,8.73,0,0,0,3.15-1.76,7.225,7.225,0,0,0,1.89-2.71,9.811,9.811,0,0,0,.04-6.81,6.72,6.72,0,0,0-1.84-2.63,8.79,8.79,0,0,0-3.15-1.71,14.8,14.8,0,0,0-4.52-.61h-8.48v26.03h4.85v-9.17h3.63Zm-3.63-13.12h3.63a7.649,7.649,0,0,1,2.32.32,4.266,4.266,0,0,1,1.64.91,3.6,3.6,0,0,1,.97,1.44,5.133,5.133,0,0,1,.33,1.89,5.73,5.73,0,0,1-.33,1.99,3.928,3.928,0,0,1-.97,1.51,4.326,4.326,0,0,1-1.64.95,7.334,7.334,0,0,1-2.32.33h-3.63v-9.34Z" transform="translate(-1930 -997)"/>
</svg>
