<svg id="_9.svg" data-name="9.svg" xmlns="http://www.w3.org/2000/svg" width="49" height="49" viewBox="0 0 49 49">
  <defs>
    <style>
      .cls-1 {
        fill: #fbeff3;
        stroke: #d0bc9e;
        stroke-width: 1px;
      }

      .cls-2 {
        fill: #997238;
        fill-rule: evenodd;
      }
    </style>
  </defs>
  <rect class="cls-1" x="0.5" y="0.5" width="48" height="48"/>
  <path class="cls-2" d="M796.673,97.022a3.439,3.439,0,0,0,.359,1.819,3.324,3.324,0,0,0,1.141,1.241,5.452,5.452,0,0,0,1.71.714,8.9,8.9,0,0,0,2.1.238A8.246,8.246,0,0,0,806.144,100a10.737,10.737,0,0,0,3.154-2.754,15.155,15.155,0,0,0,2.188-3.927,24.4,24.4,0,0,0,1.257-4.522,32.164,32.164,0,0,0,.462-4.352,11.774,11.774,0,0,0-.472-3.978,5.92,5.92,0,0,0-1.939-2.89,6.036,6.036,0,0,0-3.9-1.122,8.219,8.219,0,0,0-3.278.663,9.671,9.671,0,0,0-2.764,1.785,10.613,10.613,0,0,0-2.059,2.618,9.9,9.9,0,0,0-1.135,3.162,7.854,7.854,0,0,0,.048,3.485,5.944,5.944,0,0,0,1.261,2.4,5.092,5.092,0,0,0,2.015,1.394,6.482,6.482,0,0,0,2.318.442,10.648,10.648,0,0,0,1.673-.136,7.141,7.141,0,0,0,1.665-.476,6.742,6.742,0,0,0,1.5-.867,4.3,4.3,0,0,0,1.132-1.309l0.444-.782h0.136a42.013,42.013,0,0,1-.989,4.352,13.839,13.839,0,0,1-1.429,3.383,6.633,6.633,0,0,1-2.086,2.193,5.327,5.327,0,0,1-2.927.782,3.176,3.176,0,0,1-2.093-.663,2.253,2.253,0,0,1-.794-1.853h-2.856Zm12.635-9.571a7.445,7.445,0,0,1-1.493,2.006,5.6,5.6,0,0,1-1.745,1.122,4.826,4.826,0,0,1-1.762.357,3.988,3.988,0,0,1-1.528-.306,3.04,3.04,0,0,1-1.293-1.054,4.605,4.605,0,0,1-.754-1.989,9.541,9.541,0,0,1,.13-3.145,10.8,10.8,0,0,1,1.06-3.315,7,7,0,0,1,1.541-1.989,4.524,4.524,0,0,1,1.68-.952,5.563,5.563,0,0,1,1.487-.238,3.96,3.96,0,0,1,1.62.357,3.161,3.161,0,0,1,1.344,1.156,5.323,5.323,0,0,1,.765,2.023,8.44,8.44,0,0,1-.079,2.958A10.187,10.187,0,0,1,809.308,87.451Z" transform="translate(-779.5 -64.5)"/>
</svg>
