<svg xmlns="http://www.w3.org/2000/svg" viewBox="0 0 56 56"><defs><style>.cls-1{fill:#caa964;}.cls-2{opacity:0.15;}.cls-3,.cls-4{fill:#fff;}.cls-3{fill-rule:evenodd;}</style></defs><title>concept</title><g><g><rect class="cls-1" width="56" height="56"/></g><g class="cls-2"><polygon class="cls-3" points="0 56 0 0 56 0 0 56"/></g><g><path class="cls-4" d="M6.79,15.79c-.16-1.52-.64-2.22-1.35-2.22-1.14,0-1.73,1.38-1.73,3.9s.59,3.92,1.73,3.92c.82,0,1.3-.78,1.47-2.3l1.64.64c-.38,2.28-1.5,3.5-3.16,3.5-2.18,0-3.48-2.14-3.48-5.72s1.34-5.78,3.48-5.78c1.66,0,2.78,1.26,3.11,3.5Z"/><path class="cls-4" d="M16.25,17.45c0,3.56-1.39,5.78-3.49,5.78s-3.48-2.16-3.48-5.72,1.4-5.78,3.49-5.78S16.25,13.89,16.25,17.45Zm-5.16,0c0,2.54.53,3.94,1.67,3.94s1.68-1.38,1.68-3.94-.53-3.92-1.67-3.92S11.09,15,11.09,17.47Z"/><path class="cls-4" d="M19.41,13.89c.61-1.3,1.52-2.16,2.52-2.16,1.27,0,2.2,1.18,2.2,3.3V23H22.32V15.73c0-1.26-.38-1.84-1.06-1.84s-1.32.72-1.8,1.86V23H17.7V12h1.71Z"/><path class="cls-4" d="M30.43,15.79c-.17-1.52-.65-2.22-1.36-2.22-1.14,0-1.73,1.38-1.73,3.9s.59,3.92,1.73,3.92c.82,0,1.3-.78,1.47-2.3l1.64.64c-.38,2.28-1.5,3.5-3.16,3.5-2.18,0-3.48-2.14-3.48-5.72s1.34-5.78,3.48-5.78c1.66,0,2.78,1.26,3.11,3.5Z"/><path class="cls-4" d="M34.64,18c0,2.08.66,3.46,1.93,3.46.8,0,1.36-.64,1.63-2.08l1.59.66c-.47,2.1-1.52,3.18-3.23,3.18-2.3,0-3.64-2.1-3.64-5.7s1.41-5.8,3.48-5.8,3.43,2,3.43,5.76V18Zm3.47-1.66c-.08-1.84-.63-2.88-1.68-2.88s-1.68,1.12-1.76,2.88Z"/><path class="cls-4" d="M43,13.59c.52-1.2,1.32-1.86,2.16-1.86,1.68,0,2.93,1.9,2.93,5.66s-1.36,5.82-3,5.82c-.93,0-1.57-.64-2-1.8v5.4H41.26V12H43ZM43,19.43c.35,1.16.91,1.84,1.55,1.84.93,0,1.67-1.16,1.67-3.82s-.68-3.76-1.57-3.76c-.64,0-1.26.58-1.65,1.86Z"/><path class="cls-4" d="M51.59,12h1.73v1.84H51.59v6c0,1.1.31,1.58,1,1.58a2.84,2.84,0,0,0,.89-.12l-.07,1.8a6.51,6.51,0,0,1-1.37.12c-1.46,0-2.14-.9-2.14-2.92V13.81H48.71V12h1.15V9l1.73-.56Z"/></g></g></svg>