<svg xmlns="http://www.w3.org/2000/svg" viewBox="0 0 56 56"><defs><style>.cls-1{fill:#caa964;}.cls-2{opacity:0.15;}.cls-3,.cls-4{fill:#fff;}.cls-3{fill-rule:evenodd;}</style></defs><title>oyakusoku</title><g><g><rect class="cls-1" width="56" height="56"/></g><g class="cls-2"><polygon class="cls-3" points="0 56 0 0 56 0 0 56"/></g><g><path class="cls-4" d="M9.4,14.75A20.6,20.6,0,0,1,7,14.9c-.25,0-.32-.11-.35-.38s-.1-.94-.16-1.57A5.39,5.39,0,0,0,7.6,13a16.28,16.28,0,0,0,1.83-.14c0-.59,0-1.28,0-2.05a8,8,0,0,0-.1-1.46,6.76,6.76,0,0,1,1.72.32.37.37,0,0,1,.28.34.8.8,0,0,1-.08.29,2.39,2.39,0,0,0-.2.7c-.05.47-.06.92-.08,1.5a11.73,11.73,0,0,0,1.85-.67c.13,0,.23,0,.24.17a10.74,10.74,0,0,1,.09,1.4c0,.18,0,.23-.19.29a11.51,11.51,0,0,1-2.06.68c0,.87,0,1.75,0,2.61a7.58,7.58,0,0,1,3.55-1c1.78,0,3.06,1.44,3.06,3.6,0,2.31-1.18,3.66-3.12,3.66a4.49,4.49,0,0,1-1.18-.16.49.49,0,0,1-.32-.54,3.72,3.72,0,0,0-.43-1.53,4.51,4.51,0,0,0,1.8.32c.81,0,1.55-.58,1.55-1.85s-.57-1.82-1.58-1.82a6.11,6.11,0,0,0-3.3,1.22c0,.76,0,1.37.06,2.16s.11,1.93.11,2.34c0,.25,0,.52-.21.6a5.46,5.46,0,0,1-1.07.21c-.16,0-.21-.12-.34-.36a10,10,0,0,0-2.05-2.3A2.88,2.88,0,0,0,7,22a.32.32,0,0,1-.24.13c-.12,0-.24-.11-.32-.29s-.45-1.08-.66-1.67a4.86,4.86,0,0,0,1.32-.63c.62-.43,1.3-.92,2.35-1.68ZM8.06,21a14.6,14.6,0,0,0,1.35.81c.12,0,.16,0,.15-.15,0-.46-.06-1.29-.09-1.89C9.07,20.07,8.58,20.48,8.06,21Zm6.88-9.46c.11-.19.15-.25.25-.21a6.65,6.65,0,0,1,3,2.2.28.28,0,0,1,.09.18.62.62,0,0,1-.06.18c-.19.36-.56.91-.78,1.27,0,.08-.24.09-.28,0a6.69,6.69,0,0,0-2.93-2.21A13.94,13.94,0,0,1,14.94,11.49Z"/><path class="cls-4" d="M25.8,14.18c.17-.07.2-.06.27.11a17.74,17.74,0,0,1,1.07,3.26c0,.19,0,.28-.17.35l-.77.31c-.15.05-.21,0-.24-.12l-.17-.82c-.33.06-.67.09-1,.13v5c0,1.66,0,2.27,0,2.36s0,.2-.16.2H23.57c-.15,0-.16,0-.16-.2s0-.7,0-2.36v-4.8l-1.36.1a1.25,1.25,0,0,0-.53.15.36.36,0,0,1-.21.09c-.11,0-.15-.13-.18-.31-.07-.43-.13-.85-.2-1.51a9.85,9.85,0,0,0,1.2,0l.8-1.36A25.11,25.11,0,0,0,21,12.11C21,12,20.93,12,20.93,12a.81.81,0,0,1,.1-.24l.54-.88c.05-.11.1-.16.14-.16s.07,0,.13.1l.36.47A19.14,19.14,0,0,0,23,9.42a5.89,5.89,0,0,0,.33-1.11A11.45,11.45,0,0,1,24.56,9a.35.35,0,0,1,.19.29.39.39,0,0,1-.13.24.93.93,0,0,0-.27.43c-.47,1-.82,1.71-1.27,2.48.22.31.43.6.63.9.33-.64.65-1.31,1-2a9.65,9.65,0,0,0,.44-1.24,10.15,10.15,0,0,1,1.21.78c.13.09.18.16.18.27a.31.31,0,0,1-.16.27c-.15.1-.26.3-.48.74-.73,1.45-1.52,2.84-2.19,3.9.57,0,1.16-.07,1.72-.12-.13-.4-.26-.78-.41-1.14-.07-.18,0-.21.15-.3ZM21.61,19.6a8.14,8.14,0,0,0,0-1c.43.07.82.13,1.11.2s.24.12.24.21a.75.75,0,0,1-.08.27,2,2,0,0,0-.09.58,25.67,25.67,0,0,1-.55,3.46c-.06.27-.11.39-.2.39s-.17-.07-.33-.21a3,3,0,0,0-.76-.44A17.08,17.08,0,0,0,21.61,19.6Zm4.57-1.06c.17-.08.2,0,.25.16a33.34,33.34,0,0,1,.74,3.4c0,.2,0,.25-.17.32l-.77.33c-.21.09-.23,0-.26-.15-.14-1.09-.43-2.62-.64-3.45-.06-.2,0-.24.13-.31ZM28.68,13a11.11,11.11,0,0,1-1.12,2c-.16.22-.23.33-.32.33s-.16-.11-.3-.33a3.06,3.06,0,0,0-.78-.84,11.74,11.74,0,0,0,2.06-4.36,9.52,9.52,0,0,0,.27-1.53c.55.13,1.11.29,1.4.38s.3.16.3.29a.46.46,0,0,1-.14.36,2.3,2.3,0,0,0-.4.91c-.1.36-.2.74-.33,1.1H32c1,0,1.37,0,1.45,0s.18,0,.18.21c0,.51,0,1,0,1.5a73.66,73.66,0,0,1-.42,9c-.23,1.83-.84,2.7-2.19,2.73-.3,0-.71,0-1.08,0s-.43,0-.53-.62A6.26,6.26,0,0,0,29,22.77a9.29,9.29,0,0,0,1.83.16c.54,0,.78-.6.92-1.55A63.91,63.91,0,0,0,32.12,13Zm0,2.43c.16-.11.2-.07.29.05a18.81,18.81,0,0,1,1.64,3.44c.07.18,0,.24-.13.34l-.91.69c-.16.12-.22.09-.27-.11a20.87,20.87,0,0,0-1.52-3.48c-.1-.18-.1-.23.09-.36Z"/><path class="cls-4" d="M38.64,12c-1.26,0-1.71,0-1.8,0s-.14,0-.14-.19V10.47c0-.16,0-.18.14-.18s.54,0,1.8,0h3.58a15.71,15.71,0,0,0-.12-2c.52,0,1.08.06,1.59.13a.22.22,0,0,1,.21.21,1.43,1.43,0,0,1-.07.38,4.26,4.26,0,0,0-.11,1.24h3.81c1.28,0,1.72,0,1.8,0s.16,0,.16.18v1.39c0,.18,0,.19-.16.19s-.52,0-1.8,0H43.72v1.47h2.16c1.41,0,1.91,0,2,0s.16,0,.16.2,0,.5,0,1.51v2c0,1,0,1.39,0,1.5s0,.21-.16.21-.59,0-2,0H44.61a12,12,0,0,0,5.26,3.74,5.63,5.63,0,0,0-.67,1.32c-.11.32-.15.45-.27.45a1.15,1.15,0,0,1-.35-.15,13.56,13.56,0,0,1-4.88-4.41c0,2.27.07,4.59.07,4.86s0,.2-.16.2H42.32c-.15,0-.16,0-.16-.2s.09-2.57.1-4.86a12.49,12.49,0,0,1-4.62,4.43.82.82,0,0,1-.34.14c-.11,0-.15-.12-.27-.45a4.34,4.34,0,0,0-.65-1.18,12.23,12.23,0,0,0,4.93-3.89h-1c-1.42,0-1.92,0-2,0s-.17,0-.17-.21,0-.52,0-1.5v-2c0-1,0-1.41,0-1.51s0-.2.17-.2.59,0,2,0h1.9V12Zm3.58,5.29V15.1H39.64v2.21Zm4.32-2.21H43.72v2.21h2.82Z"/></g></g></svg>