<svg xmlns="http://www.w3.org/2000/svg" width="47" height="47" viewBox="0 0 47 47">
  <defs>
    <style>
      .cls-1 {
        fill: none;
        stroke: #0066ff;
        stroke-width: 4px;
      }

      .cls-2 {
        fill: #0066ff;
        fill-rule: evenodd;
      }
    </style>
  </defs>
  <circle class="cls-1" cx="23.5" cy="23.5" r="21.5"/>
  <path class="cls-2" d="M2275.51,2296.09q-5.85-5.355-11.7-10.73c-1.6-1.47-4,.92-2.39,2.4q4.38,4,8.74,8.02c-8.51,0-14.03.01-22.54,0.02a1.7,1.7,0,0,0,0,3.39c8.42,0,13.83-.01,22.25-0.02q-4.245,4.02-8.5,8.03c-1.59,1.5.81,3.9,2.39,2.4q5.88-5.55,11.75-11.11A1.711,1.711,0,0,0,2275.51,2296.09Z" transform="translate(-2243 -2274)"/>
</svg>
