<svg id="_5.svg" data-name="5.svg" xmlns="http://www.w3.org/2000/svg" width="57" height="57" viewBox="0 0 57 57">
  <defs>
    <style>
    .cls-1, .cls-2 {
      fill: #ffb23a;
    }

    .cls-2 {
      stroke: #fff;
      stroke-width: 1px;
      stroke-dasharray: 3 2;
    }

    .cls-3 {
      fill: #fff;
      fill-rule: evenodd;
    }
    </style>
  </defs>
  <circle class="cls-1" cx="28.5" cy="28.5" r="28.5"/>
  <circle class="cls-2" cx="28.438" cy="28.5" r="25.5"/>
  <path class="cls-3" d="M523.658,198.73h8.16l1.01-1.87h-10.3l-4.891,10.574a9.223,9.223,0,0,1,2.808-.884,18.313,18.313,0,0,1,1.894-.136q2.856,0,3.99,1.666a5.743,5.743,0,0,1,.661,4.352,10.67,10.67,0,0,1-1.066,3.247,8.345,8.345,0,0,1-1.681,2.21,6.164,6.164,0,0,1-2.008,1.258,5.848,5.848,0,0,1-2.041.391,4.726,4.726,0,0,1-1.878-.34,3.316,3.316,0,0,1-1.28-.935,3.478,3.478,0,0,1-.689-1.394,4.469,4.469,0,0,1-.071-1.717h-2.482a4.874,4.874,0,0,0,.187,2.312,4.6,4.6,0,0,0,1.184,1.87,5.848,5.848,0,0,0,2.042,1.241,7.932,7.932,0,0,0,2.792.459,10.82,10.82,0,0,0,3.556-.595,10.417,10.417,0,0,0,3.124-1.717,10.284,10.284,0,0,0,2.39-2.754,10.787,10.787,0,0,0,1.357-3.74,7.491,7.491,0,0,0-.044-3.128,5.775,5.775,0,0,0-1.209-2.4,5.552,5.552,0,0,0-2.162-1.53,8.372,8.372,0,0,0-4.683-.34,15.9,15.9,0,0,0-1.815.561Z" transform="translate(-495 -180)"/>
</svg>
