<svg id="_8.svg" data-name="8.svg" xmlns="http://www.w3.org/2000/svg" width="57" height="57" viewBox="0 0 57 57">
  <defs>
    <style>
    .cls-1, .cls-2 {
      fill: #ffb23a;
    }

    .cls-2 {
      stroke: #fff;
      stroke-width: 1px;
      stroke-dasharray: 3 2;
    }

    .cls-3 {
      fill: #fff;
      fill-rule: evenodd;
    }
    </style>
  </defs>
  <circle class="cls-1" cx="28.5" cy="28.5" r="28.5"/>
  <circle class="cls-2" cx="28.438" cy="28.5" r="25.5"/>
  <path class="cls-3" d="M731.477,208.012a5.87,5.87,0,0,0-2.372.629,7.163,7.163,0,0,0-1.935,1.428,9,9,0,0,0-1.409,1.921A6.876,6.876,0,0,0,725,214.1a6.564,6.564,0,0,0,.036,2.5,5.155,5.155,0,0,0,1.056,2.227,5.708,5.708,0,0,0,2.171,1.6,8.314,8.314,0,0,0,3.385.612,10.1,10.1,0,0,0,3.617-.612,9.394,9.394,0,0,0,2.769-1.6,8.38,8.38,0,0,0,1.875-2.227,7.7,7.7,0,0,0,.935-2.5,5.747,5.747,0,0,0-.019-2.108,5.593,5.593,0,0,0-.75-1.921,4.372,4.372,0,0,0-3.6-2.057l0.03-.17a5.6,5.6,0,0,0,2.143-.68,7.243,7.243,0,0,0,1.693-1.309,6.8,6.8,0,0,0,1.174-1.649,6.38,6.38,0,0,0,.6-1.768,5.481,5.481,0,0,0-.036-2.006,4.5,4.5,0,0,0-.9-1.938,5.13,5.13,0,0,0-1.964-1.462,7.858,7.858,0,0,0-3.239-.578,9.385,9.385,0,0,0-3.46.578,8.348,8.348,0,0,0-2.462,1.462,7.017,7.017,0,0,0-2.29,3.944,5.437,5.437,0,0,0-.023,1.768,4.453,4.453,0,0,0,.594,1.649,4.3,4.3,0,0,0,1.231,1.309,4.127,4.127,0,0,0,1.937.68Zm1-.867a3.084,3.084,0,0,1-1.238-.884,3.584,3.584,0,0,1-.729-1.462,4.92,4.92,0,0,1-.011-2.057,6.328,6.328,0,0,1,.859-2.363,5.2,5.2,0,0,1,1.363-1.462,5.129,5.129,0,0,1,1.543-.748,5.35,5.35,0,0,1,1.432-.221,4.739,4.739,0,0,1,1.373.221,3.471,3.471,0,0,1,1.313.748,3.212,3.212,0,0,1,.881,1.462,5.053,5.053,0,0,1,.042,2.363,5.9,5.9,0,0,1-.737,2.057,5.6,5.6,0,0,1-1.26,1.462,5.116,5.116,0,0,1-1.584.884,5.248,5.248,0,0,1-1.7.289A4.161,4.161,0,0,1,732.48,207.145Zm3.2,1.87a3.332,3.332,0,0,1,1.282,1.088,3.952,3.952,0,0,1,.643,1.632,5.96,5.96,0,0,1-.034,2.023,7.793,7.793,0,0,1-2,4.216,4.943,4.943,0,0,1-3.664,1.564,3.291,3.291,0,0,1-3.026-1.564,5.956,5.956,0,0,1-.493-4.216,6.973,6.973,0,0,1,.678-2.023,6.357,6.357,0,0,1,1.2-1.632,5.313,5.313,0,0,1,1.631-1.088,4.877,4.877,0,0,1,1.932-.391A4.14,4.14,0,0,1,735.679,209.015Z" transform="translate(-705 -180)"/>
</svg>
