<svg xmlns="http://www.w3.org/2000/svg" width="68" height="68" viewBox="0 0 68 68">
  <defs>
    <style>
      .cls-1 {
        fill: #029b41;
        fill-rule: evenodd;
      }
    </style>
  </defs>
  <path class="cls-1" d="M777.014,4256.22c0.081-.12.161-0.24,0.235-0.37s0.142-.27.209-0.41c0.037-.08.081-0.15,0.114-0.22a1.248,1.248,0,0,1,.042-0.13c0.059-.15.105-0.3,0.152-0.45,0.035-.13.074-0.25,0.1-0.38s0.055-.3.079-0.45c0.016-.13.036-0.25,0.048-0.38,0.012-.16.011-0.31,0.008-0.47,0-.12,0-0.25-0.008-0.37-0.01-.16-0.034-0.32-0.058-0.48-0.019-.12-0.035-0.24-0.062-0.36-0.033-.15-0.081-0.31-0.13-0.46-0.037-.12-0.072-0.24-0.117-0.36-0.02-.05-0.032-0.11-0.053-0.16-0.04-.09-0.1-0.18-0.141-0.27-0.056-.12-0.112-0.23-0.178-0.35a4.585,4.585,0,0,0-.254-0.4c-0.073-.1-0.141-0.21-0.219-0.31-0.1-.13-0.218-0.25-0.33-0.37-0.052-.06-0.1-0.12-0.154-0.18l-27.44-27.18a5.9,5.9,0,0,0-8.289,0,5.77,5.77,0,0,0,0,8.21l17.44,17.27H715.865a5.855,5.855,0,0,0-4.861,2.56,5.756,5.756,0,0,0,.714,7.35,5.874,5.874,0,0,0,4.147,1.7h42.141l-17.437,17.27a5.769,5.769,0,0,0,0,8.21,5.891,5.891,0,0,0,8.29.01L776.3,4257.1c0.058-.06.1-0.13,0.159-0.18,0.109-.12.216-0.24,0.316-0.37C776.861,4256.45,776.937,4256.33,777.014,4256.22Z" transform="translate(-710 -4220.03)"/>
</svg>
