<svg id="_2.svg" data-name="2.svg" xmlns="http://www.w3.org/2000/svg" width="49" height="49" viewBox="0 0 49 49">
  <defs>
    <style>
      .cls-1 {
        fill: #000;
        stroke: #d2bfa4;
        stroke-width: 1px;
      }

      .cls-2 {
        fill: #d2bfa4;
        fill-rule: evenodd;
      }
    </style>
  </defs>
  <rect class="cls-1" x="0.5" y="0.5" width="48" height="48"/>
  <path class="cls-2" d="M320.743,98.212H310.135l5.253-4.726q1.863-1.7,3.191-2.924a22.706,22.706,0,0,0,2.226-2.329,10.371,10.371,0,0,0,1.435-2.3,12.116,12.116,0,0,0,.83-2.856,5.832,5.832,0,0,0-.085-2.533,5.03,5.03,0,0,0-1.154-2.125,5.67,5.67,0,0,0-2.205-1.445,8.918,8.918,0,0,0-3.207-.527,9.274,9.274,0,0,0-3.119.527,9.74,9.74,0,0,0-2.686,1.445,8.4,8.4,0,0,0-2,2.176,7.311,7.311,0,0,0-1.051,2.686h3.4a15.927,15.927,0,0,1,.7-2.023,6.508,6.508,0,0,1,1.031-1.7,4.879,4.879,0,0,1,1.464-1.173,4.255,4.255,0,0,1,2-.442,3.373,3.373,0,0,1,2.933,1.394,4.806,4.806,0,0,1,.582,3.74,9.316,9.316,0,0,1-1.059,2.924,20.589,20.589,0,0,1-1.846,2.754,30.425,30.425,0,0,1-2.228,2.516q-1.18,1.19-2.209,2.21l-7.691,7.174h15.674Z" transform="translate(-289.5 -64.5)"/>
</svg>
