<svg id="_3.svg" data-name="3.svg" xmlns="http://www.w3.org/2000/svg" width="49" height="49" viewBox="0 0 49 49">
  <defs>
    <style>
      .cls-1 {
        fill: #000;
        stroke: #d2bfa4;
        stroke-width: 1px;
      }

      .cls-2 {
        fill: #d2bfa4;
        fill-rule: evenodd;
      }
    </style>
  </defs>
  <rect class="cls-1" x="0.5" y="0.5" width="48" height="48"/>
  <path class="cls-2" d="M383.093,88.76a6.9,6.9,0,0,1,3.162.578,3.347,3.347,0,0,1,1.5,1.411,3.619,3.619,0,0,1,.394,1.717,10.206,10.206,0,0,1-.127,1.5,7.143,7.143,0,0,1-2.019,4.216,5.151,5.151,0,0,1-3.555,1.36,3.794,3.794,0,0,1-1.7-.357,3.316,3.316,0,0,1-1.822-2.3,4.37,4.37,0,0,1-.075-1.6h-3.4a4.057,4.057,0,0,0,.2,2.21,4.929,4.929,0,0,0,1.268,1.853,5.977,5.977,0,0,0,2.1,1.241,7.658,7.658,0,0,0,2.744.408,11.048,11.048,0,0,0,3.789-.612,9.923,9.923,0,0,0,2.914-1.615,8.437,8.437,0,0,0,1.982-2.3,7.989,7.989,0,0,0,.994-2.652,5.558,5.558,0,0,0,0-1.921,5.005,5.005,0,0,0-.658-1.768,4.623,4.623,0,0,0-1.273-1.36,4.325,4.325,0,0,0-1.877-.731l-0.362-.068,0.042-.238,0.4-.136a9.736,9.736,0,0,0,3.229-1.921A5.1,5.1,0,0,0,392.4,82.81a6.927,6.927,0,0,0,.019-2.414,4.3,4.3,0,0,0-.915-2.023,4.992,4.992,0,0,0-1.959-1.394,7.926,7.926,0,0,0-3.079-.527,9.827,9.827,0,0,0-3.417.527,7.67,7.67,0,0,0-2.376,1.36,6.423,6.423,0,0,0-1.494,1.836,7.417,7.417,0,0,0-.729,1.921h3.026a8.792,8.792,0,0,1,.842-2.074,4.454,4.454,0,0,1,1.075-1.275,3.41,3.41,0,0,1,1.267-.629,5.672,5.672,0,0,1,1.389-.17,4.006,4.006,0,0,1,1.869.391,2.915,2.915,0,0,1,1.158,1.054,3.722,3.722,0,0,1,.518,1.5,5.771,5.771,0,0,1-.054,1.751,5.338,5.338,0,0,1-.986,2.414,5.266,5.266,0,0,1-1.643,1.411,5.951,5.951,0,0,1-1.882.646,10.867,10.867,0,0,1-1.676.153Z" transform="translate(-359.5 -64.5)"/>
</svg>
