<svg id="_6.svg" data-name="6.svg" xmlns="http://www.w3.org/2000/svg" width="49" height="49" viewBox="0 0 49 49">
  <defs>
    <style>
      .cls-1 {
        fill: #000;
        stroke: #d2bfa4;
        stroke-width: 1px;
      }

      .cls-2 {
        fill: #d2bfa4;
        fill-rule: evenodd;
      }
    </style>
  </defs>
  <rect class="cls-1" x="0.5" y="0.5" width="48" height="48"/>
  <path class="cls-2" d="M600.166,80.464a2.26,2.26,0,0,0-.8-1.853,3.174,3.174,0,0,0-2.093-.663,5.326,5.326,0,0,0-2.926.782,6.651,6.651,0,0,0-2.086,2.193,13.891,13.891,0,0,0-1.43,3.383,42.332,42.332,0,0,0-.988,4.352h0.136l0.546-.782a7.081,7.081,0,0,1,8.191-2.4,5.236,5.236,0,0,1,2.047,1.411,5.779,5.779,0,0,1,1.24,2.414,8.2,8.2,0,0,1,.029,3.5,10.023,10.023,0,0,1-1.142,3.2,10.586,10.586,0,0,1-2.06,2.618,9.377,9.377,0,0,1-2.759,1.768,8.4,8.4,0,0,1-3.276.646,6.037,6.037,0,0,1-3.9-1.122,5.9,5.9,0,0,1-1.939-2.89,11.7,11.7,0,0,1-.474-3.961,31.728,31.728,0,0,1,.464-4.369,24.5,24.5,0,0,1,1.256-4.522,15.2,15.2,0,0,1,2.189-3.927,10.727,10.727,0,0,1,3.155-2.754,8.233,8.233,0,0,1,4.16-1.037,8.877,8.877,0,0,1,2.1.238,5.515,5.515,0,0,1,1.711.714,3.346,3.346,0,0,1,1.141,1.241,3.46,3.46,0,0,1,.359,1.819h-2.856ZM589.334,96a5.32,5.32,0,0,0,.765,2.023,3.15,3.15,0,0,0,1.343,1.156,3.96,3.96,0,0,0,1.62.357,5.541,5.541,0,0,0,1.487-.238,4.529,4.529,0,0,0,1.681-.952,7.014,7.014,0,0,0,1.541-1.989,10.849,10.849,0,0,0,1.061-3.315,9.594,9.594,0,0,0,.126-3.128,4.592,4.592,0,0,0-.751-2.006,3.013,3.013,0,0,0-1.311-1.054,4.023,4.023,0,0,0-1.509-.306,4.836,4.836,0,0,0-1.764.357,5.6,5.6,0,0,0-1.744,1.122,7.429,7.429,0,0,0-1.492,2.006,10.136,10.136,0,0,0-.973,3.009A8.443,8.443,0,0,0,589.334,96Z" transform="translate(-569.5 -64.5)"/>
</svg>
