<svg xmlns="http://www.w3.org/2000/svg" width="155.593" height="69.81" viewBox="0 0 155.593 69.81">
  <defs>
    <style>
      .cls-1 {
        fill: #029b41;
        fill-rule: evenodd;
      }
    </style>
  </defs>
  <path class="cls-1" d="M718.943,5436.97v57.32h7.8v-24.64h23.52v-6.32h-23.52v-20.04h27.52v-6.32h-35.32Zm69.52,0h-7.88l-22.92,57.32h6a2.576,2.576,0,0,0,1.68-.56,3.175,3.175,0,0,0,.96-1.28l5.36-13.84h25.72l5.36,13.84a3.236,3.236,0,0,0,.96,1.32,2.617,2.617,0,0,0,1.68.52h6Zm-5.64,12.76c0.266-.7.54-1.5,0.82-2.42s0.566-1.93.86-3.02a43.528,43.528,0,0,0,1.72,5.4l9,23.32h-21.4Zm87,4.1a27.252,27.252,0,0,0-5.76-9.28,25.84,25.84,0,0,0-8.94-6.06,31.853,31.853,0,0,0-23.06,0,25.881,25.881,0,0,0-8.92,6.06,27.252,27.252,0,0,0-5.76,9.28,35.263,35.263,0,0,0,0,23.64,27.164,27.164,0,0,0,5.76,9.26,25.922,25.922,0,0,0,8.92,6.02,30.118,30.118,0,0,0,11.52,2.14,32.788,32.788,0,0,0,5.14-.4,34.128,34.128,0,0,0,4.74-1.12l10.08,10.96a5.2,5.2,0,0,0,2.04,1.4,7.755,7.755,0,0,0,2.56.4h6.4l-14.72-15.88a26.214,26.214,0,0,0,5.04-4.44,26.727,26.727,0,0,0,3.8-5.7,30.234,30.234,0,0,0,2.38-6.78,34.948,34.948,0,0,0,.82-7.68A33.034,33.034,0,0,0,869.822,5453.83Zm-7.36,21.28a20.2,20.2,0,0,1-4.08,7.08,17.581,17.581,0,0,1-6.4,4.44,23.57,23.57,0,0,1-16.76,0,17.759,17.759,0,0,1-6.42-4.44,20.021,20.021,0,0,1-4.1-7.08,31.859,31.859,0,0,1,0-18.94,19.85,19.85,0,0,1,4.1-7.1,17.807,17.807,0,0,1,6.42-4.46,23.288,23.288,0,0,1,16.76,0,17.629,17.629,0,0,1,6.4,4.46,20.022,20.022,0,0,1,4.08,7.1A31.859,31.859,0,0,1,862.462,5475.11Z" transform="translate(-718.938 -5436.31)"/>
</svg>
