<svg id="tsuyomi.svg" xmlns="http://www.w3.org/2000/svg" width="140" height="140" viewBox="0 0 140 140">
  <defs>
    <style>
      .cls-1 {
        fill: #ffac0f;
      }

      .cls-2 {
        fill: #fff;
        fill-rule: evenodd;
      }
    </style>
  </defs>
  <circle class="cls-1" cx="70" cy="70" r="68"/>
  <path id="特長" class="cls-2" d="M1829.17,1057.28v-3.67h6.76v-10.48h-6.76v-2.41c0.64-.11.9-0.29,0.93-0.65l-1.58-.07v-0.04c1.8-.1,3.6-0.18,5.43-0.28a13.982,13.982,0,0,1,1.01,2.01l3.85-1.87a32.7,32.7,0,0,0-5.58-7.63l-3.52,1.69c0.64,0.72,1.29,1.55,1.9,2.38l-7.34.1a48.922,48.922,0,0,0,3.13-5.32,1.184,1.184,0,0,0,1.05-.47l-5.08-1.44a44.546,44.546,0,0,1-3.6,7.31h-3.13l1.22,4.53a0.677,0.677,0,0,0,.65-0.54c1.8-.07,4.07-0.14,6.52-0.29v2.99h-6.48v10.48h6.48v3.81c-3.28.11-6.23,0.18-8.5,0.22l1.3,4.68a0.741,0.741,0,0,0,.68-0.54c3.85-.22,9.65-0.58,15.37-1.05a16.911,16.911,0,0,1,1.05,2.52l3.7-1.8a29.439,29.439,0,0,0-4.75-7.84l-3.42,1.58c0.47,0.61.94,1.3,1.41,2.02Zm-6.84-10.55h2.7v3.28h-2.7v-3.28Zm9.68,3.28h-2.84v-3.28h2.84v3.28Zm-22.89-3.75,0.32-3.67h2.74v1.08h4.1v-13.28h-11.23v3.99h7.13v4.43h-6.19c-0.22,3.89-.69,8.86-1.19,12.02l3.74,0.58c0.07-.43.14-0.94,0.18-1.44h3.53c-0.29,5.83-.69,8.21-1.26,8.85a1.2,1.2,0,0,1-1.01.44c-0.79,0-2.34,0-3.96-.15a9.684,9.684,0,0,1,1.19,3.93c0.72,0.03,1.44.03,2.12,0.03,2.81,0,4-.29,5.08-1.55,1.04-1.26,1.47-4.85,1.87-13.89l0.11-1.19-2.2-.25-0.9.07h-4.17Zm62.19-6.22a58.666,58.666,0,0,1-1.48,7.33,36.608,36.608,0,0,0-7.47-1.97c0.81-2.99,1.77-7.65,2.33-10.91a2.39,2.39,0,0,0,.96-0.74l-3.7-1.89a2.036,2.036,0,0,1-.96.52c-1.74.15-8.18,0.59-12.21,0.74l0.48,4.88a1.5,1.5,0,0,0,.92-0.59c2.82-.15,7.44-0.55,9.22-0.74a70,70,0,0,1-1.59,8.4c-6-.04-12.18,3-12.18,8.85,0,2.73,1.04,6.66,5.96,6.66,4.44,0,7.18-2.19,9.73-11.14a34.918,34.918,0,0,1,7.29,2.18c-1.55,4.55-3.77,7.92-7.18,10.14a26.418,26.418,0,0,1,3.85,2.59c3.48-2.33,5.88-6.07,7.59-10.8,1.55,0.77,3.14,1.62,4.84,2.55l2.04-4.48c-1.82-.92-3.81-1.85-5.52-2.59,0.63-2.26,1.26-4.99,1.67-7.03a1.055,1.055,0,0,0,1.11-.7Zm-19.61,16.43c-1.22,0-1.92-1-1.92-2.52,0-2.92,2.99-4.85,7.03-4.88C1854.96,1055.62,1853.51,1056.47,1851.7,1056.47Z" transform="translate(-1770 -997)"/>
</svg>
