<svg xmlns="http://www.w3.org/2000/svg" width="124" height="124" viewBox="0 0 124 124">
  <defs>
    <style>
      .cls-1 {
        fill: none;
        stroke: #7db100;
        stroke-width: 4px;
      }

      .cls-2 {
        fill: #7db100;
        fill-rule: evenodd;
      }
    </style>
  </defs>
  <rect class="cls-1" x="2" y="2" width="120" height="120"/>
  <path class="cls-2" d="M230.442,580.264v4.679h4.607v-8.675H221.8v-3.131c0.72-.108,1.008-0.324,1.044-0.72l-5.652-.288v4.139h-13.03v8.675h4.392v-4.679h21.885Zm5.615,6.119H217.771c0.648-1.512,1.3-2.952,1.836-4.32a0.917,0.917,0,0,0,1.08-.539l-5.363-1.008c-0.72,1.835-1.548,3.851-2.448,5.867h-9.719v4.067h7.883c-1.3,2.808-2.591,5.436-3.707,7.487l4.571,1.188,0.468-.9c1.26,0.4,2.592.828,3.924,1.3a36.469,36.469,0,0,1-11.843,2.808,16.648,16.648,0,0,1,2.3,3.779c5.975-.791,10.834-2.231,14.542-4.679a65.035,65.035,0,0,1,9.719,4.715l3.419-3.6a68.855,68.855,0,0,0-9.467-4.284,19.977,19.977,0,0,0,4.068-7.487,1.183,1.183,0,0,0,.828-0.324h6.191v-4.067Zm-11.842,4.067a13.7,13.7,0,0,1-3.672,6.192c-2.232-.756-4.427-1.44-6.479-1.98,0.648-1.332,1.3-2.772,1.944-4.212h8.207Zm44.208-11.556a55.642,55.642,0,0,0-12.507-6.475l-2.849,3.441a51.288,51.288,0,0,1,12.433,6.956Zm-15.5,21.795c0,4.662,1.295,6.142,6.069,6.142h6.068c4.477,0,5.7-2.22,6.179-9.177a13.629,13.629,0,0,1-4.144-1.924c-0.259,5.847-.555,7.031-2.405,7.031H259.58c-1.777,0-2.036-.259-2.036-2.072V583.964a0.944,0.944,0,0,0,1-.7l-5.625-.333v17.762Zm25.569-3.146a39.574,39.574,0,0,0-6.772-13.431l-4.07,2.035a40.87,40.87,0,0,1,6.328,13.654Zm-31.9,3.442c2.479-3.664,3.441-9.362,4-14.5l-4.366-.888c-0.481,4.958-1.554,9.805-3.775,13.025Z" transform="translate(-178 -551)"/>
</svg>
