<svg xmlns="http://www.w3.org/2000/svg" width="124" height="124" viewBox="0 0 124 124">
  <defs>
    <style>
      .cls-1 {
        fill: #03ad18;
      }

      .cls-2 {
        fill: #fff;
        fill-rule: evenodd;
      }
    </style>
  </defs>
  <rect class="cls-1" x="2" y="2" width="120" height="120"/>
  <path class="cls-2" d="M1008.85,577.384a21.736,21.736,0,0,1-4.95,1.332c0.06-1.656.12-3.312,0.22-4.716a0.859,0.859,0,0,0,.84-0.827l-5.114-.144v6.119c-2.138.108-4.535,0.144-7.224,0.144l0.065,4.319c2.624,0,5.021-.036,7.159-0.18v6.156a21.028,21.028,0,0,0-4.114,2.555c-2.43,1.98-3.92,4.5-3.92,6.947a5.783,5.783,0,0,0,6.026,6.156c3.982,0,5.892-2.916,5.892-6.228V591.89a20.3,20.3,0,0,1,6.09-1.224c3.47,0,5.35,2.052,5.35,4.932,0,2.771-1.39,4.823-4.02,4.823a5.157,5.157,0,0,1-4.08-2.448,26.294,26.294,0,0,1-2.01,3.456,7.4,7.4,0,0,0,6.06,3.2c5.54,0,8.2-3.816,8.2-9.035,0-5.795-4.09-8.783-9.4-8.783a21.791,21.791,0,0,0-6.19,1.188c0-1.512.04-3.24,0.04-4.932a30.9,30.9,0,0,0,5.6-1.223Zm11.53,4.1a24.1,24.1,0,0,0-7.61-4.68l-1.97,3.744a24.67,24.67,0,0,1,7.28,4.787Zm-20.5,17.349c0,1.728-.842,2.556-2.17,2.556a2.12,2.12,0,0,1-2.2-2.412c0-2.411,2.462-4.031,4.341-5.291C999.878,595.814,999.878,597.937,999.878,598.837Zm51.772-20.157H1044c0.52-1.584.94-3.2,1.3-4.787a0.735,0.735,0,0,0,.87-0.468l-4.6-1.3c-0.94,4.931-2.62,10.078-4.66,13.1-0.33-.54-0.62-1.044-0.94-1.548-0.84.468-1.72,0.936-2.75,1.548,0.48,0.828.97,1.728,1.45,2.628l-4.05.072a81.584,81.584,0,0,0,6.39-9.287,1.055,1.055,0,0,0,.94-0.36l-3.79-1.944a67.781,67.781,0,0,1-3.44,6.155q-0.54-.7-1.26-1.511a59.766,59.766,0,0,0,3.69-6.66,0.82,0.82,0,0,0,.88-0.4l-3.89-1.763a40.027,40.027,0,0,1-2.92,6.587l-0.71-.648-1.78,2.952a30.955,30.955,0,0,1,3.95,4.535c-0.58.864-1.17,1.656-1.72,2.412h-2.36l0.74,4.319a0.715,0.715,0,0,0,.62-0.5c1.17-.072,2.56-0.144,4.15-0.252v2.916l-3.83-1.044a31,31,0,0,1-1.81,8.5,16.382,16.382,0,0,1,2.88,1.584,35.139,35.139,0,0,0,2.11-8.639,0.587,0.587,0,0,0,.65-0.252v11.482h3.56V591.314l2.43-.18a16.3,16.3,0,0,1,.61,1.872c0.94-.576,1.88-1.152,2.98-1.8a27.744,27.744,0,0,0-2.62-5.651,19.643,19.643,0,0,1,2.95,2.232,30.933,30.933,0,0,0,2.56-5.04h8.13c-0.33,12.419-.68,17.674-1.62,18.754a1.473,1.473,0,0,1-1.39.612c-0.85,0-2.69,0-4.73-.18A10.411,10.411,0,0,1,1044.2,606c0.9,0.036,1.81.072,2.69,0.072,3.37,0,4.53-.5,5.57-2.123,1.26-1.836,1.65-7.487,2.04-23.757,0.03-.468.06-1.044,0.06-1.4l-2.07-.144Zm-11.57,10.079a35.231,35.231,0,0,1,3.99,8.351l3.4-1.944a35.889,35.889,0,0,0-4.24-8.171Zm-0.77,11.77a52.416,52.416,0,0,0-2.34-7.091l-3.04,1.116a50.077,50.077,0,0,1,2.17,7.307Zm45.83-18.61h-10.3v-2.375h12.47v-4h-12.47v-2.375a0.909,0.909,0,0,0,.91-0.72l-4.96-.288v3.383h-12.24v4h12.24v2.375h-9.68V593.8h7.74a30.144,30.144,0,0,1-11.34,7.847,23.943,23.943,0,0,1,2.79,3.78,33.6,33.6,0,0,0,10.49-8.063v8.746h4.05v-9.034a33.569,33.569,0,0,0,10.56,8.315,19.241,19.241,0,0,1,2.85-3.888,30.479,30.479,0,0,1-11.34-7.7h8.23V581.919Zm-14.35,3.816v4.247h-5.93v-4.247h5.93Zm10.37,4.247h-6.32v-4.247h6.32v4.247Z" transform="translate(-978 -551)"/>
</svg>
