<svg xmlns="http://www.w3.org/2000/svg" width="82" height="48"><path fill="none" stroke="#06f" stroke-width="2" d="M1 1h80v46H1z"/><path d="M9 12v25h4V27h11v-4H13v-7h13v-4H9zm31.71-.23H35.9l-9.94 25.31h3.66a1.544 1.544 0 001-.33 1.633 1.633 0 00.55-.74l1.89-5.16h10.49l1.89 5.16a1.683 1.683 0 00.56.76 1.58 1.58 0 001.01.31h3.64zm-3.36 7.37c.15-.38.31-.83.46-1.35s.32-1.06.49-1.66c.16.6.32 1.15.49 1.66s.33.94.47 1.32l3.08 8.41h-8.07zm15.19 17.94h4.41a1.051 1.051 0 00.7-.25 3.1 3.1 0 00.47-.56l5.62-8.96a3.583 3.583 0 00.17-.34 3.518 3.518 0 00.16-.39l5.86 9.69a2.337 2.337 0 00.48.56 1.133 1.133 0 00.77.25h4.7L67.5 23.87l8.16-12.1h-4.52a1.151 1.151 0 00-1 .65l-5.26 8.31a4.133 4.133 0 00-.25.45c-.07.15-.13.3-.19.45l-5.76-9.3a1.231 1.231 0 00-.39-.42 1.43 1.43 0 00-.71-.14h-4.69l8.07 12.29z" fill="#06f" fill-rule="evenodd"/></svg>