<svg data-name="001.svg" xmlns="http://www.w3.org/2000/svg" width="178" height="178" viewBox="0 0 178 178">
  <defs>
    <style>
      .cls-1 {
        fill: none;
        stroke: #fff;
        stroke-width: 12px;
      }

      .cls-2 {
        fill: #fff;
        fill-rule: evenodd;
      }
    </style>
  </defs>
  <circle class="cls-1" cx="89" cy="89" r="83"/>
  <path class="cls-2" d="M2132.76,7515c0.1-.15.2-0.3,0.29-0.45a5.043,5.043,0,0,0,.26-0.52,2.437,2.437,0,0,0,.14-0.28c0.02-.05.03-0.1,0.05-0.15,0.07-.19.13-0.38,0.19-0.57,0.04-.15.09-0.3,0.13-0.46,0.04-.18.06-0.37,0.09-0.56,0.02-.16.05-0.32,0.06-0.48a3.723,3.723,0,0,0,.01-0.58,3.533,3.533,0,0,0-.01-0.46,5.6,5.6,0,0,0-.07-0.59,3.54,3.54,0,0,0-.08-0.45c-0.04-.19-0.1-0.38-0.16-0.58-0.04-.15-0.09-0.29-0.14-0.44-0.02-.06-0.04-0.13-0.07-0.2-0.05-.12-0.11-0.22-0.17-0.34-0.07-.14-0.14-0.29-0.22-0.43a5.185,5.185,0,0,0-.31-0.5c-0.09-.13-0.18-0.26-0.27-0.38-0.13-.16-0.27-0.32-0.41-0.47-0.07-.07-0.12-0.15-0.19-0.22l-33.9-33.77a7.223,7.223,0,1,0-10.23,10.2l21.54,21.46h-52.06a7.228,7.228,0,0,0-6,3.18,7.1,7.1,0,0,0-1.24,4.04,7.221,7.221,0,0,0,7.24,7.21h52.05l-21.54,21.46a7.23,7.23,0,0,0,10.24,10.21l33.9-33.79c0.07-.07.13-0.15,0.2-0.22l0.39-.45C2132.57,7515.28,2132.67,7515.14,2132.76,7515Z" transform="translate(-2003 -7422)"/>
</svg>
