<svg id="_6.svg" data-name="6.svg" xmlns="http://www.w3.org/2000/svg" width="57" height="57" viewBox="0 0 57 57">
  <defs>
    <style>
      .cls-1, .cls-2 {
        fill: #c3e840;
      }

      .cls-2 {
        stroke: #fff;
        stroke-width: 1px;
        stroke-dasharray: 3 2;
      }

      .cls-3 {
        fill: #97683f;
        fill-rule: evenodd;
      }
    </style>
  </defs>
  <circle class="cls-1" cx="28.5" cy="28.5" r="28.5"/>
  <circle class="cls-2" cx="28.438" cy="28.5" r="25.5"/>
  <path class="cls-3" d="M599.166,200.464a2.261,2.261,0,0,0-.8-1.853,3.174,3.174,0,0,0-2.093-.663,5.328,5.328,0,0,0-2.926.782,6.658,6.658,0,0,0-2.086,2.193,13.9,13.9,0,0,0-1.43,3.383,42.368,42.368,0,0,0-.988,4.352h0.136l0.546-.782a7.081,7.081,0,0,1,8.191-2.4,5.24,5.24,0,0,1,2.047,1.411,5.782,5.782,0,0,1,1.24,2.414,8.2,8.2,0,0,1,.029,3.5,10.018,10.018,0,0,1-1.142,3.2,10.579,10.579,0,0,1-2.06,2.618,9.373,9.373,0,0,1-2.759,1.768,8.4,8.4,0,0,1-3.276.646,6.036,6.036,0,0,1-3.9-1.122,5.9,5.9,0,0,1-1.939-2.89,11.7,11.7,0,0,1-.474-3.961,31.731,31.731,0,0,1,.464-4.369,24.51,24.51,0,0,1,1.256-4.522,15.207,15.207,0,0,1,2.189-3.927,10.738,10.738,0,0,1,3.155-2.754,8.235,8.235,0,0,1,4.16-1.037,8.9,8.9,0,0,1,2.1.238,5.525,5.525,0,0,1,1.711.714,3.349,3.349,0,0,1,1.141,1.241,3.46,3.46,0,0,1,.359,1.819h-2.856ZM588.334,216a5.318,5.318,0,0,0,.765,2.023,3.149,3.149,0,0,0,1.343,1.156,3.96,3.96,0,0,0,1.62.357,5.533,5.533,0,0,0,1.487-.238,4.524,4.524,0,0,0,1.681-.952,7.014,7.014,0,0,0,1.541-1.989,10.849,10.849,0,0,0,1.061-3.315,9.594,9.594,0,0,0,.126-3.128,4.6,4.6,0,0,0-.751-2.006,3.016,3.016,0,0,0-1.311-1.054,4.023,4.023,0,0,0-1.509-.306,4.836,4.836,0,0,0-1.764.357,5.6,5.6,0,0,0-1.744,1.122,7.432,7.432,0,0,0-1.492,2.006,10.144,10.144,0,0,0-.973,3.009A8.443,8.443,0,0,0,588.334,216Z" transform="translate(-565 -180)"/>
</svg>
