<svg xmlns="http://www.w3.org/2000/svg" width="128" height="88" viewBox="0 0 128 88">
  <defs>
    <style>
      .cls-1 {
        fill: #0084d0;
      }

      .cls-1, .cls-2 {
        fill-rule: evenodd;
      }

      .cls-2 {
        fill: #0084d0;
      }
    </style>
  </defs>
  <path class="cls-1" d="M1031.01,172.16l2.83,2.828L948.988,259.84l-2.829-2.828Z" transform="translate(-905.25 -171.719)"/>
  <path class="cls-2" d="M912.107,210.857a62.24,62.24,0,0,1,3.78-7.83c0.63-1.08,1.26-2.16,1.98-3.15a45.954,45.954,0,0,1,3.42-5.129,76.22,76.22,0,0,1,7.56-9.9,42.359,42.359,0,0,1,3.689-3.96,38.863,38.863,0,0,1,3.51-3.06c3.24-2.88,6.39-4.41,8.91-4.41,2.25,0,3.51,1.17,3.87,3.51a12.483,12.483,0,0,1-.27,3.42,49.541,49.541,0,0,1-1.89,5.94,94.093,94.093,0,0,1-7.02,13.229,126.917,126.917,0,0,1-9.09,12.24,58.66,58.66,0,0,1-4.5,4.77,19.089,19.089,0,0,1-4.32,3.6c-2.79,1.889-5.13,2.879-7.11,2.879-2.43,0-3.87-1.08-4.23-3.239a7.655,7.655,0,0,1,0-4.05,12.213,12.213,0,0,1,.63-2.25C911.387,212.657,911.747,211.847,912.107,210.857Zm1.17,13.949a17.612,17.612,0,0,0,7.11-1.8,40.117,40.117,0,0,0,8.28-5.4,69.418,69.418,0,0,0,11.789-12.69,87.44,87.44,0,0,0,5.13-7.65,61.072,61.072,0,0,0,5.94-14.4,14.144,14.144,0,0,0,.18-6.39c-0.72-3.15-2.88-4.769-6.57-4.769a15.591,15.591,0,0,0-5.67,1.169,36.2,36.2,0,0,0-7.2,3.87,49.87,49.87,0,0,0-8.819,7.38,102.073,102.073,0,0,0-8.82,10.35,45.168,45.168,0,0,0-2.7,4.049c-0.45.72-.99,1.53-1.44,2.34a20.331,20.331,0,0,1-1.62,2.7c-0.27.54-.72,1.62-1.44,3.15a49.005,49.005,0,0,0-1.71,5.58,14.924,14.924,0,0,0,0,7.47C906.887,223.1,909.407,224.806,913.277,224.806ZM981.5,179.9l-31.409,42.658-0.36.45-0.18.27v0.54l0.81,0.18,3.6-.27a3.018,3.018,0,0,0,1.44-.54,8.044,8.044,0,0,0,.81-1.08l34.469-48.058,0.45-.54,0.27-.36V172.7l-0.54-.09-2.88.27q-1.215.135-4.59,2.97a48.929,48.929,0,0,1-3.69,3.33c-0.99.81-1.98,1.53-2.97,2.25-1.08.81-2.16,1.53-3.51,2.52l-8.639,5.76-0.36.54,0.27,0.72h0.36a72.908,72.908,0,0,0,8.009-4.86c1.35-.99,2.88-1.98,4.41-3.15C978.975,181.788,980.325,180.888,981.5,179.9Z" transform="translate(-905.25 -171.719)"/>
</svg>
