<svg xmlns="http://www.w3.org/2000/svg" width="128" height="88" viewBox="0 0 128 88">
  <defs>
    <style>
      .cls-1 {
        fill: #0084d0;
      }

      .cls-1, .cls-2 {
        fill-rule: evenodd;
      }

      .cls-2 {
        fill: #0085d0;
      }
    </style>
  </defs>
  <path class="cls-1" d="M1031.01,313.159l2.83,2.829-84.852,84.853-2.829-2.829Z" transform="translate(-905.25 -312.719)"/>
  <path class="cls-2" d="M912.107,351.857a62.24,62.24,0,0,1,3.78-7.83c0.63-1.08,1.26-2.16,1.98-3.15a45.954,45.954,0,0,1,3.42-5.129,76.22,76.22,0,0,1,7.56-9.9,42.359,42.359,0,0,1,3.689-3.96,38.863,38.863,0,0,1,3.51-3.06c3.24-2.88,6.39-4.41,8.91-4.41,2.25,0,3.51,1.17,3.87,3.51a12.483,12.483,0,0,1-.27,3.42,49.541,49.541,0,0,1-1.89,5.94,94.093,94.093,0,0,1-7.02,13.229,126.917,126.917,0,0,1-9.09,12.24,58.66,58.66,0,0,1-4.5,4.77,19.089,19.089,0,0,1-4.32,3.6c-2.79,1.889-5.13,2.879-7.11,2.879-2.43,0-3.87-1.08-4.23-3.239a7.655,7.655,0,0,1,0-4.05,12.213,12.213,0,0,1,.63-2.25C911.387,353.657,911.747,352.847,912.107,351.857Zm1.17,13.949a17.612,17.612,0,0,0,7.11-1.8,40.117,40.117,0,0,0,8.28-5.4,69.418,69.418,0,0,0,11.789-12.69,87.44,87.44,0,0,0,5.13-7.65,61.072,61.072,0,0,0,5.94-14.4,14.144,14.144,0,0,0,.18-6.39c-0.72-3.15-2.88-4.769-6.57-4.769a15.591,15.591,0,0,0-5.67,1.169,36.2,36.2,0,0,0-7.2,3.87,49.87,49.87,0,0,0-8.819,7.38,102.073,102.073,0,0,0-8.82,10.35,45.168,45.168,0,0,0-2.7,4.049c-0.45.72-.99,1.53-1.44,2.34a20.331,20.331,0,0,1-1.62,2.7c-0.27.54-.72,1.62-1.44,3.15a49.005,49.005,0,0,0-1.71,5.58,14.924,14.924,0,0,0,0,7.47C906.887,364.1,909.407,365.806,913.277,365.806Zm26.19-.27,7.2-4.949c0.81,0.27,1.709.72,2.879,1.26,2.07,0.989,3.24,1.529,3.96,1.889q4.455,2.16,6.21,2.16c1.89,0,4.14-.9,6.84-2.79a59.117,59.117,0,0,0,9.359-7.919l0.09-.36-0.54-.54-0.36.18a37.332,37.332,0,0,1-6.3,4.86,10.418,10.418,0,0,1-4.77,1.53,8.9,8.9,0,0,1-3.42-1.08c-1.71-.81-3.6-1.8-6.03-2.97l-1.89-1.08,2.43-1.71c21.689-15.84,33.569-26.1,35.459-30.779a22.472,22.472,0,0,0,.72-2.25,6.245,6.245,0,0,0-.72-5.04c-1.17-1.98-3.15-2.969-6.12-2.969-3.69,0-7.56,1.529-11.52,4.5a38.646,38.646,0,0,0-10.259,12.06l0.18,0.54h1.08l0.45-.36a32.627,32.627,0,0,1,8.369-9.99c3.33-2.61,6.3-3.96,8.91-3.96,1.8,0,2.88.54,3.33,1.62a5.1,5.1,0,0,1,.18,2.61,9.979,9.979,0,0,1-.63,1.98c-1.71,3.87-5.31,8.46-11.07,14.22-2.789,2.609-6.029,5.579-9.9,8.909-4.05,3.33-8.28,6.75-12.69,10.08l-0.45-.18h-0.81l-0.72.09-0.54.36-9.539,8.819-0.36.54Z" transform="translate(-905.25 -312.719)"/>
</svg>
