<svg xmlns="http://www.w3.org/2000/svg" width="128" height="88"><path d="M125.76.44l2.83 2.829-84.852 84.853-2.829-2.829zM6.857 39.138a62.24 62.24 0 013.78-7.83c.63-1.08 1.26-2.16 1.98-3.15a45.954 45.954 0 013.42-5.129 76.22 76.22 0 017.56-9.9 42.359 42.359 0 013.689-3.96 38.863 38.863 0 013.51-3.06c3.24-2.88 6.39-4.41 8.91-4.41 2.25 0 3.51 1.17 3.87 3.51a12.483 12.483 0 01-.27 3.42 49.541 49.541 0 01-1.89 5.94 94.093 94.093 0 01-7.02 13.229 126.917 126.917 0 01-9.09 12.24 58.66 58.66 0 01-4.5 4.77 19.089 19.089 0 01-4.32 3.6c-2.79 1.889-5.13 2.879-7.11 2.879-2.43 0-3.87-1.08-4.23-3.239a7.655 7.655 0 010-4.05 12.213 12.213 0 01.63-2.25c.361-.81.721-1.62 1.081-2.61zm1.17 13.949a17.612 17.612 0 007.11-1.8 40.117 40.117 0 008.28-5.4 69.418 69.418 0 0011.789-12.69 87.44 87.44 0 005.13-7.65 61.072 61.072 0 005.94-14.4 14.144 14.144 0 00.18-6.39c-.72-3.15-2.88-4.769-6.57-4.769a15.591 15.591 0 00-5.67 1.169 36.2 36.2 0 00-7.2 3.87 49.87 49.87 0 00-8.819 7.38 102.073 102.073 0 00-8.82 10.35 45.168 45.168 0 00-2.7 4.049c-.45.72-.99 1.53-1.44 2.34a20.331 20.331 0 01-1.62 2.7c-.27.54-.72 1.62-1.44 3.15a49.005 49.005 0 00-1.71 5.58 14.924 14.924 0 000 7.47c1.17 3.335 3.69 5.041 7.56 5.041zm27.36-2.61l-.09.45a7.834 7.834 0 003.24 1.62 17.4 17.4 0 004.769.54 25.045 25.045 0 007.74-1.35 39.316 39.316 0 007.83-3.779c7.2-4.68 12.059-9.72 14.129-14.31.09-.27.18-.63.36-1.08l.27-.99q.675-3.78-1.35-5.94c-1.71-1.979-4.68-2.969-9.089-2.969q9.989-3.375 14.849-6.75c3.6-2.43 6.03-5.04 7.2-8.01a5.872 5.872 0 00.72-1.98 4.236 4.236 0 00-.54-3.69C84.345.799 82.635.08 80.205.08a19.092 19.092 0 00-8.64 2.609 40.2 40.2 0 00-9.539 7.29l-.09.45.54.54h.45a45.748 45.748 0 017.739-5.94 13.255 13.255 0 016.12-2.07 2.721 2.721 0 012.7 1.35 2.931 2.931 0 01.27 2.16 11.347 11.347 0 01-.45 1.35c-2.79 6.39-10.44 11.79-23.489 16.56l-.45.45-.09.809.63.27 3.87-.9 2.61-.36c2.34 0 3.96.719 4.949 2.159a5.454 5.454 0 01.36 3.69 16.982 16.982 0 01-.54 1.89 30.88 30.88 0 01-6.029 8.64 37.057 37.057 0 01-8.73 7.2 23.929 23.929 0 01-4.5 2.069c-1.35.36-2.25.63-2.88.72-.45 0-1.35.09-2.52.09a9.71 9.71 0 01-4.679-.9 8.55 8.55 0 01-1.26-.449l-.54.179z" fill-rule="evenodd" fill="#0084d0"/></svg>