<svg xmlns="http://www.w3.org/2000/svg" width="128" height="88" viewBox="0 0 128 88">
  <defs>
    <style>
      .cls-1 {
        fill: #0084d0;
      }

      .cls-1, .cls-2 {
        fill-rule: evenodd;
      }

      .cls-2 {
        fill: #0084d0;
      }
    </style>
  </defs>
  <path class="cls-1" d="M1031.01,595.16l2.83,2.828L948.988,682.84l-2.829-2.828Z" transform="translate(-905.25 -594.719)"/>
  <path class="cls-2" d="M912.107,633.857a62.24,62.24,0,0,1,3.78-7.83c0.63-1.08,1.26-2.16,1.98-3.15a45.954,45.954,0,0,1,3.42-5.129,76.22,76.22,0,0,1,7.56-9.9,42.359,42.359,0,0,1,3.689-3.96,38.863,38.863,0,0,1,3.51-3.06c3.24-2.88,6.39-4.41,8.91-4.41,2.25,0,3.51,1.17,3.87,3.51a12.483,12.483,0,0,1-.27,3.42,49.541,49.541,0,0,1-1.89,5.94,94.093,94.093,0,0,1-7.02,13.229,126.917,126.917,0,0,1-9.09,12.24,58.66,58.66,0,0,1-4.5,4.77,19.089,19.089,0,0,1-4.32,3.6c-2.79,1.889-5.13,2.879-7.11,2.879-2.43,0-3.87-1.08-4.23-3.239a7.655,7.655,0,0,1,0-4.05,12.213,12.213,0,0,1,.63-2.25C911.387,635.657,911.747,634.847,912.107,633.857Zm1.17,13.949a17.612,17.612,0,0,0,7.11-1.8,40.117,40.117,0,0,0,8.28-5.4,69.418,69.418,0,0,0,11.789-12.69,87.44,87.44,0,0,0,5.13-7.65,61.072,61.072,0,0,0,5.94-14.4,14.144,14.144,0,0,0,.18-6.39c-0.72-3.15-2.88-4.769-6.57-4.769a15.591,15.591,0,0,0-5.67,1.169,36.2,36.2,0,0,0-7.2,3.87,49.87,49.87,0,0,0-8.819,7.38,102.073,102.073,0,0,0-8.82,10.35,45.168,45.168,0,0,0-2.7,4.049c-0.45.72-.99,1.53-1.44,2.34a20.331,20.331,0,0,1-1.62,2.7c-0.27.54-.72,1.62-1.44,3.15a49.005,49.005,0,0,0-1.71,5.58,14.924,14.924,0,0,0,0,7.47C906.887,646.1,909.407,647.806,913.277,647.806ZM970.336,629.9l-11.07,15.839a1.344,1.344,0,0,0-.54.54l-0.36.72-0.09.36,0.45,0.09h0.36l4.86-.99,0.9-.36,0.81-.99,10.529-15.479,2.61-.09,0.63-.45,0.54-.99-0.36-.36h-2.16l7.74-11.339,0.18-.27,0.18-.36,0.09-.54-0.63-.27-3.51.45-0.99.36a4.243,4.243,0,0,0-.9.9l-7.919,11.339-19.44.36c4.68-3.6,9.54-7.47,14.67-11.519s9.359-7.29,12.329-9.9c7.38-6.12,11.25-9.72,11.61-10.71l0.18-.63a0.673,0.673,0,0,0-.54-0.269l-6.21,1.169q-1.485.4-3.78,2.97l-1.44,1.53c-3.87,3.96-8.279,8.37-13.409,13.14-2.16,1.89-4.68,4.32-7.92,7.2-2.79,2.52-5.67,5.13-8.82,7.74l-0.45.63v0.72l0.36,0.09Z" transform="translate(-905.25 -594.719)"/>
</svg>
