<svg xmlns="http://www.w3.org/2000/svg" width="128" height="88"><path d="M125.76.441l2.83 2.828-84.852 84.852-2.829-2.828zM6.857 39.138a62.24 62.24 0 013.78-7.83c.63-1.08 1.26-2.16 1.98-3.15a45.954 45.954 0 013.42-5.129 76.22 76.22 0 017.56-9.9 42.359 42.359 0 013.689-3.96 38.863 38.863 0 013.51-3.06c3.24-2.88 6.39-4.41 8.91-4.41 2.25 0 3.51 1.17 3.87 3.51a12.483 12.483 0 01-.27 3.42 49.541 49.541 0 01-1.89 5.94 94.093 94.093 0 01-7.02 13.229 126.917 126.917 0 01-9.09 12.24 58.66 58.66 0 01-4.5 4.77 19.089 19.089 0 01-4.32 3.6c-2.79 1.889-5.13 2.879-7.11 2.879-2.43 0-3.87-1.08-4.23-3.239a7.655 7.655 0 010-4.05 12.213 12.213 0 01.63-2.25c.361-.81.721-1.62 1.081-2.61zm1.17 13.949a17.612 17.612 0 007.11-1.8 40.117 40.117 0 008.28-5.4 69.418 69.418 0 0011.789-12.69 87.44 87.44 0 005.13-7.65 61.072 61.072 0 005.94-14.4 14.144 14.144 0 00.18-6.39c-.72-3.15-2.88-4.769-6.57-4.769a15.591 15.591 0 00-5.67 1.169 36.2 36.2 0 00-7.2 3.87 49.87 49.87 0 00-8.819 7.38 102.073 102.073 0 00-8.82 10.35 45.168 45.168 0 00-2.7 4.049c-.45.72-.99 1.53-1.44 2.34a20.331 20.331 0 01-1.62 2.7c-.27.54-.72 1.62-1.44 3.15a49.005 49.005 0 00-1.71 5.58 14.924 14.924 0 000 7.47c1.17 3.335 3.69 5.041 7.56 5.041zm57.059-17.906L54.016 51.02a1.344 1.344 0 00-.54.54l-.36.72-.09.36.45.09h.36l4.86-.99.9-.36.81-.99 10.529-15.479 2.61-.09.63-.45.54-.99-.36-.36h-2.16l7.74-11.339.18-.27.18-.36.09-.54-.63-.27-3.51.45-.99.36a4.243 4.243 0 00-.9.9l-7.919 11.339-19.44.36c4.68-3.6 9.54-7.47 14.67-11.519s9.359-7.29 12.329-9.9c7.38-6.12 11.25-9.72 11.61-10.71l.18-.63a.673.673 0 00-.54-.269l-6.21 1.169q-1.485.4-3.78 2.97l-1.44 1.53c-3.87 3.96-8.279 8.37-13.409 13.14-2.16 1.89-4.68 4.32-7.92 7.2-2.79 2.52-5.67 5.13-8.82 7.74l-.45.63v.72l.36.09z" fill-rule="evenodd" fill="#0084d0"/></svg>