<svg xmlns="http://www.w3.org/2000/svg" width="128" height="88" viewBox="0 0 128 88">
  <defs>
    <style>
      .cls-1 {
        fill: #0084d0;
      }

      .cls-1, .cls-2 {
        fill-rule: evenodd;
      }

      .cls-2 {
        fill: #0084d0;
      }
    </style>
  </defs>
  <path class="cls-1" d="M1031.01,736.159l2.83,2.829-84.852,84.853-2.829-2.829Z" transform="translate(-905.25 -735.719)"/>
  <path class="cls-2" d="M912.107,774.857a62.24,62.24,0,0,1,3.78-7.83c0.63-1.08,1.26-2.16,1.98-3.15a45.954,45.954,0,0,1,3.42-5.129,76.22,76.22,0,0,1,7.56-9.9,42.359,42.359,0,0,1,3.689-3.96,38.863,38.863,0,0,1,3.51-3.06c3.24-2.88,6.39-4.41,8.91-4.41,2.25,0,3.51,1.17,3.87,3.51a12.483,12.483,0,0,1-.27,3.42,49.541,49.541,0,0,1-1.89,5.94,94.093,94.093,0,0,1-7.02,13.229,126.917,126.917,0,0,1-9.09,12.24,58.66,58.66,0,0,1-4.5,4.77,19.089,19.089,0,0,1-4.32,3.6c-2.79,1.889-5.13,2.879-7.11,2.879-2.43,0-3.87-1.08-4.23-3.239a7.655,7.655,0,0,1,0-4.05,12.213,12.213,0,0,1,.63-2.25C911.387,776.657,911.747,775.847,912.107,774.857Zm1.17,13.949a17.612,17.612,0,0,0,7.11-1.8,40.117,40.117,0,0,0,8.28-5.4,69.418,69.418,0,0,0,11.789-12.69,87.44,87.44,0,0,0,5.13-7.65,61.072,61.072,0,0,0,5.94-14.4,14.144,14.144,0,0,0,.18-6.39c-0.72-3.15-2.88-4.769-6.57-4.769a15.591,15.591,0,0,0-5.67,1.169,36.2,36.2,0,0,0-7.2,3.87,49.87,49.87,0,0,0-8.819,7.38,102.073,102.073,0,0,0-8.82,10.35,45.168,45.168,0,0,0-2.7,4.049c-0.45.72-.99,1.53-1.44,2.34a20.331,20.331,0,0,1-1.62,2.7c-0.27.54-.72,1.62-1.44,3.15a49.005,49.005,0,0,0-1.71,5.58,14.924,14.924,0,0,0,0,7.47C906.887,787.1,909.407,788.806,913.277,788.806Zm27.63-1.53v0.63a3.71,3.71,0,0,0,2.07.72l3.15,0.27a30.544,30.544,0,0,0,9.089-1.53,50.364,50.364,0,0,0,9.54-4.5,43.056,43.056,0,0,0,9.179-7.29,35.228,35.228,0,0,0,3.42-4.23,17.052,17.052,0,0,0,2.97-6.48,6.938,6.938,0,0,0-.54-5.489c-1.17-2.07-3.51-3.06-6.93-3.06a18.171,18.171,0,0,0-6.029,1.08,28.621,28.621,0,0,0-6.66,2.97l12.779-17.19,2.25,0.09h3.24c6.03,0,10.26-.54,12.51-1.62a12.306,12.306,0,0,0,5.67-5.669l-0.27-.18a13.082,13.082,0,0,1-2.52,1.259,7.415,7.415,0,0,1-2.34.36l-14.49.27a5.029,5.029,0,0,0-1.8.36,2.816,2.816,0,0,0-1.17,1.17L957.016,761.9l-0.09.27-0.45.81-0.09.54a1.107,1.107,0,0,0,.45.18c0.45-.27.9-0.36,1.26-0.63,1.44-.72,2.61-1.44,3.69-1.89a15.821,15.821,0,0,1,7.74-2.519c2.43,0,3.869.81,4.5,2.339a5.721,5.721,0,0,1,.36,3.78,8.981,8.981,0,0,1-.9,2.61c-0.72,1.53-1.529,3.06-2.339,4.41a41.955,41.955,0,0,1-3.33,4.14,37.8,37.8,0,0,1-8.46,7.02,26.167,26.167,0,0,1-6.57,3.239,17.978,17.978,0,0,1-5.849,1.08l-2.52-.18-2.43-.63-0.45.18Z" transform="translate(-905.25 -735.719)"/>
</svg>
