<svg xmlns="http://www.w3.org/2000/svg" width="128" height="88"><path d="M125.76.253l2.83 2.829-84.852 84.853-2.829-2.829zM6.857 39.951a62.24 62.24 0 013.78-7.83c.63-1.08 1.26-2.16 1.98-3.15a45.954 45.954 0 013.42-5.129 76.22 76.22 0 017.56-9.9 42.359 42.359 0 013.689-3.96 38.863 38.863 0 013.51-3.06c3.24-2.88 6.39-4.41 8.91-4.41 2.25 0 3.51 1.17 3.87 3.51a12.483 12.483 0 01-.27 3.42 49.541 49.541 0 01-1.89 5.94 94.093 94.093 0 01-7.02 13.229 126.917 126.917 0 01-9.09 12.24 58.66 58.66 0 01-4.5 4.77 19.089 19.089 0 01-4.32 3.6c-2.79 1.889-5.13 2.879-7.11 2.879-2.43 0-3.87-1.08-4.23-3.239a7.655 7.655 0 010-4.05 12.213 12.213 0 01.63-2.25c.361-.81.721-1.62 1.081-2.61zM8.027 53.9a17.612 17.612 0 007.11-1.8 40.117 40.117 0 008.28-5.4 69.418 69.418 0 0011.789-12.69 87.44 87.44 0 005.13-7.65 61.072 61.072 0 005.94-14.4 14.144 14.144 0 00.18-6.39c-.72-3.15-2.88-4.769-6.57-4.769a15.591 15.591 0 00-5.67 1.169 36.2 36.2 0 00-7.2 3.87 49.87 49.87 0 00-8.819 7.38 102.073 102.073 0 00-8.82 10.35 45.168 45.168 0 00-2.7 4.049c-.45.72-.99 1.53-1.44 2.34a20.331 20.331 0 01-1.62 2.7c-.27.54-.72 1.62-1.44 3.15a49.005 49.005 0 00-1.71 5.58 14.924 14.924 0 000 7.47c1.17 3.335 3.69 5.041 7.56 5.041zm44.909-13.769l.45-.45a39.6 39.6 0 017.83-10.17c2.97-2.79 5.58-4.139 7.739-4.139a2.259 2.259 0 012.52 1.8 6.12 6.12 0 01-.09 2.16 19.707 19.707 0 01-1.08 2.97 40.169 40.169 0 01-9.359 13.77c-4.05 3.87-7.47 5.759-10.35 5.759a3.7 3.7 0 01-3.96-2.7 8.5 8.5 0 010-3.69 18.549 18.549 0 011.17-3.69c2.79-6.39 7.38-13.14 13.86-20.339a119.542 119.542 0 0122.589-19.71l.63-.719-.54-.99-.54.09a149.461 149.461 0 00-14.22 9.719 123.193 123.193 0 00-11.969 10.26c-7.29 7.2-12.15 13.679-14.67 19.529-.27.63-.54 1.44-.809 2.25a10.079 10.079 0 00-.54 2.07 10.516 10.516 0 00.36 6.12c1.259 2.609 3.779 3.869 7.649 3.869a17.817 17.817 0 007.47-1.8 42.534 42.534 0 007.92-5.219 41.423 41.423 0 006.389-6.75c.99-1.35 1.89-2.43 2.61-3.6a16.252 16.252 0 001.62-3.33 13.7 13.7 0 00.99-2.88 8.45 8.45 0 00-.09-4.769 4.886 4.886 0 00-4.86-2.97c-3.15 0-6.569 1.53-10.259 4.679a36.7 36.7 0 00-9.45 12.42l.18.54z" fill-rule="evenodd" fill="#0084d0"/></svg>