<svg xmlns="http://www.w3.org/2000/svg" width="128" height="88" viewBox="0 0 128 88">
  <defs>
    <style>
      .cls-1 {
        fill: #0084d0;
      }

      .cls-1, .cls-2 {
        fill-rule: evenodd;
      }

      .cls-2 {
        fill: #0084d0;
      }
    </style>
  </defs>
  <path class="cls-1" d="M1031.01,877.159l2.83,2.829-84.852,84.853-2.829-2.829Z" transform="translate(-905.25 -876.906)"/>
  <path class="cls-2" d="M912.107,916.857a62.24,62.24,0,0,1,3.78-7.83c0.63-1.08,1.26-2.16,1.98-3.15a45.954,45.954,0,0,1,3.42-5.129,76.22,76.22,0,0,1,7.56-9.9,42.359,42.359,0,0,1,3.689-3.96,38.863,38.863,0,0,1,3.51-3.06c3.24-2.88,6.39-4.41,8.91-4.41,2.25,0,3.51,1.17,3.87,3.51a12.483,12.483,0,0,1-.27,3.42,49.541,49.541,0,0,1-1.89,5.94,94.093,94.093,0,0,1-7.02,13.229,126.917,126.917,0,0,1-9.09,12.24,58.66,58.66,0,0,1-4.5,4.77,19.089,19.089,0,0,1-4.32,3.6c-2.79,1.889-5.13,2.879-7.11,2.879-2.43,0-3.87-1.08-4.23-3.239a7.655,7.655,0,0,1,0-4.05,12.213,12.213,0,0,1,.63-2.25C911.387,918.657,911.747,917.847,912.107,916.857Zm1.17,13.949a17.612,17.612,0,0,0,7.11-1.8,40.117,40.117,0,0,0,8.28-5.4,69.418,69.418,0,0,0,11.789-12.69,87.44,87.44,0,0,0,5.13-7.65,61.072,61.072,0,0,0,5.94-14.4,14.144,14.144,0,0,0,.18-6.39c-0.72-3.15-2.88-4.769-6.57-4.769a15.591,15.591,0,0,0-5.67,1.169,36.2,36.2,0,0,0-7.2,3.87,49.87,49.87,0,0,0-8.819,7.38,102.073,102.073,0,0,0-8.82,10.35,45.168,45.168,0,0,0-2.7,4.049c-0.45.72-.99,1.53-1.44,2.34a20.331,20.331,0,0,1-1.62,2.7c-0.27.54-.72,1.62-1.44,3.15a49.005,49.005,0,0,0-1.71,5.58,14.924,14.924,0,0,0,0,7.47C906.887,929.1,909.407,930.806,913.277,930.806Zm44.909-13.769,0.45-.45a39.6,39.6,0,0,1,7.83-10.17c2.97-2.79,5.58-4.139,7.739-4.139a2.259,2.259,0,0,1,2.52,1.8,6.12,6.12,0,0,1-.09,2.16,19.707,19.707,0,0,1-1.08,2.97,40.169,40.169,0,0,1-9.359,13.77c-4.05,3.87-7.47,5.759-10.35,5.759a3.7,3.7,0,0,1-3.96-2.7,8.5,8.5,0,0,1,0-3.69,18.549,18.549,0,0,1,1.17-3.69c2.79-6.39,7.38-13.14,13.86-20.339a119.542,119.542,0,0,1,22.589-19.71l0.63-.719-0.54-.99-0.54.09a149.461,149.461,0,0,0-14.22,9.719,123.193,123.193,0,0,0-11.969,10.26c-7.29,7.2-12.15,13.679-14.67,19.529-0.27.63-.54,1.44-0.809,2.25a10.079,10.079,0,0,0-.54,2.07,10.516,10.516,0,0,0,.36,6.12c1.259,2.609,3.779,3.869,7.649,3.869a17.817,17.817,0,0,0,7.47-1.8,42.534,42.534,0,0,0,7.92-5.219,41.423,41.423,0,0,0,6.389-6.75c0.99-1.35,1.89-2.43,2.61-3.6a16.252,16.252,0,0,0,1.62-3.33,13.7,13.7,0,0,0,.99-2.88,8.45,8.45,0,0,0-.09-4.769,4.886,4.886,0,0,0-4.86-2.97c-3.15,0-6.569,1.53-10.259,4.679a36.7,36.7,0,0,0-9.45,12.42l0.18,0.54Z" transform="translate(-905.25 -876.906)"/>
</svg>
