<svg xmlns="http://www.w3.org/2000/svg" width="128" height="88" viewBox="0 0 128 88">
  <defs>
    <style>
      .cls-1 {
        fill: #0084d0;
      }

      .cls-1, .cls-2 {
        fill-rule: evenodd;
      }

      .cls-2 {
        fill: #0084d0;
      }
    </style>
  </defs>
  <path class="cls-1" d="M1031.01,1019.16l2.83,2.83-84.852,84.85-2.829-2.83Z" transform="translate(-905.25 -1018.72)"/>
  <path class="cls-2" d="M912.107,1057.86a62.24,62.24,0,0,1,3.78-7.83c0.63-1.08,1.26-2.16,1.98-3.15a45.975,45.975,0,0,1,3.42-5.13,76.22,76.22,0,0,1,7.56-9.9,42.359,42.359,0,0,1,3.689-3.96,38.863,38.863,0,0,1,3.51-3.06c3.24-2.88,6.39-4.41,8.91-4.41,2.25,0,3.51,1.17,3.87,3.51a12.483,12.483,0,0,1-.27,3.42,49.541,49.541,0,0,1-1.89,5.94,94.157,94.157,0,0,1-7.02,13.23,126.917,126.917,0,0,1-9.09,12.24,58.66,58.66,0,0,1-4.5,4.77,19.089,19.089,0,0,1-4.32,3.6c-2.79,1.89-5.13,2.88-7.11,2.88-2.43,0-3.87-1.08-4.23-3.24a7.655,7.655,0,0,1,0-4.05,12.213,12.213,0,0,1,.63-2.25C911.387,1059.66,911.747,1058.85,912.107,1057.86Zm1.17,13.95a17.612,17.612,0,0,0,7.11-1.8,40.126,40.126,0,0,0,8.28-5.4,69.418,69.418,0,0,0,11.789-12.69,87.44,87.44,0,0,0,5.13-7.65,61.1,61.1,0,0,0,5.94-14.4,14.144,14.144,0,0,0,.18-6.39c-0.72-3.15-2.88-4.77-6.57-4.77a15.573,15.573,0,0,0-5.67,1.17,36.2,36.2,0,0,0-7.2,3.87,49.87,49.87,0,0,0-8.819,7.38,102.073,102.073,0,0,0-8.82,10.35,45.177,45.177,0,0,0-2.7,4.05c-0.45.72-.99,1.53-1.44,2.34a20.331,20.331,0,0,1-1.62,2.7c-0.27.54-.72,1.62-1.44,3.15a49.005,49.005,0,0,0-1.71,5.58,14.924,14.924,0,0,0,0,7.47C906.887,1070.1,909.407,1071.81,913.277,1071.81Zm28.71-.54,5.4-.54a3.335,3.335,0,0,0,1.349-.45c0.27-.27.72-0.63,1.44-1.35l10.71-11.07,9.36-9.18c4.679-4.41,10.259-9.54,17.009-15.39,6.84-5.85,11.339-9.99,13.855-12.42l0.18-.63-0.09-.54-0.63.09-1.436.81a33.57,33.57,0,0,0-3.6-.45h-2.07c-0.72,0-1.89,0-3.42-.09-1.53,0-2.79-.09-3.6-0.09-4.23,0-7.2.27-8.73,0.81a13.607,13.607,0,0,0-4.68,3.33,30.236,30.236,0,0,0-2.069,2.25c-0.72.72-1.26,1.53-1.98,2.34l-2.07,2.97-0.09.54,0.36,0.18a3.354,3.354,0,0,0,2.25-1.35l0.54-.99a10.62,10.62,0,0,1,9.719-4.14l4.95,0.09,8.55,0.27c-7.2,5.85-13.77,11.25-19.8,16.2-6.209,5.13-11.609,9.63-16.649,13.95-9.809,8.46-14.939,13.23-15.389,14.22l0.09,0.36Z" transform="translate(-905.25 -1018.72)"/>
</svg>
