<svg xmlns="http://www.w3.org/2000/svg" width="128" height="88"><path d="M125.76.44l2.83 2.83-84.852 84.85-2.829-2.83zM6.857 39.14a62.24 62.24 0 013.78-7.83c.63-1.08 1.26-2.16 1.98-3.15a45.975 45.975 0 013.42-5.13 76.22 76.22 0 017.56-9.9 42.359 42.359 0 013.689-3.96 38.863 38.863 0 013.51-3.06c3.24-2.88 6.39-4.41 8.91-4.41 2.25 0 3.51 1.17 3.87 3.51a12.483 12.483 0 01-.27 3.42 49.541 49.541 0 01-1.89 5.94 94.157 94.157 0 01-7.02 13.23 126.917 126.917 0 01-9.09 12.24 58.66 58.66 0 01-4.5 4.77 19.089 19.089 0 01-4.32 3.6c-2.79 1.89-5.13 2.88-7.11 2.88-2.43 0-3.87-1.08-4.23-3.24a7.655 7.655 0 010-4.05 12.213 12.213 0 01.63-2.25c.361-.81.721-1.62 1.081-2.61zm1.17 13.95a17.612 17.612 0 007.11-1.8 40.126 40.126 0 008.28-5.4A69.418 69.418 0 0035.206 33.2a87.44 87.44 0 005.13-7.65 61.1 61.1 0 005.94-14.4 14.144 14.144 0 00.18-6.39c-.72-3.15-2.88-4.77-6.57-4.77a15.573 15.573 0 00-5.67 1.17 36.2 36.2 0 00-7.2 3.87 49.87 49.87 0 00-8.819 7.38 102.073 102.073 0 00-8.82 10.35 45.177 45.177 0 00-2.7 4.05c-.45.72-.99 1.53-1.44 2.34a20.331 20.331 0 01-1.62 2.7c-.27.54-.72 1.62-1.44 3.15a49.005 49.005 0 00-1.71 5.58 14.924 14.924 0 000 7.47c1.17 3.33 3.69 5.04 7.56 5.04zm28.71-.54l5.4-.54a3.335 3.335 0 001.349-.45c.27-.27.72-.63 1.44-1.35l10.71-11.07 9.36-9.18a541.56 541.56 0 0117.009-15.39c6.84-5.85 11.339-9.99 13.855-12.42l.18-.63-.09-.54-.63.09-1.436.81a33.57 33.57 0 00-3.6-.45h-2.07c-.72 0-1.89 0-3.42-.09-1.53 0-2.79-.09-3.6-.09-4.23 0-7.2.27-8.73.81a13.607 13.607 0 00-4.68 3.33 30.236 30.236 0 00-2.069 2.25c-.72.72-1.26 1.53-1.98 2.34l-2.07 2.97-.09.54.36.18a3.354 3.354 0 002.25-1.35l.54-.99a10.62 10.62 0 019.719-4.14l4.95.09 8.55.27c-7.2 5.85-13.77 11.25-19.8 16.2-6.209 5.13-11.609 9.63-16.649 13.95-9.809 8.46-14.939 13.23-15.389 14.22l.09.36z" fill-rule="evenodd" fill="#0084d0"/></svg>