<svg xmlns="http://www.w3.org/2000/svg" width="128" height="88"><path d="M125.76.44l2.83 2.83-84.852 84.85-2.829-2.83zM6.857 39.14a62.24 62.24 0 013.78-7.83c.63-1.08 1.26-2.16 1.98-3.15a45.975 45.975 0 013.42-5.13 76.22 76.22 0 017.56-9.9 42.359 42.359 0 013.689-3.96 38.863 38.863 0 013.51-3.06c3.24-2.88 6.39-4.41 8.91-4.41 2.25 0 3.51 1.17 3.87 3.51a12.483 12.483 0 01-.27 3.42 49.541 49.541 0 01-1.89 5.94 94.157 94.157 0 01-7.02 13.23 126.917 126.917 0 01-9.09 12.24 58.66 58.66 0 01-4.5 4.77 19.089 19.089 0 01-4.32 3.6c-2.79 1.89-5.13 2.88-7.11 2.88-2.43 0-3.87-1.08-4.23-3.24a7.655 7.655 0 010-4.05 12.213 12.213 0 01.63-2.25c.361-.81.721-1.62 1.081-2.61zm1.17 13.95a17.612 17.612 0 007.11-1.8 40.126 40.126 0 008.28-5.4A69.418 69.418 0 0035.206 33.2a87.44 87.44 0 005.13-7.65 61.1 61.1 0 005.94-14.4 14.144 14.144 0 00.18-6.39c-.72-3.15-2.88-4.77-6.57-4.77a15.573 15.573 0 00-5.67 1.17 36.2 36.2 0 00-7.2 3.87 49.87 49.87 0 00-8.819 7.38 102.073 102.073 0 00-8.82 10.35 45.177 45.177 0 00-2.7 4.05c-.45.72-.99 1.53-1.44 2.34a20.331 20.331 0 01-1.62 2.7c-.27.54-.72 1.62-1.44 3.15a49.005 49.005 0 00-1.71 5.58 14.924 14.924 0 000 7.47c1.17 3.33 3.69 5.04 7.56 5.04zm61.648-28.44a65.793 65.793 0 01-1.35-8.73 14.938 14.938 0 01.18-4.23c.09-.45.36-1.08.63-1.98a12.252 12.252 0 014.41-5.49 10.063 10.063 0 016.03-2.25c2.07 0 3.42.72 3.87 2.07a5.476 5.476 0 01.09 3.24 11.672 11.672 0 01-.72 2.43 26.4 26.4 0 01-5.22 7.83 59.538 59.538 0 01-7.92 7.11zm-7.019-.9q.945 4.455 1.35 6.48a30.967 30.967 0 01.27 3.78c-.09 1.17-.09 1.89-.18 2.34s-.18 1.17-.36 2.16a10.454 10.454 0 01-.72 2.34 19.181 19.181 0 01-5.76 7.47 13.409 13.409 0 01-7.92 2.88c-2.52 0-4.14-.9-4.86-2.61a7.778 7.778 0 01-.18-4.32 11.491 11.491 0 01.9-2.88 31.36 31.36 0 016.21-8.73c2.61-2.88 6.48-5.76 11.25-8.91zm-.27-1.71c-3.51 2.25-6.39 4.32-8.73 6.03a71.315 71.315 0 00-6.03 5.04 25.456 25.456 0 00-6.659 8.55 16.24 16.24 0 00-.81 2.52 7.563 7.563 0 00.9 5.67c1.619 2.16 4.229 3.24 7.919 3.24a20.974 20.974 0 0011.88-4.05 21.252 21.252 0 008.1-9.45 28.714 28.714 0 00.99-2.97l.27-1.53q.135-.945.27-2.16c0-.81 0-1.89-.09-3.06a19.782 19.782 0 00-.54-3.33 100.387 100.387 0 0010.89-9.18 22.008 22.008 0 005.22-7.2 12.153 12.153 0 00.81-2.61 5.753 5.753 0 00-.54-4.68c-1.08-1.8-3.15-2.7-6.3-2.7a17.964 17.964 0 00-9.9 3.24 19.5 19.5 0 00-6.839 8.1 8.981 8.981 0 00-.9 2.61c-.09.63-.18 1.44-.27 2.52a8.532 8.532 0 00-.09 3.42 20.246 20.246 0 01.449 1.98z" fill-rule="evenodd" fill="#0084d0"/></svg>