<svg xmlns="http://www.w3.org/2000/svg" width="128" height="88"><path d="M125.76.44l2.83 2.83-84.852 84.85-2.829-2.83zM6.857 39.14a62.24 62.24 0 013.78-7.83c.63-1.08 1.26-2.16 1.98-3.15a45.975 45.975 0 013.42-5.13 76.22 76.22 0 017.56-9.9 42.359 42.359 0 013.689-3.96 38.863 38.863 0 013.51-3.06c3.24-2.88 6.39-4.41 8.91-4.41 2.25 0 3.51 1.17 3.87 3.51a12.483 12.483 0 01-.27 3.42 49.541 49.541 0 01-1.89 5.94 94.157 94.157 0 01-7.02 13.23 126.917 126.917 0 01-9.09 12.24 58.66 58.66 0 01-4.5 4.77 19.089 19.089 0 01-4.32 3.6c-2.79 1.89-5.13 2.88-7.11 2.88-2.43 0-3.87-1.08-4.23-3.24a7.655 7.655 0 010-4.05 12.213 12.213 0 01.63-2.25c.361-.81.721-1.62 1.081-2.61zm1.17 13.95a17.612 17.612 0 007.11-1.8 40.126 40.126 0 008.28-5.4A69.418 69.418 0 0035.206 33.2a87.44 87.44 0 005.13-7.65 61.1 61.1 0 005.94-14.4 14.144 14.144 0 00.18-6.39c-.72-3.15-2.88-4.77-6.57-4.77a15.573 15.573 0 00-5.67 1.17 36.2 36.2 0 00-7.2 3.87 49.87 49.87 0 00-8.819 7.38 102.073 102.073 0 00-8.82 10.35 45.177 45.177 0 00-2.7 4.05c-.45.72-.99 1.53-1.44 2.34a20.331 20.331 0 01-1.62 2.7c-.27.54-.72 1.62-1.44 3.15a49.005 49.005 0 00-1.71 5.58 14.924 14.924 0 000 7.47c1.17 3.33 3.69 5.04 7.56 5.04zm35.819.99h.54a129.155 129.155 0 0024.929-18.54c7.11-6.93 11.79-13.14 14.13-18.72a21.068 21.068 0 001.62-4.95 13.157 13.157 0 000-7.02c-.99-3.15-3.24-4.68-6.66-4.68a16.385 16.385 0 00-6.57 1.44c-1.35.63-2.52 1.35-3.6 1.98-1.08.81-2.429 1.8-3.869 2.97a46.556 46.556 0 00-8.19 8.1 34.551 34.551 0 00-5.31 8.37c-.36.99-.63 1.44-.72 1.8a9.34 9.34 0 00-.27 1.08 8.568 8.568 0 00.18 4.59c.72 1.89 2.34 2.88 4.86 2.88 2.97 0 6.39-1.62 10.26-4.95a43.833 43.833 0 009.9-12.51v-.45l-1.08-.09-.36.27a34.461 34.461 0 01-7.469 9.27c-2.43 2.16-4.86 3.24-7.11 3.24-1.98 0-3.15-.81-3.51-2.34a5.813 5.813 0 010-3.06 26.326 26.326 0 011.26-3.78 18.582 18.582 0 011.53-2.79 32.5 32.5 0 012.07-3.24 26.364 26.364 0 013.33-3.78c.72-.63 1.44-1.35 2.25-2.07a30.466 30.466 0 015.579-3.78 12.161 12.161 0 014.86-1.26c2.34 0 3.69 1.08 4.14 3.24a13.178 13.178 0 01-.36 3.6 34.24 34.24 0 01-1.98 5.85 75.241 75.241 0 01-13.409 20.79 96.231 96.231 0 01-20.79 17.19l-.45.54z" fill-rule="evenodd" fill="#0084d0"/></svg>