<svg xmlns="http://www.w3.org/2000/svg" width="128" height="88" viewBox="0 0 128 88">
  <defs>
    <style>
      .cls-1 {
        fill: #0084d0;
      }

      .cls-1, .cls-2 {
        fill-rule: evenodd;
      }

      .cls-2 {
        fill: #0084d0;
      }
    </style>
  </defs>
  <path class="cls-1" d="M1031.01,1301.16l2.83,2.83-84.852,84.85-2.829-2.83Z" transform="translate(-905.25 -1300.72)"/>
  <path class="cls-2" d="M912.107,1339.86a62.24,62.24,0,0,1,3.78-7.83c0.63-1.08,1.26-2.16,1.98-3.15a45.975,45.975,0,0,1,3.42-5.13,76.22,76.22,0,0,1,7.56-9.9,42.359,42.359,0,0,1,3.689-3.96,38.863,38.863,0,0,1,3.51-3.06c3.24-2.88,6.39-4.41,8.91-4.41,2.25,0,3.51,1.17,3.87,3.51a12.483,12.483,0,0,1-.27,3.42,49.541,49.541,0,0,1-1.89,5.94,94.157,94.157,0,0,1-7.02,13.23,126.917,126.917,0,0,1-9.09,12.24,58.66,58.66,0,0,1-4.5,4.77,19.089,19.089,0,0,1-4.32,3.6c-2.79,1.89-5.13,2.88-7.11,2.88-2.43,0-3.87-1.08-4.23-3.24a7.655,7.655,0,0,1,0-4.05,12.213,12.213,0,0,1,.63-2.25C911.387,1341.66,911.747,1340.85,912.107,1339.86Zm1.17,13.95a17.612,17.612,0,0,0,7.11-1.8,40.126,40.126,0,0,0,8.28-5.4,69.418,69.418,0,0,0,11.789-12.69,87.44,87.44,0,0,0,5.13-7.65,61.1,61.1,0,0,0,5.94-14.4,14.144,14.144,0,0,0,.18-6.39c-0.72-3.15-2.88-4.77-6.57-4.77a15.573,15.573,0,0,0-5.67,1.17,36.2,36.2,0,0,0-7.2,3.87,49.87,49.87,0,0,0-8.819,7.38,102.073,102.073,0,0,0-8.82,10.35,45.177,45.177,0,0,0-2.7,4.05c-0.45.72-.99,1.53-1.44,2.34a20.331,20.331,0,0,1-1.62,2.7c-0.27.54-.72,1.62-1.44,3.15a49.005,49.005,0,0,0-1.71,5.58,14.924,14.924,0,0,0,0,7.47C906.887,1352.1,909.407,1353.81,913.277,1353.81Zm35.819,0.99h0.54a129.155,129.155,0,0,0,24.929-18.54c7.11-6.93,11.79-13.14,14.13-18.72a21.068,21.068,0,0,0,1.62-4.95,13.157,13.157,0,0,0,0-7.02c-0.99-3.15-3.24-4.68-6.66-4.68a16.385,16.385,0,0,0-6.57,1.44c-1.35.63-2.52,1.35-3.6,1.98-1.08.81-2.429,1.8-3.869,2.97a46.556,46.556,0,0,0-8.19,8.1,34.551,34.551,0,0,0-5.31,8.37c-0.36.99-.63,1.44-0.72,1.8a9.34,9.34,0,0,0-.27,1.08,8.568,8.568,0,0,0,.18,4.59c0.72,1.89,2.34,2.88,4.86,2.88,2.97,0,6.39-1.62,10.26-4.95a43.833,43.833,0,0,0,9.9-12.51v-0.45l-1.08-.09-0.36.27a34.461,34.461,0,0,1-7.469,9.27c-2.43,2.16-4.86,3.24-7.11,3.24-1.98,0-3.15-.81-3.51-2.34a5.813,5.813,0,0,1,0-3.06,26.326,26.326,0,0,1,1.26-3.78,18.582,18.582,0,0,1,1.53-2.79,32.5,32.5,0,0,1,2.07-3.24,26.364,26.364,0,0,1,3.33-3.78c0.72-.63,1.44-1.35,2.25-2.07a30.466,30.466,0,0,1,5.579-3.78,12.161,12.161,0,0,1,4.86-1.26c2.34,0,3.69,1.08,4.14,3.24a13.178,13.178,0,0,1-.36,3.6,34.24,34.24,0,0,1-1.98,5.85,75.241,75.241,0,0,1-13.409,20.79,96.231,96.231,0,0,1-20.79,17.19l-0.45.54Z" transform="translate(-905.25 -1300.72)"/>
</svg>
