<svg xmlns="http://www.w3.org/2000/svg" width="128" height="88"><path d="M124.885.44l2.83 2.83-84.852 84.85-2.829-2.83zM31.961 8.18L.552 50.84l-.36.45-.18.27v.54l.81.18 3.6-.27a3.018 3.018 0 001.44-.54 8.044 8.044 0 00.81-1.08L41.141 2.33l.45-.54.27-.36V.98l-.54-.09-2.88.27q-1.215.135-4.59 2.97a48.929 48.929 0 01-3.69 3.33c-.99.81-1.98 1.53-2.97 2.25-1.08.81-2.16 1.53-3.51 2.52l-8.639 5.76-.36.54.27.72h.36a73 73 0 008.009-4.86c1.35-.99 2.88-1.98 4.41-3.15 1.71-1.17 3.06-2.07 4.23-3.06zm11.43 30.96a62.24 62.24 0 013.78-7.83c.63-1.08 1.26-2.16 1.98-3.15a45.975 45.975 0 013.42-5.13 76.22 76.22 0 017.56-9.9 42.631 42.631 0 013.689-3.96 38.863 38.863 0 013.51-3.06c3.24-2.88 6.39-4.41 8.91-4.41 2.25 0 3.51 1.17 3.87 3.51a12.483 12.483 0 01-.27 3.42 49.541 49.541 0 01-1.89 5.94 94.157 94.157 0 01-7.02 13.23 127.076 127.076 0 01-9.089 12.24 58.837 58.837 0 01-4.5 4.77 19.089 19.089 0 01-4.32 3.6c-2.79 1.89-5.13 2.88-7.11 2.88-2.43 0-3.87-1.08-4.23-3.24a7.655 7.655 0 010-4.05 12.213 12.213 0 01.63-2.25c.364-.81.72-1.62 1.08-2.61zm1.17 13.95a17.612 17.612 0 007.11-1.8 40.126 40.126 0 008.28-5.4A69.418 69.418 0 0071.74 33.2a87.44 87.44 0 005.13-7.65 61.1 61.1 0 005.94-14.4 14.144 14.144 0 00.18-6.39c-.72-3.15-2.88-4.77-6.57-4.77a15.573 15.573 0 00-5.67 1.17 36.2 36.2 0 00-7.2 3.87 49.87 49.87 0 00-8.819 7.38 102.073 102.073 0 00-8.82 10.35 45.177 45.177 0 00-2.7 4.05c-.45.72-.99 1.53-1.44 2.34a20.331 20.331 0 01-1.62 2.7c-.27.54-.72 1.62-1.44 3.15a49.2 49.2 0 00-1.709 5.58 14.924 14.924 0 000 7.47c1.173 3.33 3.689 5.04 7.559 5.04z" fill-rule="evenodd" fill="#0084d0"/></svg>