<svg xmlns="http://www.w3.org/2000/svg" width="128" height="88" viewBox="0 0 128 88">
  <defs>
    <style>
      .cls-1 {
        fill: #0084d0;
      }

      .cls-1, .cls-2 {
        fill-rule: evenodd;
      }

      .cls-2 {
        fill: #0084d0;
      }
    </style>
  </defs>
  <path class="cls-1" d="M1031.01,1442.16l2.83,2.83-84.852,84.85-2.829-2.83Z" transform="translate(-906.125 -1441.72)"/>
  <path class="cls-2" d="M938.086,1449.9l-31.409,42.66-0.36.45-0.18.27v0.54l0.81,0.18,3.6-.27a3.018,3.018,0,0,0,1.44-.54,8.044,8.044,0,0,0,.81-1.08l34.469-48.06,0.45-.54,0.27-.36v-0.45l-0.54-.09-2.88.27q-1.215.135-4.59,2.97a48.929,48.929,0,0,1-3.69,3.33c-0.99.81-1.98,1.53-2.97,2.25-1.08.81-2.16,1.53-3.51,2.52l-8.639,5.76-0.36.54,0.27,0.72h0.36a73,73,0,0,0,8.009-4.86c1.35-.99,2.88-1.98,4.41-3.15C935.566,1451.79,936.916,1450.89,938.086,1449.9Zm11.43,30.96a62.24,62.24,0,0,1,3.78-7.83c0.63-1.08,1.26-2.16,1.98-3.15a45.975,45.975,0,0,1,3.42-5.13,76.22,76.22,0,0,1,7.56-9.9,42.631,42.631,0,0,1,3.689-3.96,38.863,38.863,0,0,1,3.51-3.06c3.24-2.88,6.39-4.41,8.91-4.41,2.25,0,3.51,1.17,3.87,3.51a12.483,12.483,0,0,1-.27,3.42,49.541,49.541,0,0,1-1.89,5.94,94.157,94.157,0,0,1-7.02,13.23,127.076,127.076,0,0,1-9.089,12.24,58.837,58.837,0,0,1-4.5,4.77,19.089,19.089,0,0,1-4.32,3.6c-2.79,1.89-5.13,2.88-7.11,2.88-2.43,0-3.87-1.08-4.23-3.24a7.655,7.655,0,0,1,0-4.05,12.213,12.213,0,0,1,.63-2.25C948.8,1482.66,949.156,1481.85,949.516,1480.86Zm1.17,13.95a17.612,17.612,0,0,0,7.11-1.8,40.126,40.126,0,0,0,8.28-5.4,69.418,69.418,0,0,0,11.789-12.69,87.44,87.44,0,0,0,5.13-7.65,61.1,61.1,0,0,0,5.94-14.4,14.144,14.144,0,0,0,.18-6.39c-0.72-3.15-2.88-4.77-6.57-4.77a15.573,15.573,0,0,0-5.67,1.17,36.2,36.2,0,0,0-7.2,3.87,49.87,49.87,0,0,0-8.819,7.38,102.073,102.073,0,0,0-8.82,10.35,45.177,45.177,0,0,0-2.7,4.05c-0.45.72-.99,1.53-1.44,2.34a20.331,20.331,0,0,1-1.62,2.7c-0.27.54-.72,1.62-1.44,3.15a49.2,49.2,0,0,0-1.709,5.58,14.924,14.924,0,0,0,0,7.47C944.3,1493.1,946.816,1494.81,950.686,1494.81Z" transform="translate(-906.125 -1441.72)"/>
</svg>
