<svg id="_04.svg" data-name="04.svg" xmlns="http://www.w3.org/2000/svg" width="88" height="88" viewBox="0 0 88 88">
  <defs>
    <style>
      .cls-1 {
        fill: #fcc60d;
      }

      .cls-2 {
        fill: #fff;
        fill-rule: evenodd;
      }
    </style>
  </defs>
  <circle class="cls-1" cx="44" cy="44" r="44"/>
  <path class="cls-2" d="M51.693,26.008h-4.15l-20.275,23.2,0.15,2.175a0.952,0.952,0,0,0,.475.7,1.666,1.666,0,0,0,.925.275h15.75l-1.175,9.475h3.9l1.15-9.475h4.425a1,1,0,0,0,.763-0.275,1.138,1.138,0,0,0,.313-0.65l0.35-2.45H48.868ZM44.968,48.983H32.018L47.393,31.208q-0.2.725-.35,1.412a9.921,9.921,0,0,0-.2,1.288Z"/>
</svg>
