<svg id="_08.svg" data-name="08.svg" xmlns="http://www.w3.org/2000/svg" width="88" height="88" viewBox="0 0 88 88">
  <defs>
    <style>
      .cls-1 {
        fill: #fcc60d;
      }

      .cls-2 {
        fill: #fff;
        fill-rule: evenodd;
      }
    </style>
  </defs>
  <circle class="cls-1" cx="44" cy="44" r="44"/>
  <path class="cls-2" d="M47.418,61.445a12.543,12.543,0,0,0,4.237-2.275,10.607,10.607,0,0,0,2.8-3.587,10.741,10.741,0,0,0,1.013-4.725,7.487,7.487,0,0,0-1.55-4.85,8.777,8.777,0,0,0-4.45-2.8,10.028,10.028,0,0,0,5.087-3.5,9.308,9.308,0,0,0,1.738-5.65,8.088,8.088,0,0,0-.675-3.287A7.773,7.773,0,0,0,53.68,28.1a9.172,9.172,0,0,0-3.062-1.788,11.869,11.869,0,0,0-4.05-.65,14.025,14.025,0,0,0-4.825.8,11.587,11.587,0,0,0-3.788,2.213A10.247,10.247,0,0,0,35.468,32a9.538,9.538,0,0,0-.9,4.113,7.138,7.138,0,0,0,4.85,7.05,11.6,11.6,0,0,0-6.062,3.55,9.716,9.716,0,0,0-2.163,6.55,8.619,8.619,0,0,0,.775,3.688,8.029,8.029,0,0,0,2.2,2.837A10.151,10.151,0,0,0,37.605,61.6a14.816,14.816,0,0,0,4.487.638A17.317,17.317,0,0,0,47.418,61.445Zm-7.8-3.075a6.18,6.18,0,0,1-2.125-1.225,5.128,5.128,0,0,1-1.325-1.875,6.251,6.251,0,0,1-.45-2.413A8.183,8.183,0,0,1,36.43,49.3a6.862,6.862,0,0,1,1.9-2.437,7.849,7.849,0,0,1,2.713-1.4,11.158,11.158,0,0,1,3.175-.45,9.7,9.7,0,0,1,2.563.337,6.423,6.423,0,0,1,2.188,1.05,5.116,5.116,0,0,1,1.513,1.837,6.042,6.042,0,0,1,.563,2.725,8.29,8.29,0,0,1-.6,3.2,6.836,6.836,0,0,1-1.725,2.475,8.054,8.054,0,0,1-2.7,1.6,10.215,10.215,0,0,1-3.525.575A8.681,8.681,0,0,1,39.618,58.37ZM41.93,41.1a5.163,5.163,0,0,1-1.825-1.225,4.654,4.654,0,0,1-1.038-1.762,6.665,6.665,0,0,1-.325-2.075,7.769,7.769,0,0,1,.488-2.75,6.238,6.238,0,0,1,1.438-2.25,6.95,6.95,0,0,1,2.337-1.513,8.432,8.432,0,0,1,3.188-.562,7.131,7.131,0,0,1,2.575.425,5.1,5.1,0,0,1,1.825,1.163,4.807,4.807,0,0,1,1.087,1.712,5.984,5.984,0,0,1,.363,2.1,8.487,8.487,0,0,1-.4,2.55,6.447,6.447,0,0,1-3.587,4,8.185,8.185,0,0,1-3.437.65A6.988,6.988,0,0,1,41.93,41.1Z"/>
</svg>
