<svg id="_5.svg" data-name="5.svg" xmlns="http://www.w3.org/2000/svg" width="49" height="49" viewBox="0 0 49 49">
  <defs>
    <style>
      .cls-1 {
        fill: #1e49ac;
        stroke: #c1b49d;
        stroke-width: 1px;
      }

      .cls-2 {
        fill: #fff;
        fill-rule: evenodd;
      }
    </style>
  </defs>
  <rect class="cls-1" x="0.5" y="0.5" width="48" height="48"/>
  <path class="cls-2" d="M524.658,78.73h8.16l1.01-1.87h-10.3l-4.891,10.574a9.207,9.207,0,0,1,2.808-.884,18.2,18.2,0,0,1,1.894-.136q2.856,0,3.99,1.666a5.742,5.742,0,0,1,.661,4.352,10.676,10.676,0,0,1-1.066,3.247,8.352,8.352,0,0,1-1.681,2.21,6.171,6.171,0,0,1-2.008,1.258,5.852,5.852,0,0,1-2.041.391,4.729,4.729,0,0,1-1.878-.34,3.322,3.322,0,0,1-1.28-.935,3.482,3.482,0,0,1-.689-1.394,4.47,4.47,0,0,1-.071-1.717h-2.482a4.875,4.875,0,0,0,.187,2.312,4.6,4.6,0,0,0,1.184,1.87,5.853,5.853,0,0,0,2.042,1.241,7.932,7.932,0,0,0,2.792.459,10.82,10.82,0,0,0,3.556-.6,10.417,10.417,0,0,0,3.124-1.717,10.284,10.284,0,0,0,2.39-2.754,10.79,10.79,0,0,0,1.357-3.74,7.49,7.49,0,0,0-.044-3.128,5.773,5.773,0,0,0-1.209-2.4,5.544,5.544,0,0,0-2.162-1.53,8.372,8.372,0,0,0-4.683-.34,15.821,15.821,0,0,0-1.815.561Z" transform="translate(-499.5 -64.5)"/>
</svg>
