<svg id="_03.svg" data-name="03.svg" xmlns="http://www.w3.org/2000/svg" width="88" height="88" viewBox="0 0 88 88">
  <defs>
    <style>
      .cls-1 {
        fill: #f8a81d;
      }

      .cls-2 {
        fill: #fff;
        fill-rule: evenodd;
      }
    </style>
  </defs>
  <circle class="cls-1" cx="44" cy="44" r="44"/>
  <path class="cls-2" d="M42.218,26.308a12.177,12.177,0,0,0-3.725,1.925,12.716,12.716,0,0,0-2.913,3.15,14.116,14.116,0,0,0-1.862,4.325l2.2,0.375a2.41,2.41,0,0,0,.262.037c0.091,0.009.179,0.013,0.263,0.013a1.79,1.79,0,0,0,1.038-.3,2.1,2.1,0,0,0,.712-1.025,8.733,8.733,0,0,1,2.9-4,8.458,8.458,0,0,1,7.1-1.148,5.082,5.082,0,0,1,1.825.991,4.446,4.446,0,0,1,1.2,1.669,5.952,5.952,0,0,1,.425,2.334,6.555,6.555,0,0,1-2.325,5.309q-2.325,1.945-7.075,1.945l-0.4,3.125a17.249,17.249,0,0,1,4.2.425,7.4,7.4,0,0,1,2.625,1.162,3.875,3.875,0,0,1,1.35,1.75,6.324,6.324,0,0,1,.375,2.213,7.69,7.69,0,0,1-.575,2.9,7.889,7.889,0,0,1-1.663,2.55,8.323,8.323,0,0,1-2.687,1.825,9.024,9.024,0,0,1-3.65.7,9.3,9.3,0,0,1-2.775-.362,5.406,5.406,0,0,1-1.975-1.087A5.951,5.951,0,0,1,35.693,55.3a13.681,13.681,0,0,1-.95-2.538,1.027,1.027,0,0,0-.462-0.6,1.568,1.568,0,0,0-.812-0.2,2.957,2.957,0,0,0-1,.2l-2,.75a15.825,15.825,0,0,0,1.225,4.125,8.329,8.329,0,0,0,5.35,4.625,14.971,14.971,0,0,0,4.375.575,15.539,15.539,0,0,0,5.063-.825,13.068,13.068,0,0,0,4.237-2.362,11.449,11.449,0,0,0,2.9-3.7,10.777,10.777,0,0,0,1.075-4.862,7.384,7.384,0,0,0-1.538-4.738,8.713,8.713,0,0,0-4.587-2.812,13.979,13.979,0,0,0,3.038-1.187,7.913,7.913,0,0,0,3.813-4.5,10.619,10.619,0,0,0,.525-3.487,8.012,8.012,0,0,0-.675-3.325,7.338,7.338,0,0,0-1.9-2.562,8.578,8.578,0,0,0-2.962-1.637,12.165,12.165,0,0,0-3.837-.575A14.311,14.311,0,0,0,42.218,26.308Z"/>
</svg>
