<svg id="_05.svg" data-name="05.svg" xmlns="http://www.w3.org/2000/svg" width="88" height="88" viewBox="0 0 88 88">
  <defs>
    <style>
      .cls-1 {
        fill: #f8a81d;
      }

      .cls-2 {
        fill: #fff;
        fill-rule: evenodd;
      }
    </style>
  </defs>
  <circle class="cls-1" cx="44" cy="44" r="44"/>
  <path class="cls-2" d="M56.493,26.008h-16.9l-4.925,16.7,2.575,0.775a28.83,28.83,0,0,1,3.138-.663,18.472,18.472,0,0,1,2.688-.212,10.485,10.485,0,0,1,3.25.45,6.046,6.046,0,0,1,2.275,1.288,5.319,5.319,0,0,1,1.35,2,7.115,7.115,0,0,1,.45,2.587,10.686,10.686,0,0,1-.687,3.913,8.6,8.6,0,0,1-4.925,4.988,10.11,10.11,0,0,1-3.812.7,9.279,9.279,0,0,1-2.862-.387,11.718,11.718,0,0,1-2.025-.85q-0.838-.462-1.425-0.85a1.987,1.987,0,0,0-1.062-.388,1.585,1.585,0,0,0-1.225.6l-1.525,1.85A12.513,12.513,0,0,0,34.73,61.12a13.807,13.807,0,0,0,2.587.813,14.175,14.175,0,0,0,2.975.3,15.737,15.737,0,0,0,5.563-.988,14.118,14.118,0,0,0,4.612-2.787A13.2,13.2,0,0,0,53.605,54.1a13.67,13.67,0,0,0,1.162-5.712,10.453,10.453,0,0,0-.65-3.737,7.925,7.925,0,0,0-1.962-2.963A9.256,9.256,0,0,0,48.88,39.72a13.431,13.431,0,0,0-4.587-.712,24.175,24.175,0,0,0-5.075.6l2.875-9.625H53.468A2.9,2.9,0,0,0,55.48,29.4a2.409,2.409,0,0,0,.762-1.487Z"/>
</svg>
