<svg id="_09.svg" data-name="09.svg" xmlns="http://www.w3.org/2000/svg" width="88" height="88" viewBox="0 0 88 88">
  <defs>
    <style>
      .cls-1 {
        fill: #f8a81d;
      }

      .cls-2 {
        fill: #fff;
        fill-rule: evenodd;
      }
    </style>
  </defs>
  <circle class="cls-1" cx="44" cy="44" r="44"/>
  <path class="cls-2" d="M46.03,46.52a11.617,11.617,0,0,0,3.337-1.713q-0.5.65-1.075,1.325t-1.225,1.4l-12.625,14.3h3.95a3.083,3.083,0,0,0,1.35-.288,2.843,2.843,0,0,0,.975-0.738l10.325-12.65q1.35-1.65,2.4-3.125a22.268,22.268,0,0,0,1.788-2.95,14.177,14.177,0,0,0,1.112-3.038,14.381,14.381,0,0,0,.375-3.363,11.364,11.364,0,0,0-.7-4.05A8.806,8.806,0,0,0,50.855,26.4a11.372,11.372,0,0,0-4.213-.737,13.874,13.874,0,0,0-5.225.975A13.279,13.279,0,0,0,37.205,29.3a12.351,12.351,0,0,0-2.812,3.975,11.87,11.87,0,0,0-1.025,4.912,9.762,9.762,0,0,0,.688,3.763,7.952,7.952,0,0,0,4.712,4.563,10.025,10.025,0,0,0,3.5.6A12.123,12.123,0,0,0,46.03,46.52Zm5.987-7.788a7.889,7.889,0,0,1-1.712,2.6,8.2,8.2,0,0,1-2.687,1.787,9.075,9.075,0,0,1-3.55.663,6.388,6.388,0,0,1-4.663-1.625,6.07,6.07,0,0,1-1.663-4.55,8.761,8.761,0,0,1,.638-3.388,7.978,7.978,0,0,1,1.762-2.65,8.06,8.06,0,0,1,2.663-1.738,8.851,8.851,0,0,1,3.363-.625,7.217,7.217,0,0,1,2.637.463,5.729,5.729,0,0,1,3.35,3.35,7.217,7.217,0,0,1,.462,2.637A8.084,8.084,0,0,1,52.018,38.733Z"/>
</svg>
