<svg id="_10.svg" data-name="10.svg" xmlns="http://www.w3.org/2000/svg" width="88" height="88" viewBox="0 0 88 88">
  <defs>
    <style>
      .cls-1 {
        fill: #f8a81d;
      }

      .cls-2 {
        fill: #fff;
        fill-rule: evenodd;
      }
    </style>
  </defs>
  <circle class="cls-1" cx="44" cy="44" r="44"/>
  <path class="cls-2" d="M19.868,61.833H38.993l0.4-3.3h-7.1l4-32.6h-3.5l-11.75,9.225,1.1,1.875a1.1,1.1,0,0,0,.425.363,1.391,1.391,0,0,0,.675.162,1.523,1.523,0,0,0,.95-0.35l7.325-5.725-0.45,1.925L27.993,58.533h-7.75ZM53.567,27a13.554,13.554,0,0,0-4.9,4.063,20.832,20.832,0,0,0-3.325,6.85,34.237,34.237,0,0,0-1.225,9.7,22.63,22.63,0,0,0,.813,6.413,13.349,13.349,0,0,0,2.25,4.55A9.245,9.245,0,0,0,50.617,61.3a10.476,10.476,0,0,0,4.4.913,13.305,13.305,0,0,0,10.825-5.4,20.822,20.822,0,0,0,3.325-6.862,34.382,34.382,0,0,0,1.225-9.712,22.544,22.544,0,0,0-.812-6.388,13.367,13.367,0,0,0-2.25-4.55,9.259,9.259,0,0,0-3.437-2.725,10.418,10.418,0,0,0-4.375-.912A13.634,13.634,0,0,0,53.567,27ZM52.9,57.983a5.835,5.835,0,0,1-2.212-1.913,10.36,10.36,0,0,1-1.513-3.425,20.111,20.111,0,0,1-.562-5.113,34.965,34.965,0,0,1,.825-8.087,19.231,19.231,0,0,1,2.237-5.7,9.856,9.856,0,0,1,3.3-3.375,7.734,7.734,0,0,1,3.987-1.113,6.128,6.128,0,0,1,2.663.6,5.808,5.808,0,0,1,2.212,1.925,10.529,10.529,0,0,1,1.513,3.437,20.114,20.114,0,0,1,.563,5.113,34.963,34.963,0,0,1-.825,8.087,19.059,19.059,0,0,1-2.237,5.688,9.889,9.889,0,0,1-3.3,3.362,7.732,7.732,0,0,1-3.987,1.113A6.126,6.126,0,0,1,52.9,57.983Z"/>
</svg>
