<svg id="TOPへ戻る.svg" xmlns="http://www.w3.org/2000/svg" width="178" height="178" viewBox="0 0 178 178">
  <defs>
    <style>
      .cls-1 {
        fill: none;
        stroke: #ffac00;
        stroke-width: 12px;
      }

      .cls-2 {
        fill: #ffac00;
        fill-rule: evenodd;
      }
    </style>
  </defs>
  <circle id="楕円形_2" data-name="楕円形 2" class="cls-1" cx="89" cy="89" r="83"/>
  <path id="Shape_3654_2" data-name="Shape 3654 2" class="cls-2" d="M786,7470.24c-0.15-.1-0.3-0.2-0.455-0.29a5.647,5.647,0,0,0-.515-0.26c-0.095-.05-0.181-0.1-0.278-0.14-0.052-.02-0.106-0.03-0.158-0.05-0.186-.07-0.375-0.13-0.563-0.19-0.154-.04-0.306-0.09-0.462-0.13-0.185-.04-0.374-0.06-0.56-0.09-0.161-.02-0.318-0.05-0.479-0.06a3.741,3.741,0,0,0-.58-0.01,3.571,3.571,0,0,0-.462.01c-0.2.01-.395,0.04-0.593,0.07a3.48,3.48,0,0,0-.446.08c-0.194.04-.384,0.1-0.577,0.16-0.148.04-.3,0.09-0.44,0.14a1.547,1.547,0,0,0-.2.07c-0.119.05-.225,0.11-0.339,0.17-0.147.07-.288,0.14-0.431,0.22a5.311,5.311,0,0,0-.5.31c-0.129.09-.259,0.18-0.38,0.27-0.164.13-.318,0.27-0.47,0.41-0.072.07-.149,0.12-0.218,0.19l-33.778,33.9a7.223,7.223,0,0,0,10.2,10.23l21.462-21.54v52.06a7.224,7.224,0,0,0,3.182,6,7.092,7.092,0,0,0,4.036,1.24,7.228,7.228,0,0,0,7.215-7.24h0v-52.05l21.461,21.54a7.23,7.23,0,0,0,10.21-10.24l-33.787-33.9c-0.072-.07-0.155-0.13-0.227-0.2-0.145-.13-0.295-0.26-0.452-0.39C786.282,7470.43,786.142,7470.33,786,7470.24Z" transform="translate(-693 -7422)"/>
</svg>
