<svg xmlns="http://www.w3.org/2000/svg" width="53.281" height="62.81" viewBox="0 0 53.281 62.81">
  <defs>
    <style>
      .cls-1 {
        fill: #92d600;
        fill-rule: evenodd;
      }
    </style>
  </defs>
  <path class="cls-1" d="M770.235,5647.19a24.528,24.528,0,0,0-5.184-8.35,23.326,23.326,0,0,0-8.046-5.46,28.723,28.723,0,0,0-20.754,0,23.357,23.357,0,0,0-8.028,5.46,24.528,24.528,0,0,0-5.184,8.35,31.749,31.749,0,0,0,0,21.28,24.44,24.44,0,0,0,5.184,8.33,23.258,23.258,0,0,0,8.028,5.42,27.064,27.064,0,0,0,10.368,1.92,28.808,28.808,0,0,0,4.626-.36,30.563,30.563,0,0,0,4.266-1l9.072,9.86a4.581,4.581,0,0,0,1.836,1.26,6.825,6.825,0,0,0,2.3.36h5.76l-13.248-14.29a23.171,23.171,0,0,0,4.536-4,23.637,23.637,0,0,0,3.42-5.13,27.02,27.02,0,0,0,2.142-6.1,31.42,31.42,0,0,0,.738-6.91A29.773,29.773,0,0,0,770.235,5647.19Zm-6.624,19.15a18.043,18.043,0,0,1-3.672,6.37,15.716,15.716,0,0,1-5.76,4,21.156,21.156,0,0,1-15.084,0,15.859,15.859,0,0,1-5.778-4,17.881,17.881,0,0,1-3.69-6.37,28.654,28.654,0,0,1,0-17.04,17.885,17.885,0,0,1,3.69-6.39,16.153,16.153,0,0,1,5.778-4.02,21.015,21.015,0,0,1,15.084,0,16.006,16.006,0,0,1,5.76,4.02,18.046,18.046,0,0,1,3.672,6.39A28.654,28.654,0,0,1,763.611,5666.34Z" transform="translate(-721.188 -5631.44)"/>
</svg>
