<svg id="_9.svg" data-name="9.svg" xmlns="http://www.w3.org/2000/svg" width="57" height="57" viewBox="0 0 57 57">
  <defs>
    <style>
      .cls-1, .cls-2 {
        fill: #b8eaea;
      }

      .cls-2 {
        stroke: #fff;
        stroke-width: 1px;
        stroke-dasharray: 3 2;
      }

      .cls-3 {
        fill: #97683f;
        fill-rule: evenodd;
      }
    </style>
  </defs>
  <circle class="cls-1" cx="28.5" cy="28.5" r="28.5"/>
  <circle class="cls-2" cx="28.438" cy="28.5" r="25.5"/>
  <path class="cls-3" d="M795.673,217.022a3.439,3.439,0,0,0,.359,1.819,3.325,3.325,0,0,0,1.141,1.241,5.452,5.452,0,0,0,1.71.714,8.9,8.9,0,0,0,2.1.238A8.244,8.244,0,0,0,805.144,220a10.731,10.731,0,0,0,3.154-2.754,15.142,15.142,0,0,0,2.188-3.927,24.392,24.392,0,0,0,1.257-4.522,32.157,32.157,0,0,0,.462-4.352,11.775,11.775,0,0,0-.472-3.978,5.921,5.921,0,0,0-1.939-2.89,6.036,6.036,0,0,0-3.9-1.122,8.219,8.219,0,0,0-3.278.663,9.671,9.671,0,0,0-2.764,1.785,10.617,10.617,0,0,0-2.059,2.618,9.912,9.912,0,0,0-1.135,3.162,7.854,7.854,0,0,0,.048,3.485,5.939,5.939,0,0,0,1.261,2.4,5.086,5.086,0,0,0,2.015,1.394,6.478,6.478,0,0,0,2.318.442,10.624,10.624,0,0,0,1.673-.136,7.112,7.112,0,0,0,1.665-.476,6.71,6.71,0,0,0,1.5-.867,4.289,4.289,0,0,0,1.132-1.309l0.444-.782h0.136a41.977,41.977,0,0,1-.989,4.352,13.829,13.829,0,0,1-1.429,3.383,6.629,6.629,0,0,1-2.086,2.193,5.323,5.323,0,0,1-2.927.782,3.176,3.176,0,0,1-2.093-.663,2.252,2.252,0,0,1-.794-1.853h-2.856Zm12.635-9.571a7.439,7.439,0,0,1-1.493,2.006,5.6,5.6,0,0,1-1.745,1.122,4.826,4.826,0,0,1-1.762.357,3.988,3.988,0,0,1-1.528-.306,3.039,3.039,0,0,1-1.293-1.054,4.6,4.6,0,0,1-.754-1.989,9.542,9.542,0,0,1,.13-3.145,10.8,10.8,0,0,1,1.06-3.315,7,7,0,0,1,1.541-1.989,4.527,4.527,0,0,1,1.68-.952,5.579,5.579,0,0,1,1.487-.238,3.96,3.96,0,0,1,1.62.357,3.164,3.164,0,0,1,1.344,1.156,5.324,5.324,0,0,1,.765,2.023,8.44,8.44,0,0,1-.079,2.958A10.183,10.183,0,0,1,808.308,207.451Z" transform="translate(-775 -180)"/>
</svg>
