<svg xmlns="http://www.w3.org/2000/svg" width="24.97" height="76" viewBox="0 0 24.97 76">
  <defs>
    <style>
      .cls-1 {
        fill: #c10000;
        fill-rule: evenodd;
      }
    </style>
  </defs>
  <path class="cls-1" d="M1228.6,3979.55c-1.17-2.1,2.43.04,1.95-2.84-0.31-1.85-3.78-.49-3.88,2.17-0.07,1.9,1.78,2.62,3.88,2.61,2.07-.01,3.5-2.36,3.44-4.35-0.17-6.13-8.18-5.21-8.18-5.21s2-10.77-4.74-12.6c-8.06-2.2-9.87,8.4-5.16,9.56,1.59,0.39,4.99-1.72,4.3-3.91-2.86-2.03-3.22.11-4.3,2.17-2.25-3.16,2.51-6.82,4.73-5.22,0,0,6.89,3.69,0,13.91-6.14,16.39,10.62,19.39,7.32,29.98,0,0-.63-4.09-4.3-4.34-6.04-.42-3.54,8.84-1.72,6.95,1.75-2.58-1.4-1.94-1.3-2.61,0.53-3.31,2.68-2.9,4.31-1.3,2.77,2.73,2.14,5.51-2.15,8.26-12.79,8.19-13.84,13.12-13.78,16.51,0.06,3.24,5.89,5.07,6.03.44,0.03-1-2.34-1.5-2.59-.44-0.52,2.22-2.51,2.38-2.15-.43,1.05-8.21,9.08-13.56,14.64-12.17,3.38,0.84,6.56,3.64,6.03,9.99-0.55,6.58-10.45,5.3-9.47.87,1.9,2.05,4.99,1.47,5.16-1.74s-5.58-4.24-7.75.87c-0.6,4.83,2.49,7.74,6.46,8.26,3.7,0.49,8.47-2.71,8.61-7.39,0.3-9.77-8.18-13.47-8.18-13.47s3.89-3.58,4.74-6.95c2.47-9.84-7.86-12.66-8.61-24.34-0.65-9.88,6.88-9.12,6.88-9.12a3.465,3.465,0,0,1,3.02,3.47C1232.06,3979.82,1228.95,3980.17,1228.6,3979.55Z" transform="translate(-1209.03 -3959)"/>
</svg>
