<svg xmlns="http://www.w3.org/2000/svg" width="124" height="124" viewBox="0 0 124 124">
  <defs>
    <style>
      .cls-1 {
        fill: none;
        stroke: #917000;
        stroke-width: 4px;
      }

      .cls-2 {
        fill: #917000;
        fill-rule: evenodd;
      }
    </style>
  </defs>
  <rect class="cls-1" x="2" y="2" width="120" height="120"/>
  <path class="cls-2" d="M1675.6,582.855h-8.71v-3.2h6.69v-3.924h-6.69v-2.591a0.981,0.981,0,0,0,.97-0.72l-5.26-.288v3.6h-6.44v3.924h6.44v3.2h-7.2v-3.743h-3.74V573.1a0.887,0.887,0,0,0,.94-0.648l-5.08-.288v6.947h-1.4c0.18-1.224.36-2.484,0.46-3.672a0.785,0.785,0,0,0,.87-0.432L1643.17,574c-0.33,4.464-.9,9.323-1.91,12.131a20.477,20.477,0,0,1,2.59,2.268,31.7,31.7,0,0,0,1.55-5.184h2.12v7.451c-2.3.432-4.39,0.792-6.01,1.044l1.4,4.824a0.758,0.758,0,0,0,.65-0.612c1.12-.252,2.48-0.576,3.96-0.936v11.122h4.14v-12.13l3.2-.828v0.936h11.59v7.379c0,0.468-.18.576-0.72,0.612-0.54,0-2.41,0-4.06-.072a16.1,16.1,0,0,1,1.26,4.1c6.26,0,7.81-.539,7.81-4.571v-7.451h4.39v-3.96h-4.39V588a0.856,0.856,0,0,0,.93-0.684l-5.22-.216v3.023h-10.94l-0.07-.935-3.78.719v-6.695h2.48v3.636h21.46v-4Zm-12.28,17.386a27.033,27.033,0,0,0-3.63-5.471l-3.35,1.728a26.485,26.485,0,0,1,3.45,5.687Zm52.98-7.435v-3.959h-22.94v-1.924h18.02v-3.441h-18.02v-1.888h18.02v-3.441h-18.02v-1.961h19.1v-3.626h-23.65v16.281h-6.22v3.959h6.18v8.511l-4.62.518,1.63,4.551a0.8,0.8,0,0,0,.63-0.629c3.73-.555,9.51-1.48,14.98-2.442l-0.18-3.626c-2.59.37-5.29,0.7-7.85,1.036v-7.919h4.33c3.11,7.031,8.11,11.508,16.5,13.432a18.61,18.61,0,0,1,2.82-4,24.656,24.656,0,0,1-8.66-3.182,63.019,63.019,0,0,0,6.07-3.553,1.271,1.271,0,0,0,1.11-.222l-3.3-2.479h4.07Zm-5.36,0a52.1,52.1,0,0,1-5.66,3.848,16.4,16.4,0,0,1-2.96-3.848h8.62Z" transform="translate(-1618 -551)"/>
</svg>
