<svg id="_01.svg" data-name="01.svg" xmlns="http://www.w3.org/2000/svg" width="102" height="86" viewBox="0 0 102 86">
  <defs>
    <style>
      .cls-1, .cls-2 {
        fill: #009913;
      }

      .cls-2 {
        fill-rule: evenodd;
      }
    </style>
  </defs>
  <rect class="cls-1" y="80" width="102" height="6"/>
  <path class="cls-2" d="M186.287,195.907a30.86,30.86,0,0,0-4.973-10.283,19.914,19.914,0,0,0-7.447-6.052,22.375,22.375,0,0,0-18.4,0,20.011,20.011,0,0,0-7.4,6.052,30.555,30.555,0,0,0-4.95,10.283,60.587,60.587,0,0,0,0,29.317,30.29,30.29,0,0,0,4.95,10.238,20.085,20.085,0,0,0,7.4,6.03,22.375,22.375,0,0,0,18.405,0,19.987,19.987,0,0,0,7.447-6.03,30.591,30.591,0,0,0,4.973-10.238A59.877,59.877,0,0,0,186.287,195.907Zm-7.74,27.045a24.878,24.878,0,0,1-3.33,8.055,12.561,12.561,0,0,1-4.838,4.387,12.961,12.961,0,0,1-11.43,0,12.4,12.4,0,0,1-4.815-4.387,25.2,25.2,0,0,1-3.307-8.055,62.584,62.584,0,0,1,0-24.773,25.2,25.2,0,0,1,3.307-8.077,12.422,12.422,0,0,1,4.815-4.388,12.97,12.97,0,0,1,11.43,0,12.58,12.58,0,0,1,4.838,4.388,24.884,24.884,0,0,1,3.33,8.077A62.634,62.634,0,0,1,178.547,222.952ZM203.723,242.8h34.56v-6.12h-12.69v-58.5h-6.525L199.9,194.782l2.52,3.465a2.2,2.2,0,0,0,.81.7,2.5,2.5,0,0,0,1.215.293,2.565,2.565,0,0,0,.855-0.158,3.06,3.06,0,0,0,.9-0.517l11.52-9.855q-0.135,2.025-.135,4v43.965h-13.86v6.12Z" transform="translate(-139 -177.594)"/>
</svg>