<svg xmlns="http://www.w3.org/2000/svg" width="102" height="86"><path fill="#009913" d="M0 80h102v6H0z"/><path d="M47.287 18.313A30.86 30.86 0 0042.314 8.03a19.914 19.914 0 00-7.447-6.052 22.375 22.375 0 00-18.4 0 20.011 20.011 0 00-7.4 6.052 30.555 30.555 0 00-4.95 10.283 60.587 60.587 0 000 29.317 30.29 30.29 0 004.95 10.238 20.085 20.085 0 007.4 6.03 22.375 22.375 0 0018.405 0 19.987 19.987 0 007.447-6.03 30.591 30.591 0 004.973-10.238 59.877 59.877 0 00-.005-29.317zm-7.74 27.045a24.878 24.878 0 01-3.33 8.055 12.561 12.561 0 01-4.838 4.387 12.961 12.961 0 01-11.43 0 12.4 12.4 0 01-4.815-4.387 25.2 25.2 0 01-3.307-8.055 62.584 62.584 0 010-24.773 25.2 25.2 0 013.307-8.077 12.422 12.422 0 014.815-4.388 12.97 12.97 0 0111.43 0 12.58 12.58 0 014.838 4.388 24.884 24.884 0 013.33 8.077 62.634 62.634 0 010 24.773zm25.176 19.848h34.56v-6.12h-12.69V.586h-6.525L60.9 17.188l2.52 3.465a2.2 2.2 0 00.81.7 2.5 2.5 0 001.215.293 2.565 2.565 0 00.855-.158 3.06 3.06 0 00.9-.517l11.52-9.855q-.135 2.025-.135 4v43.965h-13.86v6.12z" fill-rule="evenodd" fill="#009913"/></svg>