<svg id="_01.svg" data-name="01.svg" xmlns="http://www.w3.org/2000/svg" width="102" height="86" viewBox="0 0 102 86">
  <defs>
    <style>
      .cls-1, .cls-2 {
        fill: #009913;
      }

      .cls-2 {
        fill-rule: evenodd;
      }
    </style>
  </defs>
  <rect class="cls-1" y="80" width="102" height="6"/>
  <path class="cls-2" d="M186.287,333.907a30.86,30.86,0,0,0-4.973-10.283,19.914,19.914,0,0,0-7.447-6.052,22.375,22.375,0,0,0-18.4,0,20.011,20.011,0,0,0-7.4,6.052,30.555,30.555,0,0,0-4.95,10.283,60.587,60.587,0,0,0,0,29.317,30.29,30.29,0,0,0,4.95,10.238,20.085,20.085,0,0,0,7.4,6.03,22.375,22.375,0,0,0,18.405,0,19.987,19.987,0,0,0,7.447-6.03,30.591,30.591,0,0,0,4.973-10.238A59.877,59.877,0,0,0,186.287,333.907Zm-7.74,27.045a24.878,24.878,0,0,1-3.33,8.055,12.561,12.561,0,0,1-4.838,4.387,12.961,12.961,0,0,1-11.43,0,12.4,12.4,0,0,1-4.815-4.387,25.2,25.2,0,0,1-3.307-8.055,62.584,62.584,0,0,1,0-24.773,25.2,25.2,0,0,1,3.307-8.077,12.422,12.422,0,0,1,4.815-4.388,12.97,12.97,0,0,1,11.43,0,12.58,12.58,0,0,1,4.838,4.388,24.884,24.884,0,0,1,3.33,8.077A62.634,62.634,0,0,1,178.547,360.952Zm31.589-44.168a19.511,19.511,0,0,0-6.345,3.488,18.623,18.623,0,0,0-4.568,5.692,23.73,23.73,0,0,0-2.43,7.808l4.185,0.72c0.21,0.03.4,0.053,0.563,0.067s0.322,0.023.472,0.023A2.9,2.9,0,0,0,203.9,334a3.586,3.586,0,0,0,1.08-1.89,11.824,11.824,0,0,1,1.553-3.87,12.022,12.022,0,0,1,6.367-5.04,13.611,13.611,0,0,1,4.5-.72,14.454,14.454,0,0,1,4.545.7,10.428,10.428,0,0,1,3.69,2.093,9.626,9.626,0,0,1,2.475,3.532,12.742,12.742,0,0,1,.9,4.973,17.179,17.179,0,0,1-.81,5.332,22.585,22.585,0,0,1-2.317,4.928,36.6,36.6,0,0,1-3.623,4.837q-2.115,2.409-4.68,5.018l-20.655,20.745a4.674,4.674,0,0,0-1.1,1.665,4.982,4.982,0,0,0-.338,1.755V380.8h43.02v-4.86a2.679,2.679,0,0,0-.765-1.98,2.8,2.8,0,0,0-2.07-.765h-21.6a22.828,22.828,0,0,0-3.555.292,33.785,33.785,0,0,0-3.645.788l16.965-17.37q2.7-2.745,5.108-5.378a43.146,43.146,0,0,0,4.252-5.445,27.138,27.138,0,0,0,2.925-5.872,19.879,19.879,0,0,0,1.08-6.66,18.378,18.378,0,0,0-1.485-7.56,16.514,16.514,0,0,0-4.072-5.648,17.656,17.656,0,0,0-6.143-3.532,23.5,23.5,0,0,0-7.65-1.215A24.284,24.284,0,0,0,210.136,316.784Z" transform="translate(-139 -315.594)"/>
</svg>
