<svg xmlns="http://www.w3.org/2000/svg" width="102" height="86"><path fill="#009913" d="M0 80h102v6H0z"/><path d="M47.287 18.313A30.86 30.86 0 0042.314 8.03a19.914 19.914 0 00-7.447-6.052 22.375 22.375 0 00-18.4 0 20.011 20.011 0 00-7.4 6.052 30.555 30.555 0 00-4.95 10.283 60.587 60.587 0 000 29.317 30.29 30.29 0 004.95 10.238 20.085 20.085 0 007.4 6.03 22.375 22.375 0 0018.405 0 19.987 19.987 0 007.447-6.03 30.591 30.591 0 004.973-10.238 59.877 59.877 0 00-.005-29.317zm-7.74 27.045a24.878 24.878 0 01-3.33 8.055 12.561 12.561 0 01-4.838 4.387 12.961 12.961 0 01-11.43 0 12.4 12.4 0 01-4.815-4.387 25.2 25.2 0 01-3.307-8.055 62.584 62.584 0 010-24.773 25.2 25.2 0 013.307-8.077 12.422 12.422 0 014.815-4.388 12.97 12.97 0 0111.43 0 12.58 12.58 0 014.838 4.388 24.884 24.884 0 013.33 8.077 62.634 62.634 0 010 24.773zM71.136 1.19a19.511 19.511 0 00-6.345 3.488 18.623 18.623 0 00-4.568 5.692 23.73 23.73 0 00-2.43 7.808l4.185.72c.21.03.4.053.563.067s.322.023.472.023a2.9 2.9 0 001.887-.582 3.586 3.586 0 001.08-1.89 11.824 11.824 0 011.553-3.87 12.022 12.022 0 016.367-5.04 13.611 13.611 0 014.5-.72 14.454 14.454 0 014.545.7 10.428 10.428 0 013.69 2.093 9.626 9.626 0 012.475 3.532 12.742 12.742 0 01.9 4.973 17.179 17.179 0 01-.81 5.332 22.585 22.585 0 01-2.317 4.928 36.6 36.6 0 01-3.623 4.837q-2.115 2.409-4.68 5.018L57.925 59.044a4.674 4.674 0 00-1.1 1.665 4.982 4.982 0 00-.338 1.755v2.742h43.02v-4.86a2.679 2.679 0 00-.765-1.98 2.8 2.8 0 00-2.07-.765h-21.6a22.828 22.828 0 00-3.555.292 33.785 33.785 0 00-3.645.788l16.965-17.37q2.7-2.745 5.108-5.378a43.146 43.146 0 004.252-5.445 27.138 27.138 0 002.925-5.872 19.879 19.879 0 001.08-6.66 18.378 18.378 0 00-1.485-7.56 16.514 16.514 0 00-4.072-5.648 17.656 17.656 0 00-6.143-3.532 23.5 23.5 0 00-7.65-1.215 24.284 24.284 0 00-7.716 1.189z" fill-rule="evenodd" fill="#009913"/></svg>