<svg id="_01.svg" data-name="01.svg" xmlns="http://www.w3.org/2000/svg" width="102" height="86" viewBox="0 0 102 86">
  <defs>
    <style>
      .cls-1, .cls-2 {
        fill: #009913;
      }

      .cls-2 {
        fill-rule: evenodd;
      }
    </style>
  </defs>
  <rect class="cls-1" y="80" width="102" height="6"/>
  <path class="cls-2" d="M186.287,471.907a30.86,30.86,0,0,0-4.973-10.283,19.914,19.914,0,0,0-7.447-6.052,22.375,22.375,0,0,0-18.4,0,20.011,20.011,0,0,0-7.4,6.052,30.555,30.555,0,0,0-4.95,10.283,60.587,60.587,0,0,0,0,29.317,30.29,30.29,0,0,0,4.95,10.238,20.085,20.085,0,0,0,7.4,6.03,22.375,22.375,0,0,0,18.405,0,19.987,19.987,0,0,0,7.447-6.03,30.591,30.591,0,0,0,4.973-10.238A59.877,59.877,0,0,0,186.287,471.907Zm-7.74,27.045a24.878,24.878,0,0,1-3.33,8.055,12.561,12.561,0,0,1-4.838,4.387,12.961,12.961,0,0,1-11.43,0,12.4,12.4,0,0,1-4.815-4.387,25.2,25.2,0,0,1-3.307-8.055,62.584,62.584,0,0,1,0-24.773,25.2,25.2,0,0,1,3.307-8.077,12.422,12.422,0,0,1,4.815-4.388,12.97,12.97,0,0,1,11.43,0,12.58,12.58,0,0,1,4.838,4.388,24.884,24.884,0,0,1,3.33,8.077A62.634,62.634,0,0,1,178.547,498.952Zm32.444-44.168a19.511,19.511,0,0,0-6.345,3.488,18.623,18.623,0,0,0-4.568,5.692,23.73,23.73,0,0,0-2.43,7.808l4.185,0.709c0.21,0.029.4,0.052,0.563,0.066s0.322,0.022.472,0.022a2.837,2.837,0,0,0,1.845-.584,3.583,3.583,0,0,0,1.08-1.888,14.317,14.317,0,0,1,1.62-3.843,11.614,11.614,0,0,1,2.678-3.057,12.213,12.213,0,0,1,3.667-2,13.637,13.637,0,0,1,4.5-.719,14.655,14.655,0,0,1,4.523.675,10.073,10.073,0,0,1,3.622,2.025,9.34,9.34,0,0,1,2.408,3.42,12.386,12.386,0,0,1,.877,4.86,12.217,12.217,0,0,1-.832,4.59,8.685,8.685,0,0,1-2.678,3.555,13.638,13.638,0,0,1-4.747,2.34,25,25,0,0,1-7,.855v5.85a31.4,31.4,0,0,1,8.258.9,12.981,12.981,0,0,1,5.04,2.475,8.221,8.221,0,0,1,2.52,3.735,15.49,15.49,0,0,1,.7,4.77,11.553,11.553,0,0,1-.855,4.275,11.971,11.971,0,0,1-2.542,3.915,12.89,12.89,0,0,1-4.23,2.857,14.759,14.759,0,0,1-5.918,1.1,14.155,14.155,0,0,1-5.647-.99,13.134,13.134,0,0,1-3.8-2.43,12.473,12.473,0,0,1-2.43-3.083q-0.9-1.641-1.53-2.947-0.09-.225-0.18-0.428c-0.06-.135-0.12-0.262-0.18-0.382a2.443,2.443,0,0,0-1.057-1.193,3.283,3.283,0,0,0-1.6-.382,4.764,4.764,0,0,0-1.89.405l-3.42,1.44a39.9,39.9,0,0,0,2.745,6.682,18.8,18.8,0,0,0,4.14,5.333,18.2,18.2,0,0,0,6.165,3.532,26.55,26.55,0,0,0,8.775,1.283,25.7,25.7,0,0,0,8.348-1.328,20.625,20.625,0,0,0,6.817-3.825,18.017,18.017,0,0,0,4.613-6.052,18.451,18.451,0,0,0,1.687-8.01,15.077,15.077,0,0,0-3.172-9.81q-3.173-3.915-9.473-5.58a19.7,19.7,0,0,0,4.635-2.025,13.471,13.471,0,0,0,3.533-3.083,13.315,13.315,0,0,0,2.25-4.23,17.578,17.578,0,0,0,.787-5.467,16.191,16.191,0,0,0-1.4-6.8,15.086,15.086,0,0,0-3.892-5.22,17.611,17.611,0,0,0-5.963-3.33,23.5,23.5,0,0,0-7.56-1.17A24.284,24.284,0,0,0,210.991,454.784Z" transform="translate(-139 -453.594)"/>
</svg>
