<svg xmlns="http://www.w3.org/2000/svg" width="102" height="86"><path fill="#009913" d="M0 80h102v6H0z"/><path d="M47.287 18.313A30.86 30.86 0 0042.314 8.03a19.914 19.914 0 00-7.447-6.052 22.375 22.375 0 00-18.4 0 20.011 20.011 0 00-7.4 6.052 30.555 30.555 0 00-4.95 10.283 60.587 60.587 0 000 29.317 30.29 30.29 0 004.95 10.238 20.085 20.085 0 007.4 6.03 22.375 22.375 0 0018.405 0 19.987 19.987 0 007.447-6.03 30.591 30.591 0 004.973-10.238 59.877 59.877 0 00-.005-29.317zm-7.74 27.045a24.878 24.878 0 01-3.33 8.055 12.561 12.561 0 01-4.838 4.387 12.961 12.961 0 01-11.43 0 12.4 12.4 0 01-4.815-4.387 25.2 25.2 0 01-3.307-8.055 62.584 62.584 0 010-24.773 25.2 25.2 0 013.307-8.077 12.422 12.422 0 014.815-4.388 12.97 12.97 0 0111.43 0 12.58 12.58 0 014.838 4.388 24.884 24.884 0 013.33 8.077 62.634 62.634 0 010 24.773zM71.991 1.19a19.511 19.511 0 00-6.345 3.488 18.623 18.623 0 00-4.568 5.692 23.73 23.73 0 00-2.43 7.808l4.185.709c.21.029.4.052.563.066s.322.022.472.022a2.837 2.837 0 001.845-.584 3.583 3.583 0 001.08-1.888 14.317 14.317 0 011.62-3.843 11.614 11.614 0 012.678-3.057 12.213 12.213 0 013.667-2 13.637 13.637 0 014.5-.719 14.655 14.655 0 014.523.675 10.073 10.073 0 013.622 2.025 9.34 9.34 0 012.408 3.42 12.386 12.386 0 01.877 4.86 12.217 12.217 0 01-.832 4.59 8.685 8.685 0 01-2.678 3.555 13.638 13.638 0 01-4.747 2.34 25 25 0 01-7 .855v5.85a31.4 31.4 0 018.258.9 12.981 12.981 0 015.04 2.475 8.221 8.221 0 012.52 3.735 15.49 15.49 0 01.7 4.77 11.553 11.553 0 01-.855 4.275 11.971 11.971 0 01-2.542 3.915 12.89 12.89 0 01-4.23 2.857 14.759 14.759 0 01-5.918 1.1 14.155 14.155 0 01-5.647-.99 13.134 13.134 0 01-3.8-2.43 12.473 12.473 0 01-2.43-3.083q-.9-1.641-1.53-2.947-.09-.225-.18-.428a9.293 9.293 0 00-.18-.382 2.443 2.443 0 00-1.057-1.193 3.283 3.283 0 00-1.6-.382 4.764 4.764 0 00-1.89.405l-3.42 1.44a39.9 39.9 0 002.745 6.682 18.8 18.8 0 004.14 5.333 18.2 18.2 0 006.165 3.532 26.55 26.55 0 008.775 1.283 25.7 25.7 0 008.348-1.328 20.625 20.625 0 006.817-3.825 18.017 18.017 0 004.613-6.052 18.451 18.451 0 001.687-8.01 15.077 15.077 0 00-3.172-9.81q-3.173-3.915-9.473-5.58a19.7 19.7 0 004.635-2.025 13.471 13.471 0 003.533-3.083 13.315 13.315 0 002.25-4.23 17.578 17.578 0 00.787-5.467 16.191 16.191 0 00-1.4-6.8 15.086 15.086 0 00-3.892-5.22 17.611 17.611 0 00-5.963-3.33 23.5 23.5 0 00-7.56-1.17 24.284 24.284 0 00-7.714 1.199z" fill-rule="evenodd" fill="#009913"/></svg>