<svg xmlns="http://www.w3.org/2000/svg" width="102" height="86"><path fill="#009913" d="M0 80h102v6H0z"/><path d="M46.287 18.313A30.86 30.86 0 0041.314 8.03a19.914 19.914 0 00-7.447-6.052 22.375 22.375 0 00-18.4 0 20.011 20.011 0 00-7.4 6.052 30.555 30.555 0 00-4.95 10.283 60.587 60.587 0 000 29.317 30.29 30.29 0 004.95 10.238 20.085 20.085 0 007.4 6.03 22.375 22.375 0 0018.405 0 19.987 19.987 0 007.447-6.03 30.591 30.591 0 004.973-10.238 59.877 59.877 0 00-.005-29.317zm-7.74 27.045a24.878 24.878 0 01-3.33 8.055 12.561 12.561 0 01-4.838 4.387 12.961 12.961 0 01-11.43 0 12.4 12.4 0 01-4.815-4.387 25.2 25.2 0 01-3.307-8.055 62.584 62.584 0 010-24.773 25.2 25.2 0 013.307-8.077 12.422 12.422 0 014.815-4.388 12.97 12.97 0 0111.43 0 12.58 12.58 0 014.838 4.388 24.884 24.884 0 013.33 8.077 62.634 62.634 0 010 24.773zm52.9-44.64h-7.47L52.612 42.343l.81 4.1a2.258 2.258 0 00.833 1.282 2.414 2.414 0 001.552.518h28.575v16.963h7.065V48.238h8.01a1.664 1.664 0 001.328-.5 1.8 1.8 0 00.427-1.215v-4.59h-9.765V.713zm-7.065 41.22H61.293l23.445-31.905a26.725 26.725 0 00-.292 2.79q-.067 1.35-.068 2.52v26.6z" fill-rule="evenodd" fill="#009913"/></svg>