<svg id="_01.svg" data-name="01.svg" xmlns="http://www.w3.org/2000/svg" width="102" height="86" viewBox="0 0 102 86">
  <defs>
    <style>
      .cls-1, .cls-2 {
        fill: #009913;
      }

      .cls-2 {
        fill-rule: evenodd;
      }
    </style>
  </defs>
  <rect class="cls-1" y="80" width="102" height="6"/>
  <path class="cls-2" d="M185.287,608.907a30.86,30.86,0,0,0-4.973-10.283,19.914,19.914,0,0,0-7.447-6.052,22.375,22.375,0,0,0-18.4,0,20.011,20.011,0,0,0-7.4,6.052,30.555,30.555,0,0,0-4.95,10.283,60.587,60.587,0,0,0,0,29.317,30.29,30.29,0,0,0,4.95,10.238,20.085,20.085,0,0,0,7.4,6.03,22.375,22.375,0,0,0,18.405,0,19.987,19.987,0,0,0,7.447-6.03,30.591,30.591,0,0,0,4.973-10.238A59.877,59.877,0,0,0,185.287,608.907Zm-7.74,27.045a24.878,24.878,0,0,1-3.33,8.055,12.561,12.561,0,0,1-4.838,4.387,12.961,12.961,0,0,1-11.43,0,12.4,12.4,0,0,1-4.815-4.387,25.2,25.2,0,0,1-3.307-8.055,62.584,62.584,0,0,1,0-24.773,25.2,25.2,0,0,1,3.307-8.077,12.422,12.422,0,0,1,4.815-4.388,12.97,12.97,0,0,1,11.43,0,12.58,12.58,0,0,1,4.838,4.388,24.884,24.884,0,0,1,3.33,8.077A62.634,62.634,0,0,1,177.547,635.952Zm52.9-44.64h-7.47l-31.365,41.625,0.81,4.1a2.258,2.258,0,0,0,.833,1.282,2.414,2.414,0,0,0,1.552.518h28.575V655.8h7.065V638.832h8.01a1.664,1.664,0,0,0,1.328-.5,1.8,1.8,0,0,0,.427-1.215v-4.59h-9.765v-41.22Zm-7.065,41.22H200.293l23.445-31.905a26.725,26.725,0,0,0-.292,2.79q-0.067,1.35-.068,2.52v26.6Z" transform="translate(-139 -590.594)"/>
</svg>
