<svg id="_01.svg" data-name="01.svg" xmlns="http://www.w3.org/2000/svg" width="102" height="86" viewBox="0 0 102 86">
  <defs>
    <style>
      .cls-1, .cls-2 {
        fill: #009913;
      }

      .cls-2 {
        fill-rule: evenodd;
      }
    </style>
  </defs>
  <rect class="cls-1" y="80" width="102" height="6"/>
  <path class="cls-2" d="M187.287,746.907a30.86,30.86,0,0,0-4.973-10.283,19.914,19.914,0,0,0-7.447-6.052,22.375,22.375,0,0,0-18.4,0,20.011,20.011,0,0,0-7.4,6.052,30.555,30.555,0,0,0-4.95,10.283,60.587,60.587,0,0,0,0,29.317,30.29,30.29,0,0,0,4.95,10.238,20.085,20.085,0,0,0,7.4,6.03,22.375,22.375,0,0,0,18.405,0,19.987,19.987,0,0,0,7.447-6.03,30.591,30.591,0,0,0,4.973-10.238A59.877,59.877,0,0,0,187.287,746.907Zm-7.74,27.045a24.878,24.878,0,0,1-3.33,8.055,12.561,12.561,0,0,1-4.838,4.387,12.961,12.961,0,0,1-11.43,0,12.4,12.4,0,0,1-4.815-4.387,25.2,25.2,0,0,1-3.307-8.055,62.584,62.584,0,0,1,0-24.773,25.2,25.2,0,0,1,3.307-8.077,12.422,12.422,0,0,1,4.815-4.388,12.97,12.97,0,0,1,11.43,0,12.58,12.58,0,0,1,4.838,4.388,24.884,24.884,0,0,1,3.33,8.077A62.634,62.634,0,0,1,179.547,773.952Zm56.271-44.64H205.263l-5.22,30.15,5.04,1.485a35.193,35.193,0,0,1,5.4-1.3,32.871,32.871,0,0,1,5.04-.405,18.513,18.513,0,0,1,6.21.945,12.191,12.191,0,0,1,4.433,2.655,10.7,10.7,0,0,1,2.655,4.14,15.948,15.948,0,0,1,.877,5.445,17.88,17.88,0,0,1-1.035,6.255,13.787,13.787,0,0,1-2.947,4.792,12.923,12.923,0,0,1-4.613,3.083,16.236,16.236,0,0,1-6.075,1.08,17.122,17.122,0,0,1-5.2-.7,23.383,23.383,0,0,1-3.8-1.552q-1.62-.855-2.767-1.553a4.023,4.023,0,0,0-2-.7,2.506,2.506,0,0,0-2.16,1.17l-2.43,3.42a24.2,24.2,0,0,0,3.42,2.565,28.89,28.89,0,0,0,4.185,2.16,27.391,27.391,0,0,0,4.86,1.507,27.029,27.029,0,0,0,14.58-1.012,21.564,21.564,0,0,0,7.358-4.523A21.26,21.26,0,0,0,236,781.332a23.018,23.018,0,0,0,1.8-9.27,21.979,21.979,0,0,0-1.327-7.74,17.045,17.045,0,0,0-3.938-6.165,18.311,18.311,0,0,0-6.457-4.1,24.584,24.584,0,0,0-8.888-1.485,44.675,44.675,0,0,0-9.315,1.08l2.97-16.92h20.25a4.969,4.969,0,0,0,3.645-1.1,3.849,3.849,0,0,0,1.08-2.812v-3.51Z" transform="translate(-139 -728.594)"/>
</svg>
