<svg xmlns="http://www.w3.org/2000/svg" width="102" height="86"><path fill="#009913" d="M0 80h102v6H0z"/><path d="M48.287 18.313A30.86 30.86 0 0043.314 8.03a19.914 19.914 0 00-7.447-6.052 22.375 22.375 0 00-18.4 0 20.011 20.011 0 00-7.4 6.052 30.555 30.555 0 00-4.95 10.283 60.587 60.587 0 000 29.317 30.29 30.29 0 004.95 10.238 20.085 20.085 0 007.4 6.03 22.375 22.375 0 0018.405 0 19.987 19.987 0 007.447-6.03 30.591 30.591 0 004.973-10.238 59.877 59.877 0 00-.005-29.317zm-7.74 27.045a24.878 24.878 0 01-3.33 8.055 12.561 12.561 0 01-4.838 4.387 12.961 12.961 0 01-11.43 0 12.4 12.4 0 01-4.815-4.387 25.2 25.2 0 01-3.307-8.055 62.584 62.584 0 010-24.773 25.2 25.2 0 013.307-8.077 12.422 12.422 0 014.815-4.388 12.97 12.97 0 0111.43 0 12.58 12.58 0 014.838 4.388 24.884 24.884 0 013.33 8.077 62.634 62.634 0 010 24.773zM96.818.718H66.263l-5.22 30.15 5.04 1.485a35.193 35.193 0 015.4-1.3 32.871 32.871 0 015.04-.405 18.513 18.513 0 016.21.945 12.191 12.191 0 014.433 2.655 10.7 10.7 0 012.655 4.14 15.948 15.948 0 01.877 5.445 17.88 17.88 0 01-1.035 6.255 13.787 13.787 0 01-2.947 4.792 12.923 12.923 0 01-4.613 3.083 16.236 16.236 0 01-6.075 1.08 17.122 17.122 0 01-5.2-.7 23.383 23.383 0 01-3.8-1.552q-1.62-.855-2.767-1.553a4.023 4.023 0 00-2-.7 2.506 2.506 0 00-2.16 1.17l-2.43 3.42a24.2 24.2 0 003.42 2.565 28.89 28.89 0 004.185 2.16 27.391 27.391 0 004.86 1.507 27.029 27.029 0 0014.58-1.012 21.564 21.564 0 007.358-4.523A21.26 21.26 0 0097 52.738a23.018 23.018 0 001.8-9.27 21.979 21.979 0 00-1.327-7.74 17.045 17.045 0 00-3.938-6.165 18.311 18.311 0 00-6.457-4.1 24.584 24.584 0 00-8.888-1.485 44.675 44.675 0 00-9.315 1.08l2.97-16.92h20.25a4.969 4.969 0 003.645-1.1 3.849 3.849 0 001.08-2.812V.716z" fill-rule="evenodd" fill="#009913"/></svg>