<svg id="_01.svg" data-name="01.svg" xmlns="http://www.w3.org/2000/svg" width="102" height="86" viewBox="0 0 102 86">
  <defs>
    <style>
      .cls-1, .cls-2 {
        fill: #009913;
      }

      .cls-2 {
        fill-rule: evenodd;
      }
    </style>
  </defs>
  <rect class="cls-1" y="80" width="102" height="6"/>
  <path class="cls-2" d="M186.287,884.907a30.86,30.86,0,0,0-4.973-10.283,19.914,19.914,0,0,0-7.447-6.052,22.375,22.375,0,0,0-18.4,0,20.011,20.011,0,0,0-7.4,6.052,30.555,30.555,0,0,0-4.95,10.283,60.587,60.587,0,0,0,0,29.317,30.29,30.29,0,0,0,4.95,10.238,20.085,20.085,0,0,0,7.4,6.03,22.375,22.375,0,0,0,18.405,0,19.987,19.987,0,0,0,7.447-6.03,30.591,30.591,0,0,0,4.973-10.238A59.877,59.877,0,0,0,186.287,884.907Zm-7.74,27.045a24.878,24.878,0,0,1-3.33,8.055,12.561,12.561,0,0,1-4.838,4.387,12.961,12.961,0,0,1-11.43,0,12.4,12.4,0,0,1-4.815-4.387,25.2,25.2,0,0,1-3.307-8.055,62.584,62.584,0,0,1,0-24.773,25.2,25.2,0,0,1,3.307-8.077,12.422,12.422,0,0,1,4.815-4.388,12.97,12.97,0,0,1,11.43,0,12.58,12.58,0,0,1,4.838,4.388,24.884,24.884,0,0,1,3.33,8.077A62.634,62.634,0,0,1,178.547,911.952Zm35.481-18.788a19,19,0,0,0-5.085,2.453l22.365-28.3H224.2a5.672,5.672,0,0,0-2.565.562,5.026,5.026,0,0,0-1.755,1.373l-16.335,22a45.7,45.7,0,0,0-5.985,10.26,24.479,24.479,0,0,0-1.89,9,26.065,26.065,0,0,0,1.508,9.112,19.39,19.39,0,0,0,4.3,6.93,19,19,0,0,0,6.728,4.41,23.8,23.8,0,0,0,8.8,1.553,24.258,24.258,0,0,0,9-1.62,20.861,20.861,0,0,0,7-4.455,20.238,20.238,0,0,0,4.522-6.66,21.011,21.011,0,0,0,1.62-8.28,20.6,20.6,0,0,0-1.53-8.168,17.41,17.41,0,0,0-10.215-9.765,20.96,20.96,0,0,0-7.335-1.282A20,20,0,0,0,214.028,893.164ZM204.376,906.8a12.9,12.9,0,0,1,2.79-4.32,13.411,13.411,0,0,1,4.432-2.97,14.915,14.915,0,0,1,5.85-1.1,15.648,15.648,0,0,1,5.535.945,11.871,11.871,0,0,1,7.11,7.042,15.584,15.584,0,0,1,.99,5.693,14.591,14.591,0,0,1-1.012,5.49,12.747,12.747,0,0,1-2.88,4.365,13.23,13.23,0,0,1-4.478,2.88,15.752,15.752,0,0,1-5.85,1.035,15.046,15.046,0,0,1-5.692-1.013,11.78,11.78,0,0,1-4.23-2.857,12.287,12.287,0,0,1-2.633-4.41,17.03,17.03,0,0,1-.9-5.67A13.782,13.782,0,0,1,204.376,906.8Z" transform="translate(-139 -866.594)"/>
</svg>
