<svg xmlns="http://www.w3.org/2000/svg" width="102" height="86"><path fill="#009913" d="M0 80h102v6H0z"/><path d="M47.287 18.313A30.86 30.86 0 0042.314 8.03a19.914 19.914 0 00-7.447-6.052 22.375 22.375 0 00-18.4 0 20.011 20.011 0 00-7.4 6.052 30.555 30.555 0 00-4.95 10.283 60.587 60.587 0 000 29.317 30.29 30.29 0 004.95 10.238 20.085 20.085 0 007.4 6.03 22.375 22.375 0 0018.405 0 19.987 19.987 0 007.447-6.03 30.591 30.591 0 004.973-10.238 59.877 59.877 0 00-.005-29.317zm-7.74 27.045a24.878 24.878 0 01-3.33 8.055 12.561 12.561 0 01-4.838 4.387 12.961 12.961 0 01-11.43 0 12.4 12.4 0 01-4.815-4.387 25.2 25.2 0 01-3.307-8.055 62.584 62.584 0 010-24.773 25.2 25.2 0 013.307-8.077 12.422 12.422 0 014.815-4.388 12.97 12.97 0 0111.43 0 12.58 12.58 0 014.838 4.388 24.884 24.884 0 013.33 8.077 62.634 62.634 0 010 24.773zM75.028 26.57a19 19 0 00-5.085 2.453L92.308.723H85.2a5.672 5.672 0 00-2.565.562 5.026 5.026 0 00-1.755 1.373l-16.335 22a45.7 45.7 0 00-5.985 10.26 24.479 24.479 0 00-1.89 9 26.065 26.065 0 001.508 9.112 19.39 19.39 0 004.3 6.93 19 19 0 006.728 4.41 23.8 23.8 0 008.8 1.553 24.258 24.258 0 009-1.62 20.861 20.861 0 007-4.455 20.238 20.238 0 004.522-6.66 21.011 21.011 0 001.62-8.28 20.6 20.6 0 00-1.53-8.168 17.41 17.41 0 00-10.215-9.765 20.96 20.96 0 00-7.335-1.282 20 20 0 00-6.04.877zm-9.652 13.636a12.9 12.9 0 012.79-4.32 13.411 13.411 0 014.432-2.97 14.915 14.915 0 015.85-1.1 15.648 15.648 0 015.535.945 11.871 11.871 0 017.11 7.042 15.584 15.584 0 01.99 5.693 14.591 14.591 0 01-1.012 5.49 12.747 12.747 0 01-2.88 4.365 13.23 13.23 0 01-4.478 2.88 15.752 15.752 0 01-5.85 1.035 15.046 15.046 0 01-5.692-1.013 11.78 11.78 0 01-4.23-2.857 12.287 12.287 0 01-2.633-4.41 17.03 17.03 0 01-.9-5.67 13.782 13.782 0 01.968-5.11z" fill-rule="evenodd" fill="#009913"/></svg>