<svg xmlns="http://www.w3.org/2000/svg" width="102" height="86"><path fill="#009913" d="M0 80h102v6H0z"/><path d="M47.287 18.32a30.937 30.937 0 00-4.973-10.29 19.947 19.947 0 00-7.447-6.05 22.375 22.375 0 00-18.4 0 20.045 20.045 0 00-7.4 6.05 30.631 30.631 0 00-4.95 10.29 60.558 60.558 0 000 29.31 30.264 30.264 0 004.95 10.24 20.085 20.085 0 007.4 6.03 22.375 22.375 0 0018.405 0 19.987 19.987 0 007.447-6.03 30.564 30.564 0 004.973-10.24 59.849 59.849 0 00-.005-29.31zm-7.74 27.04a24.91 24.91 0 01-3.33 8.06 12.508 12.508 0 01-4.838 4.38 12.944 12.944 0 01-11.43 0 12.352 12.352 0 01-4.815-4.38 25.231 25.231 0 01-3.307-8.06 62.569 62.569 0 010-24.77 25.165 25.165 0 013.307-8.08 12.46 12.46 0 014.815-4.39 13.032 13.032 0 0111.43 0 12.618 12.618 0 014.838 4.39 24.846 24.846 0 013.33 8.08 62.619 62.619 0 010 24.77zM56.758.72v5.45a2.088 2.088 0 001.98 1.98H92.4a14.265 14.265 0 00-1.372 1.8q-.608.945-1.193 2.07l-27.09 53.19h5.715a4.3 4.3 0 002.79-.84 5.914 5.914 0 001.62-2L99.555 8.51a11.465 11.465 0 00.7-1.67 7.936 7.936 0 00.337-2.52V.72h-43.83z" fill-rule="evenodd" fill="#009913"/></svg>