<svg id="_01.svg" data-name="01.svg" xmlns="http://www.w3.org/2000/svg" width="102" height="86" viewBox="0 0 102 86">
  <defs>
    <style>
      .cls-1, .cls-2 {
        fill: #009913;
      }

      .cls-2 {
        fill-rule: evenodd;
      }
    </style>
  </defs>
  <rect class="cls-1" y="80" width="102" height="6"/>
  <path class="cls-2" d="M186.287,1159.91a30.937,30.937,0,0,0-4.973-10.29,19.947,19.947,0,0,0-7.447-6.05,22.375,22.375,0,0,0-18.4,0,20.045,20.045,0,0,0-7.4,6.05,30.631,30.631,0,0,0-4.95,10.29,60.558,60.558,0,0,0,0,29.31,30.264,30.264,0,0,0,4.95,10.24,20.085,20.085,0,0,0,7.4,6.03,22.375,22.375,0,0,0,18.405,0,19.987,19.987,0,0,0,7.447-6.03,30.564,30.564,0,0,0,4.973-10.24A59.849,59.849,0,0,0,186.287,1159.91Zm-7.74,27.04a24.91,24.91,0,0,1-3.33,8.06,12.508,12.508,0,0,1-4.838,4.38,12.944,12.944,0,0,1-11.43,0,12.352,12.352,0,0,1-4.815-4.38,25.231,25.231,0,0,1-3.307-8.06,62.569,62.569,0,0,1,0-24.77,25.165,25.165,0,0,1,3.307-8.08,12.46,12.46,0,0,1,4.815-4.39,13.032,13.032,0,0,1,11.43,0,12.618,12.618,0,0,1,4.838,4.39,24.846,24.846,0,0,1,3.33,8.08A62.619,62.619,0,0,1,178.547,1186.95Zm47.136,19.28a20.088,20.088,0,0,0,6.863-3.66,16.693,16.693,0,0,0,4.455-5.79,17.674,17.674,0,0,0,1.6-7.62,15.812,15.812,0,0,0-3.24-10.24,17.637,17.637,0,0,0-9.27-5.74,15.66,15.66,0,0,0,7.65-5.65,15.306,15.306,0,0,0,2.61-8.97,15.957,15.957,0,0,0-5.355-12.06,18.667,18.667,0,0,0-6.165-3.6,24.936,24.936,0,0,0-15.952,0,18.714,18.714,0,0,0-6.143,3.6,15.957,15.957,0,0,0-5.355,12.06,14.658,14.658,0,0,0,10.26,14.62,17.637,17.637,0,0,0-9.27,5.74,15.812,15.812,0,0,0-3.24,10.24,17.874,17.874,0,0,0,1.575,7.62,16.319,16.319,0,0,0,4.455,5.79,20.327,20.327,0,0,0,6.885,3.66A30.8,30.8,0,0,0,225.683,1206.23Zm-14.467-5.98a12.032,12.032,0,0,1-4.23-2.48,10.663,10.663,0,0,1-2.655-3.82,12.771,12.771,0,0,1-.923-4.93,13.337,13.337,0,0,1,1.1-5.69,10.43,10.43,0,0,1,2.97-3.85,12.158,12.158,0,0,1,4.3-2.18,18.819,18.819,0,0,1,10.17,0,12.179,12.179,0,0,1,4.3,2.18,10.472,10.472,0,0,1,2.97,3.85,13.368,13.368,0,0,1,1.1,5.69,12.808,12.808,0,0,1-.922,4.93,10.713,10.713,0,0,1-2.655,3.82,12.05,12.05,0,0,1-4.23,2.48A18.562,18.562,0,0,1,211.216,1200.25Zm0.27-31.05a10.022,10.022,0,0,1-3.623-2.57,9.814,9.814,0,0,1-2.025-3.66,14.634,14.634,0,0,1-.63-4.28,11.948,11.948,0,0,1,.743-4.23,9.734,9.734,0,0,1,2.205-3.46,10.294,10.294,0,0,1,3.645-2.34,15.331,15.331,0,0,1,10.125,0,10.33,10.33,0,0,1,3.645,2.34,9.762,9.762,0,0,1,2.205,3.46,11.948,11.948,0,0,1,.742,4.23,14.634,14.634,0,0,1-.63,4.28,9.814,9.814,0,0,1-2.025,3.66,10.018,10.018,0,0,1-3.622,2.57A15.391,15.391,0,0,1,211.486,1169.2Z" transform="translate(-139 -1141.59)"/>
</svg>
