<svg xmlns="http://www.w3.org/2000/svg" width="102" height="86"><path fill="#009913" d="M0 80h102v6H0z"/><path d="M47.287 18.32a30.937 30.937 0 00-4.973-10.29 19.947 19.947 0 00-7.447-6.05 22.375 22.375 0 00-18.4 0 20.045 20.045 0 00-7.4 6.05 30.631 30.631 0 00-4.95 10.29 60.558 60.558 0 000 29.31 30.264 30.264 0 004.95 10.24 20.085 20.085 0 007.4 6.03 22.375 22.375 0 0018.405 0 19.987 19.987 0 007.447-6.03 30.564 30.564 0 004.973-10.24 59.849 59.849 0 00-.005-29.31zm-7.74 27.04a24.91 24.91 0 01-3.33 8.06 12.508 12.508 0 01-4.838 4.38 12.944 12.944 0 01-11.43 0 12.352 12.352 0 01-4.815-4.38 25.231 25.231 0 01-3.307-8.06 62.569 62.569 0 010-24.77 25.165 25.165 0 013.307-8.08 12.46 12.46 0 014.815-4.39 13.032 13.032 0 0111.43 0 12.618 12.618 0 014.838 4.39 24.846 24.846 0 013.33 8.08 62.619 62.619 0 010 24.77zm47.136 19.28a20.088 20.088 0 006.863-3.66 16.693 16.693 0 004.455-5.79 17.674 17.674 0 001.6-7.62 15.812 15.812 0 00-3.24-10.24 17.637 17.637 0 00-9.27-5.74 15.66 15.66 0 007.65-5.65 15.306 15.306 0 002.61-8.97 15.957 15.957 0 00-5.355-12.06 18.667 18.667 0 00-6.165-3.6 24.936 24.936 0 00-15.952 0 18.714 18.714 0 00-6.143 3.6 15.957 15.957 0 00-5.355 12.06 14.658 14.658 0 0010.26 14.62 17.637 17.637 0 00-9.27 5.74 15.812 15.812 0 00-3.24 10.24 17.874 17.874 0 001.575 7.62 16.319 16.319 0 004.455 5.79 20.327 20.327 0 006.885 3.66 30.8 30.8 0 0017.637 0zm-14.467-5.98a12.032 12.032 0 01-4.23-2.48 10.663 10.663 0 01-2.655-3.82 12.771 12.771 0 01-.923-4.93 13.337 13.337 0 011.1-5.69 10.43 10.43 0 012.97-3.85 12.158 12.158 0 014.3-2.18 18.819 18.819 0 0110.17 0 12.179 12.179 0 014.3 2.18 10.472 10.472 0 012.97 3.85 13.368 13.368 0 011.1 5.69 12.808 12.808 0 01-.922 4.93 10.713 10.713 0 01-2.655 3.82 12.05 12.05 0 01-4.23 2.48 18.562 18.562 0 01-11.295 0zm.27-31.05a10.022 10.022 0 01-3.623-2.57 9.814 9.814 0 01-2.025-3.66 14.634 14.634 0 01-.63-4.28 11.948 11.948 0 01.743-4.23 9.734 9.734 0 012.205-3.46 10.294 10.294 0 013.645-2.34 15.331 15.331 0 0110.125 0 10.33 10.33 0 013.645 2.34 9.762 9.762 0 012.205 3.46 11.948 11.948 0 01.742 4.23 14.634 14.634 0 01-.63 4.28 9.814 9.814 0 01-2.025 3.66 10.018 10.018 0 01-3.622 2.57 15.391 15.391 0 01-10.755 0z" fill-rule="evenodd" fill="#009913"/></svg>