<svg xmlns="http://www.w3.org/2000/svg" width="102" height="86" viewBox="0 0 102 86">
  <defs>
    <style>
      .cls-1, .cls-2 {
        fill: #009913;
      }

      .cls-2 {
        fill-rule: evenodd;
      }
    </style>
  </defs>
  <rect class="cls-1" y="80" width="102" height="6"/>
  <path class="cls-2" d="M186.287,1297.91a30.937,30.937,0,0,0-4.973-10.29,19.947,19.947,0,0,0-7.447-6.05,22.375,22.375,0,0,0-18.4,0,20.045,20.045,0,0,0-7.4,6.05,30.631,30.631,0,0,0-4.95,10.29,60.558,60.558,0,0,0,0,29.31,30.264,30.264,0,0,0,4.95,10.24,20.085,20.085,0,0,0,7.4,6.03,22.375,22.375,0,0,0,18.405,0,19.987,19.987,0,0,0,7.447-6.03,30.564,30.564,0,0,0,4.973-10.24A59.849,59.849,0,0,0,186.287,1297.91Zm-7.74,27.04a24.91,24.91,0,0,1-3.33,8.06,12.508,12.508,0,0,1-4.838,4.38,12.944,12.944,0,0,1-11.43,0,12.352,12.352,0,0,1-4.815-4.38,25.231,25.231,0,0,1-3.307-8.06,62.569,62.569,0,0,1,0-24.77,25.165,25.165,0,0,1,3.307-8.08,12.46,12.46,0,0,1,4.815-4.39,13.032,13.032,0,0,1,11.43,0,12.618,12.618,0,0,1,4.838,4.39,24.846,24.846,0,0,1,3.33,8.08A62.619,62.619,0,0,1,178.547,1324.95Zm43.536-7.65a17.913,17.913,0,0,0,5.58-3.01q-0.765,1.17-1.62,2.34c-0.57.78-1.185,1.6-1.845,2.47l-19.62,25.7h7.38a5.733,5.733,0,0,0,2.475-.52,4.148,4.148,0,0,0,1.665-1.37l15.7-22.68q1.755-2.52,3.128-4.89a39.608,39.608,0,0,0,2.362-4.74,27.032,27.032,0,0,0,1.508-4.89,25.981,25.981,0,0,0,.517-5.28,23.535,23.535,0,0,0-1.462-8.46,18.541,18.541,0,0,0-10.643-10.85,22.241,22.241,0,0,0-8.415-1.53,22.825,22.825,0,0,0-8.595,1.58,20.675,20.675,0,0,0-6.75,4.32,19.513,19.513,0,0,0-4.41,6.43,21.357,21.357,0,0,0-.112,15.82,17.169,17.169,0,0,0,3.937,5.8,16.539,16.539,0,0,0,5.738,3.58,19.626,19.626,0,0,0,6.907,1.22A20.642,20.642,0,0,0,222.083,1317.3Zm8.64-13.05a12.046,12.046,0,0,1-2.61,4.05,12.621,12.621,0,0,1-4.207,2.81,14.519,14.519,0,0,1-5.738,1.06,15.453,15.453,0,0,1-5.287-.85,10.6,10.6,0,0,1-4-2.52,11.114,11.114,0,0,1-2.52-4.08,15.834,15.834,0,0,1-.878-5.46,14.048,14.048,0,0,1,.945-5.22,11.772,11.772,0,0,1,2.678-4.1,12.36,12.36,0,0,1,4.185-2.68,14.752,14.752,0,0,1,5.422-.96,14.073,14.073,0,0,1,5.2.92,11.624,11.624,0,0,1,4.072,2.63,12.11,12.11,0,0,1,2.678,4.16,14.837,14.837,0,0,1,.967,5.47A12.952,12.952,0,0,1,230.723,1304.25Z" transform="translate(-139 -1279.59)"/>
</svg>
