<svg xmlns="http://www.w3.org/2000/svg" width="102" height="86"><path fill="#009913" d="M0 80h102v6H0z"/><path d="M8.524 65.21h34.56v-6.12h-12.69V.59h-6.525l-19.17 16.6 2.52 3.47a2.151 2.151 0 00.81.69 2.459 2.459 0 001.215.3 2.731 2.731 0 00.855-.16 3.214 3.214 0 00.9-.52l11.52-9.85a60.05 60.05 0 00-.135 4v43.97H8.524v6.12zm86.962-46.89a30.937 30.937 0 00-4.973-10.29 19.947 19.947 0 00-7.447-6.05 22.375 22.375 0 00-18.4 0 20.045 20.045 0 00-7.4 6.05 30.631 30.631 0 00-4.95 10.29 60.558 60.558 0 000 29.31 30.264 30.264 0 004.95 10.24 20.085 20.085 0 007.4 6.03 22.375 22.375 0 0018.405 0 19.987 19.987 0 007.447-6.03 30.564 30.564 0 004.973-10.24 59.849 59.849 0 00-.005-29.31zm-7.74 27.04a24.91 24.91 0 01-3.33 8.06 12.508 12.508 0 01-4.838 4.38 12.944 12.944 0 01-11.43 0 12.352 12.352 0 01-4.815-4.38 25.208 25.208 0 01-3.307-8.06 62.569 62.569 0 010-24.77 25.143 25.143 0 013.307-8.08 12.46 12.46 0 014.815-4.39 13.032 13.032 0 0111.43 0 12.618 12.618 0 014.838 4.39 24.846 24.846 0 013.33 8.08 62.619 62.619 0 010 24.77z" fill-rule="evenodd" fill="#009913"/></svg>