<svg xmlns="http://www.w3.org/2000/svg" width="102" height="86" viewBox="0 0 102 86">
  <defs>
    <style>
      .cls-1, .cls-2 {
        fill: #009913;
      }

      .cls-2 {
        fill-rule: evenodd;
      }
    </style>
  </defs>
  <rect class="cls-1" y="80" width="102" height="6"/>
  <path class="cls-2" d="M147.524,1482.8h34.56v-6.12h-12.69v-58.5h-6.525l-19.17,16.6,2.52,3.47a2.151,2.151,0,0,0,.81.69,2.459,2.459,0,0,0,1.215.3,2.731,2.731,0,0,0,.855-0.16,3.214,3.214,0,0,0,.9-0.52l11.52-9.85c-0.09,1.35-.135,2.68-0.135,4v43.97h-13.86v6.12Zm86.962-46.89a30.937,30.937,0,0,0-4.973-10.29,19.947,19.947,0,0,0-7.447-6.05,22.375,22.375,0,0,0-18.4,0,20.045,20.045,0,0,0-7.4,6.05,30.631,30.631,0,0,0-4.95,10.29,60.558,60.558,0,0,0,0,29.31,30.264,30.264,0,0,0,4.95,10.24,20.085,20.085,0,0,0,7.4,6.03,22.375,22.375,0,0,0,18.405,0,19.987,19.987,0,0,0,7.447-6.03,30.564,30.564,0,0,0,4.973-10.24A59.849,59.849,0,0,0,234.486,1435.91Zm-7.74,27.04a24.91,24.91,0,0,1-3.33,8.06,12.508,12.508,0,0,1-4.838,4.38,12.944,12.944,0,0,1-11.43,0,12.352,12.352,0,0,1-4.815-4.38,25.208,25.208,0,0,1-3.307-8.06,62.569,62.569,0,0,1,0-24.77,25.143,25.143,0,0,1,3.307-8.08,12.46,12.46,0,0,1,4.815-4.39,13.032,13.032,0,0,1,11.43,0,12.618,12.618,0,0,1,4.838,4.39,24.846,24.846,0,0,1,3.33,8.08A62.619,62.619,0,0,1,226.746,1462.95Z" transform="translate(-139 -1417.59)"/>
</svg>
