<svg xmlns="http://www.w3.org/2000/svg" width="29.062" height="28.34" viewBox="0 0 29.062 28.34">
  <defs>
    <style>
      .cls-1 {
        fill: #ff6c00;
        fill-rule: evenodd;
      }
    </style>
  </defs>
  <path class="cls-1" d="M733.134,6858.64l-12.66-16.42a1.673,1.673,0,0,0-.2-0.22,1.747,1.747,0,0,0-.381-0.29h-0.01c-0.022-.01-0.045-0.03-0.069-0.04a0.089,0.089,0,0,1-.042-0.02,0.074,0.074,0,0,1-.038-0.02,0.15,0.15,0,0,1-.062-0.02c-0.006,0-.013-0.01-0.019-0.01l-0.076-.03h-0.007a0.257,0.257,0,0,0-.084-0.02h0l-0.086-.03h0c-0.028,0-.057-0.01-0.084-0.01h-0.006c-0.026-.01-0.051-0.01-0.077-0.02h-0.083a0.023,0.023,0,0,0-.022-0.01h-0.281a0.023,0.023,0,0,0-.022.01h-0.083c-0.026.01-.052,0.01-0.077,0.02h-0.006c-0.028,0-.056.01-0.084,0.01h0l-0.086.03h0a0.252,0.252,0,0,0-.082.02h-0.008l-0.075.03c-0.006,0-.013.01-0.019,0.01a0.154,0.154,0,0,1-.063.02,0.07,0.07,0,0,1-.039.02,0.075,0.075,0,0,1-.041.02c-0.023.01-.046,0.03-0.069,0.04h-0.009a1.724,1.724,0,0,0-.381.29,1.673,1.673,0,0,0-.2.22l-12.66,16.42a1.877,1.877,0,0,0,.334,2.63,1.858,1.858,0,0,0,2.622-.33l0.779-1.01v8.53a1.347,1.347,0,0,0,1.336,1.35h18.159a1.347,1.347,0,0,0,1.336-1.35v-8.53l0.778,1.01a1.859,1.859,0,0,0,2.623.33A1.879,1.879,0,0,0,733.134,6858.64Zm-15.142,6.21h-3.563v-3.58h3.563v3.58Zm0-5.59h-3.563v-3.58h3.563v3.58Zm5.545,5.59h-3.563v-3.58h3.563v3.58Zm0-5.59h-3.563v-3.58h3.563v3.58Z" transform="translate(-704.438 -6841.47)"/>
</svg>
