<svg id="_07.svg" data-name="07.svg" xmlns="http://www.w3.org/2000/svg" width="88" height="88" viewBox="0 0 88 88">
  <defs>
    <style>
      .cls-1 {
        fill: #ffac00;
      }

      .cls-2 {
        fill: #fff;
        fill-rule: evenodd;
      }
    </style>
  </defs>
  <circle class="cls-1" cx="44" cy="44" r="44"/>
  <path class="cls-2" d="M33.868,27.008l-0.375,2.925v0.1a0.94,0.94,0,0,0,.263.675,0.906,0.906,0,0,0,.688.275H53.268a9.51,9.51,0,0,0-.862.988q-0.388.513-.763,1.113L32.818,62.833h3.55a1.876,1.876,0,0,0,1.063-.325,2.5,2.5,0,0,0,.763-0.775l19.15-30.925A3.494,3.494,0,0,0,57.73,29.9a7.5,7.5,0,0,0,.237-1.187l0.175-1.7H33.868Z"/>
</svg>
