<svg xmlns="http://www.w3.org/2000/svg" width="124" height="124" viewBox="0 0 124 124">
  <defs>
    <style>
      .cls-1 {
        fill: #15BFE8;;
      }

      .cls-2 {
        fill: #fff;
        fill-rule: evenodd;
      }
    </style>
  </defs>
  <rect class="cls-1" x="2" y="2" width="120" height="120"/>
  <path class="cls-2" d="M1346.67,596.29h8.06v-3.816h-8.06v-3.132h7.81V572.928h-19.22v16.414h7.41v3.132h-7.55v3.816h7.55v3.959h-9.86v3.888h23.07v-3.888h-9.21V596.29Zm-4-19.726v2.844h-3.59v-2.844h3.59Zm4,2.844v-2.844h3.82v2.844h-3.82Zm-7.59,3.419h3.59v2.844h-3.59v-2.844Zm7.59,2.844v-2.844h3.82v2.844h-3.82Zm-16.31,1.908h3.75v-3.96h-3.75V577.14h4.04v-4h-12.42v4h4.24v6.479h-3.95v3.96h3.95v7.991c-1.83.432-3.49,0.828-4.85,1.116l1.29,4.5a0.812,0.812,0,0,0,.61-0.612c2.92-.828,7.49-2.16,11.77-3.42-0.43-3.563-.46-3.635-0.46-3.671l-4.22,1.08v-6.983Zm51.18-15.272a0.921,0.921,0,0,0,1-.666l-5.59-.333v7.067h-12.43V606.2h4.44v-2h20.87v1.961h4.66V578.375h-12.95v-6.068Zm-4.59,16.8h-7.99v-6.254h7.99v6.254Zm12.88,0h-8.29v-6.254h8.29v6.254Zm-12.88,4.329V599.8h-7.99v-6.365h7.99Zm4.59,0h8.29V599.8h-8.29v-6.365Z" transform="translate(-1298 -551)"/>
</svg>
