<svg id="_07.svg" data-name="07.svg" xmlns="http://www.w3.org/2000/svg" width="102" height="86.41" viewBox="0 0 102 86.41">
  <defs>
    <style>
      .cls-1, .cls-2 {
        fill: #009913;
      }

      .cls-2 {
        fill-rule: evenodd;
      }
    </style>
  </defs>
  <rect id="under" class="cls-1" y="80.41" width="102" height="6"/>
  <path id="_07" data-name="07" class="cls-2" d="M186.287,1022.91a30.937,30.937,0,0,0-4.973-10.29,19.947,19.947,0,0,0-7.447-6.05,22.375,22.375,0,0,0-18.4,0,20.045,20.045,0,0,0-7.4,6.05,30.631,30.631,0,0,0-4.95,10.29,60.558,60.558,0,0,0,0,29.31,30.264,30.264,0,0,0,4.95,10.24,20.085,20.085,0,0,0,7.4,6.03,22.375,22.375,0,0,0,18.405,0,19.987,19.987,0,0,0,7.447-6.03,30.564,30.564,0,0,0,4.973-10.24A59.849,59.849,0,0,0,186.287,1022.91Zm-7.74,27.04a24.91,24.91,0,0,1-3.33,8.06,12.508,12.508,0,0,1-4.838,4.38,12.944,12.944,0,0,1-11.43,0,12.352,12.352,0,0,1-4.815-4.38,25.231,25.231,0,0,1-3.307-8.06,62.569,62.569,0,0,1,0-24.77,25.165,25.165,0,0,1,3.307-8.08,12.46,12.46,0,0,1,4.815-4.39,13.032,13.032,0,0,1,11.43,0,12.618,12.618,0,0,1,4.838,4.39,24.846,24.846,0,0,1,3.33,8.08A62.619,62.619,0,0,1,178.547,1049.95Zm17.211-44.64v5.45a2.088,2.088,0,0,0,1.98,1.98H231.4a14.265,14.265,0,0,0-1.372,1.8q-0.608.945-1.193,2.07l-27.09,53.19h5.715a4.3,4.3,0,0,0,2.79-.84,5.914,5.914,0,0,0,1.62-2l26.685-53.86a11.465,11.465,0,0,0,.7-1.67,7.936,7.936,0,0,0,.337-2.52v-3.6h-43.83Z" transform="translate(-139 -1004.59)"/>
</svg>
