<svg id="Q.svg" xmlns="http://www.w3.org/2000/svg" width="40" height="40" viewBox="0 0 40 40">
  <defs>
    <style>
      .cls-1 {
        fill: #fc0;
      }

      .cls-1, .cls-2 {
        fill-rule: evenodd;
      }

      .cls-2 {
        fill: #fff;
      }
    </style>
  </defs>
  <path class="cls-1" d="M535.465,3315L555,3335l-19.535,20L515,3335Z" transform="translate(-515 -3315)"/>
  <path class="cls-2" d="M538.766,3343.01a8.353,8.353,0,0,1-1.69.4,12.565,12.565,0,0,1-1.742.12,10.58,10.58,0,0,1-4.043-.75,10.135,10.135,0,0,1-3.159-2.04,9.07,9.07,0,0,1-2.054-3.01,9.189,9.189,0,0,1-.728-3.64,9.658,9.658,0,0,1,.572-3.14,9.07,9.07,0,0,1,1.781-3.05,9.607,9.607,0,0,1,3.094-2.28,10.31,10.31,0,0,1,4.537-.91,10.549,10.549,0,0,1,4.589.91,9.6,9.6,0,0,1,3.146,2.3,9.2,9.2,0,0,1,1.82,3.04,9.358,9.358,0,0,1,.585,3.13,9.24,9.24,0,0,1-.26,2.1,9.44,9.44,0,0,1-.832,2.19,10.08,10.08,0,0,1-1.482,2.1,9.5,9.5,0,0,1-2.184,1.75l2.47,2.57-1.976.71Zm0.832-1.98a8.14,8.14,0,0,0,1.859-1.95,8.35,8.35,0,0,0,.975-1.96,7.545,7.545,0,0,0,.377-1.74q0.064-.8.065-1.29a9.279,9.279,0,0,0-.584-3.36,7.813,7.813,0,0,0-1.6-2.6,7.162,7.162,0,0,0-2.388-1.68,7.318,7.318,0,0,0-2.959-.6,7.012,7.012,0,0,0-2.881.6,7.087,7.087,0,0,0-2.349,1.68,7.935,7.935,0,0,0-1.583,2.6,9.279,9.279,0,0,0-.584,3.36,9.787,9.787,0,0,0,.584,3.49,8.09,8.09,0,0,0,1.568,2.61,6.575,6.575,0,0,0,2.282,1.64,6.855,6.855,0,0,0,2.723.56,10.363,10.363,0,0,0,1.374-.09,5.625,5.625,0,0,0,1.349-.36l-1.846-1.89,1.638-1.07Z" transform="translate(-515 -3315)"/>
</svg>
