<svg id="heading021_question_v1f1.svg" xmlns="http://www.w3.org/2000/svg" width="24.75" height="25.59" viewBox="0 0 24.75 25.59">
  <defs>
    <style>
      .cls-1 {
        fill: #3ed7f3;
        fill-rule: evenodd;
      }
    </style>
  </defs>
  <path data-name="heading021_question_v1f1 " class="cls-1" d="M530.252,3369.96a10.843,10.843,0,0,1-2.08.5,16.893,16.893,0,0,1-2.144.14,12.936,12.936,0,0,1-4.976-.93,11.935,11.935,0,0,1-3.888-2.51,11.175,11.175,0,0,1-2.528-3.69,11.36,11.36,0,0,1-.9-4.48,11.983,11.983,0,0,1,.7-3.88,11.143,11.143,0,0,1,2.192-3.74,11.879,11.879,0,0,1,3.808-2.82,12.843,12.843,0,0,1,5.584-1.12,13.14,13.14,0,0,1,5.648,1.12,12.066,12.066,0,0,1,3.872,2.84,11.312,11.312,0,0,1,2.24,3.74,11.581,11.581,0,0,1,.72,3.86,11.19,11.19,0,0,1-.32,2.57,11.553,11.553,0,0,1-1.024,2.71,12.432,12.432,0,0,1-1.824,2.57,11.628,11.628,0,0,1-2.688,2.16l3.04,3.17-2.432.86Zm1.024-2.43a10.028,10.028,0,0,0,3.488-4.82,9.246,9.246,0,0,0,.464-2.14c0.053-.65.08-1.18,0.08-1.58a11.5,11.5,0,0,0-.719-4.15,9.726,9.726,0,0,0-1.964-3.2,8.847,8.847,0,0,0-2.939-2.06,9.051,9.051,0,0,0-3.642-.74,8.673,8.673,0,0,0-3.546.74,8.767,8.767,0,0,0-2.891,2.06,9.861,9.861,0,0,0-1.948,3.2,11.5,11.5,0,0,0-.719,4.15,11.913,11.913,0,0,0,.718,4.28,9.9,9.9,0,0,0,1.931,3.22,8.106,8.106,0,0,0,2.809,2.02,8.347,8.347,0,0,0,3.351.68,11.8,11.8,0,0,0,1.691-.11,7.256,7.256,0,0,0,1.66-.43l-2.272-2.34,2.016-1.31Z" transform="translate(-513.75 -3347.44)"/>
  <path class="cls-1" d="M530.252,3369.96a10.843,10.843,0,0,1-2.08.5,16.893,16.893,0,0,1-2.144.14,12.936,12.936,0,0,1-4.976-.93,11.935,11.935,0,0,1-3.888-2.51,11.175,11.175,0,0,1-2.528-3.69,11.36,11.36,0,0,1-.9-4.48,11.983,11.983,0,0,1,.7-3.88,11.143,11.143,0,0,1,2.192-3.74,11.879,11.879,0,0,1,3.808-2.82,12.843,12.843,0,0,1,5.584-1.12,13.14,13.14,0,0,1,5.648,1.12,12.066,12.066,0,0,1,3.872,2.84,11.312,11.312,0,0,1,2.24,3.74,11.581,11.581,0,0,1,.72,3.86,11.19,11.19,0,0,1-.32,2.57,11.553,11.553,0,0,1-1.024,2.71,12.432,12.432,0,0,1-1.824,2.57,11.628,11.628,0,0,1-2.688,2.16l3.04,3.17-2.432.86Zm1.024-2.43a10.028,10.028,0,0,0,3.488-4.82,9.246,9.246,0,0,0,.464-2.14c0.053-.65.08-1.18,0.08-1.58a11.5,11.5,0,0,0-.719-4.15,9.726,9.726,0,0,0-1.964-3.2,8.847,8.847,0,0,0-2.939-2.06,9.051,9.051,0,0,0-3.642-.74,8.673,8.673,0,0,0-3.546.74,8.767,8.767,0,0,0-2.891,2.06,9.861,9.861,0,0,0-1.948,3.2,11.5,11.5,0,0,0-.719,4.15,11.913,11.913,0,0,0,.718,4.28,9.9,9.9,0,0,0,1.931,3.22,8.106,8.106,0,0,0,2.809,2.02,8.347,8.347,0,0,0,3.351.68,11.8,11.8,0,0,0,1.691-.11,7.256,7.256,0,0,0,1.66-.43l-2.272-2.34,2.016-1.31Z" transform="translate(-513.75 -3347.44)"/>
</svg>
