<svg xmlns="http://www.w3.org/2000/svg" width="124" height="124" viewBox="0 0 124 124">
  <defs>
    <style>
      .cls-1 {
        fill: none;
        stroke: #f74444;
        stroke-width: 4px;
      }

      .cls-2 {
        fill: #f74444;
        fill-rule: evenodd;
      }
    </style>
  </defs>
  <rect class="cls-1" x="2" y="2" width="120" height="120"/>
  <path class="cls-2" d="M359.165,596.128a1.4,1.4,0,0,0-.28.3,5.543,5.543,0,0,1-.643.783,3.164,3.164,0,0,1-.67.513,2.533,2.533,0,0,1-.761.279,4.7,4.7,0,0,1-.907.081,2.677,2.677,0,0,1-1.62-.558,4.722,4.722,0,0,1-1.323-1.629,10.106,10.106,0,0,1-.9-2.637,17.554,17.554,0,0,1-.329-3.582,16.792,16.792,0,0,1,.329-3.474,9.891,9.891,0,0,1,.918-2.637,4.826,4.826,0,0,1,1.41-1.674,3.055,3.055,0,0,1,1.814-.585,3.124,3.124,0,0,1,1,.144,3.278,3.278,0,0,1,.745.351,3.059,3.059,0,0,1,.551.45q0.233,0.243.427,0.45a4.148,4.148,0,0,0,.367.351,0.565,0.565,0,0,0,.367.144,0.543,0.543,0,0,0,.454-0.207,2.448,2.448,0,0,0,.281-0.459l1.231-2.754a8.323,8.323,0,0,0-1.015-1.413,6.776,6.776,0,0,0-1.253-1.1,6,6,0,0,0-1.464-.72,5.241,5.241,0,0,0-1.668-.261,5.964,5.964,0,0,0-3.337.99,8.55,8.55,0,0,0-2.6,2.772,15.015,15.015,0,0,0-1.69,4.239,22.552,22.552,0,0,0-.605,5.391,25.4,25.4,0,0,0,.529,5.337,15.542,15.542,0,0,0,1.518,4.248,8.316,8.316,0,0,0,2.408,2.808,5.384,5.384,0,0,0,3.213,1.017,5.557,5.557,0,0,0,3.386-1.053,7.808,7.808,0,0,0,2.381-3.123l-1.447-2.538a0.816,0.816,0,0,0-.248-0.279,0.488,0.488,0,0,0-.259-0.081A0.509,0.509,0,0,0,359.165,596.128ZM378.887,584.4a15.25,15.25,0,0,0-1.658-4.248,8.84,8.84,0,0,0-2.575-2.835,5.946,5.946,0,0,0-6.691-.009,8.784,8.784,0,0,0-2.587,2.826,15.191,15.191,0,0,0-1.663,4.248,24.108,24.108,0,0,0,0,10.584,15.327,15.327,0,0,0,1.663,4.257,8.757,8.757,0,0,0,2.587,2.835,5.967,5.967,0,0,0,6.691,0,8.716,8.716,0,0,0,2.575-2.835,15.386,15.386,0,0,0,1.658-4.257A23.987,23.987,0,0,0,378.887,584.4Zm-3.45,8.793a9.642,9.642,0,0,1-.87,2.637,4.476,4.476,0,0,1-1.388,1.647,3.208,3.208,0,0,1-1.868.567,3.252,3.252,0,0,1-1.885-.567,4.458,4.458,0,0,1-1.393-1.647,9.609,9.609,0,0,1-.869-2.637,20.482,20.482,0,0,1,0-7.02,9.609,9.609,0,0,1,.869-2.637,4.541,4.541,0,0,1,1.393-1.656,3.216,3.216,0,0,1,1.885-.576,3.172,3.172,0,0,1,1.868.576,4.559,4.559,0,0,1,1.388,1.656,9.642,9.642,0,0,1,.87,2.637A20.548,20.548,0,0,1,375.437,593.194Zm8.6-16.623H382.11V602.8h3.219V588.739q0-.576-0.022-1.233t-0.054-1.341l7.42,15.624a2.077,2.077,0,0,0,.561.792,1.165,1.165,0,0,0,.713.216h1.9V576.571H392.63v13.878q0,0.63.021,1.341t0.065,1.467l-7.474-15.75a4.538,4.538,0,0,0-.27-0.486,1.132,1.132,0,0,0-.248-0.279,0.737,0.737,0,0,0-.292-0.135,1.874,1.874,0,0,0-.4-0.036h0Zm25.5,19.557a1.4,1.4,0,0,0-.28.3,5.543,5.543,0,0,1-.643.783,3.164,3.164,0,0,1-.67.513,2.533,2.533,0,0,1-.761.279,4.7,4.7,0,0,1-.907.081,2.677,2.677,0,0,1-1.62-.558,4.722,4.722,0,0,1-1.323-1.629,10.106,10.106,0,0,1-.9-2.637,17.554,17.554,0,0,1-.329-3.582,16.792,16.792,0,0,1,.329-3.474,9.891,9.891,0,0,1,.918-2.637,4.826,4.826,0,0,1,1.41-1.674,3.055,3.055,0,0,1,1.814-.585,3.124,3.124,0,0,1,1,.144,3.278,3.278,0,0,1,.745.351,3.059,3.059,0,0,1,.551.45q0.233,0.243.427,0.45a4.148,4.148,0,0,0,.367.351,0.565,0.565,0,0,0,.367.144,0.543,0.543,0,0,0,.454-0.207,2.448,2.448,0,0,0,.281-0.459L412,579.775a8.323,8.323,0,0,0-1.015-1.413,6.776,6.776,0,0,0-1.253-1.1,6,6,0,0,0-1.464-.72,5.241,5.241,0,0,0-1.668-.261,5.964,5.964,0,0,0-3.337.99,8.55,8.55,0,0,0-2.6,2.772,15.015,15.015,0,0,0-1.69,4.239,22.552,22.552,0,0,0-.605,5.391,25.4,25.4,0,0,0,.529,5.337,15.542,15.542,0,0,0,1.518,4.248,8.316,8.316,0,0,0,2.408,2.808,5.384,5.384,0,0,0,3.213,1.017,5.557,5.557,0,0,0,3.386-1.053,7.808,7.808,0,0,0,2.381-3.123l-1.447-2.538a0.816,0.816,0,0,0-.248-0.279,0.488,0.488,0,0,0-.259-0.081A0.509,0.509,0,0,0,409.535,596.128Zm4.78-19.557V602.8h10.131v-4.68h-6.459v-6.246h4.947v-4.5h-4.947v-6.12h6.459v-4.68H414.315Zm18.592,17.46a5.769,5.769,0,0,0,2.824-.657,5.573,5.573,0,0,0,1.971-1.827,8.477,8.477,0,0,0,1.155-2.808,16.015,16.015,0,0,0,.378-3.6,14.793,14.793,0,0,0-.367-3.384,8.215,8.215,0,0,0-1.139-2.718,5.574,5.574,0,0,0-1.966-1.809,5.837,5.837,0,0,0-2.856-.657h-5.552V602.8h3.651v-8.766h1.9Zm-1.9-12.906h1.9a2.242,2.242,0,0,1,2.025,1.107,4.045,4.045,0,0,1,.491,1.269,7.654,7.654,0,0,1,.162,1.638,6.625,6.625,0,0,1-.626,3.168,2.164,2.164,0,0,1-2.052,1.134h-1.9v-8.316Zm9.809-4.554V581.4h4.428v21.4h3.651V581.4h4.428v-4.824H440.815Z" transform="translate(-338 -551)"/>
</svg>
