<svg xmlns="http://www.w3.org/2000/svg" width="124" height="124" viewBox="0 0 124 124">
  <defs>
    <style>
      .cls-1 {
        fill: none;
        stroke: #f74444;
        stroke-width: 4px;
      }

      .cls-2 {
        fill: #f74444;
        fill-rule: evenodd;
      }
    </style>
  </defs>
  <rect class="cls-1" x="2" y="2" width="120" height="120"/>
  <path class="cls-2" d="M556.021,577.924H541.659v-4.931a0.971,0.971,0,0,0,.972-0.72l-5.472-.288v5.939h-13.93v4.139h10.4c-0.4,7.776-1.26,16.126-11.051,20.662a12.693,12.693,0,0,1,3.06,3.635c7.343-3.779,10.223-9.538,11.554-15.478H547.31c-0.5,6.624-1.152,9.791-2.088,10.583a2.451,2.451,0,0,1-1.763.468c-1.044,0-3.6,0-6.12-.252a9.71,9.71,0,0,1,1.548,4.247c1.3,0.072,2.592.108,3.744,0.108,3.707,0,5.075-.359,6.371-1.8,1.476-1.584,2.232-5.652,2.916-15.838,0.072-.4.144-0.936,0.18-1.26l-2.556-.432-0.936.108H537.879c0.216-1.62.36-3.2,0.468-4.752h17.674v-4.139Zm34.129,7.335v-10.87a0.932,0.932,0,0,0,1.008-.684l-5.472-.324v11.878h-6.659v3.672h-5.291v-2.844h4.031v-2.844a4.315,4.315,0,0,1,.4.432l2.556-3.563a43.109,43.109,0,0,0-6.911-5.363v-0.036a0.767,0.767,0,0,0,.864-0.576l-4.932-.864a26.618,26.618,0,0,1-7.343,9.575,13.1,13.1,0,0,1,2.844,3.131l0.72-.648v0.756H569.7v2.844h-5.867v3.707H569.7v8.279c-2.447.288-4.679,0.54-6.479,0.72l1.188,4.572a0.692,0.692,0,0,0,.648-0.612c3.564-.5,9.143-1.332,14.4-2.232l-0.108-3.636c-1.872.252-3.779,0.468-5.615,0.72v-7.811h5.615v-3.1h6.335v17.529h4.464V589.543h6.8v-4.284h-6.8ZM568.7,582.452a38.115,38.115,0,0,0,3.1-4.212,54.42,54.42,0,0,1,5.183,4.212H568.7Zm7.2,10.654a40.515,40.515,0,0,1-1.656,5.723l2.735,1.008a44.006,44.006,0,0,0,1.98-5.111,0.906,0.906,0,0,0,.9-0.4Zm-6.876,6.335a32.357,32.357,0,0,0-1.691-6.155l-3.024.828a36.377,36.377,0,0,1,1.548,6.3Z" transform="translate(-498 -551)"/>
</svg>
