<svg xmlns="http://www.w3.org/2000/svg" width="124" height="124" viewBox="0 0 124 124">
  <defs>
    <style>
      .cls-1 {
        fill: none;
        stroke: #e81836;
        stroke-width: 4px;
      }

      .cls-2 {
        fill: #e81836;
        fill-rule: evenodd;
      }
    </style>
  </defs>
  <rect class="cls-1" x="2" y="2" width="120" height="120"/>
  <path class="cls-2" d="M1829.17,600.277v-3.671h6.76V586.131h-6.76v-2.412c0.64-.108.9-0.288,0.93-0.648l-1.58-.072v-0.036c1.8-.108,3.6-0.18,5.43-0.288a13.921,13.921,0,0,1,1.01,2.016l3.85-1.872a32.641,32.641,0,0,0-5.58-7.631l-3.52,1.692c0.64,0.72,1.29,1.548,1.9,2.376l-7.34.108a49.771,49.771,0,0,0,3.13-5.328,1.178,1.178,0,0,0,1.05-.467l-5.08-1.44a44.324,44.324,0,0,1-3.6,7.307h-3.13l1.22,4.535a0.683,0.683,0,0,0,.65-0.54c1.8-.072,4.07-0.144,6.52-0.288v2.988h-6.48v10.475h6.48v3.815c-3.28.108-6.23,0.18-8.5,0.216l1.3,4.68a0.731,0.731,0,0,0,.68-0.54c3.85-.216,9.65-0.576,15.37-1.044a16.774,16.774,0,0,1,1.05,2.519l3.7-1.8a29.515,29.515,0,0,0-4.75-7.847l-3.42,1.583c0.47,0.612.94,1.3,1.41,2.016Zm-6.84-10.546h2.7v3.275h-2.7v-3.275Zm9.68,3.275h-2.84v-3.275h2.84v3.275Zm-22.89-3.743,0.32-3.672h2.74v1.08h4.1V573.389h-11.23v4h7.13v4.428h-6.19c-0.22,3.887-.69,8.854-1.19,12.022l3.74,0.576c0.07-.432.14-0.936,0.18-1.44h3.53c-0.29,5.831-.69,8.207-1.26,8.855a1.206,1.206,0,0,1-1.01.432c-0.79,0-2.34,0-3.96-.144a9.667,9.667,0,0,1,1.19,3.923c0.72,0.036,1.44.036,2.12,0.036,2.81,0,4-.287,5.08-1.547,1.04-1.26,1.47-4.86,1.87-13.895l0.11-1.187-2.2-.252-0.9.072h-4.17Zm62.19-6.224a58.351,58.351,0,0,1-1.48,7.327,36.8,36.8,0,0,0-7.47-1.961c0.81-3,1.77-7.66,2.33-10.916a2.3,2.3,0,0,0,.96-0.74l-3.7-1.887a2.05,2.05,0,0,1-.96.518c-1.74.148-8.18,0.592-12.21,0.74l0.48,4.884a1.54,1.54,0,0,0,.92-0.592c2.82-.148,7.44-0.555,9.22-0.74a70.26,70.26,0,0,1-1.59,8.4c-6-.037-12.18,3-12.18,8.843,0,2.739,1.04,6.661,5.96,6.661,4.44,0,7.18-2.183,9.73-11.138a34.944,34.944,0,0,1,7.29,2.183c-1.55,4.551-3.77,7.919-7.18,10.139a26.023,26.023,0,0,1,3.85,2.59c3.48-2.331,5.88-6.068,7.59-10.805,1.55,0.777,3.14,1.628,4.84,2.553l2.04-4.477c-1.82-.925-3.81-1.85-5.52-2.59,0.63-2.257,1.26-5,1.67-7.03a1.053,1.053,0,0,0,1.11-.7Zm-19.61,16.43c-1.22,0-1.92-1-1.92-2.517,0-2.923,2.99-4.847,7.03-4.884C1854.96,598.617,1853.51,599.469,1851.7,599.469Z" transform="translate(-1778 -551)"/>
</svg>
