<svg xmlns="http://www.w3.org/2000/svg" width="124" height="124" viewBox="0 0 124 124">
  <defs>
    <style>
      .cls-1 {
        fill: #3fb1ac;
      }

      .cls-2 {
        fill: #fff;
        fill-rule: evenodd;
      }
    </style>
  </defs>
  <rect class="cls-1" x="2" y="2" width="120" height="120"/>
  <path class="cls-2" d="M856.3,576.679c-0.216,0-.4.006-0.559,0.018a1.3,1.3,0,0,0-.421.1,1.071,1.071,0,0,0-.348.252,1.846,1.846,0,0,0-.308.477L848.133,591.4q-0.308.63-.575,1.314t-0.51,1.4q-0.243-.7-0.51-1.368t-0.575-1.3l-6.578-13.932a2.021,2.021,0,0,0-.3-0.477,0.988,0.988,0,0,0-.341-0.252,1.313,1.313,0,0,0-.429-0.1c-0.162-.012-0.346-0.018-0.551-0.018h-3.693V602.8h4.293V586.759q0-.5-0.033-1.089t-0.081-1.215l6.756,14.22a2.023,2.023,0,0,0,.7.873,1.748,1.748,0,0,0,1,.3h0.68a1.8,1.8,0,0,0,1.7-1.17l6.723-14.166q-0.065.594-.089,1.17t-0.024,1.08V602.8h4.293V576.679H856.3Zm23.243,4.23v-4.23H864.572V602.8h14.969v-4.23H869.464v-6.858h7.841v-4.086h-7.841v-6.714h10.077Zm8.266,8.136v-8.262h2.527a4.834,4.834,0,0,1,3.378,1.026,3.73,3.73,0,0,1,1.109,2.88,5.522,5.522,0,0,1-.259,1.728,3.631,3.631,0,0,1-.81,1.377,3.774,3.774,0,0,1-1.409.918,5.643,5.643,0,0,1-2.041.333h-2.5Zm8.408,4.356a4.606,4.606,0,0,0-1.6-1.656,7.787,7.787,0,0,0,2.106-1.188,7.371,7.371,0,0,0,1.555-1.692,7.6,7.6,0,0,0,.964-2.115,8.908,8.908,0,0,0,.332-2.457,8.762,8.762,0,0,0-.518-3.069,6.011,6.011,0,0,0-1.637-2.4,7.813,7.813,0,0,0-2.867-1.575,13.754,13.754,0,0,0-4.212-.567h-7.387V602.8h4.86v-9.954h1.652a1.81,1.81,0,0,1,.98.216,2.007,2.007,0,0,1,.608.684l4.471,8.01A1.868,1.868,0,0,0,897.3,602.8h4.39Zm12.374-16.722H903.7V602.8h4.892V576.679Zm21.495,0H911.47v4.356h6.869V602.8h4.876V581.035h6.869v-4.356Z" transform="translate(-818 -551)"/>
</svg>
