<svg xmlns="http://www.w3.org/2000/svg" width="24.969" height="75.47" viewBox="0 0 24.969 75.47">
  <defs>
    <style>
      .cls-1 {
        fill: #bcc2c9;
        fill-rule: evenodd;
      }
    </style>
  </defs>
  <path class="cls-1" d="M521.263,4016.31c1.179,2.07-2.424-.05-1.942,2.81,0.309,1.84,3.775.49,3.875-2.15,0.07-1.89-1.775-2.6-3.875-2.59-2.077,0-3.5,2.34-3.444,4.31,0.17,6.1,8.18,5.18,8.18,5.18s-2,10.7,4.736,12.53c8.06,2.18,9.879-8.35,5.166-9.5-1.589-.39-4.995,1.7-4.3,3.88,2.862,2.02,3.219-.11,4.3-2.16,2.25,3.14-2.508,6.78-4.736,5.18,0,0-6.883-3.66,0-13.81,6.146-16.29-10.617-19.26-7.319-29.79,0,0,.636,4.06,4.3,4.31,6.04,0.42,3.534-8.79,1.722-6.9-1.756,2.56,1.4,1.92,1.292,2.59-0.528,3.28-2.677,2.89-4.3,1.29-2.771-2.71-2.136-5.47,2.152-8.2,12.791-8.15,13.839-13.04,13.778-16.41-0.059-3.22-5.887-5.04-6.028-.43-0.03.99,2.335,1.48,2.583,0.43,0.52-2.2,2.512-2.36,2.153.43-1.047,8.15-9.077,13.47-14.638,12.09-3.385-.84-6.559-3.61-6.028-9.93,0.55-6.53,10.444-5.26,9.472-.86-1.9-2.04-4.994-1.46-5.166,1.72s5.579,4.23,7.749-.86c0.6-4.8-2.489-7.68-6.458-8.2-3.7-.49-8.465,2.69-8.61,7.34-0.3,9.7,8.18,13.38,8.18,13.38s-3.891,3.56-4.736,6.91c-2.47,9.78,7.852,12.58,8.61,24.18,0.643,9.82-6.888,9.07-6.888,9.07a3.454,3.454,0,0,1-3.014-3.46C517.812,4016.03,520.915,4015.69,521.263,4016.31Z" transform="translate(-515.875 -3961.22)"/>
</svg>
