<svg id="_10.svg" data-name="10.svg" xmlns="http://www.w3.org/2000/svg" width="49" height="49" viewBox="0 0 49 49">
  <defs>
    <style>
      .cls-1 {
        fill: #1e49ac;
        stroke: #d7d4cf;
        stroke-width: 1px;
      }

      .cls-2 {
        fill: #fff;
        fill-rule: evenodd;
      }
    </style>
  </defs>
  <rect class="cls-1" x="0.5" y="0.5" width="48" height="48"/>
  <path class="cls-2" d="M869.444,76.86h-1.632l-5.67,4.964,0.75,0.952,3.1-2.72-3.633,20.6h2.89Zm3.075,16.269a12.536,12.536,0,0,0,.77,3.927,6.856,6.856,0,0,0,1.992,2.873,5.16,5.16,0,0,0,3.427,1.1,7.046,7.046,0,0,0,3.849-1.1,11.414,11.414,0,0,0,3.057-2.873,17.1,17.1,0,0,0,2.171-3.927,22.042,22.042,0,0,0,1.235-4.3,20.312,20.312,0,0,0,.252-2.3,19.056,19.056,0,0,0-.037-2.686,14.071,14.071,0,0,0-.492-2.7,7.958,7.958,0,0,0-1.1-2.363A5.607,5.607,0,0,0,885.8,77.1a5.471,5.471,0,0,0-2.759-.646,6.745,6.745,0,0,0-2.97.646,9.111,9.111,0,0,0-2.4,1.683,12.561,12.561,0,0,0-1.9,2.363,20.763,20.763,0,0,0-1.429,2.7,22.64,22.64,0,0,0-.983,2.686,21.737,21.737,0,0,0-.558,2.3A19.716,19.716,0,0,0,872.519,93.129Zm4.472-8.007a17.679,17.679,0,0,1,1.25-3.519,8.9,8.9,0,0,1,1.873-2.618,3.744,3.744,0,0,1,2.664-1.037,2.757,2.757,0,0,1,2.368,1.037,5.585,5.585,0,0,1,.983,2.618,14.677,14.677,0,0,1,.008,3.519q-0.205,1.938-.517,3.706-0.306,1.734-.777,3.638a17.293,17.293,0,0,1-1.241,3.468,8.419,8.419,0,0,1-1.9,2.584,3.933,3.933,0,0,1-2.73,1.02,2.647,2.647,0,0,1-2.3-1.02,5.672,5.672,0,0,1-.956-2.584,14.331,14.331,0,0,1-.017-3.468q0.2-1.9.5-3.638Q876.514,87.061,876.991,85.122Z" transform="translate(-849.5 -64.5)"/>
</svg>
