<svg id="_06.svg" data-name="06.svg" xmlns="http://www.w3.org/2000/svg" width="88" height="88" viewBox="0 0 88 88">
  <defs>
    <style>
      .cls-1 {
        fill: #2c6010;
      }

      .cls-2 {
        fill: #fff;
        fill-rule: evenodd;
      }
    </style>
  </defs>
  <circle class="cls-1" cx="44" cy="44" r="44"/>
  <path class="cls-2" d="M42.08,40.445a12.028,12.028,0,0,0-3.012,1.413q0.925-1.1,2.075-2.375l12.3-13.425H49.618a3.217,3.217,0,0,0-1.387.3,3.071,3.071,0,0,0-1.013.725L36.543,39.358a39.121,39.121,0,0,0-2.588,3.288,21.3,21.3,0,0,0-1.8,3.075,15.23,15.23,0,0,0-1.062,3,13.2,13.2,0,0,0-.35,3.038,12.312,12.312,0,0,0,.713,4.3,9,9,0,0,0,5.338,5.425,11.978,11.978,0,0,0,4.375.75,14.645,14.645,0,0,0,5.462-1,13.578,13.578,0,0,0,4.362-2.75,12.6,12.6,0,0,0,3.95-9.275,9.983,9.983,0,0,0-.725-3.9,8.354,8.354,0,0,0-4.962-4.75,10.682,10.682,0,0,0-3.687-.625A11.618,11.618,0,0,0,42.08,40.445Zm-6.6,8.138a8.56,8.56,0,0,1,4.662-4.65,9.192,9.192,0,0,1,3.625-.7,8.132,8.132,0,0,1,2.813.462,6.007,6.007,0,0,1,2.15,1.325,5.9,5.9,0,0,1,1.375,2.1,7.481,7.481,0,0,1,.487,2.763,8.912,8.912,0,0,1-.675,3.5,8.324,8.324,0,0,1-1.888,2.775A8.712,8.712,0,0,1,45.155,58a9.739,9.739,0,0,1-3.638.663,7.619,7.619,0,0,1-2.85-.5,5.8,5.8,0,0,1-2.1-1.4,6.113,6.113,0,0,1-1.3-2.138,7.882,7.882,0,0,1-.45-2.712A8.487,8.487,0,0,1,35.48,48.583Z"/>
</svg>
