<svg xmlns="http://www.w3.org/2000/svg" viewBox="0 0 56 56"><defs><style>.cls-1{fill:#ffcc00;}.cls-2{opacity:0.15;}.cls-3,.cls-4{fill:#fff;}.cls-3{fill-rule:evenodd;}</style></defs><title>houshin</title><g><g><rect class="cls-1" width="56" height="56"/></g><g class="cls-2"><polygon class="cls-3" points="0 56 0 0 56 0 0 56"/></g><g><path class="cls-4" d="M12.87,13.13c-1.6,0-2.14,0-2.27,0s-.2,0-.2-.22V11.5c0-.2,0-.22.2-.22s.67,0,2.27,0h4.41V10.15a9.07,9.07,0,0,0-.12-1.77c.64,0,1.35,0,2,.09.18,0,.29.09.29.2a1.31,1.31,0,0,1-.11.38,2.57,2.57,0,0,0-.11,1v1.23h4.74c1.62,0,2.16,0,2.26,0s.18,0,.18.22V13c0,.2,0,.22-.18.22s-.64,0-2.26,0H17.7c0,.8-.08,1.53-.15,2.22H22c1.52,0,2,0,2.13,0s.21.06.21.25c0,.47-.05,1-.07,1.41a33.31,33.31,0,0,1-.59,5.35c-.4,1.71-1.1,2.23-2.9,2.23-.33,0-.83,0-1.42,0s-.51-.07-.58-.64a4,4,0,0,0-.4-1.39,18.74,18.74,0,0,0,2.22.16,1,1,0,0,0,1.06-.9,21.89,21.89,0,0,0,.56-4.57h-4.9A10,10,0,0,1,12,24.42a1.28,1.28,0,0,1-.44.2c-.12,0-.19-.12-.36-.39a3.78,3.78,0,0,0-1.08-1.1c4.15-2,5.5-4.52,5.53-10Z"/><path class="cls-4" d="M30.82,13.89a.87.87,0,0,1-.36.2c-.13,0-.18-.13-.29-.42a4.59,4.59,0,0,0-.61-1.17,9.53,9.53,0,0,0,3.2-3.24,3.57,3.57,0,0,0,.4-.93c.54.07,1.2.19,1.67.3.18,0,.29.11.29.22s0,.2-.27.32A12.22,12.22,0,0,0,38,12a5,5,0,0,0-.79,1c-.17.27-.22.4-.33.4s-.21-.09-.45-.29v1.17c0,.2,0,.22-.2.22s-.43,0-1.51,0V15.8H35c1.42,0,1.91,0,2,0s.2,0,.2.2v1.19c0,.18,0,.2-.2.2s-.58,0-2,0h-.29v4.56c1-.24,2.09-.49,2.92-.74a5.27,5.27,0,0,0-.09,1c0,.57,0,.54-.6.7-1.51.43-3.69.94-5.38,1.29a2.62,2.62,0,0,0-.61.22.5.5,0,0,1-.29.11c-.13,0-.23-.11-.29-.27-.18-.49-.3-1-.43-1.51.58-.06,1.15-.13,1.76-.24l1.32-.23v-4.9h-.76c-1.44,0-1.92,0-2,0s-.2,0-.2-.2V16c0-.18,0-.2.2-.2s.59,0,2,0h.76V14.41c-1,0-1.33,0-1.42,0s-.2,0-.2-.22V13.4Zm.46,4.23c.24-.09.27-.09.35.11a12.67,12.67,0,0,1,.79,2.66c0,.17,0,.24-.22.31l-.82.31c-.26.09-.29,0-.33-.15a12.68,12.68,0,0,0-.72-2.64c-.07-.18,0-.24.2-.33ZM34.72,13c1.1,0,1.43,0,1.57,0A12.91,12.91,0,0,1,34,10.54a13.65,13.65,0,0,1-2,2.4h2.8Zm1.16,5.59a3.91,3.91,0,0,0,.12-.67,9.46,9.46,0,0,1,1.35.54c.15.07.18.11.18.2a.21.21,0,0,1-.11.18.93.93,0,0,0-.27.41c-.14.43-.34,1-.54,1.42-.14.29-.21.44-.36.44a1.34,1.34,0,0,1-.41-.18,2.17,2.17,0,0,0-.68-.26A18.56,18.56,0,0,0,35.88,18.54Zm4.73-7.44a22,22,0,0,0-.12-2.72c.68,0,1.38,0,2,.13.18,0,.28.09.28.18a1,1,0,0,1-.1.36,7.5,7.5,0,0,0-.11,2v3.24h1.11c1.59,0,2.15,0,2.24,0s.2,0,.2.2v1.46c0,.18,0,.19-.2.19s-.65,0-2.24,0H42.54v5.44c0,2,0,3.08,0,3.17s0,.19-.19.19H40.79c-.2,0-.21,0-.21-.19s0-1.12,0-3.16V16.07h-.79c-1.59,0-2.14,0-2.25,0s-.2,0-.2-.19V14.45c0-.18,0-.2.2-.2s.66,0,2.25,0h.79Z"/></g></g></svg>