<svg xmlns="http://www.w3.org/2000/svg" viewBox="0 0 56 56"><defs><style>.cls-1{fill:#ffcc00;}.cls-2{opacity:0.15;}.cls-3,.cls-4{fill:#fff;}.cls-3{fill-rule:evenodd;}</style></defs><title>step</title><g><g><rect class="cls-1" width="56" height="56"/></g><g class="cls-2"><polygon class="cls-3" points="0 56 0 0 56 0 0 56"/></g><g><path class="cls-4" d="M12.33,15.21a2,2,0,0,0-2-1.76c-1.08,0-1.72.52-1.72,1.18,0,.86.36,1.22,2,1.64l.92.24c2.5.66,3.4,1.56,3.4,3.34,0,2-1.46,3.38-4.44,3.38-2.32,0-3.88-.82-4.58-2.74l2.34-.82a2.32,2.32,0,0,0,2.3,1.84c1.44,0,2-.62,2-1.42s-.38-1.14-2.12-1.64l-.92-.26c-2.38-.64-3.22-1.5-3.22-3.34s1.44-3.12,4.12-3.12c2.3,0,3.7,1,4.3,2.8Z"/><path class="cls-4" d="M21.65,12h2.46v1.84H21.65v6c0,1.1.44,1.58,1.36,1.58a5.76,5.76,0,0,0,1.28-.12l-.1,1.8a13.21,13.21,0,0,1-2,.12c-2.08,0-3.06-.9-3.06-2.92V13.81H17.53V12h1.64V9l2.48-.56Z"/><path class="cls-4" d="M29.25,18c0,2.08.94,3.46,2.76,3.46,1.14,0,1.94-.64,2.32-2.08l2.28.66A4.35,4.35,0,0,1,32,23.23c-3.28,0-5.2-2.1-5.2-5.7s2-5.8,5-5.8c2.8,0,4.9,2,4.9,5.76V18Zm5-1.66c-.12-1.84-.9-2.88-2.4-2.88s-2.4,1.12-2.52,2.88Z"/><path class="cls-4" d="M42.83,13.59a3.64,3.64,0,0,1,3.08-1.86c2.4,0,4.18,1.9,4.18,5.66s-1.94,5.82-4.3,5.82a3.11,3.11,0,0,1-2.88-1.8v5.4h-2.5V12h2.42Zm.08,5.84a2.58,2.58,0,0,0,2.22,1.84c1.32,0,2.38-1.16,2.38-3.82s-1-3.76-2.24-3.76a2.65,2.65,0,0,0-2.36,1.86Z"/></g></g></svg>