<svg xmlns="http://www.w3.org/2000/svg" viewBox="0 0 56 56"><defs><style>.cls-1{fill:#ffcc00;}.cls-2{opacity:0.15;}.cls-3,.cls-4{fill:#fff;}.cls-3{fill-rule:evenodd;}</style></defs><title>tsuyomi</title><g><g><rect class="cls-1" width="56" height="56"/></g><g class="cls-2"><polygon class="cls-3" points="0 56 0 0 56 0 0 56"/></g><g><path class="cls-4" d="M14.66,16.82c.82,0,1,0,1.15,0s.23,0,.21.23c0,.36,0,.87-.07,1.26a17.81,17.81,0,0,1-.77,5.3c-.33.81-1,1.19-2.29,1.19-.23,0-.54,0-.86,0s-.38,0-.49-.6a5.85,5.85,0,0,0-.41-1.33,9.84,9.84,0,0,0,1.58.16,1,1,0,0,0,.81-.27c.25-.32.54-1.49.7-4.28H12.5l-.13.66c-.06.22-.06.22-1,.11s-.83-.12-.78-.38a32.87,32.87,0,0,0,.65-4.15,7.84,7.84,0,0,0,.06-1.28c0-.18,0-.24.23-.24s.52,0,1.19,0h1.58V10.91H12.58c-1.11,0-1.44,0-1.54,0s-.22,0-.22-.2V9.45c0-.2,0-.21.22-.21s.43,0,1.54,0h2c.82,0,1.13,0,1.24,0s.21,0,.21.21,0,.58,0,1.62v1.86c0,1,0,1.51,0,1.62s0,.2-.21.2-.42,0-1.24,0H13c-.07.76-.16,1.46-.25,2.11Zm9,4.23c-.09-.15-.06-.2.16-.29l.92-.4c.19-.09.23-.05.32.11A17,17,0,0,1,27,23.86c0,.16,0,.21-.17.3l-1,.47c-.22.07-.29.05-.36-.13-.16-.41-.33-.82-.52-1.24-2.33.43-4.83.79-7,1.06a2.8,2.8,0,0,0-.76.2.75.75,0,0,1-.33.09c-.14,0-.25-.09-.3-.29-.16-.55-.27-1.17-.38-1.76a14.77,14.77,0,0,0,2.09,0c.65,0,1.44-.1,2.27-.21V20.09H19.46c-1.6,0-2.18,0-2.3,0s-.2,0-.2-.2,0-.5,0-1.44V16.58c0-.93,0-1.31,0-1.44s0-.2.2-.2.7,0,2.3,0h1.05V13.47c-.87.07-1.7.12-2.47.16a1.83,1.83,0,0,0-.67.14.45.45,0,0,1-.28.09c-.11,0-.2-.07-.26-.29-.09-.48-.18-1.08-.23-1.6.47,0,1,0,1.42,0a16.85,16.85,0,0,0,1.12-2.32,4.92,4.92,0,0,0,.34-1.23,11.65,11.65,0,0,1,1.75.33c.16.05.27.14.27.27a.43.43,0,0,1-.18.32,1.4,1.4,0,0,0-.34.51c-.29.59-.71,1.38-1.1,2.07,1.33-.06,2.66-.17,3.78-.26a13.55,13.55,0,0,0-1.1-1.27c-.13-.13-.11-.18.09-.29l.9-.52c.18-.11.23-.11.36,0a26,26,0,0,1,2.86,3.46c.09.16.11.22-.1.36l-1.09.65a.58.58,0,0,1-.21.11c-.07,0-.11-.06-.16-.16-.18-.33-.36-.65-.56-1-.74.09-1.57.18-2.45.25V15h1.22c1.62,0,2.2,0,2.31,0s.2,0,.2.2,0,.51,0,1.44v1.91c0,.94,0,1.33,0,1.44s0,.2-.2.2-.69,0-2.31,0H22.2v2l1.94-.27ZM20.51,18.6V16.47H18.67V18.6Zm3.69-2.13h-2V18.6h2Z"/><path class="cls-4" d="M41.77,14.51a6.32,6.32,0,0,0,0-1.22,7.85,7.85,0,0,1,2.09.77.34.34,0,0,1,.12.49,3.12,3.12,0,0,0-.29.7c-.14.76-.32,1.55-.5,2.32A21.06,21.06,0,0,1,46,19.3c.18.11.16.2.11.38a14.94,14.94,0,0,1-.78,1.55.19.19,0,0,1-.16.12.37.37,0,0,1-.22-.12,14.68,14.68,0,0,0-2.35-1.7,11,11,0,0,1-3.64,4.74c-.16.13-.25.2-.36.2a.49.49,0,0,1-.27-.13,3.93,3.93,0,0,0-1.57-.74,10,10,0,0,0,4-4.88,12.05,12.05,0,0,0-3.57-1.09,12.39,12.39,0,0,1-2.2,3.6,2.94,2.94,0,0,1-2.3,1,2.17,2.17,0,0,1-2.14-2.47c0-2.23,2.3-4,5.31-4,.59-1.49,1-2.75,1.49-4.27l-2.48.29a4,4,0,0,0-.81.2.88.88,0,0,1-.33.07.3.3,0,0,1-.29-.2,11.09,11.09,0,0,1-.52-2,6.55,6.55,0,0,0,1.59.11,20.78,20.78,0,0,0,2.79-.23,2.21,2.21,0,0,0,.88-.31.41.41,0,0,1,.23-.07.48.48,0,0,1,.26.07,5.94,5.94,0,0,1,1.22,1,.43.43,0,0,1,.16.31.47.47,0,0,1-.18.3,2.4,2.4,0,0,0-.48.94c-.47,1.22-1,2.63-1.52,3.92a15.58,15.58,0,0,1,3.5.9A19,19,0,0,0,41.77,14.51Zm-9.51,5c0,.58.2.83.63.83a1.44,1.44,0,0,0,1-.68,11.83,11.83,0,0,0,1.32-2.2C33.41,17.55,32.26,18.51,32.26,19.53Z"/></g></g></svg>