<svg xmlns="http://www.w3.org/2000/svg" width="128" height="84" viewBox="0 0 128 84">
  <defs>
    <style>
      .cls-1 {
        fill: none;
        stroke: #e81836;
        stroke-width: 4px;
      }

      .cls-2 {
        fill: #e81836;
        fill-rule: evenodd;
      }
    </style>
  </defs>
  <rect class="cls-1" x="2" y="2" width="124" height="80"/>
  <path class="cls-2" d="M1966.4,5150.73h4.89l9.35-23.31h-4.39a1.8,1.8,0,0,0-1.13.36,1.834,1.834,0,0,0-.63.81l-4.48,12.48c-0.19.54-.38,1.13-0.58,1.77s-0.37,1.32-.52,2.02c-0.18-.7-0.38-1.38-0.58-2.02s-0.42-1.23-.62-1.77l-4.51-12.48a1.756,1.756,0,0,0-.64-0.85,1.954,1.954,0,0,0-1.15-.32h-4.36Zm38.29-16.35a11.364,11.364,0,0,0-2.45-3.78,11.666,11.666,0,0,0-3.82-2.52,13.8,13.8,0,0,0-9.91,0,11.231,11.231,0,0,0-3.83,2.51,11.371,11.371,0,0,0-2.47,3.77,13.157,13.157,0,0,0,0,9.41,11.561,11.561,0,0,0,2.47,3.79,11.4,11.4,0,0,0,3.83,2.52,13.945,13.945,0,0,0,9.91,0,11.359,11.359,0,0,0,3.82-2.52,11.51,11.51,0,0,0,2.45-3.79A12.964,12.964,0,0,0,2004.69,5134.38Zm-5.11,7.82a6.619,6.619,0,0,1-1.29,2.34,5.385,5.385,0,0,1-2.05,1.46,7.09,7.09,0,0,1-2.77.51,7.192,7.192,0,0,1-2.79-.51,5.38,5.38,0,0,1-2.07-1.46,6.6,6.6,0,0,1-1.28-2.34,10.153,10.153,0,0,1-.45-3.13,10.022,10.022,0,0,1,.45-3.11,6.564,6.564,0,0,1,1.28-2.35,5.511,5.511,0,0,1,2.07-1.47,7.192,7.192,0,0,1,2.79-.51,7.09,7.09,0,0,1,2.77.51,5.519,5.519,0,0,1,2.05,1.47,6.58,6.58,0,0,1,1.29,2.35,10.022,10.022,0,0,1,.45,3.11A10.153,10.153,0,0,1,1999.58,5142.2Zm14.5-14.78h-5.44v23.31h5.44v-23.31Zm19.52,17.38a1.877,1.877,0,0,0-.42.27,5.687,5.687,0,0,1-.95.69,4.96,4.96,0,0,1-.99.46,5.5,5.5,0,0,1-1.13.25,10.971,10.971,0,0,1-1.34.07,5.746,5.746,0,0,1-4.36-1.94,6.967,6.967,0,0,1-1.33-2.35,9.482,9.482,0,0,1-.49-3.18,9.107,9.107,0,0,1,.49-3.09,6.743,6.743,0,0,1,1.36-2.34,5.884,5.884,0,0,1,2.09-1.49,6.673,6.673,0,0,1,2.68-.52,7.142,7.142,0,0,1,1.48.13,6.488,6.488,0,0,1,1.11.31,4.075,4.075,0,0,1,.81.4c0.23,0.14.44,0.28,0.64,0.4a5.219,5.219,0,0,0,.54.31,1.133,1.133,0,0,0,.54.13,1.058,1.058,0,0,0,.68-0.19,1.949,1.949,0,0,0,.41-0.4l1.83-2.45a8.933,8.933,0,0,0-1.51-1.26,9.819,9.819,0,0,0-1.85-.97,11.388,11.388,0,0,0-2.17-.64,12.176,12.176,0,0,0-2.47-.24,13.579,13.579,0,0,0-4.95.88,11.417,11.417,0,0,0-3.85,2.47,11.146,11.146,0,0,0-2.5,3.77,12.422,12.422,0,0,0-.9,4.79,13.947,13.947,0,0,0,.79,4.74,10.862,10.862,0,0,0,2.25,3.78,10.206,10.206,0,0,0,3.56,2.49,11.851,11.851,0,0,0,4.76.91,12.223,12.223,0,0,0,5.02-.94,8.948,8.948,0,0,0,3.53-2.77l-2.15-2.26a1.022,1.022,0,0,0-.36-0.25,1.072,1.072,0,0,0-.39-0.07A1.227,1.227,0,0,0,2033.6,5144.8Zm5.82-17.38v23.31h15.01v-4.16h-9.57v-5.55h7.33v-4h-7.33v-5.44h9.57v-4.16h-15.01Z" transform="translate(-1941 -5097)"/>
</svg>
