<svg xmlns="http://www.w3.org/2000/svg" xmlns:xlink="http://www.w3.org/1999/xlink" width="123" height="106" viewBox="0 0 123 106">
  <defs>
    <style>
      .cls-1 {
        fill: #0084d0;
        stroke: #fff;
        stroke-linejoin: round;
        stroke-width: 2px;
        filter: url(#filter);
      }

      .cls-1, .cls-2 {
        fill-rule: evenodd;
      }

      .cls-2 {
        fill: #fff;
      }
    </style>
    <filter id="filter" x="704" y="4890" width="121" height="104" filterUnits="userSpaceOnUse">
      <feOffset result="offset" dx="2.828" dy="2.828" in="SourceAlpha"/>
      <feGaussianBlur result="blur"/>
      <feFlood result="flood" flood-color="#0084d0"/>
      <feComposite result="composite" operator="in" in2="blur"/>
      <feBlend result="blend" in="SourceGraphic"/>
    </filter>
  </defs>
  <g transform="translate(-703 -4889)" style="fill: #0084d0; filter: url(#filter)">
    <path id="Speech bubble" class="cls-1" d="M704,4890H822v78H779l-16,23-16-23H704v-78Z" style="stroke: inherit; filter: none; fill: inherit"/>
  </g>
  <use transform="translate(-703 -4889)" xlink:href="#Speech bubble" style="stroke: #fff; filter: none; fill: none"/>
  <path class="cls-2" d="M724.463,4940.73h3.888l9.344-23.13h-3.472a1.4,1.4,0,0,0-.912.3,1.674,1.674,0,0,0-.512.67l-5.424,14.11a20.048,20.048,0,0,0-.912,3.25c-0.15-.61-0.307-1.18-0.472-1.73s-0.339-1.06-.52-1.52l-5.44-14.11a1.643,1.643,0,0,0-.528-0.7,1.458,1.458,0,0,0-.912-0.27h-3.472Zm36.992-16.28a11.114,11.114,0,0,0-2.384-3.74,10.848,10.848,0,0,0-3.7-2.47,12.323,12.323,0,0,0-4.784-.9,12.563,12.563,0,0,0-4.792.89,10.763,10.763,0,0,0-3.712,2.47,11.168,11.168,0,0,0-2.392,3.75,13.532,13.532,0,0,0,0,9.43,11.168,11.168,0,0,0,2.392,3.75,10.906,10.906,0,0,0,3.712,2.47,13.324,13.324,0,0,0,9.576,0,10.848,10.848,0,0,0,3.7-2.47,11.258,11.258,0,0,0,2.384-3.75A13.532,13.532,0,0,0,761.455,4924.45Zm-4.072,8.13a7.143,7.143,0,0,1-1.448,2.56,6.236,6.236,0,0,1-2.3,1.61,8.6,8.6,0,0,1-6.1,0,6.278,6.278,0,0,1-2.312-1.61,7.156,7.156,0,0,1-1.464-2.56,11.645,11.645,0,0,1,0-6.83,7.2,7.2,0,0,1,1.464-2.57,6.422,6.422,0,0,1,2.312-1.62,8.6,8.6,0,0,1,6.1,0,6.379,6.379,0,0,1,2.3,1.62,7.188,7.188,0,0,1,1.448,2.57A11.822,11.822,0,0,1,757.383,4932.58Zm13.16-14.98h-4.32v23.13h4.32V4917.6Zm20.72,17.76a1.444,1.444,0,0,0-.336.24,6.506,6.506,0,0,1-1.064.8,5.858,5.858,0,0,1-1.136.54,6.4,6.4,0,0,1-1.312.3,11.028,11.028,0,0,1-1.592.1,6.836,6.836,0,0,1-2.752-.55,6.442,6.442,0,0,1-2.224-1.59,7.722,7.722,0,0,1-1.5-2.56,10.174,10.174,0,0,1-.552-3.48,9.906,9.906,0,0,1,.552-3.4,7.473,7.473,0,0,1,1.536-2.56,6.623,6.623,0,0,1,2.352-1.63,8.6,8.6,0,0,1,5.3-.28,7.467,7.467,0,0,1,1.5.63,9.1,9.1,0,0,1,.976.62,1.273,1.273,0,0,0,.752.29,0.9,0.9,0,0,0,.552-0.15,1.184,1.184,0,0,0,.328-0.33l1.44-2a10.506,10.506,0,0,0-3.3-2.19,11.563,11.563,0,0,0-4.5-.82,12.926,12.926,0,0,0-4.824.87,11.063,11.063,0,0,0-3.752,2.44,10.951,10.951,0,0,0-2.432,3.74,12.771,12.771,0,0,0-.864,4.77,14.07,14.07,0,0,0,.776,4.76,10.647,10.647,0,0,0,2.232,3.74,10.187,10.187,0,0,0,3.512,2.45,11.6,11.6,0,0,0,4.632.88,11.916,11.916,0,0,0,4.936-.93,9.359,9.359,0,0,0,3.464-2.67l-1.7-1.84a0.812,0.812,0,0,0-.608-0.27A0.969,0.969,0,0,0,791.263,4935.36Zm5.936-17.76v23.13h14.592v-3.44H801.535v-6.54h8.08v-3.31h-8.08v-6.42h10.256v-3.42H797.2Z" transform="translate(-703 -4889)"/>
</svg>
