<svg xmlns="http://www.w3.org/2000/svg" width="28" height="24"><path d="M26.415 12.421c.027-.041.054-.083.078-.126s.048-.094.07-.142c.012-.026.027-.051.038-.077s.008-.03.014-.044a2.36 2.36 0 00.085-.284c.01-.043.018-.1.026-.155s.012-.088.016-.132 0-.107 0-.161v-.127c0-.042-.011-.11-.019-.165a1.543 1.543 0 00-.064-.283c-.016-.053-.024-.082-.04-.122-.006-.018-.01-.037-.017-.055s-.032-.063-.047-.094-.038-.08-.06-.12a2.571 2.571 0 00-.157-.243 3.728 3.728 0 00-.11-.13c-.018-.02-.033-.041-.051-.06L17.022.552a1.924 1.924 0 00-2.765 0 2.027 2.027 0 000 2.823l5.818 5.94H1.965a1.942 1.942 0 00-1.622.88 2.029 2.029 0 00.238 2.53 1.931 1.931 0 001.384.584h18.11l-5.817 5.94a2.027 2.027 0 000 2.824 1.928 1.928 0 002.765 0l9.155-9.352c.02-.019.034-.042.053-.062.037-.041.072-.082.106-.125s.052-.074.078-.113z" fill="#029b41" fill-rule="evenodd"/></svg>