<svg id="heading019_case_v2f2.svg" xmlns="http://www.w3.org/2000/svg" width="64" height="46" viewBox="0 0 64 46">
  <defs>
    <style>
      .cls-1 {
        fill: #6cf;
      }

      .cls-1, .cls-2 {
        fill-rule: evenodd;
      }

      .cls-2 {
        fill: #fff;
      }
    </style>
  </defs>
  <path class="cls-1" d="M500.005,4212.69c0-10.32,14.325-18.68,31.994-18.68s32,8.36,32,18.68c0,8.83-10.492,16.22-24.592,18.17,1.148,3.31,3.062,7.2,6.067,9.15-5.789,0-11.5-4.6-15.41-8.67C513.294,4230.75,500.005,4222.63,500.005,4212.69Z" transform="translate(-500 -4194)"/>
  <path class="cls-2" d="M519.118,4216.7a4.551,4.551,0,0,0,1.251-.77l0.522,0.69a7.362,7.362,0,0,1-1.5.86,5.146,5.146,0,0,1-2.079.4,4.83,4.83,0,0,1-1.908-.37,4.372,4.372,0,0,1-1.449-1.01,4.459,4.459,0,0,1-.927-1.51,5.61,5.61,0,0,1-.027-3.68,4.073,4.073,0,0,1,.891-1.48,4.349,4.349,0,0,1,1.458-1,5.159,5.159,0,0,1,2-.37,7.452,7.452,0,0,1,1.125.1,4.067,4.067,0,0,1,1.1.36,3.246,3.246,0,0,1,.909.69,2.462,2.462,0,0,1,.576,1.07h-1.242a2.065,2.065,0,0,0-.81-1.07,2.489,2.489,0,0,0-1.44-.43,3.016,3.016,0,0,0-1.062.21,2.805,2.805,0,0,0-1.017.67,3.514,3.514,0,0,0-.765,1.22,5.843,5.843,0,0,0-.027,3.65,3.035,3.035,0,0,0,.747,1.17,2.737,2.737,0,0,0,1.071.64,4.044,4.044,0,0,0,1.251.2A3.739,3.739,0,0,0,519.118,4216.7Zm6.773-8.1a3.835,3.835,0,0,0-.964.35,2.871,2.871,0,0,0-.685.48q-0.279.27-.531,0.54l0.924,0.94c0.168-.28.337-0.52,0.5-0.75a2.872,2.872,0,0,1,.552-0.55,2.507,2.507,0,0,1,.678-0.36,2.933,2.933,0,0,1,.885-0.12,1.743,1.743,0,0,1,1.617.72,4.272,4.272,0,0,1,.443,2.19v0.78a3.033,3.033,0,0,0-1.2-.89,3.843,3.843,0,0,0-1.539-.32,3.459,3.459,0,0,0-1.44.29,3.266,3.266,0,0,0-1.062.75,3.032,3.032,0,0,0-.648,1.03,3.292,3.292,0,0,0-.216,1.15,3.145,3.145,0,0,0,.2,1.1,2.823,2.823,0,0,0,.594.97,3,3,0,0,0,.99.71,3.274,3.274,0,0,0,1.368.27,4.637,4.637,0,0,0,1.62-.3,3.858,3.858,0,0,0,1.332-.8v0.88h1.458v-4.91q0-.81-0.054-1.59a3.256,3.256,0,0,0-.388-1.37,2.484,2.484,0,0,0-1.054-.96,4.632,4.632,0,0,0-2.035-.37A5.8,5.8,0,0,0,525.891,4208.6Zm3.424,6.88a2.961,2.961,0,0,1-.985,1.2,2.611,2.611,0,0,1-.669.35,1.963,1.963,0,0,1-1.455-.02,2.017,2.017,0,0,1-.722-0.44,2.428,2.428,0,0,1-.533-0.72,2.217,2.217,0,0,1-.208-1,2.725,2.725,0,0,1,.162-0.93,2.488,2.488,0,0,1,.461-0.79,2.362,2.362,0,0,1,.732-0.54,2.31,2.31,0,0,1,.958-0.2,1.953,1.953,0,0,1,.9.19,2.328,2.328,0,0,1,.651.45,2.939,2.939,0,0,1,.443.56,3.666,3.666,0,0,1,.262.51v1.38Zm9.777-4.77a1.2,1.2,0,0,0-.125-0.5,1.456,1.456,0,0,0-.395-0.5,2.282,2.282,0,0,0-.663-0.37,2.415,2.415,0,0,0-.933-0.16,2.15,2.15,0,0,0-.9.16,1.675,1.675,0,0,0-.574.37,1.384,1.384,0,0,0-.3.49,1.525,1.525,0,0,0-.089.49,1.029,1.029,0,0,0,.4.87,3.742,3.742,0,0,0,1.014.52c0.407,0.14.846,0.28,1.319,0.41a7.5,7.5,0,0,1,1.318.52,3.079,3.079,0,0,1,1.014.83,2.214,2.214,0,0,1,.4,1.39,2.434,2.434,0,0,1-.837,1.92,3.735,3.735,0,0,1-2.493.73,5.216,5.216,0,0,1-1.611-.23,3.746,3.746,0,0,1-1.17-.6,2.478,2.478,0,0,1-.711-0.86,2.162,2.162,0,0,1-.234-0.98h1.17a1.417,1.417,0,0,0,.135.54,1.976,1.976,0,0,0,.45.64,2.727,2.727,0,0,0,.81.54,2.926,2.926,0,0,0,1.215.23,2.4,2.4,0,0,0,.954-0.16,1.651,1.651,0,0,0,.594-0.37,1.233,1.233,0,0,0,.3-0.5,1.79,1.79,0,0,0,.081-0.52,1.18,1.18,0,0,0-.395-0.94,3.2,3.2,0,0,0-.987-0.56q-0.591-.225-1.282-0.42a6.414,6.414,0,0,1-1.283-.49,3.122,3.122,0,0,1-.987-0.81,2.188,2.188,0,0,1-.394-1.37,2.5,2.5,0,0,1,.233-1.11,2.33,2.33,0,0,1,.637-0.8,2.716,2.716,0,0,1,.951-0.49,4.431,4.431,0,0,1,1.176-.16,4.56,4.56,0,0,1,1.247.17,3.763,3.763,0,0,1,1.023.47,2.376,2.376,0,0,1,.691.71,1.72,1.72,0,0,1,.252.9h-1.023Zm5.811,2.85a4.327,4.327,0,0,0,.323,1.8,3.011,3.011,0,0,0,.808,1.09,2.7,2.7,0,0,0,1.05.55,3.8,3.8,0,0,0,1.068.16,3.422,3.422,0,0,0,.817-0.1,3.657,3.657,0,0,0,.709-0.28,4.113,4.113,0,0,0,.673-0.45q0.332-.27.709-0.6l0.575,0.58a4.981,4.981,0,0,1-1.692,1.16,5.47,5.47,0,0,1-2.124.41,4.857,4.857,0,0,1-2.061-.41,4.1,4.1,0,0,1-1.44-1.08,4.549,4.549,0,0,1-.846-1.53,5.591,5.591,0,0,1-.279-1.75,5.458,5.458,0,0,1,.324-1.94,4.361,4.361,0,0,1,.9-1.46,3.863,3.863,0,0,1,1.35-.91,4.449,4.449,0,0,1,1.692-.32,4.706,4.706,0,0,1,1.638.29,3.825,3.825,0,0,1,1.359.86,4.127,4.127,0,0,1,.927,1.46,5.764,5.764,0,0,1,.342,2.09v0.38H544.9Zm5.238-.72a4.7,4.7,0,0,0-.706-2.75,2.3,2.3,0,0,0-1.976-1,2.049,2.049,0,0,0-1.144.32,2.588,2.588,0,0,0-.8.83,4.056,4.056,0,0,0-.465,1.2,6.336,6.336,0,0,0-.152,1.4h5.238Z" transform="translate(-500 -4194)"/>
</svg>
