<svg id="contact002_fax_v1.svg" xmlns="http://www.w3.org/2000/svg" width="52" height="34.03" viewBox="0 0 52 34.03">
  <defs>
    <style>
      .cls-1 {
        fill: #b29465;
      }

      .cls-1, .cls-2 {
        fill-rule: evenodd;
      }

      .cls-2 {
        fill: #fff;
      }
    </style>
  </defs>
  <path class="cls-1" d="M445,5781v-34H393v34.05Z" transform="translate(-393 -5747)"/>
  <path class="cls-2" d="M408.317,5756v1.32h-8.664v6.03h7.44v1.1h-7.44v8.35h-2.184V5756h10.848Zm2.856,11.86-2.112,4.94h-1.1l7.1-16.8h1.2l7.824,16.8h-2.328l-2.3-4.94h-8.28Zm4.008-9.17h-0.1l-3.456,8.09h7.32Zm19.368,3.91h0.12l5.064-6.6h1.272l-5.736,7.52,7.272,9.28h-2.712l-5.856-7.51h-0.1l-5.736,7.51h-1.3l6.432-8.37-6.552-8.43h2.688Z" transform="translate(-393 -5747)"/>
  <path class="cls-2" d="M408.317,5756v1.32h-8.664v6.03h7.44v1.1h-7.44v8.35h-2.184V5756h10.848Zm2.856,11.86-2.112,4.94h-1.1l7.1-16.8h1.2l7.824,16.8h-2.328l-2.3-4.94h-8.28Zm4.008-9.17h-0.1l-3.456,8.09h7.32Zm19.368,3.91h0.12l5.064-6.6h1.272l-5.736,7.52,7.272,9.28h-2.712l-5.856-7.51h-0.1l-5.736,7.51h-1.3l6.432-8.37-6.552-8.43h2.688Z" transform="translate(-393 -5747)"/>
</svg>
