<svg id="riyu.svg" xmlns="http://www.w3.org/2000/svg" width="140" height="140" viewBox="0 0 140 140">
  <defs>
    <style>
      .cls-1 {
        fill: none;
        stroke: #f96baa;
        stroke-width: 4px;
      }

      .cls-2 {
        fill: #f96baa;
        fill-rule: evenodd;
      }
    </style>
  </defs>
  <circle id="楕円形" class="cls-1" cx="70" cy="70" r="68"/>
  <path id="理由" class="cls-2" d="M1346.67,1054.29h8.06v-3.82h-8.06v-3.13h7.81v-16.41h-19.22v16.41h7.41v3.13h-7.55v3.82h7.55v3.96h-9.86v3.89h23.07v-3.89h-9.21v-3.96Zm-4-19.73v2.85h-3.59v-2.85h3.59Zm4,2.85v-2.85h3.82v2.85h-3.82Zm-7.59,3.42h3.59v2.84h-3.59v-2.84Zm7.59,2.84v-2.84h3.82v2.84h-3.82Zm-16.31,1.91h3.75v-3.96h-3.75v-6.48h4.04v-4h-12.42v4h4.24v6.48h-3.95v3.96h3.95v7.99c-1.83.43-3.49,0.83-4.85,1.12l1.29,4.49a0.806,0.806,0,0,0,.61-0.61c2.92-.82,7.49-2.16,11.77-3.42-0.43-3.56-.46-3.63-0.46-3.67l-4.22,1.08v-6.98Zm51.18-15.27a0.931,0.931,0,0,0,1-.67l-5.59-.33v7.07h-12.43v27.82h4.44v-2h20.87v1.96h4.66v-27.78h-12.95v-6.07Zm-4.59,16.8h-7.99v-6.26h7.99v6.26Zm12.88,0h-8.29v-6.26h8.29v6.26Zm-12.88,4.33v6.36h-7.99v-6.36h7.99Zm4.59,0h8.29v6.36h-8.29v-6.36Z" transform="translate(-1290 -997)"/>
</svg>
