<svg xmlns="http://www.w3.org/2000/svg" viewBox="0 0 60 60"><defs><clipPath id="clip-path" transform="translate(-9.5 -10.1)"><path class="cls-1" d="M9.4 10v64.8L74.2 10H9.4z"/></clipPath><clipPath id="clip-path-2" transform="translate(-9.5 -10.1)"><path class="cls-1" d="M0 0v64.8L64.8 0H0z"/></clipPath><style>.cls-1{fill:none}.cls-6{fill:#fff}</style></defs><circle cx="30" cy="30" r="30" fill="#91b21f"/><g clip-path="url(#clip-path)" opacity=".15"><circle class="cls-6" cx="30" cy="30" r="30"/></g><g clip-path="url(#clip-path-2)" opacity=".2"><circle class="cls-6" cx="30" cy="30" r="30"/></g><path class="cls-6" d="M24.07 26.57H21.8c-.13 0-.2 0-.2-.22v-1.42c0-.2 0-.22.2-.22h6.68v-1.13a9 9 0 00-.12-1.76c.64 0 1.35 0 2 .09.18 0 .29.09.29.19a1.16 1.16 0 01-.11.38 2.64 2.64 0 00-.11 1.05v1.22h7.01c.11 0 .17 0 .17.22v1.46c0 .2 0 .22-.17.22H28.9c0 .79-.08 1.53-.15 2.21h6.54c.13 0 .21.05.21.25 0 .47 0 .95-.07 1.4a33.15 33.15 0 01-.59 5.35c-.4 1.71-1.1 2.23-2.9 2.23h-1.42c-.59 0-.51-.07-.58-.65a4 4 0 00-.4-1.39 17.19 17.19 0 002.22.17 1 1 0 001.06-.9 21.91 21.91 0 00.56-4.58h-4.9A10.06 10.06 0 0123.21 38c-.24.12-.35.2-.44.2s-.19-.13-.36-.4a3.78 3.78 0 00-1.08-1.1c4.15-2 5.5-4.52 5.53-10zm17.93.76a.94.94 0 01-.36.19c-.13 0-.18-.12-.29-.41a4.59 4.59 0 00-.61-1.17A9.62 9.62 0 0044 22.7a3.48 3.48 0 00.4-.94c.54.07 1.2.2 1.67.31.18 0 .29.11.29.21s0 .2-.27.33a12.37 12.37 0 003.17 2.77 5.38 5.38 0 00-.79 1c-.17.27-.22.4-.33.4s-.21-.09-.45-.29v1.17c0 .2 0 .21-.2.21h-1.51v1.38h2.29c.09 0 .2 0 .2.2v1.19c0 .17 0 .19-.2.19h-2.29v4.47c1.05-.23 2.09-.48 2.92-.74a5.34 5.34 0 00-.09 1c0 .58 0 .54-.6.7-1.51.44-3.69.94-5.38 1.3a2.22 2.22 0 00-.61.22.48.48 0 01-.29.1c-.13 0-.23-.1-.29-.26a15.54 15.54 0 01-.43-1.52c.58 0 1.15-.12 1.76-.23l1.32-.24v-4.88h-2.76c-.08 0-.2 0-.2-.19V29.4c0-.18 0-.2.2-.2h2.76v-1.35h-1.42c-.09 0-.2 0-.2-.21v-.83zm.46 4.23c.24-.09.27-.09.35.11a12.67 12.67 0 01.79 2.66c0 .16 0 .23-.22.31l-.82.3c-.26.09-.29.06-.33-.14a12.78 12.78 0 00-.72-2.65c-.07-.18-.05-.23.2-.32zm3.44-5.17h1.57a13.19 13.19 0 01-2.3-2.39 14 14 0 01-2.05 2.39h1.26zM47.08 32a3.91 3.91 0 00.12-.67 10.8 10.8 0 011.35.54c.15.08.18.11.18.2a.19.19 0 01-.11.18 1 1 0 00-.27.42c-.14.43-.34 1-.54 1.42-.14.29-.21.43-.36.43a1.13 1.13 0 01-.41-.18 2.38 2.38 0 00-.68-.25 18.67 18.67 0 00.72-2.09zm4.73-7.44a21.83 21.83 0 00-.12-2.71c.68 0 1.38.05 2 .12.18 0 .28.09.28.18a.92.92 0 01-.1.36 7.61 7.61 0 00-.11 2v3.24h3.35c.09 0 .2 0 .2.19v1.46c0 .18 0 .2-.2.2h-3.37v8.61c0 .09 0 .2-.19.2H52c-.2 0-.21 0-.21-.2V29.5h-3.04c-.11 0-.2 0-.2-.2v-1.42c0-.18 0-.19.2-.19h3.04z" transform="translate(-9.5 -10.1)" id="テキスト"/></svg>