<svg xmlns="http://www.w3.org/2000/svg" viewBox="0 0 60 60"><defs><clipPath id="clip-path" transform="translate(-9.5 -10.1)"><path class="cls-1" d="M9.4 10v64.8L74.2 10H9.4z"/></clipPath><clipPath id="clip-path-2" transform="translate(-9.5 -10.1)"><path class="cls-1" d="M0 0v64.8L64.8 0H0z"/></clipPath><style>.cls-1{fill:none}.cls-6{fill:#fff}</style></defs><circle cx="30" cy="30" r="30" fill="#91b21f"/><g clip-path="url(#clip-path)" opacity=".15"><circle class="cls-6" cx="30" cy="30" r="30"/></g><g clip-path="url(#clip-path-2)" opacity=".15"><circle class="cls-6" cx="30" cy="30" r="30"/></g><path class="cls-6" d="M23.53 25.15a10.55 10.55 0 00.52-2.22 6.48 6.48 0 011.72 1.14.39.39 0 01.14.3.64.64 0 01-.15.4 3.93 3.93 0 00-.62 1.23c-.52 1.31-1 2.53-1.56 3.56a17.59 17.59 0 012 2.45.41.41 0 01.08.25.64.64 0 01-.06.24c-.28.46-.55.86-.84 1.27-.05.09-.11.13-.16.13s-.13-.05-.19-.16a17.89 17.89 0 00-1.8-2.38A20.81 20.81 0 0117.94 37a.53.53 0 01-.31.14.32.32 0 01-.26-.12 3.85 3.85 0 00-1.24-1 19.11 19.11 0 005.16-5.91 14.74 14.74 0 00-2.66-2.14c.39-.67.72-1.23.9-1.48a.18.18 0 01.14-.09.37.37 0 01.16.07 21.72 21.72 0 012.38 1.89 23.26 23.26 0 001.32-3.21zm6.93.39a16.18 16.18 0 00-.15-2.63 8.09 8.09 0 011.7.38.3.3 0 01.23.29.88.88 0 01-.06.27 5.45 5.45 0 00-.18 1.71v5.91c0 .27-.08.36-.3.36h-1.02c-.19 0-.28-.09-.26-.31v-2.45zm6.45 3.37c0 2.67-.31 4.45-1.11 5.87a7.5 7.5 0 01-3 2.83.79.79 0 01-.29.09c-.11 0-.21-.06-.33-.22a4.88 4.88 0 00-1.18-1.1 6.69 6.69 0 003.34-2.63 9.21 9.21 0 00.91-4.8v-3.41a16.55 16.55 0 00-.15-2.93 6.91 6.91 0 011.78.39.3.3 0 01.19.31.74.74 0 010 .29 7.22 7.22 0 00-.12 2zm5.01-1.3c.15-.09.25-.07.36.13a10.66 10.66 0 011.18 2.66v.27c0 .07 0 .17-.16.26a5.84 5.84 0 01-.88.56c-.19.09-.27 0-.34-.26a12.08 12.08 0 00-1.29-2.9c.52-.33.85-.54 1.13-.72zm7.52.24a.47.47 0 01.18.3.51.51 0 01-.16.33 2.77 2.77 0 00-.41.92A24.69 24.69 0 0147 34.19a13.16 13.16 0 01-2.82 3.47.54.54 0 01-.33.2.29.29 0 01-.22-.13 2.81 2.81 0 00-1.17-.73 13.72 13.72 0 003.28-3.75 20.62 20.62 0 001.85-4.34A7.86 7.86 0 0047.9 27a6 6 0 011.54.85zm-4.75-1.1c.15-.09.24-.07.35.14a11.93 11.93 0 011.06 2.63c.07.27 0 .36-.14.49a5.07 5.07 0 01-.94.56c-.15.07-.21 0-.28-.27a13.43 13.43 0 00-1.15-2.88c.55-.35.87-.54 1.1-.67zm11.46.81A17.11 17.11 0 0160.5 30a.37.37 0 01.15.47 11.29 11.29 0 01-.58 1.53c-.06.13-.11.2-.18.2a.19.19 0 01-.15-.09 14 14 0 00-3.6-2.3v7.52c0 .22 0 .28-.24.28a8.28 8.28 0 01-1.22 0c-.19 0-.26-.06-.26-.28 0-1.33.05-2.39.05-3.54V25a19.18 19.18 0 00-.13-2.67 8.5 8.5 0 011.71.29c.19.06.26.16.26.31a1.09 1.09 0 01-.11.41 5.9 5.9 0 00-.1 1.69z" transform="translate(-9.5 -10.1)" /></svg>