<svg id="_02.svg" data-name="02.svg" xmlns="http://www.w3.org/2000/svg" width="88" height="88" viewBox="0 0 88 88">
  <defs>
    <style>
      .cls-1 {
        fill: #ffac00;
      }

      .cls-2 {
        fill: #fff;
        fill-rule: evenodd;
      }
    </style>
  </defs>
  <circle class="cls-1" cx="44" cy="44" r="44"/>
  <path class="cls-2" d="M42.655,26.308a12.149,12.149,0,0,0-3.737,1.925,12.716,12.716,0,0,0-2.913,3.15,14.116,14.116,0,0,0-1.863,4.325l2.175,0.375q0.15,0.025.3,0.037c0.1,0.009.191,0.013,0.275,0.013a1.834,1.834,0,0,0,1.063-.3,2.1,2.1,0,0,0,.713-1.025A8.446,8.446,0,0,1,41.555,30.8a7.744,7.744,0,0,1,4.763-1.463,7.357,7.357,0,0,1,2.313.35,5.279,5.279,0,0,1,1.837,1.025,4.624,4.624,0,0,1,1.212,1.7,6.014,6.014,0,0,1,.438,2.375,9.917,9.917,0,0,1-.512,3.225,12.105,12.105,0,0,1-1.5,2.938,22.22,22.22,0,0,1-2.413,2.9q-1.425,1.463-3.25,3.087L31.493,58.508a3.112,3.112,0,0,0-1,1.85l-0.175,1.475h23.8l0.175-1.325q0.05-.35.1-0.775a6.128,6.128,0,0,0,.05-0.675,1.252,1.252,0,0,0-.35-0.925,1.354,1.354,0,0,0-1-.35H40.843a13.64,13.64,0,0,0-1.975.15,17.931,17.931,0,0,0-2.05.425l10.775-9.8q1.85-1.675,3.487-3.25a25.021,25.021,0,0,0,2.863-3.25,15.059,15.059,0,0,0,1.938-3.55,11.6,11.6,0,0,0,.712-4.15A8.976,8.976,0,0,0,55.88,30.7a7.808,7.808,0,0,0-1.988-2.738,8.677,8.677,0,0,0-3.037-1.712,12.076,12.076,0,0,0-3.838-.587A14.433,14.433,0,0,0,42.655,26.308Z"/>
</svg>
