<svg id="anshin02.svg" xmlns="http://www.w3.org/2000/svg" width="140" height="140" viewBox="0 0 140 140">
  <defs>
    <style>
      .cls-1 {
        fill: #8fc20a;
      }

      .cls-2 {
        fill: #fff;
        fill-rule: evenodd;
      }
    </style>
  </defs>
  <circle class="cls-1" cx="70" cy="70" r="68"/>
  <path id="安心" class="cls-2" d="M230.442,1038.26v4.68h4.607v-8.67H221.8v-3.13c0.72-.11,1.008-0.33,1.044-0.72l-5.652-.29v4.14h-13.03v8.67h4.392v-4.68h21.885Zm5.615,6.12H217.771c0.648-1.51,1.3-2.95,1.836-4.32a0.916,0.916,0,0,0,1.08-.54l-5.363-1c-0.72,1.83-1.548,3.85-2.448,5.86h-9.719v4.07h7.883c-1.3,2.81-2.591,5.44-3.707,7.49l4.571,1.19,0.468-.9c1.26,0.39,2.592.82,3.924,1.29a36.415,36.415,0,0,1-11.843,2.81,16.377,16.377,0,0,1,2.3,3.78c5.975-.79,10.834-2.23,14.542-4.68a65.174,65.174,0,0,1,9.719,4.71l3.419-3.6a70.109,70.109,0,0,0-9.467-4.28,19.937,19.937,0,0,0,4.068-7.49,1.157,1.157,0,0,0,.828-0.32h6.191v-4.07Zm-11.842,4.07a13.667,13.667,0,0,1-3.672,6.19c-2.232-.75-4.427-1.44-6.479-1.98,0.648-1.33,1.3-2.77,1.944-4.21h8.207Zm44.208-11.56a55.721,55.721,0,0,0-12.507-6.47l-2.849,3.44a51.159,51.159,0,0,1,12.433,6.96Zm-15.5,21.8c0,4.66,1.295,6.14,6.069,6.14h6.068c4.477,0,5.7-2.22,6.179-9.18a13.642,13.642,0,0,1-4.144-1.92c-0.259,5.85-.555,7.03-2.405,7.03H259.58c-1.777,0-2.036-.26-2.036-2.07v-16.73a0.943,0.943,0,0,0,1-.7l-5.625-.33v17.76Zm25.569-3.15a39.641,39.641,0,0,0-6.772-13.43l-4.07,2.04a40.809,40.809,0,0,1,6.328,13.65Zm-31.9,3.44c2.479-3.66,3.441-9.36,4-14.5l-4.366-.89c-0.481,4.96-1.554,9.81-3.775,13.03Z" transform="translate(-170 -997)"/>
</svg>
