<svg xmlns="http://www.w3.org/2000/svg" width="86" height="86"><path fill="#61c400" d="M0 0h86v86H0z"/><path d="M41.77 25.291a12.269 12.269 0 00-3.74 1.925 12.934 12.934 0 00-2.91 3.15 14.081 14.081 0 00-1.86 4.325l2.17.375a3.416 3.416 0 00.58.05 1.836 1.836 0 001.06-.3 2.082 2.082 0 00.71-1.025 8.463 8.463 0 012.89-4.012 7.755 7.755 0 014.76-1.463 7.386 7.386 0 012.32.35 5.264 5.264 0 011.83 1.025 4.7 4.7 0 011.22 1.7 6.042 6.042 0 01.43 2.375 9.954 9.954 0 01-.51 3.225 11.978 11.978 0 01-1.5 2.938 22.343 22.343 0 01-2.41 2.9c-.95.975-2.04 2-3.25 3.087L30.61 57.491a2.854 2.854 0 00-.7.913 2.8 2.8 0 00-.3.937l-.18 1.475h23.8l.18-1.325c.03-.233.06-.491.1-.775s.05-.508.05-.675a1.265 1.265 0 00-.35-.925 1.37 1.37 0 00-1-.35H39.96a13.711 13.711 0 00-1.98.15 18.451 18.451 0 00-2.05.425l10.78-9.8q1.845-1.674 3.49-3.25a25.332 25.332 0 002.86-3.25 15.483 15.483 0 001.94-3.55 11.708 11.708 0 00.71-4.15 9.058 9.058 0 00-.71-3.662 7.879 7.879 0 00-1.99-2.738 8.647 8.647 0 00-3.04-1.712 12.023 12.023 0 00-3.84-.588 14.463 14.463 0 00-4.36.65z" fill="#fff" fill-rule="evenodd"/></svg>