<svg xmlns="http://www.w3.org/2000/svg" width="86" height="86" viewBox="0 0 86 86">
  <defs>
    <style>
      .cls-1 {
        fill: #61c400;
      }

      .cls-2 {
        fill: #fff;
        fill-rule: evenodd;
      }
    </style>
  </defs>
  <rect class="cls-1" width="86" height="86"/>
  <path class="cls-2" d="M2202.77,289.291a12.269,12.269,0,0,0-3.74,1.925,12.934,12.934,0,0,0-2.91,3.15,14.081,14.081,0,0,0-1.86,4.325l2.17,0.375c0.1,0.017.2,0.03,0.3,0.038s0.19,0.012.28,0.012a1.836,1.836,0,0,0,1.06-.3,2.082,2.082,0,0,0,.71-1.025,8.463,8.463,0,0,1,2.89-4.012,7.755,7.755,0,0,1,4.76-1.463,7.386,7.386,0,0,1,2.32.35,5.264,5.264,0,0,1,1.83,1.025,4.7,4.7,0,0,1,1.22,1.7,6.042,6.042,0,0,1,.43,2.375,9.954,9.954,0,0,1-.51,3.225,11.978,11.978,0,0,1-1.5,2.938,22.343,22.343,0,0,1-2.41,2.9c-0.95.975-2.04,2-3.25,3.087l-12.95,11.575a2.854,2.854,0,0,0-.7.913,2.8,2.8,0,0,0-.3.937l-0.18,1.475h23.8l0.18-1.325c0.03-.233.06-0.491,0.1-0.775s0.05-.508.05-0.675a1.265,1.265,0,0,0-.35-0.925,1.37,1.37,0,0,0-1-.35h-12.25a13.711,13.711,0,0,0-1.98.15,18.451,18.451,0,0,0-2.05.425l10.78-9.8q1.845-1.674,3.49-3.25a25.332,25.332,0,0,0,2.86-3.25,15.483,15.483,0,0,0,1.94-3.55,11.708,11.708,0,0,0,.71-4.15,9.058,9.058,0,0,0-.71-3.662,7.879,7.879,0,0,0-1.99-2.738,8.647,8.647,0,0,0-3.04-1.712,12.023,12.023,0,0,0-3.84-.588A14.463,14.463,0,0,0,2202.77,289.291Z" transform="translate(-2161 -264)"/>
</svg>
