<svg xmlns="http://www.w3.org/2000/svg" width="86" height="86"><path fill="#61c400" d="M0 0h86v86H0z"/><path d="M42.33 25.291a12.164 12.164 0 00-3.72 1.925 12.554 12.554 0 00-2.91 3.15 14.1 14.1 0 00-1.87 4.325l2.2.375a2.4 2.4 0 00.27.038c.09.008.17.012.26.012a1.816 1.816 0 001.04-.3 2.147 2.147 0 00.71-1.025 8.713 8.713 0 012.9-4 8.454 8.454 0 017.1-1.148 5.014 5.014 0 011.82.991 4.374 4.374 0 011.2 1.67 5.827 5.827 0 01.43 2.333 6.558 6.558 0 01-2.33 5.309q-2.325 1.945-7.07 1.945l-.4 3.125a17.259 17.259 0 014.2.425 7.384 7.384 0 012.62 1.163 3.876 3.876 0 011.35 1.75 6.321 6.321 0 01.38 2.212 7.565 7.565 0 01-.58 2.9 7.744 7.744 0 01-1.66 2.55 8.236 8.236 0 01-2.69 1.825 8.985 8.985 0 01-3.65.7 9.242 9.242 0 01-2.77-.362 5.391 5.391 0 01-1.98-1.088 5.834 5.834 0 01-1.37-1.812 13.031 13.031 0 01-.95-2.538 1.072 1.072 0 00-.46-.6 1.6 1.6 0 00-.82-.2 2.979 2.979 0 00-1 .2l-2 .75a15.951 15.951 0 001.23 4.125 8.576 8.576 0 002.15 2.9 8.666 8.666 0 003.2 1.725 14.941 14.941 0 004.37.575 15.574 15.574 0 005.07-.825 13.045 13.045 0 004.23-2.362 11.308 11.308 0 002.9-3.7 10.736 10.736 0 001.08-4.863 7.357 7.357 0 00-1.54-4.737 8.679 8.679 0 00-4.59-2.813 13.946 13.946 0 003.04-1.187 8.22 8.22 0 002.33-1.863 8.107 8.107 0 001.48-2.637 10.616 10.616 0 00.53-3.488 8.015 8.015 0 00-.68-3.325 7.3 7.3 0 00-1.9-2.562 8.5 8.5 0 00-2.96-1.638 12.192 12.192 0 00-3.84-.575 14.351 14.351 0 00-4.35.65z" fill="#fff" fill-rule="evenodd"/></svg>