<svg xmlns="http://www.w3.org/2000/svg" width="86" height="86" viewBox="0 0 86 86">
  <defs>
    <style>
      .cls-1 {
        fill: #61c400;
      }

      .cls-2 {
        fill: #fff;
        fill-rule: evenodd;
      }
    </style>
  </defs>
  <rect class="cls-1" width="86" height="86"/>
  <path class="cls-2" d="M2203.33,406.291a12.164,12.164,0,0,0-3.72,1.925,12.554,12.554,0,0,0-2.91,3.15,14.1,14.1,0,0,0-1.87,4.325l2.2,0.375a2.4,2.4,0,0,0,.27.038c0.09,0.008.17,0.012,0.26,0.012a1.816,1.816,0,0,0,1.04-.3,2.147,2.147,0,0,0,.71-1.025,8.713,8.713,0,0,1,2.9-4,8.454,8.454,0,0,1,7.1-1.148,5.014,5.014,0,0,1,1.82.991,4.374,4.374,0,0,1,1.2,1.67,5.827,5.827,0,0,1,.43,2.333,6.558,6.558,0,0,1-2.33,5.309q-2.325,1.945-7.07,1.945l-0.4,3.125a17.259,17.259,0,0,1,4.2.425,7.384,7.384,0,0,1,2.62,1.163,3.876,3.876,0,0,1,1.35,1.75,6.321,6.321,0,0,1,.38,2.212,7.565,7.565,0,0,1-.58,2.9,7.744,7.744,0,0,1-1.66,2.55,8.236,8.236,0,0,1-2.69,1.825,8.985,8.985,0,0,1-3.65.7,9.242,9.242,0,0,1-2.77-.362,5.391,5.391,0,0,1-1.98-1.088,5.834,5.834,0,0,1-1.37-1.812,13.031,13.031,0,0,1-.95-2.538,1.072,1.072,0,0,0-.46-0.6,1.6,1.6,0,0,0-.82-0.2,2.979,2.979,0,0,0-1,.2l-2,.75a15.951,15.951,0,0,0,1.23,4.125,8.576,8.576,0,0,0,2.15,2.9,8.666,8.666,0,0,0,3.2,1.725,14.941,14.941,0,0,0,4.37.575,15.574,15.574,0,0,0,5.07-.825,13.045,13.045,0,0,0,4.23-2.362,11.308,11.308,0,0,0,2.9-3.7,10.736,10.736,0,0,0,1.08-4.863,7.357,7.357,0,0,0-1.54-4.737,8.679,8.679,0,0,0-4.59-2.813,13.946,13.946,0,0,0,3.04-1.187,8.22,8.22,0,0,0,2.33-1.863,8.107,8.107,0,0,0,1.48-2.637,10.616,10.616,0,0,0,.53-3.488,8.015,8.015,0,0,0-.68-3.325,7.3,7.3,0,0,0-1.9-2.562,8.5,8.5,0,0,0-2.96-1.638,12.192,12.192,0,0,0-3.84-.575A14.351,14.351,0,0,0,2203.33,406.291Z" transform="translate(-2161 -381)"/>
</svg>
