<svg xmlns="http://www.w3.org/2000/svg" width="86" height="86" viewBox="0 0 86 86">
  <defs>
    <style>
      .cls-1 {
        fill: #61c400;
      }

      .cls-2 {
        fill: #fff;
        fill-rule: evenodd;
      }
    </style>
  </defs>
  <rect class="cls-1" width="86" height="86"/>
  <path class="cls-2" d="M2214.81,523.991h-4.15l-20.28,23.2,0.15,2.175a0.959,0.959,0,0,0,.48.7,1.648,1.648,0,0,0,.92.275h15.75l-1.17,9.475h3.9l1.15-9.475h4.42a1.018,1.018,0,0,0,.77-0.275,1.21,1.21,0,0,0,.31-0.65l0.35-2.45h-5.43Zm-6.73,22.975h-12.95l15.38-17.775c-0.14.484-.25,0.955-0.35,1.413a9.4,9.4,0,0,0-.2,1.287Z" transform="translate(-2161 -499)"/>
</svg>
