<svg xmlns="http://www.w3.org/2000/svg" width="86" height="86"><path fill="#61c400" d="M0 0h86v86H0z"/><path d="M55.61 24.991h-16.9l-4.93 16.7 2.58.775a28.678 28.678 0 013.14-.662 18.384 18.384 0 012.68-.213 10.455 10.455 0 013.25.45 6.044 6.044 0 012.28 1.288 5.314 5.314 0 011.35 2 7.113 7.113 0 01.45 2.587 10.65 10.65 0 01-.69 3.913 8.623 8.623 0 01-4.92 4.987 10.125 10.125 0 01-3.82.7 9.275 9.275 0 01-2.86-.387 11.4 11.4 0 01-2.02-.85c-.56-.308-1.04-.591-1.43-.85a2 2 0 00-1.06-.388 1.59 1.59 0 00-1.23.6l-1.52 1.85a12.407 12.407 0 001.72 1.425 12.257 12.257 0 002.17 1.188 13.765 13.765 0 002.58.812 14.27 14.27 0 002.98.3 15.733 15.733 0 005.56-.987 14.016 14.016 0 004.61-2.788 13.094 13.094 0 003.14-4.362 13.594 13.594 0 001.16-5.713 10.3 10.3 0 00-.65-3.737 7.818 7.818 0 00-1.96-2.963A9.264 9.264 0 0048 38.7a13.451 13.451 0 00-4.59-.713 24.172 24.172 0 00-5.08.6l2.88-9.625h11.37a2.926 2.926 0 002.02-.587 2.468 2.468 0 00.76-1.488z" fill="#fff" fill-rule="evenodd"/></svg>