<svg xmlns="http://www.w3.org/2000/svg" width="86" height="86" viewBox="0 0 86 86">
  <defs>
    <style>
      .cls-1 {
        fill: #61c400;
      }

      .cls-2 {
        fill: #fff;
        fill-rule: evenodd;
      }
    </style>
  </defs>
  <rect class="cls-1" width="86" height="86"/>
  <path class="cls-2" d="M2216.61,640.991h-16.9l-4.93,16.7,2.58,0.775a28.678,28.678,0,0,1,3.14-.662,18.384,18.384,0,0,1,2.68-.213,10.455,10.455,0,0,1,3.25.45,6.044,6.044,0,0,1,2.28,1.288,5.314,5.314,0,0,1,1.35,2,7.113,7.113,0,0,1,.45,2.587,10.65,10.65,0,0,1-.69,3.913,8.623,8.623,0,0,1-4.92,4.987,10.125,10.125,0,0,1-3.82.7,9.275,9.275,0,0,1-2.86-.387,11.4,11.4,0,0,1-2.02-.85c-0.56-.308-1.04-0.591-1.43-0.85a2,2,0,0,0-1.06-.388,1.59,1.59,0,0,0-1.23.6l-1.52,1.85a12.407,12.407,0,0,0,1.72,1.425,12.257,12.257,0,0,0,2.17,1.188,13.765,13.765,0,0,0,2.58.812,14.27,14.27,0,0,0,2.98.3,15.733,15.733,0,0,0,5.56-.987,14.016,14.016,0,0,0,4.61-2.788,13.094,13.094,0,0,0,3.14-4.362,13.594,13.594,0,0,0,1.16-5.713,10.3,10.3,0,0,0-.65-3.737,7.818,7.818,0,0,0-1.96-2.963A9.264,9.264,0,0,0,2209,654.7a13.451,13.451,0,0,0-4.59-.713,24.172,24.172,0,0,0-5.08.6l2.88-9.625h11.37a2.926,2.926,0,0,0,2.02-.587,2.468,2.468,0,0,0,.76-1.488Z" transform="translate(-2161 -616)"/>
</svg>
