<svg xmlns="http://www.w3.org/2000/svg" width="86" height="86"><path fill="#61c400" d="M0 0h86v86H0z"/><path d="M42.2 39.429a12.009 12.009 0 00-3.02 1.412c.62-.733 1.31-1.525 2.08-2.375l12.3-13.425h-3.83a3.168 3.168 0 00-1.38.3 3.058 3.058 0 00-1.02.725L36.66 38.341a40.144 40.144 0 00-2.59 3.288 22.292 22.292 0 00-1.8 3.075 15.306 15.306 0 00-1.06 3 12.859 12.859 0 00-.35 3.037 12.426 12.426 0 00.71 4.3 9.253 9.253 0 002.06 3.3 9.161 9.161 0 003.28 2.125 11.953 11.953 0 004.37.75 14.678 14.678 0 005.47-1 13.681 13.681 0 004.36-2.75 12.6 12.6 0 003.95-9.275 9.862 9.862 0 00-.73-3.9 8.5 8.5 0 00-1.98-2.925 8.6 8.6 0 00-2.98-1.825 10.684 10.684 0 00-3.69-.625 11.56 11.56 0 00-3.48.513zm-6.6 8.137a8.671 8.671 0 011.83-2.762 8.8 8.8 0 012.83-1.888 9.2 9.2 0 013.62-.7 8.185 8.185 0 012.82.463 6.083 6.083 0 012.15 1.325 5.843 5.843 0 011.37 2.1 7.379 7.379 0 01.49 2.762 8.912 8.912 0 01-.68 3.5 8.423 8.423 0 01-1.88 2.775 8.735 8.735 0 01-2.88 1.838 9.74 9.74 0 01-3.64.662 7.661 7.661 0 01-2.85-.5 5.862 5.862 0 01-2.1-1.4 6.213 6.213 0 01-1.3-2.137 7.883 7.883 0 01-.45-2.713 8.351 8.351 0 01.67-3.325z" fill="#fff" fill-rule="evenodd"/></svg>