<svg xmlns="http://www.w3.org/2000/svg" width="86" height="86" viewBox="0 0 86 86">
  <defs>
    <style>
      .cls-1 {
        fill: #61c400;
      }

      .cls-2 {
        fill: #fff;
        fill-rule: evenodd;
      }
    </style>
  </defs>
  <rect class="cls-1" width="86" height="86"/>
  <path class="cls-2" d="M2203.2,773.429a12.009,12.009,0,0,0-3.02,1.412c0.62-.733,1.31-1.525,2.08-2.375l12.3-13.425h-3.83a3.168,3.168,0,0,0-1.38.3,3.058,3.058,0,0,0-1.02.725l-10.67,12.275a40.144,40.144,0,0,0-2.59,3.288,22.292,22.292,0,0,0-1.8,3.075,15.306,15.306,0,0,0-1.06,3,12.859,12.859,0,0,0-.35,3.037,12.426,12.426,0,0,0,.71,4.3,9.253,9.253,0,0,0,2.06,3.3,9.161,9.161,0,0,0,3.28,2.125,11.953,11.953,0,0,0,4.37.75,14.678,14.678,0,0,0,5.47-1,13.681,13.681,0,0,0,4.36-2.75,12.6,12.6,0,0,0,3.95-9.275,9.862,9.862,0,0,0-.73-3.9,8.5,8.5,0,0,0-1.98-2.925,8.6,8.6,0,0,0-2.98-1.825,10.684,10.684,0,0,0-3.69-.625A11.56,11.56,0,0,0,2203.2,773.429Zm-6.6,8.137a8.671,8.671,0,0,1,1.83-2.762,8.8,8.8,0,0,1,2.83-1.888,9.2,9.2,0,0,1,3.62-.7,8.185,8.185,0,0,1,2.82.463,6.083,6.083,0,0,1,2.15,1.325,5.843,5.843,0,0,1,1.37,2.1,7.379,7.379,0,0,1,.49,2.762,8.912,8.912,0,0,1-.68,3.5,8.423,8.423,0,0,1-1.88,2.775,8.735,8.735,0,0,1-2.88,1.838,9.74,9.74,0,0,1-3.64.662,7.661,7.661,0,0,1-2.85-.5,5.862,5.862,0,0,1-2.1-1.4,6.213,6.213,0,0,1-1.3-2.137,7.883,7.883,0,0,1-.45-2.713A8.351,8.351,0,0,1,2196.6,781.566Z" transform="translate(-2161 -734)"/>
</svg>
