<svg xmlns="http://www.w3.org/2000/svg" width="86" height="86" viewBox="0 0 86 86">
  <defs>
    <style>
      .cls-1 {
        fill: #61c400;
      }

      .cls-2 {
        fill: #fff;
        fill-rule: evenodd;
      }
    </style>
  </defs>
  <rect class="cls-1" width="86" height="86"/>
  <path class="cls-2" d="M2207.53,1029.43a12.428,12.428,0,0,0,4.24-2.28,10.522,10.522,0,0,0,2.8-3.58,10.693,10.693,0,0,0,1.01-4.73,7.443,7.443,0,0,0-1.55-4.85,8.73,8.73,0,0,0-4.45-2.8,10.034,10.034,0,0,0,5.09-3.5,9.277,9.277,0,0,0,1.74-5.65,8.107,8.107,0,0,0-.68-3.286,7.764,7.764,0,0,0-1.93-2.675,9.3,9.3,0,0,0-3.07-1.788,11.874,11.874,0,0,0-4.05-.65,13.975,13.975,0,0,0-4.82.8,11.582,11.582,0,0,0-3.79,2.213,10.236,10.236,0,0,0-2.49,3.325,9.539,9.539,0,0,0-.9,4.111,7.545,7.545,0,0,0,1.22,4.28,7.459,7.459,0,0,0,3.63,2.77,11.587,11.587,0,0,0-6.06,3.55,9.741,9.741,0,0,0-2.16,6.55,8.736,8.736,0,0,0,.77,3.69,8.128,8.128,0,0,0,2.2,2.84,10.33,10.33,0,0,0,3.44,1.81,14.982,14.982,0,0,0,4.49.64A17.449,17.449,0,0,0,2207.53,1029.43Zm-7.8-3.08a6.209,6.209,0,0,1-2.12-1.22,5.084,5.084,0,0,1-1.33-1.88,6.233,6.233,0,0,1-.45-2.41,8.1,8.1,0,0,1,.72-3.56,6.708,6.708,0,0,1,1.9-2.44,7.851,7.851,0,0,1,2.71-1.4,11.091,11.091,0,0,1,3.17-.45,9.541,9.541,0,0,1,2.57.34,6.22,6.22,0,0,1,2.18,1.05,5.082,5.082,0,0,1,1.52,1.84,6.107,6.107,0,0,1,.56,2.72,8.255,8.255,0,0,1-.6,3.2,6.9,6.9,0,0,1-1.73,2.48,8.229,8.229,0,0,1-2.7,1.6,10.274,10.274,0,0,1-3.52.57A8.5,8.5,0,0,1,2199.73,1026.35Zm2.32-17.27a5.171,5.171,0,0,1-1.83-1.23,4.674,4.674,0,0,1-1.04-1.76,6.885,6.885,0,0,1-.32-2.07,7.62,7.62,0,0,1,.49-2.75,6.191,6.191,0,0,1,1.43-2.254,7.083,7.083,0,0,1,2.34-1.512,8.464,8.464,0,0,1,3.19-.563,7.105,7.105,0,0,1,2.57.425,5.127,5.127,0,0,1,1.83,1.163,4.981,4.981,0,0,1,1.09,1.711,6.016,6.016,0,0,1,.36,2.1,8.693,8.693,0,0,1-.4,2.55,6.6,6.6,0,0,1-1.29,2.31,6.465,6.465,0,0,1-2.3,1.69,8.248,8.248,0,0,1-3.44.65A6.919,6.919,0,0,1,2202.05,1009.08Z" transform="translate(-2161 -969)"/>
</svg>
