<svg xmlns="http://www.w3.org/2000/svg" width="86" height="86"><path fill="#61c400" d="M0 0h86v86H0z"/><path d="M46.53 60.43a12.428 12.428 0 004.24-2.28 10.522 10.522 0 002.8-3.58 10.693 10.693 0 001.01-4.73 7.443 7.443 0 00-1.55-4.85 8.73 8.73 0 00-4.45-2.8 10.034 10.034 0 005.09-3.5 9.277 9.277 0 001.74-5.65 8.107 8.107 0 00-.68-3.286 7.764 7.764 0 00-1.93-2.675 9.3 9.3 0 00-3.07-1.788 11.874 11.874 0 00-4.05-.65 13.975 13.975 0 00-4.82.8 11.582 11.582 0 00-3.79 2.213 10.236 10.236 0 00-2.49 3.325 9.539 9.539 0 00-.9 4.111 7.545 7.545 0 001.22 4.28 7.459 7.459 0 003.63 2.77 11.587 11.587 0 00-6.06 3.55 9.741 9.741 0 00-2.16 6.55 8.736 8.736 0 00.77 3.69 8.128 8.128 0 002.2 2.84 10.33 10.33 0 003.44 1.81 14.982 14.982 0 004.49.64 17.449 17.449 0 005.32-.79zm-7.8-3.08a6.209 6.209 0 01-2.12-1.22 5.084 5.084 0 01-1.33-1.88 6.233 6.233 0 01-.45-2.41 8.1 8.1 0 01.72-3.56 6.708 6.708 0 011.9-2.44 7.851 7.851 0 012.71-1.4 11.091 11.091 0 013.17-.45 9.541 9.541 0 012.57.34 6.22 6.22 0 012.18 1.05 5.082 5.082 0 011.52 1.84 6.107 6.107 0 01.56 2.72 8.255 8.255 0 01-.6 3.2 6.9 6.9 0 01-1.73 2.48 8.229 8.229 0 01-2.7 1.6 10.274 10.274 0 01-3.52.57 8.5 8.5 0 01-2.88-.44zm2.32-17.27a5.171 5.171 0 01-1.83-1.23 4.674 4.674 0 01-1.04-1.76 6.885 6.885 0 01-.32-2.07 7.62 7.62 0 01.49-2.75 6.191 6.191 0 011.43-2.254 7.083 7.083 0 012.34-1.512 8.464 8.464 0 013.19-.563 7.105 7.105 0 012.57.425 5.127 5.127 0 011.83 1.163 4.981 4.981 0 011.09 1.711 6.016 6.016 0 01.36 2.1 8.693 8.693 0 01-.4 2.55 6.6 6.6 0 01-1.29 2.31 6.465 6.465 0 01-2.3 1.69 8.248 8.248 0 01-3.44.65 6.919 6.919 0 01-2.68-.46z" fill="#fff" fill-rule="evenodd"/></svg>