<svg xmlns="http://www.w3.org/2000/svg" width="86" height="86"><path fill="#61c400" d="M0 0h86v86H0z"/><path d="M44.15 45.5a11.552 11.552 0 003.33-1.71c-.33.44-.69.88-1.07 1.33s-.79.91-1.23 1.4l-12.62 14.3h3.95a3.11 3.11 0 001.35-.29 2.811 2.811 0 00.97-.74l10.33-12.65q1.35-1.65 2.4-3.12a23.955 23.955 0 001.79-2.95 13.794 13.794 0 001.48-6.4 11.258 11.258 0 00-.7-4.05 8.789 8.789 0 00-5.16-5.24 11.4 11.4 0 00-4.21-.74 13.9 13.9 0 00-5.23.98 13.234 13.234 0 00-4.21 2.66 12.3 12.3 0 00-2.81 3.97 11.824 11.824 0 00-1.03 4.92 9.73 9.73 0 00.69 3.76 7.98 7.98 0 004.71 4.56 10.053 10.053 0 003.5.6 11.94 11.94 0 003.77-.59zm5.98-7.78a7.942 7.942 0 01-1.71 2.6 8.15 8.15 0 01-2.69 1.78 8.918 8.918 0 01-3.55.67 6.36 6.36 0 01-4.66-1.63 6.058 6.058 0 01-1.66-4.55 8.712 8.712 0 01.64-3.39 7.843 7.843 0 014.42-4.38 8.814 8.814 0 013.36-.63 7.385 7.385 0 012.64.46A5.765 5.765 0 0150.27 32a7.21 7.21 0 01.46 2.64 8.123 8.123 0 01-.6 3.08z" fill="#fff" fill-rule="evenodd"/></svg>