<svg xmlns="http://www.w3.org/2000/svg" width="86" height="86" viewBox="0 0 86 86">
  <defs>
    <style>
      .cls-1 {
        fill: #61c400;
      }

      .cls-2 {
        fill: #fff;
        fill-rule: evenodd;
      }
    </style>
  </defs>
  <rect class="cls-1" width="86" height="86"/>
  <path class="cls-2" d="M2205.15,1131.5a11.552,11.552,0,0,0,3.33-1.71c-0.33.44-.69,0.88-1.07,1.33s-0.79.91-1.23,1.4l-12.62,14.3h3.95a3.11,3.11,0,0,0,1.35-.29,2.811,2.811,0,0,0,.97-0.74l10.33-12.65q1.35-1.65,2.4-3.12a23.955,23.955,0,0,0,1.79-2.95,13.794,13.794,0,0,0,1.48-6.4,11.258,11.258,0,0,0-.7-4.05,8.789,8.789,0,0,0-5.16-5.24,11.4,11.4,0,0,0-4.21-.74,13.9,13.9,0,0,0-5.23.98,13.234,13.234,0,0,0-4.21,2.66,12.3,12.3,0,0,0-2.81,3.97,11.824,11.824,0,0,0-1.03,4.92,9.73,9.73,0,0,0,.69,3.76,7.98,7.98,0,0,0,4.71,4.56,10.053,10.053,0,0,0,3.5.6A11.94,11.94,0,0,0,2205.15,1131.5Zm5.98-7.78a7.942,7.942,0,0,1-1.71,2.6,8.15,8.15,0,0,1-2.69,1.78,8.918,8.918,0,0,1-3.55.67,6.36,6.36,0,0,1-4.66-1.63,6.058,6.058,0,0,1-1.66-4.55,8.712,8.712,0,0,1,.64-3.39,7.843,7.843,0,0,1,4.42-4.38,8.814,8.814,0,0,1,3.36-.63,7.385,7.385,0,0,1,2.64.46,5.765,5.765,0,0,1,3.35,3.35,7.21,7.21,0,0,1,.46,2.64A8.123,8.123,0,0,1,2211.13,1123.72Z" transform="translate(-2161 -1086)"/>
</svg>
