<svg xmlns="http://www.w3.org/2000/svg" width="86" height="86" viewBox="0 0 86 86">
  <defs>
    <style>
      .cls-1 {
        fill: #61c400;
      }

      .cls-2 {
        fill: #fff;
        fill-rule: evenodd;
      }
    </style>
  </defs>
  <rect class="cls-1" width="86" height="86"/>
  <path class="cls-2" d="M2178.98,1264.82h19.13l0.4-3.3h-7.1l4-32.6h-3.5l-11.75,9.22,1.1,1.88a1.1,1.1,0,0,0,.42.36,1.394,1.394,0,0,0,.68.16,1.551,1.551,0,0,0,.95-0.35l7.32-5.72-0.45,1.92-3.07,25.13h-7.75Zm34.7-34.84a13.548,13.548,0,0,0-4.9,4.06,20.733,20.733,0,0,0-3.32,6.85,34.142,34.142,0,0,0-1.23,9.7,22.657,22.657,0,0,0,.81,6.41,13.541,13.541,0,0,0,2.25,4.55,9.314,9.314,0,0,0,3.44,2.73,10.47,10.47,0,0,0,4.4.91,13.333,13.333,0,0,0,10.83-5.4,20.692,20.692,0,0,0,3.32-6.86,34.264,34.264,0,0,0,1.23-9.71,22.184,22.184,0,0,0-.82-6.39,13.27,13.27,0,0,0-2.25-4.55,9.2,9.2,0,0,0-3.43-2.73,10.566,10.566,0,0,0-4.38-.91A13.667,13.667,0,0,0,2213.68,1229.98Zm-0.66,30.99a5.8,5.8,0,0,1-2.21-1.92,10.244,10.244,0,0,1-1.52-3.42,20.339,20.339,0,0,1-.56-5.11,34.956,34.956,0,0,1,.83-8.09,19.313,19.313,0,0,1,2.23-5.7,10.089,10.089,0,0,1,3.3-3.38,7.758,7.758,0,0,1,3.99-1.11,6.09,6.09,0,0,1,2.66.6,5.768,5.768,0,0,1,2.22,1.93,10.7,10.7,0,0,1,1.51,3.43,20.424,20.424,0,0,1,.56,5.12,34.907,34.907,0,0,1-.82,8.08,19.023,19.023,0,0,1-2.24,5.69,9.836,9.836,0,0,1-3.3,3.36,7.675,7.675,0,0,1-3.99,1.12A6.122,6.122,0,0,1,2213.02,1260.97Z" transform="translate(-2161 -1204)"/>
</svg>
