<svg xmlns="http://www.w3.org/2000/svg" width="86" height="86"><path fill="#61c400" d="M0 0h86v86H0z"/><path d="M17.98 60.82h19.13l.4-3.3h-7.1l4-32.6h-3.5l-11.75 9.22 1.1 1.88a1.1 1.1 0 00.42.36 1.394 1.394 0 00.68.16 1.551 1.551 0 00.95-.35l7.32-5.72-.45 1.92-3.07 25.13h-7.75zm34.7-34.84a13.548 13.548 0 00-4.9 4.06 20.733 20.733 0 00-3.32 6.85 34.142 34.142 0 00-1.23 9.7 22.657 22.657 0 00.81 6.41 13.541 13.541 0 002.25 4.55 9.314 9.314 0 003.44 2.73 10.47 10.47 0 004.4.91 13.333 13.333 0 0010.83-5.4 20.692 20.692 0 003.32-6.86 34.264 34.264 0 001.23-9.71 22.184 22.184 0 00-.82-6.39 13.27 13.27 0 00-2.25-4.55 9.2 9.2 0 00-3.43-2.73 10.566 10.566 0 00-4.38-.91 13.667 13.667 0 00-5.95 1.34zm-.66 30.99a5.8 5.8 0 01-2.21-1.92 10.244 10.244 0 01-1.52-3.42 20.339 20.339 0 01-.56-5.11 34.956 34.956 0 01.83-8.09 19.313 19.313 0 012.23-5.7 10.089 10.089 0 013.3-3.38 7.758 7.758 0 013.99-1.11 6.09 6.09 0 012.66.6 5.768 5.768 0 012.22 1.93 10.7 10.7 0 011.51 3.43 20.424 20.424 0 01.56 5.12 34.907 34.907 0 01-.82 8.08 19.023 19.023 0 01-2.24 5.69 9.836 9.836 0 01-3.3 3.36 7.675 7.675 0 01-3.99 1.12 6.122 6.122 0 01-2.66-.6z" fill="#fff" fill-rule="evenodd"/></svg>