<?xml version="1.0" standalone="no"?>
<!DOCTYPE svg PUBLIC "-//W3C//DTD SVG 20010904//EN"
 "http://www.w3.org/TR/2001/REC-SVG-20010904/DTD/svg10.dtd">
<svg version="1.0" xmlns="http://www.w3.org/2000/svg"
 width="64.000000pt" height="64.000000pt" viewBox="0 0 64.000000 64.000000"
 preserveAspectRatio="xMidYMid meet">
<metadata>
Created by potrace 1.10, written by Peter Selinger 2001-2011
</metadata>
<g transform="translate(0.000000,64.000000) scale(0.100000,-0.100000)"
fill="#fc0" stroke="none">
<path d="M93 625 c-12 -9 -25 -31 -29 -50 -4 -24 -12 -35 -24 -35 -10 0 -23
-7 -30 -15 -20 -24 3 -65 35 -65 14 0 25 5 25 11 0 6 -8 8 -19 4 -26 -8 -48
20 -31 40 17 21 37 19 72 -6 52 -38 104 -36 186 5 97 49 172 49 172 0 0 -18
-6 -24 -20 -24 -12 0 -20 6 -18 13 2 7 -1 14 -7 15 -19 5 -16 -27 3 -37 24
-13 64 12 60 37 -2 13 6 18 35 20 l38 3 -3 -38 c-2 -29 -7 -37 -20 -35 -25 4
-50 -36 -37 -60 10 -19 46 -22 38 -3 -2 5 -10 8 -17 7 -9 -2 -12 4 -10 15 4
22 37 30 49 11 19 -29 9 -89 -27 -160 -41 -82 -43 -134 -5 -186 25 -35 27 -55
6 -72 -20 -17 -48 5 -40 31 4 11 2 19 -4 19 -6 0 -11 -9 -11 -19 0 -22 25 -51
44 -51 17 0 36 21 36 40 0 11 13 20 37 26 64 16 85 96 32 125 -39 21 -79 -42
-45 -70 9 -8 16 -8 20 -2 4 5 -2 14 -11 20 -17 9 -17 11 0 28 13 14 21 15 35
7 43 -28 13 -94 -43 -94 -39 0 -60 24 -71 79 -5 26 2 50 36 122 42 88 43 92
32 141 -17 71 -15 117 4 125 24 9 49 -21 35 -43 -6 -11 -11 -13 -11 -6 0 14
-30 17 -30 2 0 -19 31 -23 48 -7 13 13 13 21 4 42 -7 14 -20 25 -31 25 -12 0
-21 8 -23 21 -4 30 -33 47 -55 33 -21 -13 -24 -45 -6 -51 7 -3 13 2 13 11 0 9
-6 16 -12 16 -7 0 -5 5 6 11 22 14 52 -11 43 -35 -8 -19 -54 -21 -125 -4 -49
11 -53 10 -140 -32 -73 -34 -97 -41 -124 -36 -54 10 -78 32 -78 71 0 56 66 86
94 43 8 -14 7 -22 -7 -35 -17 -17 -19 -17 -28 0 -6 9 -15 15 -20 11 -6 -4 -6
-11 2 -20 28 -34 91 6 70 44 -18 35 -62 42 -98 17z"/>
</g>
</svg>
