<svg xmlns="http://www.w3.org/2000/svg" viewBox="0 0 56 56"><defs><style>.cls-1{fill:#444;}.cls-2{fill:#fff;}</style></defs><title>merit</title><g id="レイヤー_2" data-name="レイヤー 2"><g id="四角"><rect class="cls-1" width="56" height="56"/></g><g id="テキスト"><path class="cls-2" d="M13,11.68a10.55,10.55,0,0,0,.52-2.22,6.47,6.47,0,0,1,1.72,1.13.42.42,0,0,1,.14.31.64.64,0,0,1-.15.4,4,4,0,0,0-.62,1.2c-.52,1.32-1,2.54-1.56,3.57a17.59,17.59,0,0,1,2,2.45.41.41,0,0,1,.08.25.56.56,0,0,1-.06.23c-.28.47-.55.87-.84,1.28,0,.09-.11.13-.16.13s-.13-.06-.19-.16a17.89,17.89,0,0,0-1.8-2.38,21,21,0,0,1-4.68,5.62.53.53,0,0,1-.31.14.35.35,0,0,1-.26-.12,4,4,0,0,0-1.24-1,19,19,0,0,0,5.16-5.9,14.74,14.74,0,0,0-2.66-2.14c.39-.67.72-1.23.9-1.48a.18.18,0,0,1,.14-.09.37.37,0,0,1,.16.07,20.58,20.58,0,0,1,2.38,1.89A24.35,24.35,0,0,0,13,11.68Z"/><path class="cls-2" d="M20,12.07a16.18,16.18,0,0,0-.15-2.63,8.09,8.09,0,0,1,1.7.38.3.3,0,0,1,.23.29.88.88,0,0,1-.06.27,5.45,5.45,0,0,0-.15,1.71v3.64c0,.93,0,1.64,0,2.27,0,.27-.08.36-.3.36H20.18c-.19,0-.28-.09-.26-.31,0-.63,0-1.67,0-2.45Zm6.45,3.37a11.69,11.69,0,0,1-1.11,5.87,7.41,7.41,0,0,1-3,2.82.64.64,0,0,1-.29.09c-.11,0-.21,0-.33-.21a4.69,4.69,0,0,0-1.16-1.1,6.69,6.69,0,0,0,3.34-2.63,9.23,9.23,0,0,0,.91-4.81v-3.4a16.55,16.55,0,0,0-.15-2.93,6.52,6.52,0,0,1,1.78.39.3.3,0,0,1,.19.31.74.74,0,0,1,0,.29,7.22,7.22,0,0,0-.12,2Z"/><path class="cls-2" d="M31.42,14.14c.15-.09.25-.07.36.13A10.66,10.66,0,0,1,33,16.93c0,.13,0,.2,0,.27s0,.17-.16.26A5.06,5.06,0,0,1,32,18c-.19.09-.27,0-.34-.25a12.08,12.08,0,0,0-1.29-2.9C30.81,14.52,31.14,14.32,31.42,14.14Zm7.52.24a.42.42,0,0,1,.18.3A.51.51,0,0,1,39,15a2.77,2.77,0,0,0-.41.92,24.32,24.32,0,0,1-2.06,4.78,13.05,13.05,0,0,1-2.82,3.48.54.54,0,0,1-.33.2.29.29,0,0,1-.22-.13A2.81,2.81,0,0,0,32,23.51a13.86,13.86,0,0,0,3.28-3.75,20.62,20.62,0,0,0,1.85-4.34,7.94,7.94,0,0,0,.31-1.91A6,6,0,0,1,38.94,14.38Zm-4.75-1.1c.15-.09.24-.07.35.14a11.93,11.93,0,0,1,1.06,2.63c.07.27,0,.36-.14.49a5.07,5.07,0,0,1-.94.55c-.15.08-.21,0-.28-.26a13.72,13.72,0,0,0-1.15-2.89C33.64,13.6,34,13.4,34.19,13.28Z"/><path class="cls-2" d="M45.65,14.09A16.81,16.81,0,0,1,50,16.54a.37.37,0,0,1,.15.47,11.29,11.29,0,0,1-.58,1.56c-.06.13-.11.2-.18.2a.19.19,0,0,1-.15-.09,14,14,0,0,0-3.6-2.3v4c0,1.17,0,2.24,0,3.53,0,.22,0,.27-.24.27a6.22,6.22,0,0,1-1.22,0c-.19,0-.26,0-.26-.27,0-1.33.05-2.39.05-3.54V11.48a19.18,19.18,0,0,0-.13-2.67,8.5,8.5,0,0,1,1.71.29.3.3,0,0,1,.26.31,1.14,1.14,0,0,1-.11.41,5.86,5.86,0,0,0-.1,1.69Z"/></g></g></svg>