<svg id="_10.svg" data-name="10.svg" xmlns="http://www.w3.org/2000/svg" width="57" height="57" viewBox="0 0 57 57">
  <defs>
    <style>
    .cls-1, .cls-2 {
        fill: #000;
    }

    .cls-2 {
      stroke: #fff;
      stroke-width: 1px;
      stroke-dasharray: 3 2;
    }

    .cls-3 {
      fill: #fff;
      fill-rule: evenodd;
    }
    </style>
  </defs>
  <circle class="cls-1" cx="28.5" cy="28.5" r="28.5"/>
  <circle class="cls-2" cx="28.438" cy="28.5" r="25.5"/>
  <path class="cls-3" d="M869.444,196.86h-1.632l-5.67,4.964,0.75,0.952,3.1-2.72-3.633,20.6h2.89Zm3.075,16.269a12.532,12.532,0,0,0,.77,3.927,6.852,6.852,0,0,0,1.992,2.873,5.159,5.159,0,0,0,3.427,1.1,7.044,7.044,0,0,0,3.849-1.1,11.4,11.4,0,0,0,3.057-2.873,17.081,17.081,0,0,0,2.171-3.927,22.038,22.038,0,0,0,1.235-4.3,20.3,20.3,0,0,0,.252-2.3,19.057,19.057,0,0,0-.037-2.686,14.071,14.071,0,0,0-.492-2.7,7.963,7.963,0,0,0-1.1-2.363A5.611,5.611,0,0,0,885.8,197.1a5.475,5.475,0,0,0-2.759-.646,6.75,6.75,0,0,0-2.97.646,9.121,9.121,0,0,0-2.4,1.683,12.574,12.574,0,0,0-1.9,2.363,20.763,20.763,0,0,0-1.429,2.7,22.666,22.666,0,0,0-.983,2.686,21.76,21.76,0,0,0-.558,2.3A19.716,19.716,0,0,0,872.519,213.129Zm4.472-8.007a17.679,17.679,0,0,1,1.25-3.519,8.908,8.908,0,0,1,1.873-2.618,3.745,3.745,0,0,1,2.664-1.037,2.757,2.757,0,0,1,2.368,1.037,5.586,5.586,0,0,1,.983,2.618,14.677,14.677,0,0,1,.008,3.519q-0.205,1.938-.517,3.706-0.306,1.734-.777,3.638a17.275,17.275,0,0,1-1.241,3.468,8.416,8.416,0,0,1-1.9,2.584,3.933,3.933,0,0,1-2.73,1.02,2.647,2.647,0,0,1-2.3-1.02,5.671,5.671,0,0,1-.956-2.584,14.331,14.331,0,0,1-.017-3.468q0.2-1.9.5-3.638Q876.514,207.061,876.991,205.122Z" transform="translate(-846 -180)"/>
</svg>
