<svg id="heading020.svg" xmlns="http://www.w3.org/2000/svg" width="64" height="46" viewBox="0 0 64 46">
  <defs>
    <style>
      .cls-1 {
        fill: #000;
      }

      .cls-1, .cls-2 {
        fill-rule: evenodd;
      }

      .cls-2 {
        fill: #fff;
      }
    </style>
  </defs>
  <path class="cls-1" d="M500.005,4463.69c0-10.32,14.325-18.68,31.994-18.68s32,8.36,32,18.68c0,8.83-10.492,16.22-24.592,18.17,1.148,3.31,3.062,7.2,6.067,9.15-5.789,0-11.5-4.6-15.41-8.67C513.294,4481.75,500.005,4473.63,500.005,4463.69Z" transform="translate(-500 -4445)"/>
  <path class="cls-2" d="M511.745,4459.66l3.006,7.22h0.108l2.916-7.22h0.846l-3.636,9h-1.08l-3.744-9h1.584Zm17.136,2.73a4.662,4.662,0,0,0-.927-1.51,4.548,4.548,0,0,0-3.375-1.42,4.737,4.737,0,0,0-1.953.39,4.5,4.5,0,0,0-1.476,1.03,4.791,4.791,0,0,0-.936,1.51,4.924,4.924,0,0,0,0,3.56,4.636,4.636,0,0,0,.936,1.5,4.378,4.378,0,0,0,1.476,1.04,5.055,5.055,0,0,0,3.87.01,4.4,4.4,0,0,0,1.458-1.03,4.514,4.514,0,0,0,.927-1.5A5.107,5.107,0,0,0,528.881,4462.39Zm-1.656,3.81a3.116,3.116,0,0,1-.7,1.22,2.181,2.181,0,0,1-.954.58,3.255,3.255,0,0,1-2.016,0,2.243,2.243,0,0,1-.963-0.58,3.132,3.132,0,0,1-.72-1.22,6.093,6.093,0,0,1-.279-2.02,6.181,6.181,0,0,1,.279-2.04,3.132,3.132,0,0,1,.72-1.22,2.243,2.243,0,0,1,.963-0.58,3.255,3.255,0,0,1,2.016,0,2.181,2.181,0,0,1,.954.58,3.116,3.116,0,0,1,.7,1.22,6.372,6.372,0,0,1,.27,2.04A6.281,6.281,0,0,1,527.225,4466.2Zm6.444-6.54v9h-1.53v-9h1.53Zm-1.476-3.53a0.972,0.972,0,0,1,1.656.69,0.929,0.929,0,0,1-.288.68,0.952,0.952,0,0,1-1.368,0A0.959,0.959,0,0,1,532.193,4456.13Zm10.773,11.57a4.551,4.551,0,0,0,1.251-.77l0.522,0.69a7.362,7.362,0,0,1-1.5.86,5.146,5.146,0,0,1-2.079.4,4.83,4.83,0,0,1-1.908-.37,4.372,4.372,0,0,1-1.449-1.01,4.459,4.459,0,0,1-.927-1.51,5.61,5.61,0,0,1-.027-3.68,4.073,4.073,0,0,1,.891-1.48,4.349,4.349,0,0,1,1.458-1,5.159,5.159,0,0,1,2-.37,7.452,7.452,0,0,1,1.125.1,4.067,4.067,0,0,1,1.1.36,3.246,3.246,0,0,1,.909.69,2.462,2.462,0,0,1,.576,1.07h-1.242a2.065,2.065,0,0,0-.81-1.07,2.489,2.489,0,0,0-1.44-.43,3.016,3.016,0,0,0-1.062.21,2.805,2.805,0,0,0-1.017.67,3.514,3.514,0,0,0-.765,1.22,5.843,5.843,0,0,0-.027,3.65,3.035,3.035,0,0,0,.747,1.17,2.737,2.737,0,0,0,1.071.64,4.044,4.044,0,0,0,1.251.2A3.739,3.739,0,0,0,542.966,4467.7Zm5.085-3.14a4.327,4.327,0,0,0,.323,1.8,3.011,3.011,0,0,0,.808,1.09,2.7,2.7,0,0,0,1.05.55,3.8,3.8,0,0,0,1.068.16,3.422,3.422,0,0,0,.817-0.1,3.657,3.657,0,0,0,.709-0.28,4.113,4.113,0,0,0,.673-0.45q0.332-.27.709-0.6l0.575,0.58a4.981,4.981,0,0,1-1.692,1.16,5.47,5.47,0,0,1-2.124.41,4.857,4.857,0,0,1-2.061-.41,4.1,4.1,0,0,1-1.44-1.08,4.549,4.549,0,0,1-.846-1.53,5.591,5.591,0,0,1-.279-1.75,5.458,5.458,0,0,1,.324-1.94,4.361,4.361,0,0,1,.9-1.46,3.863,3.863,0,0,1,1.35-.91,4.449,4.449,0,0,1,1.692-.32,4.706,4.706,0,0,1,1.638.29,3.825,3.825,0,0,1,1.359.86,4.127,4.127,0,0,1,.927,1.46,5.764,5.764,0,0,1,.342,2.09v0.38h-6.822Zm5.238-.72a4.7,4.7,0,0,0-.706-2.75,2.3,2.3,0,0,0-1.976-1,2.049,2.049,0,0,0-1.144.32,2.588,2.588,0,0,0-.795.83,4.056,4.056,0,0,0-.465,1.2,6.336,6.336,0,0,0-.152,1.4h5.238Z" transform="translate(-500 -4445)"/>
</svg>
