<svg xmlns="http://www.w3.org/2000/svg" xmlns:xlink="http://www.w3.org/1999/xlink" width="52.938" height="52.938" viewBox="0 0 52.938 52.938">
  <defs>
    <style>
      .cls-1 {
        fill: #60baff;
        fill-rule: evenodd;
      }

    </style>

  </defs>
  <g id="heading003_ico01_v2.svg" class="cls-1">
    <path class="cls-2" d="M151.536,303.183v0.2l-0.013-.014s0-.016-0.007-0.043a0.36,0.36,0,0,1-.007.043l-0.013.014v-0.2c-0.039-.28-0.105-0.778-0.105-0.8s-0.146-.694-0.267-1.261c-0.537-2.5-1.48-4.777-1.223-6.067,0.164-.819.96-1.43,1.483-0.742a1.1,1.1,0,0,1,.071.107c0.028,0.048.054,0.1,0.054,0.1a0.2,0.2,0,0,0,.007.052,0.166,0.166,0,0,0,.007-0.052s0.027-.05.055-0.1a1.1,1.1,0,0,1,.07-0.107c0.523-.688,1.32-0.077,1.483.742,0.257,1.29-.686,3.566-1.222,6.067-0.122.567-.267,1.252-0.267,1.261S151.575,302.9,151.536,303.183Zm-2.783-1.783a0.65,0.65,0,0,0-.137.017,0.675,0.675,0,0,0-.508.723,3.5,3.5,0,0,1-.589,2.18,2.748,2.748,0,0,1-2.214,1.453,1.385,1.385,0,0,1-.749-0.1,0.284,0.284,0,0,1-.031-0.041,2.246,2.246,0,0,1,.431-1.621c0.172-.235.369-0.479-0.208-0.312a5.011,5.011,0,0,1-1.264.2,3.143,3.143,0,0,1-2.648-1.191,0.818,0.818,0,0,1-.209-0.479c-0.031-.305.895-0.6,1.825-0.692l0.167-.016c0.331-.032.652-0.07-0.193-0.373a3.845,3.845,0,0,1-2.517-3.809,4.283,4.283,0,0,1,3.016-4.068,2.6,2.6,0,0,1,2.922.679,1.5,1.5,0,0,1,.266,1.389,0.822,0.822,0,0,1-1.229.625c-0.045-.039-0.112-0.072.009-0.128a0.662,0.662,0,0,0,.281-0.83,1.168,1.168,0,0,0-.67-0.487,1.959,1.959,0,0,0-1.587.439,2.333,2.333,0,0,0,.972,3.829,3.233,3.233,0,0,0,1.374.218,2.956,2.956,0,0,0,.429-0.052l0,0a3.028,3.028,0,0,0,1.2-.531,4.475,4.475,0,0,0,1.738-3.926c0-.05.007-0.1,0.01-0.141a3.326,3.326,0,0,1,1.441-2.461,2.561,2.561,0,0,1,2.829,0,3.322,3.322,0,0,1,1.44,2.461c0,0.044.007,0.091,0.011,0.141a4.639,4.639,0,0,0,.434,2.332,4.506,4.506,0,0,0,1.3,1.594,3.01,3.01,0,0,0,1.64.585,3.233,3.233,0,0,0,1.374-.218,2.333,2.333,0,0,0,.972-3.829,1.959,1.959,0,0,0-1.587-.439,1.168,1.168,0,0,0-.67.487,0.662,0.662,0,0,0,.281.83c0.121,0.056.054,0.089,0.009,0.128a0.822,0.822,0,0,1-1.229-.625,1.5,1.5,0,0,1,.266-1.389,2.6,2.6,0,0,1,2.922-.679,4.283,4.283,0,0,1,3.016,4.068,3.845,3.845,0,0,1-2.517,3.809c-0.845.3-.524,0.341-0.193,0.373l0.167,0.016c0.93,0.089,1.856.387,1.825,0.692a0.818,0.818,0,0,1-.209.479,3.143,3.143,0,0,1-2.648,1.191,5.011,5.011,0,0,1-1.264-.2c-0.577-.167-0.38.077-0.208,0.312a2.246,2.246,0,0,1,.431,1.621,0.284,0.284,0,0,1-.031.041,1.383,1.383,0,0,1-.749.1,2.748,2.748,0,0,1-2.214-1.453,3.493,3.493,0,0,1-.588-2.18,0.677,0.677,0,0,0-.509-0.723,0.626,0.626,0,0,0-.477.079,0.679,0.679,0,0,0-.3.437,1.922,1.922,0,0,0,.736,1.989l0.2,0.163a3.674,3.674,0,0,1,1.5,2.653l0.021,0.974-0.405.06a2.029,2.029,0,0,1-1.568-.629c-0.252-.22-0.335-0.171-0.262.169a5,5,0,0,1,.323,1.482,3.714,3.714,0,0,1-.286,1.8c-0.277.668-.5,1.061-0.748,1.539a13.765,13.765,0,0,0-1.448,3.37l-0.032.266c-0.008.061-.073,0.338-0.147,0.091-0.074.247-.139-0.03-0.147-0.091l-0.032-.266a13.765,13.765,0,0,0-1.448-3.37c-0.244-.478-0.471-0.871-0.748-1.539a3.726,3.726,0,0,1-.286-1.8,5.033,5.033,0,0,1,.323-1.482c0.073-.34-0.009-0.389-0.261-0.169a2.032,2.032,0,0,1-1.569.629l-0.4-.06,0.02-.974a3.677,3.677,0,0,1,1.5-2.653l0.2-.163a1.92,1.92,0,0,0,.736-1.989A0.66,0.66,0,0,0,148.753,301.4Z" transform="translate(-125.031 -263.031)"/>
    <path class="cls-2" d="M151.536,275.818v-0.2l-0.013.014s0,0.016-.007.043a0.36,0.36,0,0,0-.007-0.043l-0.013-.014v0.2c-0.039.279-.105,0.778-0.105,0.8s-0.146.694-.267,1.261c-0.537,2.5-1.48,4.777-1.223,6.067,0.164,0.818.96,1.429,1.483,0.741a1.085,1.085,0,0,0,.071-0.106c0.028-.048.054-0.095,0.054-0.1a0.212,0.212,0,0,1,.007-0.053,0.174,0.174,0,0,1,.007.053s0.027,0.05.055,0.1a1.081,1.081,0,0,0,.07.106c0.523,0.688,1.32.077,1.483-.741,0.257-1.29-.686-3.566-1.222-6.067-0.122-.567-0.267-1.251-0.267-1.261S151.575,276.1,151.536,275.818Zm-2.783,1.782a0.589,0.589,0,0,1-.137-0.016,0.676,0.676,0,0,1-.508-0.723,3.5,3.5,0,0,0-.589-2.18,2.756,2.756,0,0,0-2.214-1.454,1.4,1.4,0,0,0-.749.1,0.284,0.284,0,0,0-.031.041,2.247,2.247,0,0,0,.431,1.621c0.172,0.235.369,0.479-.208,0.312a5.011,5.011,0,0,0-1.264-.2,3.142,3.142,0,0,0-2.648,1.19,0.824,0.824,0,0,0-.209.479c-0.031.306,0.895,0.6,1.825,0.693l0.167,0.016c0.331,0.031.652,0.07-.193,0.373a3.844,3.844,0,0,0-2.517,3.809,4.283,4.283,0,0,0,3.016,4.068,2.6,2.6,0,0,0,2.922-.68,1.5,1.5,0,0,0,.266-1.389,0.823,0.823,0,0,0-1.229-.625c-0.045.04-.112,0.072,0.009,0.128a0.663,0.663,0,0,1,.281.831,1.172,1.172,0,0,1-.67.487,1.959,1.959,0,0,1-1.587-.439,2.333,2.333,0,0,1,.972-3.829,3.2,3.2,0,0,1,1.374-.218,2.954,2.954,0,0,1,.429.051l0,0a3.044,3.044,0,0,1,1.2.532,4.473,4.473,0,0,1,1.738,3.925c0,0.051.007,0.1,0.01,0.141a3.322,3.322,0,0,0,1.441,2.461,2.556,2.556,0,0,0,2.829,0,3.318,3.318,0,0,0,1.44-2.461c0-.043.007-0.09,0.011-0.141a4.643,4.643,0,0,1,.434-2.332,4.494,4.494,0,0,1,1.3-1.593,3,3,0,0,1,1.64-.585,3.2,3.2,0,0,1,1.374.218,2.333,2.333,0,0,1,.972,3.829,1.959,1.959,0,0,1-1.587.439,1.172,1.172,0,0,1-.67-0.487,0.663,0.663,0,0,1,.281-0.831c0.121-.056.054-0.088,0.009-0.128a0.823,0.823,0,0,0-1.229.625,1.5,1.5,0,0,0,.266,1.389,2.6,2.6,0,0,0,2.922.68,4.283,4.283,0,0,0,3.016-4.068,3.844,3.844,0,0,0-2.517-3.809c-0.845-.3-0.524-0.342-0.193-0.373l0.167-.016c0.93-.089,1.856-0.387,1.825-0.693a0.824,0.824,0,0,0-.209-0.479,3.142,3.142,0,0,0-2.648-1.19,5.011,5.011,0,0,0-1.264.2c-0.577.167-.38-0.077-0.208-0.312a2.247,2.247,0,0,0,.431-1.621,0.284,0.284,0,0,0-.031-0.041,1.393,1.393,0,0,0-.749-0.1,2.756,2.756,0,0,0-2.214,1.454,3.492,3.492,0,0,0-.588,2.18,0.677,0.677,0,0,1-.509.723,0.63,0.63,0,0,1-.477-0.079,0.681,0.681,0,0,1-.3-0.438,1.924,1.924,0,0,1,.736-1.989c0.07-.055.148-0.117,0.2-0.162a3.676,3.676,0,0,0,1.5-2.654l0.021-.973-0.405-.061a2.034,2.034,0,0,0-1.568.63c-0.252.22-.335,0.171-0.262-0.17a5,5,0,0,0,.323-1.481,3.714,3.714,0,0,0-.286-1.8c-0.277-.668-0.5-1.062-0.748-1.539a13.765,13.765,0,0,1-1.448-3.37l-0.032-.265c-0.008-.062-0.073-0.339-0.147-0.092-0.074-.247-0.139.03-0.147,0.092l-0.032.265a13.765,13.765,0,0,1-1.448,3.37c-0.244.477-.471,0.871-0.748,1.539a3.726,3.726,0,0,0-.286,1.8,5.026,5.026,0,0,0,.323,1.481c0.073,0.341-.009.39-0.261,0.17a2.037,2.037,0,0,0-1.569-.63l-0.4.061,0.02,0.973a3.679,3.679,0,0,0,1.5,2.654c0.055,0.045.133,0.107,0.2,0.162a1.922,1.922,0,0,1,.736,1.989A0.66,0.66,0,0,1,148.753,277.6Z" transform="translate(-125.031 -263.031)"/>
    <path class="cls-2" d="M165.183,289.464h0.2l-0.013.013-0.044.007,0.044,0.007,0.013,0.013h-0.2c-0.279.039-.778,0.106-0.8,0.106s-0.693.145-1.26,0.266c-2.5.537-4.777,1.48-6.068,1.223-0.818-.163-1.429-0.96-0.741-1.483a1.024,1.024,0,0,1,.106-0.07c0.048-.028.095-0.055,0.1-0.055a0.027,0.027,0,1,0,0-.014s-0.05-.026-0.1-0.054a1.221,1.221,0,0,1-.106-0.071c-0.688-.523-0.077-1.32.741-1.483,1.291-.257,3.566.687,6.068,1.223,0.567,0.121,1.251.267,1.26,0.267S164.9,289.426,165.183,289.464Zm-1.783,2.783a0.64,0.64,0,0,0,.016.137,0.676,0.676,0,0,0,.723.509,3.5,3.5,0,0,1,2.181.588,2.754,2.754,0,0,1,1.453,2.215,1.394,1.394,0,0,1-.1.749,0.311,0.311,0,0,1-.041.03,2.244,2.244,0,0,1-1.621-.43c-0.235-.173-0.48-0.369-0.313.207a4.937,4.937,0,0,1,.2,1.264,3.141,3.141,0,0,1-1.19,2.649,0.831,0.831,0,0,1-.479.209c-0.305.03-.6-0.9-0.692-1.826-0.006-.055-0.011-0.111-0.016-0.167-0.032-.331-0.07-0.652-0.374.193a3.843,3.843,0,0,1-3.808,2.517,4.281,4.281,0,0,1-4.068-3.015,2.6,2.6,0,0,1,.679-2.922,1.491,1.491,0,0,1,1.389-.266,0.822,0.822,0,0,1,.625,1.229c-0.039.044-.072,0.112-0.128-0.009a0.664,0.664,0,0,0-.831-0.282,1.175,1.175,0,0,0-.487.67,1.955,1.955,0,0,0,.44,1.587,2.332,2.332,0,0,0,3.828-.972,3.2,3.2,0,0,0,.218-1.374,2.837,2.837,0,0,0-.051-0.429l0,0a3.026,3.026,0,0,0-.532-1.2,4.468,4.468,0,0,0-3.925-1.738l-0.141-.011a3.323,3.323,0,0,1-2.461-1.44,2.556,2.556,0,0,1,0-2.829,3.32,3.32,0,0,1,2.461-1.44l0.141-.011a4.65,4.65,0,0,0,2.332-.435,4.473,4.473,0,0,0,1.593-1.3,2.989,2.989,0,0,0,.585-1.64,3.2,3.2,0,0,0-.218-1.373,2.332,2.332,0,0,0-3.828-.973,1.957,1.957,0,0,0-.44,1.587,1.177,1.177,0,0,0,.487.671,0.664,0.664,0,0,0,.831-0.281c0.056-.122.089-0.055,0.128-0.01a0.822,0.822,0,0,1-.625,1.229,1.5,1.5,0,0,1-1.389-.266,2.6,2.6,0,0,1-.679-2.921,4.281,4.281,0,0,1,4.068-3.016,3.843,3.843,0,0,1,3.808,2.517c0.3,0.845.342,0.524,0.374,0.193,0-.057.01-0.112,0.016-0.168,0.089-.93.387-1.856,0.692-1.825a0.825,0.825,0,0,1,.479.209,3.139,3.139,0,0,1,1.19,2.648,4.937,4.937,0,0,1-.2,1.265c-0.167.576,0.078,0.38,0.313,0.207a2.244,2.244,0,0,1,1.621-.43,0.311,0.311,0,0,1,.041.03,1.394,1.394,0,0,1,.1.749,2.754,2.754,0,0,1-1.453,2.215,3.494,3.494,0,0,1-2.181.588,0.675,0.675,0,0,0-.723.509,0.629,0.629,0,0,0,.08.476,0.677,0.677,0,0,0,.437.3,1.923,1.923,0,0,0,1.989-.737c0.055-.07.118-0.148,0.162-0.2a3.679,3.679,0,0,1,2.654-1.5l0.973-.022,0.061,0.405a2.036,2.036,0,0,1-.629,1.569c-0.221.252-.172,0.334,0.169,0.262a5,5,0,0,1,1.481-.324,3.744,3.744,0,0,1,1.8.286c0.668,0.278,1.061.5,1.538,0.748a13.862,13.862,0,0,0,3.37,1.449l0.266,0.032c0.062,0.007.339,0.072,0.092,0.146,0.247,0.074-.03.14-0.092,0.147l-0.266.032a13.814,13.814,0,0,0-3.37,1.449c-0.477.244-.87,0.47-1.538,0.747a3.72,3.72,0,0,1-1.8.286,4.971,4.971,0,0,1-1.481-.323c-0.341-.073-0.39.01-0.169,0.262a2.033,2.033,0,0,1,.629,1.568l-0.061.4-0.973-.02a3.677,3.677,0,0,1-2.654-1.5c-0.044-.054-0.107-0.132-0.162-0.2a1.921,1.921,0,0,0-1.989-.736A0.661,0.661,0,0,0,163.4,292.247Z" transform="translate(-125.031 -263.031)"/>
    <path class="cls-2" d="M137.817,289.464h-0.2l0.013,0.013,0.044,0.007-0.044.007-0.013.013h0.2c0.28,0.039.778,0.106,0.8,0.106s0.693,0.145,1.26.266c2.5,0.537,4.778,1.48,6.068,1.223,0.818-.163,1.429-0.96.741-1.483a1.024,1.024,0,0,0-.106-0.07c-0.048-.028-0.095-0.055-0.1-0.055a0.026,0.026,0,1,1,0-.014,1.063,1.063,0,0,0,.1-0.054,1.221,1.221,0,0,0,.106-0.071c0.688-.523.077-1.32-0.741-1.483-1.29-.257-3.566.687-6.068,1.223-0.567.121-1.251,0.267-1.26,0.267S138.1,289.426,137.817,289.464Zm1.783,2.783a0.64,0.64,0,0,1-.016.137,0.676,0.676,0,0,1-.723.509,3.5,3.5,0,0,0-2.181.588,2.754,2.754,0,0,0-1.453,2.215,1.394,1.394,0,0,0,.1.749,0.311,0.311,0,0,0,.041.03,2.248,2.248,0,0,0,1.622-.43c0.234-.173.479-0.369,0.312,0.207a4.937,4.937,0,0,0-.2,1.264,3.141,3.141,0,0,0,1.19,2.649,0.831,0.831,0,0,0,.479.209c0.305,0.03.6-.9,0.692-1.826,0.006-.055.011-0.111,0.016-0.167,0.032-.331.07-0.652,0.374,0.193a3.843,3.843,0,0,0,3.809,2.517,4.281,4.281,0,0,0,4.067-3.015,2.6,2.6,0,0,0-.679-2.922,1.491,1.491,0,0,0-1.389-.266,0.822,0.822,0,0,0-.625,1.229c0.04,0.044.072,0.112,0.128-.009a0.663,0.663,0,0,1,.83-0.282,1.173,1.173,0,0,1,.488.67,1.955,1.955,0,0,1-.44,1.587,2.332,2.332,0,0,1-3.828-.972,3.2,3.2,0,0,1-.218-1.374,2.837,2.837,0,0,1,.051-0.429l0,0a3.026,3.026,0,0,1,.532-1.2,4.468,4.468,0,0,1,3.925-1.738l0.141-.011a3.323,3.323,0,0,0,2.461-1.44,2.556,2.556,0,0,0,0-2.829,3.32,3.32,0,0,0-2.461-1.44l-0.141-.011a4.65,4.65,0,0,1-2.332-.435,4.473,4.473,0,0,1-1.593-1.3,2.989,2.989,0,0,1-.585-1.64,3.2,3.2,0,0,1,.218-1.373,2.332,2.332,0,0,1,3.828-.973,1.957,1.957,0,0,1,.44,1.587,1.175,1.175,0,0,1-.488.671,0.663,0.663,0,0,1-.83-0.281c-0.056-.122-0.088-0.055-0.128-0.01a0.822,0.822,0,0,0,.625,1.229,1.5,1.5,0,0,0,1.389-.266,2.6,2.6,0,0,0,.679-2.921,4.28,4.28,0,0,0-4.067-3.016,3.843,3.843,0,0,0-3.809,2.517c-0.3.845-.342,0.524-0.374,0.193,0-.057-0.01-0.112-0.016-0.168-0.089-.93-0.387-1.856-0.692-1.825a0.825,0.825,0,0,0-.479.209,3.139,3.139,0,0,0-1.19,2.648,4.937,4.937,0,0,0,.2,1.265c0.167,0.576-.078.38-0.312,0.207a2.248,2.248,0,0,0-1.622-.43,0.311,0.311,0,0,0-.041.03,1.394,1.394,0,0,0-.1.749,2.754,2.754,0,0,0,1.453,2.215,3.494,3.494,0,0,0,2.181.588,0.675,0.675,0,0,1,.723.509,0.629,0.629,0,0,1-.08.476,0.677,0.677,0,0,1-.437.3,1.923,1.923,0,0,1-1.989-.737c-0.055-.07-0.118-0.148-0.162-0.2a3.677,3.677,0,0,0-2.654-1.5l-0.973-.022-0.061.405a2.034,2.034,0,0,0,.63,1.569c0.219,0.252.171,0.334-.17,0.262a5,5,0,0,0-1.481-.324,3.744,3.744,0,0,0-1.8.286c-0.668.278-1.061,0.5-1.538,0.748a13.862,13.862,0,0,1-3.37,1.449l-0.266.032c-0.062.007-.338,0.072-0.092,0.146-0.246.074,0.03,0.14,0.092,0.147l0.266,0.032a13.814,13.814,0,0,1,3.37,1.449c0.477,0.244.87,0.47,1.538,0.747a3.72,3.72,0,0,0,1.8.286,4.964,4.964,0,0,0,1.481-.323c0.341-.073.389,0.01,0.17,0.262a2.031,2.031,0,0,0-.63,1.568l0.061,0.4,0.973-.02a3.676,3.676,0,0,0,2.654-1.5c0.044-.054.107-0.132,0.162-0.2a1.921,1.921,0,0,1,1.989-.736A0.661,0.661,0,0,1,139.6,292.247Z" transform="translate(-125.031 -263.031)"/>
  </g>
</svg>
